G75*
%MOIN*%
%OFA0B0*%
%FSLAX25Y25*%
%IPPOS*%
%LPD*%
%AMOC8*
5,1,8,0,0,1.08239X$1,22.5*
%
%ADD10C,0.07296*%
%ADD11OC8,0.08200*%
%ADD12OC8,0.06000*%
D10*
X0023825Y0012255D03*
X0023825Y0024066D03*
X0023825Y0057530D03*
X0023857Y0080939D03*
X0023857Y0092750D03*
X0023857Y0126214D03*
X0023896Y0142461D03*
X0023896Y0154272D03*
X0023896Y0187736D03*
X0023896Y0208293D03*
X0023896Y0220104D03*
X0023896Y0253569D03*
X0023900Y0274265D03*
X0023900Y0286076D03*
X0023900Y0319541D03*
X0023781Y0339199D03*
X0023781Y0351010D03*
X0023781Y0384475D03*
X0062220Y0384475D03*
X0062220Y0351010D03*
X0062220Y0339199D03*
X0062213Y0319522D03*
X0062213Y0286058D03*
X0062213Y0274247D03*
X0062361Y0253569D03*
X0062361Y0220104D03*
X0062361Y0208293D03*
X0062308Y0187856D03*
X0062308Y0154392D03*
X0062308Y0142580D03*
X0062219Y0126214D03*
X0062219Y0092750D03*
X0062219Y0080939D03*
X0062377Y0057559D03*
X0062377Y0024094D03*
X0062377Y0012283D03*
D11*
X0062840Y0413537D03*
X0062840Y0423537D03*
X0052840Y0423537D03*
X0052840Y0413537D03*
X0042840Y0413537D03*
X0042840Y0423537D03*
X0032840Y0423537D03*
X0032840Y0413537D03*
X0022840Y0413537D03*
X0022840Y0423537D03*
D12*
X0038581Y0398218D03*
X0048581Y0398218D03*
X0048107Y0333350D03*
X0038107Y0333350D03*
X0038581Y0267652D03*
X0048581Y0267652D03*
X0048344Y0202226D03*
X0038344Y0202226D03*
X0038443Y0140297D03*
X0048443Y0140297D03*
X0048053Y0071085D03*
X0038053Y0071085D03*
M02*
