%
M48
M72
T01C0.0157
T02C0.0197
T03C0.0236
T04C0.0320
T05C0.0400
T06C0.0433
%
T01
X2719Y6656
X4396Y6530
X4569Y4254
X4569Y3546
X5325Y2451
X3861Y16499
X4373Y22680
X4215Y25357
X4845Y25357
X5357Y25357
X5554Y19884
X7010Y21577
X4676Y31428
X4845Y34845
X4569Y36144
X3940Y36853
X3979Y37758
X3506Y35081
X3585Y24688
X1617Y21774
T02
X1171Y2168
T03
X7010Y34373
X7436Y38782
X1617Y34688
X1171Y38861
T04
X3858Y39822
X4858Y39822
X4811Y33335
X3811Y33335
X3858Y26765
X4858Y26765
X4834Y20223
X3834Y20223
X3844Y14030
X4844Y14030
X4805Y7108
X3805Y7108
T05
X4284Y41354
X4284Y42354
X3284Y42354
X3284Y41354
X2284Y41354
X2284Y42354
X5284Y42354
X5284Y41354
X6284Y41354
X6284Y42354
T06
X6222Y38447
X6222Y35101
X6222Y33920
X6221Y31952
X6221Y28606
X6221Y27425
X6236Y25357
X6236Y22010
X6236Y20829
X6231Y18786
X6231Y15439
X6231Y14258
X6222Y12621
X6222Y9275
X6222Y8094
X6238Y5756
X6238Y2409
X6238Y1228
X2383Y1225
X2383Y2407
X2383Y5753
X2386Y8094
X2386Y9275
X2386Y12621
X2390Y14246
X2390Y15427
X2390Y18774
X2390Y20829
X2390Y22010
X2390Y25357
X2390Y27427
X2390Y28608
X2390Y31954
X2378Y33920
X2378Y35101
X2378Y38447
M30
