G75*
%MOIN*%
%OFA0B0*%
%FSLAX25Y25*%
%IPPOS*%
%LPD*%
%AMOC8*
5,1,8,0,0,1.08239X$1,22.5*
%
%ADD10C,0.00394*%
%ADD11C,0.00300*%
%ADD12C,0.00200*%
%ADD13R,0.03324X0.03002*%
%ADD14R,0.03324X0.03002*%
%ADD15C,0.01000*%
%ADD16R,0.05906X0.03543*%
%ADD17C,0.00600*%
%ADD18C,0.11024*%
%ADD19C,0.00400*%
%ADD20C,0.00800*%
%ADD21R,0.02000X0.02000*%
%ADD22C,0.00100*%
D10*
X0005537Y0005537D02*
X0005537Y0432702D01*
X0080537Y0432702D01*
X0080537Y0005537D01*
X0005537Y0005537D01*
X0027626Y0086421D02*
X0028513Y0086421D01*
X0028573Y0086585D01*
X0028602Y0090577D01*
X0028613Y0091021D01*
X0028625Y0091242D01*
X0028656Y0091462D01*
X0028737Y0091668D01*
X0028860Y0091851D01*
X0029024Y0092000D01*
X0029219Y0092104D01*
X0029432Y0092164D01*
X0029653Y0092185D01*
X0029874Y0092177D01*
X0030094Y0092145D01*
X0030310Y0092095D01*
X0030522Y0092031D01*
X0030731Y0091956D01*
X0030936Y0091871D01*
X0031137Y0091777D01*
X0031532Y0091576D01*
X0031681Y0091445D01*
X0031681Y0086565D01*
X0031759Y0086421D01*
X0032647Y0086421D01*
X0032695Y0086595D01*
X0032697Y0090144D01*
X0032706Y0090810D01*
X0032714Y0091031D01*
X0032731Y0091252D01*
X0032777Y0091469D01*
X0032862Y0091674D01*
X0032984Y0091859D01*
X0033146Y0092009D01*
X0033340Y0092114D01*
X0033554Y0092171D01*
X0033775Y0092187D01*
X0033996Y0092171D01*
X0034214Y0092130D01*
X0034428Y0092071D01*
X0034637Y0091998D01*
X0034842Y0091912D01*
X0035239Y0091715D01*
X0035622Y0091490D01*
X0035781Y0091340D01*
X0035824Y0091124D01*
X0035834Y0090459D01*
X0035828Y0088906D01*
X0035801Y0086466D01*
X0035977Y0086421D01*
X0036643Y0086421D01*
X0036814Y0086472D01*
X0036814Y0092905D01*
X0036628Y0092940D01*
X0035962Y0092940D01*
X0035801Y0092880D01*
X0035798Y0092437D01*
X0035762Y0092242D01*
X0035383Y0092472D01*
X0034992Y0092681D01*
X0034587Y0092861D01*
X0034380Y0092941D01*
X0034169Y0093010D01*
X0033954Y0093063D01*
X0033734Y0093096D01*
X0033513Y0093106D01*
X0033291Y0093095D01*
X0033072Y0093060D01*
X0032858Y0093005D01*
X0032653Y0092919D01*
X0032463Y0092807D01*
X0032286Y0092673D01*
X0032127Y0092518D01*
X0031996Y0092340D01*
X0031852Y0092220D01*
X0031265Y0092534D01*
X0030867Y0092730D01*
X0030664Y0092817D01*
X0030456Y0092896D01*
X0030246Y0092966D01*
X0030032Y0093024D01*
X0029814Y0093068D01*
X0029594Y0093095D01*
X0029373Y0093102D01*
X0029151Y0093086D01*
X0028933Y0093047D01*
X0028720Y0092986D01*
X0028515Y0092902D01*
X0028322Y0092792D01*
X0028147Y0092657D01*
X0027992Y0092499D01*
X0027861Y0092320D01*
X0027754Y0092126D01*
X0027671Y0091920D01*
X0027628Y0091703D01*
X0027613Y0091482D01*
X0027593Y0090373D01*
X0027585Y0086602D01*
X0027626Y0086421D01*
X0027585Y0086725D02*
X0028574Y0086725D01*
X0028577Y0087117D02*
X0027586Y0087117D01*
X0027587Y0087509D02*
X0028579Y0087509D01*
X0028582Y0087902D02*
X0027588Y0087902D01*
X0027589Y0088294D02*
X0028585Y0088294D01*
X0028588Y0088686D02*
X0027589Y0088686D01*
X0027590Y0089078D02*
X0028591Y0089078D01*
X0028594Y0089470D02*
X0027591Y0089470D01*
X0027592Y0089863D02*
X0028597Y0089863D01*
X0028599Y0090255D02*
X0027593Y0090255D01*
X0027598Y0090647D02*
X0028604Y0090647D01*
X0028614Y0091039D02*
X0027605Y0091039D01*
X0027612Y0091431D02*
X0028651Y0091431D01*
X0028841Y0091824D02*
X0027652Y0091824D01*
X0027804Y0092216D02*
X0036814Y0092216D01*
X0036814Y0092608D02*
X0035799Y0092608D01*
X0035128Y0092608D02*
X0032219Y0092608D01*
X0032846Y0093000D02*
X0034199Y0093000D01*
X0035019Y0091824D02*
X0036814Y0091824D01*
X0036814Y0091431D02*
X0035684Y0091431D01*
X0035825Y0091039D02*
X0036814Y0091039D01*
X0036814Y0090647D02*
X0035831Y0090647D01*
X0035834Y0090255D02*
X0036814Y0090255D01*
X0036814Y0089863D02*
X0035832Y0089863D01*
X0035830Y0089470D02*
X0036814Y0089470D01*
X0036814Y0089078D02*
X0035829Y0089078D01*
X0035826Y0088686D02*
X0036814Y0088686D01*
X0036814Y0088294D02*
X0035821Y0088294D01*
X0035817Y0087902D02*
X0036814Y0087902D01*
X0036814Y0087509D02*
X0035813Y0087509D01*
X0035808Y0087117D02*
X0036814Y0087117D01*
X0036814Y0086725D02*
X0035804Y0086725D01*
X0038190Y0097350D02*
X0037987Y0097440D01*
X0037772Y0097493D01*
X0037588Y0097610D01*
X0037378Y0097678D01*
X0037177Y0097773D01*
X0036993Y0097894D01*
X0036779Y0097947D01*
X0036385Y0098122D01*
X0036190Y0098228D01*
X0035809Y0098457D01*
X0035253Y0098823D01*
X0035061Y0098934D01*
X0034895Y0099080D01*
X0034574Y0099387D01*
X0034242Y0099683D01*
X0034072Y0099825D01*
X0033894Y0099954D01*
X0033759Y0100131D01*
X0033644Y0100317D01*
X0033491Y0100478D01*
X0033348Y0100647D01*
X0033071Y0100994D01*
X0032806Y0101351D01*
X0032693Y0101541D01*
X0032562Y0101720D01*
X0032440Y0101906D01*
X0032221Y0102292D01*
X0032101Y0102474D01*
X0032009Y0102670D01*
X0031894Y0102860D01*
X0031787Y0103055D01*
X0031071Y0104435D01*
X0030778Y0105033D01*
X0030576Y0105429D01*
X0030387Y0105830D01*
X0030302Y0106035D01*
X0030205Y0106227D01*
X0030145Y0106438D01*
X0030030Y0106623D01*
X0029956Y0106831D01*
X0029861Y0107031D01*
X0029684Y0107439D01*
X0029611Y0107648D01*
X0029527Y0107852D01*
X0029457Y0108061D01*
X0029368Y0108257D01*
X0029322Y0108471D01*
X0029229Y0108668D01*
X0029193Y0108886D01*
X0029118Y0109091D01*
X0029062Y0109302D01*
X0028994Y0109512D01*
X0028901Y0109711D01*
X0028913Y0109931D01*
X0028768Y0110349D01*
X0028749Y0110568D01*
X0028673Y0110777D01*
X0028629Y0110994D01*
X0028615Y0111215D01*
X0028576Y0111433D01*
X0028509Y0111644D01*
X0028471Y0112086D01*
X0028398Y0112524D01*
X0028321Y0113186D01*
X0028251Y0113389D01*
X0028236Y0113606D01*
X0028308Y0113797D01*
X0028244Y0113998D01*
X0028226Y0114442D01*
X0028223Y0115330D01*
X0028229Y0115774D01*
X0028244Y0116218D01*
X0028260Y0116440D01*
X0028323Y0116647D01*
X0028345Y0116868D01*
X0028369Y0117312D01*
X0028389Y0117533D01*
X0028427Y0117751D01*
X0028480Y0117966D01*
X0028491Y0118187D01*
X0028517Y0118408D01*
X0028579Y0118620D01*
X0028620Y0118838D01*
X0028651Y0119058D01*
X0028728Y0119265D01*
X0028755Y0119485D01*
X0028801Y0119701D01*
X0028873Y0119911D01*
X0028912Y0120129D01*
X0028969Y0120344D01*
X0029049Y0120549D01*
X0029072Y0120770D01*
X0029153Y0120974D01*
X0029193Y0121191D01*
X0029246Y0121405D01*
X0029321Y0121612D01*
X0029357Y0121830D01*
X0029446Y0122032D01*
X0029478Y0122251D01*
X0029570Y0122452D01*
X0029607Y0122670D01*
X0029701Y0122870D01*
X0029741Y0123087D01*
X0029837Y0123286D01*
X0029884Y0123503D01*
X0029973Y0123706D01*
X0030036Y0123918D01*
X0030118Y0124123D01*
X0030215Y0124323D01*
X0030292Y0124531D01*
X0030380Y0124733D01*
X0030578Y0124770D01*
X0053229Y0124770D01*
X0053407Y0124662D01*
X0054200Y0123885D01*
X0054353Y0123724D01*
X0054494Y0123553D01*
X0055024Y0122840D01*
X0055278Y0122476D01*
X0055525Y0122107D01*
X0055643Y0121919D01*
X0055863Y0121533D01*
X0055991Y0121352D01*
X0056028Y0121135D01*
X0056136Y0121148D01*
X0056176Y0121590D01*
X0056180Y0121812D01*
X0056173Y0122034D01*
X0056158Y0122256D01*
X0056133Y0122476D01*
X0056093Y0122695D01*
X0055891Y0123329D01*
X0055647Y0123949D01*
X0055287Y0124754D01*
X0055463Y0124770D01*
X0057906Y0124770D01*
X0057832Y0124562D01*
X0057810Y0124341D01*
X0057774Y0124122D01*
X0057641Y0123957D01*
X0057449Y0123864D01*
X0057407Y0123647D01*
X0057412Y0123426D01*
X0057374Y0123208D01*
X0057313Y0122994D01*
X0057178Y0122571D01*
X0057150Y0122352D01*
X0057190Y0122134D01*
X0057208Y0121913D01*
X0057216Y0121691D01*
X0057214Y0121469D01*
X0057189Y0121249D01*
X0057028Y0120837D01*
X0056911Y0120649D01*
X0056763Y0120484D01*
X0056576Y0120369D01*
X0056590Y0120158D01*
X0056770Y0119752D01*
X0056933Y0119338D01*
X0057104Y0118929D01*
X0057157Y0118714D01*
X0057243Y0118510D01*
X0057298Y0118295D01*
X0057387Y0118094D01*
X0057437Y0117878D01*
X0057522Y0117676D01*
X0057565Y0117458D01*
X0057647Y0117253D01*
X0057694Y0117038D01*
X0057766Y0116831D01*
X0057822Y0116617D01*
X0057839Y0116396D01*
X0057936Y0116201D01*
X0057981Y0115760D01*
X0058051Y0115550D01*
X0058086Y0115331D01*
X0058100Y0115109D01*
X0058148Y0114893D01*
X0058205Y0114680D01*
X0058229Y0114237D01*
X0058258Y0114017D01*
X0058307Y0113801D01*
X0058327Y0113580D01*
X0058351Y0113136D01*
X0058372Y0112471D01*
X0058383Y0111805D01*
X0058386Y0111138D01*
X0058380Y0110694D01*
X0058363Y0110250D01*
X0058347Y0110029D01*
X0058266Y0109145D01*
X0058204Y0108705D01*
X0058110Y0108271D01*
X0058063Y0107830D01*
X0057981Y0107625D01*
X0057939Y0107184D01*
X0057855Y0106980D01*
X0057823Y0106761D01*
X0057780Y0106544D01*
X0057625Y0106128D01*
X0057487Y0105706D01*
X0057408Y0105498D01*
X0057229Y0105092D01*
X0056944Y0104490D01*
X0056736Y0104098D01*
X0056516Y0103712D01*
X0056413Y0103515D01*
X0056301Y0103324D01*
X0056173Y0103143D01*
X0056069Y0102947D01*
X0055706Y0102389D01*
X0055322Y0101844D01*
X0054926Y0101309D01*
X0054237Y0100438D01*
X0054093Y0100270D01*
X0053345Y0099448D01*
X0053041Y0099125D01*
X0052879Y0098975D01*
X0052706Y0098836D01*
X0052049Y0098238D01*
X0051324Y0097747D01*
X0051123Y0097666D01*
X0050933Y0097565D01*
X0050746Y0097451D01*
X0050536Y0097390D01*
X0050145Y0097197D01*
X0049929Y0097152D01*
X0049737Y0097047D01*
X0049520Y0097009D01*
X0049337Y0096885D01*
X0049118Y0096856D01*
X0048697Y0096731D01*
X0048477Y0096704D01*
X0048273Y0096619D01*
X0048053Y0096594D01*
X0047837Y0096548D01*
X0047630Y0096475D01*
X0047408Y0096461D01*
X0047195Y0096406D01*
X0046984Y0096343D01*
X0046763Y0096333D01*
X0046556Y0096270D01*
X0046374Y0096165D01*
X0046152Y0096157D01*
X0045930Y0096159D01*
X0045717Y0096201D01*
X0045572Y0096341D01*
X0045352Y0096368D01*
X0044908Y0096389D01*
X0044470Y0096451D01*
X0044248Y0096440D01*
X0043806Y0096402D01*
X0043140Y0096368D01*
X0042030Y0096339D01*
X0041808Y0096339D01*
X0041587Y0096349D01*
X0041157Y0096456D01*
X0040937Y0096479D01*
X0040719Y0096522D01*
X0039646Y0096809D01*
X0039434Y0096875D01*
X0039225Y0096948D01*
X0038606Y0097196D01*
X0038190Y0097350D01*
X0038285Y0097315D02*
X0050384Y0097315D01*
X0051225Y0097707D02*
X0037317Y0097707D01*
X0036437Y0098099D02*
X0051844Y0098099D01*
X0052328Y0098491D02*
X0035757Y0098491D01*
X0035148Y0098883D02*
X0052765Y0098883D01*
X0053183Y0099276D02*
X0034691Y0099276D01*
X0034259Y0099668D02*
X0053545Y0099668D01*
X0053902Y0100060D02*
X0033813Y0100060D01*
X0033515Y0100452D02*
X0054248Y0100452D01*
X0054558Y0100845D02*
X0033190Y0100845D01*
X0032890Y0101237D02*
X0054869Y0101237D01*
X0055163Y0101629D02*
X0032629Y0101629D01*
X0032374Y0102021D02*
X0055447Y0102021D01*
X0055722Y0102413D02*
X0032141Y0102413D01*
X0031927Y0102806D02*
X0055977Y0102806D01*
X0056212Y0103198D02*
X0031713Y0103198D01*
X0031510Y0103590D02*
X0056452Y0103590D01*
X0056670Y0103982D02*
X0031306Y0103982D01*
X0031102Y0104374D02*
X0056883Y0104374D01*
X0057075Y0104767D02*
X0030909Y0104767D01*
X0030714Y0105159D02*
X0057259Y0105159D01*
X0057428Y0105551D02*
X0030518Y0105551D01*
X0030340Y0105943D02*
X0057564Y0105943D01*
X0057702Y0106336D02*
X0030174Y0106336D01*
X0029993Y0106728D02*
X0057816Y0106728D01*
X0057913Y0107120D02*
X0029822Y0107120D01*
X0029658Y0107512D02*
X0057970Y0107512D01*
X0058071Y0107904D02*
X0029510Y0107904D01*
X0029359Y0108297D02*
X0058116Y0108297D01*
X0058201Y0108689D02*
X0029225Y0108689D01*
X0029122Y0109081D02*
X0058257Y0109081D01*
X0058296Y0109473D02*
X0029007Y0109473D01*
X0028909Y0109865D02*
X0058332Y0109865D01*
X0058363Y0110258D02*
X0028800Y0110258D01*
X0028719Y0110650D02*
X0058378Y0110650D01*
X0058384Y0111042D02*
X0028626Y0111042D01*
X0028576Y0111434D02*
X0058385Y0111434D01*
X0058383Y0111826D02*
X0028493Y0111826D01*
X0028449Y0112219D02*
X0058376Y0112219D01*
X0058368Y0112611D02*
X0028388Y0112611D01*
X0028342Y0113003D02*
X0058355Y0113003D01*
X0058337Y0113395D02*
X0028251Y0113395D01*
X0028305Y0113788D02*
X0058308Y0113788D01*
X0058236Y0114180D02*
X0028237Y0114180D01*
X0028226Y0114572D02*
X0058211Y0114572D01*
X0058132Y0114964D02*
X0028224Y0114964D01*
X0028223Y0115356D02*
X0058082Y0115356D01*
X0057985Y0115749D02*
X0028228Y0115749D01*
X0028241Y0116141D02*
X0057942Y0116141D01*
X0057828Y0116533D02*
X0028288Y0116533D01*
X0028348Y0116925D02*
X0057733Y0116925D01*
X0057621Y0117317D02*
X0028369Y0117317D01*
X0028420Y0117710D02*
X0057508Y0117710D01*
X0057384Y0118102D02*
X0028487Y0118102D01*
X0028542Y0118494D02*
X0057247Y0118494D01*
X0057115Y0118886D02*
X0028627Y0118886D01*
X0028730Y0119279D02*
X0056958Y0119279D01*
X0056802Y0119671D02*
X0028795Y0119671D01*
X0028900Y0120063D02*
X0056632Y0120063D01*
X0056716Y0120455D02*
X0029013Y0120455D01*
X0029103Y0120847D02*
X0057032Y0120847D01*
X0057185Y0121240D02*
X0056144Y0121240D01*
X0056010Y0121240D02*
X0029205Y0121240D01*
X0029324Y0121632D02*
X0055807Y0121632D01*
X0056177Y0121632D02*
X0057215Y0121632D01*
X0057199Y0122024D02*
X0056173Y0122024D01*
X0056140Y0122416D02*
X0057158Y0122416D01*
X0057253Y0122808D02*
X0056057Y0122808D01*
X0055932Y0123201D02*
X0057372Y0123201D01*
X0057409Y0123593D02*
X0055787Y0123593D01*
X0055631Y0123985D02*
X0057664Y0123985D01*
X0057813Y0124377D02*
X0055455Y0124377D01*
X0055458Y0124769D02*
X0057906Y0124769D01*
X0057911Y0124787D02*
X0057976Y0124996D01*
X0058114Y0125168D01*
X0058155Y0125384D01*
X0058138Y0125606D01*
X0058104Y0125825D01*
X0058056Y0126042D01*
X0057989Y0126254D01*
X0057961Y0126474D01*
X0057960Y0126696D01*
X0058028Y0126899D01*
X0058171Y0127064D01*
X0058211Y0127282D01*
X0058186Y0127502D01*
X0058131Y0127717D01*
X0057887Y0128572D01*
X0057840Y0128789D01*
X0057883Y0128998D01*
X0057906Y0129199D01*
X0057804Y0129396D01*
X0057693Y0129588D01*
X0057221Y0130341D01*
X0057126Y0130542D01*
X0057085Y0130759D01*
X0057120Y0130978D01*
X0057114Y0131196D01*
X0056986Y0131377D01*
X0056845Y0131549D01*
X0056406Y0132050D01*
X0056264Y0132221D01*
X0056129Y0132398D01*
X0056047Y0132595D01*
X0056022Y0132811D01*
X0055917Y0133006D01*
X0043410Y0133006D01*
X0043453Y0132907D02*
X0043552Y0132708D01*
X0043674Y0132523D01*
X0043784Y0132329D01*
X0043903Y0132142D01*
X0044163Y0131782D01*
X0044441Y0131435D01*
X0044879Y0130933D01*
X0045183Y0130609D01*
X0045497Y0130294D01*
X0045821Y0129990D01*
X0046158Y0129700D01*
X0046333Y0129563D01*
X0046701Y0129314D01*
X0047080Y0129082D01*
X0047171Y0128933D01*
X0046767Y0129117D01*
X0046558Y0129191D01*
X0046358Y0129280D01*
X0046147Y0129344D01*
X0045942Y0129430D01*
X0045733Y0129505D01*
X0045520Y0129566D01*
X0045300Y0129599D01*
X0045093Y0129677D01*
X0044663Y0129778D01*
X0044450Y0129842D01*
X0044013Y0129923D01*
X0043797Y0129976D01*
X0043579Y0130014D01*
X0043137Y0130068D01*
X0042916Y0130087D01*
X0042472Y0130111D01*
X0042250Y0130113D01*
X0042028Y0130107D01*
X0041809Y0130074D01*
X0041380Y0129959D01*
X0041185Y0129858D01*
X0040974Y0129792D01*
X0040585Y0129577D01*
X0040386Y0129478D01*
X0040184Y0129386D01*
X0039977Y0129304D01*
X0039766Y0129237D01*
X0039548Y0129197D01*
X0039351Y0129264D01*
X0039317Y0129482D01*
X0039211Y0129913D01*
X0039173Y0130356D01*
X0039084Y0130791D01*
X0039033Y0131232D01*
X0038999Y0131452D01*
X0038893Y0131642D01*
X0038836Y0131856D01*
X0038757Y0132294D01*
X0038701Y0132509D01*
X0038604Y0132707D01*
X0038574Y0132926D01*
X0038450Y0133349D01*
X0038422Y0133568D01*
X0038225Y0133609D01*
X0037336Y0133609D01*
X0037179Y0133559D01*
X0037230Y0133343D01*
X0037360Y0132918D01*
X0037409Y0132701D01*
X0037494Y0132265D01*
X0037616Y0131838D01*
X0037976Y0130097D01*
X0038055Y0129659D01*
X0037972Y0129505D01*
X0037753Y0129536D01*
X0037536Y0129586D01*
X0037316Y0129614D01*
X0037094Y0129628D01*
X0036650Y0129633D01*
X0036206Y0129608D01*
X0035986Y0129579D01*
X0035550Y0129491D01*
X0035331Y0129456D01*
X0035117Y0129398D01*
X0034911Y0129325D01*
X0034698Y0129271D01*
X0034493Y0129195D01*
X0034087Y0129025D01*
X0033505Y0128701D01*
X0033133Y0128473D01*
X0032952Y0128344D01*
X0032782Y0128201D01*
X0032617Y0128053D01*
X0032296Y0127745D01*
X0031988Y0127424D01*
X0031842Y0127257D01*
X0031559Y0126914D01*
X0031317Y0126542D01*
X0031082Y0126164D01*
X0030863Y0125778D01*
X0030760Y0125581D01*
X0030568Y0125180D01*
X0030397Y0124770D01*
X0053287Y0124770D01*
X0053151Y0124920D01*
X0052535Y0125561D01*
X0052378Y0125719D01*
X0052215Y0125870D01*
X0051869Y0126148D01*
X0051700Y0126293D01*
X0051524Y0126428D01*
X0050798Y0126941D01*
X0050615Y0127068D01*
X0050427Y0127185D01*
X0050248Y0127316D01*
X0050052Y0127418D01*
X0050022Y0127563D01*
X0050235Y0127505D01*
X0050436Y0127411D01*
X0050632Y0127307D01*
X0050843Y0127238D01*
X0051242Y0127045D01*
X0051656Y0126885D01*
X0051852Y0126781D01*
X0052269Y0126627D01*
X0052468Y0126528D01*
X0052877Y0126355D01*
X0053055Y0126229D01*
X0053258Y0126140D01*
X0053454Y0126035D01*
X0053637Y0125909D01*
X0053829Y0125797D01*
X0054414Y0125478D01*
X0054603Y0125362D01*
X0054787Y0125237D01*
X0054964Y0125102D01*
X0055130Y0124955D01*
X0055264Y0124779D01*
X0055479Y0124770D01*
X0057702Y0124770D01*
X0057911Y0124787D01*
X0058110Y0125162D02*
X0054885Y0125162D01*
X0054276Y0125554D02*
X0058142Y0125554D01*
X0058077Y0125946D02*
X0053582Y0125946D01*
X0052901Y0126338D02*
X0057978Y0126338D01*
X0057971Y0126731D02*
X0051988Y0126731D01*
X0051641Y0126338D02*
X0031190Y0126338D01*
X0030958Y0125946D02*
X0052120Y0125946D01*
X0052542Y0125554D02*
X0030747Y0125554D01*
X0030560Y0125162D02*
X0052919Y0125162D01*
X0053230Y0124769D02*
X0030576Y0124769D01*
X0030235Y0124377D02*
X0053698Y0124377D01*
X0054098Y0123985D02*
X0030063Y0123985D01*
X0029923Y0123593D02*
X0054462Y0123593D01*
X0054756Y0123201D02*
X0029796Y0123201D01*
X0029672Y0122808D02*
X0055046Y0122808D01*
X0055318Y0122416D02*
X0029554Y0122416D01*
X0029443Y0122024D02*
X0055577Y0122024D01*
X0055918Y0120805D02*
X0055909Y0120575D01*
X0056018Y0120718D01*
X0055918Y0120805D01*
X0057965Y0128299D02*
X0032899Y0128299D01*
X0032465Y0127907D02*
X0058077Y0127907D01*
X0058183Y0127515D02*
X0050198Y0127515D01*
X0050032Y0127515D02*
X0032075Y0127515D01*
X0031731Y0127123D02*
X0050527Y0127123D01*
X0051081Y0127123D02*
X0058182Y0127123D01*
X0057861Y0128692D02*
X0033490Y0128692D01*
X0034228Y0129084D02*
X0046839Y0129084D01*
X0047076Y0129084D02*
X0057893Y0129084D01*
X0057758Y0129476D02*
X0046462Y0129476D01*
X0045962Y0129868D02*
X0057517Y0129868D01*
X0057272Y0130260D02*
X0045533Y0130260D01*
X0045142Y0130653D02*
X0057105Y0130653D01*
X0057119Y0131045D02*
X0044781Y0131045D01*
X0044439Y0131437D02*
X0056936Y0131437D01*
X0056599Y0131829D02*
X0044129Y0131829D01*
X0043852Y0132222D02*
X0056263Y0132222D01*
X0056045Y0132614D02*
X0043614Y0132614D01*
X0043453Y0132907D02*
X0043186Y0133518D01*
X0043266Y0133609D01*
X0055267Y0133609D01*
X0043262Y0133609D01*
X0043100Y0133704D01*
X0042808Y0134304D01*
X0042721Y0134508D01*
X0042662Y0134722D01*
X0042582Y0134929D01*
X0042467Y0135119D01*
X0042326Y0135291D01*
X0042164Y0135442D01*
X0041974Y0135557D01*
X0041573Y0135748D01*
X0041178Y0135952D01*
X0040975Y0136043D01*
X0040764Y0136104D01*
X0040379Y0136306D01*
X0040161Y0136345D01*
X0039966Y0136450D01*
X0039763Y0136538D01*
X0039554Y0136614D01*
X0039355Y0136711D01*
X0039150Y0136795D01*
X0038726Y0136932D01*
X0038102Y0137166D01*
X0037890Y0137231D01*
X0037697Y0137311D01*
X0037481Y0137359D01*
X0037316Y0137260D01*
X0037356Y0137043D01*
X0037486Y0136618D01*
X0037659Y0136209D01*
X0037710Y0135994D01*
X0037790Y0135795D01*
X0037937Y0135376D01*
X0038055Y0134947D01*
X0038127Y0134737D01*
X0038177Y0134521D01*
X0038215Y0134303D01*
X0038290Y0134094D01*
X0038313Y0133874D01*
X0038389Y0133676D01*
X0038246Y0133609D01*
X0037357Y0133609D01*
X0037160Y0133639D01*
X0037061Y0134073D01*
X0037003Y0134287D01*
X0036809Y0134925D01*
X0036688Y0135353D01*
X0036575Y0135783D01*
X0036508Y0135995D01*
X0036424Y0136201D01*
X0036325Y0136400D01*
X0036211Y0136590D01*
X0035949Y0136949D01*
X0035839Y0137142D01*
X0035745Y0137344D01*
X0035670Y0137553D01*
X0035619Y0137769D01*
X0035602Y0137991D01*
X0035555Y0138207D01*
X0035418Y0138380D01*
X0035229Y0138495D01*
X0035011Y0138532D01*
X0034789Y0138541D01*
X0034594Y0138632D01*
X0034496Y0138830D01*
X0034446Y0139047D01*
X0034429Y0139268D01*
X0034438Y0139490D01*
X0034467Y0139710D01*
X0034513Y0139928D01*
X0034574Y0140142D01*
X0034648Y0140351D01*
X0034735Y0140556D01*
X0034834Y0140755D01*
X0034952Y0140943D01*
X0035100Y0141109D01*
X0035290Y0141221D01*
X0035509Y0141233D01*
X0035715Y0141152D01*
X0036112Y0140952D01*
X0036322Y0140880D01*
X0036522Y0140936D01*
X0036585Y0141149D01*
X0036689Y0141581D01*
X0036748Y0141795D01*
X0036816Y0142007D01*
X0036977Y0142421D01*
X0037150Y0142831D01*
X0037248Y0143030D01*
X0037375Y0143212D01*
X0037582Y0143277D01*
X0037725Y0143447D01*
X0037860Y0143624D01*
X0038376Y0144348D01*
X0038532Y0144506D01*
X0038929Y0144691D01*
X0039102Y0144830D01*
X0039242Y0145002D01*
X0039503Y0145362D01*
X0039624Y0145548D01*
X0039755Y0145723D01*
X0039867Y0145912D01*
X0040004Y0146087D01*
X0040174Y0146227D01*
X0040392Y0146262D01*
X0040582Y0146375D01*
X0040767Y0146498D01*
X0040975Y0146573D01*
X0041188Y0146603D01*
X0041368Y0146732D01*
X0041520Y0146894D01*
X0041678Y0147048D01*
X0041896Y0147079D01*
X0042099Y0147149D01*
X0042264Y0147293D01*
X0042474Y0147364D01*
X0042695Y0147387D01*
X0042899Y0147459D01*
X0043091Y0147563D01*
X0043520Y0147518D01*
X0043722Y0147611D01*
X0043911Y0147726D01*
X0044118Y0147803D01*
X0044337Y0147840D01*
X0044554Y0147888D01*
X0044765Y0147852D01*
X0044987Y0147846D01*
X0045209Y0147862D01*
X0045638Y0147778D01*
X0045855Y0147825D01*
X0046076Y0147846D01*
X0046520Y0147863D01*
X0046742Y0147864D01*
X0046965Y0147854D01*
X0047122Y0147735D01*
X0047265Y0147588D01*
X0047486Y0147576D01*
X0047925Y0147634D01*
X0048055Y0147459D01*
X0048227Y0147328D01*
X0048447Y0147323D01*
X0048880Y0147416D01*
X0049056Y0147290D01*
X0049115Y0147079D01*
X0049311Y0147008D01*
X0049532Y0147030D01*
X0049752Y0147061D01*
X0049972Y0147053D01*
X0050070Y0146863D01*
X0050460Y0146680D01*
X0050676Y0146632D01*
X0050895Y0146601D01*
X0050985Y0146405D01*
X0051052Y0146233D01*
X0050959Y0146035D01*
X0050909Y0145821D01*
X0050775Y0145644D01*
X0050659Y0145456D01*
X0050595Y0145246D01*
X0050445Y0145083D01*
X0050382Y0144875D01*
X0050336Y0144660D01*
X0050068Y0144306D01*
X0050000Y0144100D01*
X0050086Y0143896D01*
X0050021Y0143691D01*
X0049878Y0143520D01*
X0049750Y0143339D01*
X0049666Y0143134D01*
X0049522Y0142968D01*
X0049338Y0142842D01*
X0049162Y0142708D01*
X0049080Y0142511D01*
X0049088Y0142292D01*
X0048890Y0142203D01*
X0048741Y0142039D01*
X0048666Y0141838D01*
X0048311Y0141585D01*
X0048163Y0141420D01*
X0047988Y0141283D01*
X0047791Y0141183D01*
X0047629Y0141032D01*
X0047574Y0140824D01*
X0047413Y0140679D01*
X0047224Y0140561D01*
X0047096Y0140389D01*
X0046931Y0140242D01*
X0046544Y0140024D01*
X0046390Y0139865D01*
X0046196Y0139770D01*
X0045756Y0139711D01*
X0045573Y0139590D01*
X0045413Y0139436D01*
X0045206Y0139361D01*
X0044986Y0139328D01*
X0044768Y0139287D01*
X0044554Y0139228D01*
X0044351Y0139138D01*
X0044180Y0138999D01*
X0043962Y0138959D01*
X0042854Y0138879D01*
X0042412Y0138827D01*
X0042196Y0138776D01*
X0042088Y0138620D01*
X0041912Y0138537D01*
X0040582Y0138445D01*
X0040367Y0138393D01*
X0040183Y0138268D01*
X0039972Y0138210D01*
X0039527Y0138219D01*
X0039306Y0138237D01*
X0039085Y0138267D01*
X0038867Y0138308D01*
X0038651Y0138361D01*
X0038008Y0138539D01*
X0037801Y0138619D01*
X0037399Y0138809D01*
X0037004Y0139012D01*
X0036795Y0139017D01*
X0036815Y0138355D01*
X0036856Y0138143D01*
X0037249Y0137959D01*
X0037441Y0137850D01*
X0037659Y0137812D01*
X0037838Y0137695D01*
X0038032Y0137603D01*
X0038235Y0137522D01*
X0038420Y0137408D01*
X0038633Y0137373D01*
X0038832Y0137282D01*
X0039044Y0137246D01*
X0039227Y0137126D01*
X0039411Y0137026D01*
X0039627Y0136987D01*
X0039827Y0136899D01*
X0039997Y0136759D01*
X0040433Y0136688D01*
X0040626Y0136592D01*
X0040815Y0136482D01*
X0041036Y0136458D01*
X0041215Y0136344D01*
X0041423Y0136277D01*
X0041625Y0136198D01*
X0041837Y0136151D01*
X0042025Y0136062D01*
X0042227Y0135981D01*
X0042446Y0135949D01*
X0042644Y0135851D01*
X0042862Y0135818D01*
X0043075Y0135877D01*
X0043256Y0136003D01*
X0043469Y0136059D01*
X0043862Y0136268D01*
X0044070Y0136344D01*
X0044270Y0136441D01*
X0044466Y0136546D01*
X0044680Y0136598D01*
X0044884Y0136687D01*
X0045078Y0136794D01*
X0045500Y0136916D01*
X0045706Y0136999D01*
X0045919Y0137061D01*
X0046136Y0137109D01*
X0046357Y0137113D01*
X0046551Y0137013D01*
X0046764Y0136974D01*
X0047207Y0137012D01*
X0047874Y0137022D01*
X0048763Y0137005D01*
X0049429Y0136970D01*
X0050311Y0136857D01*
X0050531Y0136825D01*
X0050749Y0136779D01*
X0050962Y0136717D01*
X0051151Y0136606D01*
X0051360Y0136539D01*
X0051523Y0136389D01*
X0051615Y0136192D01*
X0051720Y0136004D01*
X0051905Y0135881D01*
X0052105Y0135785D01*
X0052321Y0135735D01*
X0052527Y0135654D01*
X0052730Y0135563D01*
X0052941Y0135494D01*
X0053155Y0135437D01*
X0053563Y0135260D01*
X0053771Y0135183D01*
X0053931Y0135034D01*
X0054034Y0134838D01*
X0054105Y0134631D01*
X0054246Y0134459D01*
X0054408Y0134307D01*
X0054923Y0133884D01*
X0055104Y0133759D01*
X0055267Y0133609D01*
X0055606Y0133322D01*
X0055770Y0133172D01*
X0055917Y0133006D01*
X0055516Y0133398D02*
X0043238Y0133398D01*
X0043058Y0133790D02*
X0055059Y0133790D01*
X0054560Y0134183D02*
X0042867Y0134183D01*
X0042703Y0134575D02*
X0054151Y0134575D01*
X0053966Y0134967D02*
X0042560Y0134967D01*
X0042253Y0135359D02*
X0053334Y0135359D01*
X0052250Y0135751D02*
X0041565Y0135751D01*
X0041853Y0136144D02*
X0040688Y0136144D01*
X0040723Y0136536D02*
X0039768Y0136536D01*
X0039761Y0136928D02*
X0038738Y0136928D01*
X0038748Y0137320D02*
X0037656Y0137320D01*
X0037416Y0137320D02*
X0035756Y0137320D01*
X0035633Y0137712D02*
X0037811Y0137712D01*
X0038161Y0138497D02*
X0041328Y0138497D01*
X0042995Y0138889D02*
X0037244Y0138889D01*
X0036799Y0138889D02*
X0034482Y0138889D01*
X0034430Y0139281D02*
X0044749Y0139281D01*
X0045699Y0139674D02*
X0034463Y0139674D01*
X0034553Y0140066D02*
X0046618Y0140066D01*
X0047148Y0140458D02*
X0034693Y0140458D01*
X0034894Y0140850D02*
X0047581Y0140850D01*
X0047908Y0141242D02*
X0036608Y0141242D01*
X0036704Y0141635D02*
X0048381Y0141635D01*
X0048736Y0142027D02*
X0036823Y0142027D01*
X0036977Y0142419D02*
X0049084Y0142419D01*
X0049297Y0142811D02*
X0037142Y0142811D01*
X0037369Y0143203D02*
X0049694Y0143203D01*
X0049941Y0143596D02*
X0037839Y0143596D01*
X0038119Y0143988D02*
X0050047Y0143988D01*
X0050124Y0144380D02*
X0038408Y0144380D01*
X0039031Y0144772D02*
X0050360Y0144772D01*
X0050520Y0145165D02*
X0039360Y0145165D01*
X0039630Y0145557D02*
X0050721Y0145557D01*
X0050939Y0145949D02*
X0039896Y0145949D01*
X0040525Y0146341D02*
X0051010Y0146341D01*
X0050346Y0146733D02*
X0041370Y0146733D01*
X0042030Y0147126D02*
X0049102Y0147126D01*
X0048012Y0147518D02*
X0043007Y0147518D01*
X0044448Y0136536D02*
X0051363Y0136536D01*
X0051642Y0136144D02*
X0043628Y0136144D01*
X0045530Y0136928D02*
X0049755Y0136928D01*
X0051096Y0126731D02*
X0031439Y0126731D01*
X0035219Y0138497D02*
X0036811Y0138497D01*
X0036938Y0138105D02*
X0035577Y0138105D01*
X0035964Y0136928D02*
X0037392Y0136928D01*
X0037521Y0136536D02*
X0036243Y0136536D01*
X0036447Y0136144D02*
X0037675Y0136144D01*
X0037805Y0135751D02*
X0036584Y0135751D01*
X0036686Y0135359D02*
X0037942Y0135359D01*
X0038049Y0134967D02*
X0036797Y0134967D01*
X0036915Y0134575D02*
X0038165Y0134575D01*
X0038258Y0134183D02*
X0037031Y0134183D01*
X0037125Y0133790D02*
X0038345Y0133790D01*
X0038444Y0133398D02*
X0037217Y0133398D01*
X0037333Y0133006D02*
X0038551Y0133006D01*
X0038649Y0132614D02*
X0037426Y0132614D01*
X0037507Y0132222D02*
X0038770Y0132222D01*
X0038843Y0131829D02*
X0037618Y0131829D01*
X0037699Y0131437D02*
X0039001Y0131437D01*
X0039054Y0131045D02*
X0037780Y0131045D01*
X0037861Y0130653D02*
X0039112Y0130653D01*
X0039181Y0130260D02*
X0037942Y0130260D01*
X0038017Y0129868D02*
X0039222Y0129868D01*
X0039318Y0129476D02*
X0035457Y0129476D01*
X0040383Y0129476D02*
X0045815Y0129476D01*
X0044309Y0129868D02*
X0041205Y0129868D01*
X0039299Y0096922D02*
X0049392Y0096922D01*
X0049689Y0095892D02*
X0049588Y0095771D01*
X0049588Y0086421D01*
X0050478Y0086421D01*
X0050579Y0086543D01*
X0050579Y0095892D01*
X0049689Y0095892D01*
X0049588Y0095746D02*
X0050579Y0095746D01*
X0050579Y0095354D02*
X0049588Y0095354D01*
X0049588Y0094961D02*
X0050579Y0094961D01*
X0050579Y0094569D02*
X0049588Y0094569D01*
X0049588Y0094177D02*
X0050579Y0094177D01*
X0050579Y0093785D02*
X0049588Y0093785D01*
X0049588Y0093393D02*
X0050579Y0093393D01*
X0050579Y0093000D02*
X0049588Y0093000D01*
X0049588Y0092608D02*
X0050579Y0092608D01*
X0050579Y0092216D02*
X0049588Y0092216D01*
X0049588Y0091824D02*
X0050579Y0091824D01*
X0050579Y0091431D02*
X0049588Y0091431D01*
X0049588Y0091039D02*
X0050579Y0091039D01*
X0050579Y0090647D02*
X0049588Y0090647D01*
X0049588Y0090255D02*
X0050579Y0090255D01*
X0050579Y0089863D02*
X0049588Y0089863D01*
X0049588Y0089470D02*
X0050579Y0089470D01*
X0050579Y0089078D02*
X0049588Y0089078D01*
X0049588Y0088686D02*
X0050579Y0088686D01*
X0050579Y0088294D02*
X0049588Y0088294D01*
X0049588Y0087902D02*
X0050579Y0087902D01*
X0050579Y0087509D02*
X0049588Y0087509D01*
X0049588Y0087117D02*
X0050579Y0087117D01*
X0050579Y0086725D02*
X0049588Y0086725D01*
X0047787Y0096530D02*
X0040689Y0096530D01*
X0040555Y0092941D02*
X0040514Y0092759D01*
X0040514Y0086534D01*
X0040624Y0086421D01*
X0041292Y0086421D01*
X0041482Y0086453D01*
X0041484Y0086898D01*
X0041501Y0087119D01*
X0041696Y0087030D01*
X0042085Y0086815D01*
X0042283Y0086714D01*
X0042688Y0086532D01*
X0042896Y0086453D01*
X0043108Y0086384D01*
X0043322Y0086327D01*
X0043540Y0086283D01*
X0043761Y0086256D01*
X0043983Y0086246D01*
X0044205Y0086257D01*
X0044425Y0086290D01*
X0044640Y0086346D01*
X0044846Y0086429D01*
X0045040Y0086537D01*
X0045219Y0086669D01*
X0045380Y0086822D01*
X0045518Y0086996D01*
X0045630Y0087188D01*
X0045719Y0087391D01*
X0045773Y0087607D01*
X0045801Y0087827D01*
X0045825Y0088271D01*
X0045837Y0088938D01*
X0045844Y0092941D01*
X0044955Y0092941D01*
X0044817Y0092858D01*
X0044848Y0091079D01*
X0044843Y0089745D01*
X0044813Y0088634D01*
X0044786Y0088190D01*
X0044758Y0087969D01*
X0044706Y0087754D01*
X0044610Y0087554D01*
X0044471Y0087381D01*
X0044286Y0087258D01*
X0044076Y0087186D01*
X0043857Y0087155D01*
X0043634Y0087155D01*
X0043414Y0087180D01*
X0043196Y0087224D01*
X0042982Y0087285D01*
X0042773Y0087360D01*
X0042363Y0087532D01*
X0041963Y0087726D01*
X0041767Y0087832D01*
X0041578Y0087948D01*
X0041472Y0088112D01*
X0041507Y0092782D01*
X0041445Y0092941D01*
X0040555Y0092941D01*
X0040514Y0092608D02*
X0041506Y0092608D01*
X0041503Y0092216D02*
X0040514Y0092216D01*
X0040514Y0091824D02*
X0041500Y0091824D01*
X0041497Y0091431D02*
X0040514Y0091431D01*
X0040514Y0091039D02*
X0041494Y0091039D01*
X0041491Y0090647D02*
X0040514Y0090647D01*
X0040514Y0090255D02*
X0041488Y0090255D01*
X0041485Y0089863D02*
X0040514Y0089863D01*
X0040514Y0089470D02*
X0041482Y0089470D01*
X0041479Y0089078D02*
X0040514Y0089078D01*
X0040514Y0088686D02*
X0041476Y0088686D01*
X0041473Y0088294D02*
X0040514Y0088294D01*
X0040514Y0087902D02*
X0041654Y0087902D01*
X0041506Y0087117D02*
X0045589Y0087117D01*
X0045748Y0087509D02*
X0044574Y0087509D01*
X0044742Y0087902D02*
X0045805Y0087902D01*
X0045826Y0088294D02*
X0044792Y0088294D01*
X0044814Y0088686D02*
X0045833Y0088686D01*
X0045837Y0089078D02*
X0044825Y0089078D01*
X0044836Y0089470D02*
X0045838Y0089470D01*
X0045839Y0089863D02*
X0044844Y0089863D01*
X0044845Y0090255D02*
X0045839Y0090255D01*
X0045840Y0090647D02*
X0044847Y0090647D01*
X0044848Y0091039D02*
X0045841Y0091039D01*
X0045841Y0091431D02*
X0044842Y0091431D01*
X0044835Y0091824D02*
X0045842Y0091824D01*
X0045843Y0092216D02*
X0044828Y0092216D01*
X0044822Y0092608D02*
X0045844Y0092608D01*
X0045278Y0086725D02*
X0042262Y0086725D01*
X0041483Y0086725D02*
X0040514Y0086725D01*
X0040514Y0087117D02*
X0041501Y0087117D01*
X0042416Y0087509D02*
X0040514Y0087509D01*
X0043299Y0086333D02*
X0044588Y0086333D01*
X0054015Y0090879D02*
X0054125Y0090685D01*
X0054247Y0090500D01*
X0054383Y0090324D01*
X0054533Y0090160D01*
X0054695Y0090008D01*
X0054869Y0089870D01*
X0055054Y0089747D01*
X0055248Y0089638D01*
X0055449Y0089543D01*
X0055656Y0089462D01*
X0055867Y0089393D01*
X0056082Y0089335D01*
X0056299Y0089287D01*
X0056738Y0089218D01*
X0057181Y0089175D01*
X0057846Y0089137D01*
X0058053Y0089115D01*
X0058043Y0086447D01*
X0058240Y0086421D01*
X0058907Y0086421D01*
X0059123Y0086427D01*
X0059123Y0092431D01*
X0058233Y0092431D01*
X0058060Y0092480D01*
X0058064Y0093370D01*
X0058057Y0093592D01*
X0058039Y0094037D01*
X0058004Y0094230D01*
X0057115Y0094185D01*
X0056894Y0094163D01*
X0056673Y0094131D01*
X0056455Y0094087D01*
X0056241Y0094028D01*
X0056033Y0093950D01*
X0055834Y0093851D01*
X0055646Y0093731D01*
X0055472Y0093593D01*
X0055316Y0093435D01*
X0055200Y0093245D01*
X0055124Y0093036D01*
X0055075Y0092819D01*
X0055039Y0092600D01*
X0054962Y0092431D01*
X0053849Y0092431D01*
X0053832Y0092614D01*
X0053871Y0092833D01*
X0053926Y0093048D01*
X0053997Y0093259D01*
X0054084Y0093464D01*
X0054190Y0093659D01*
X0054312Y0093845D01*
X0054452Y0094018D01*
X0054607Y0094177D01*
X0057037Y0094177D01*
X0057085Y0095014D02*
X0056642Y0094979D01*
X0056421Y0094952D01*
X0056201Y0094916D01*
X0055984Y0094868D01*
X0055770Y0094809D01*
X0055558Y0094740D01*
X0055351Y0094658D01*
X0055151Y0094562D01*
X0054959Y0094449D01*
X0054777Y0094321D01*
X0054607Y0094177D01*
X0054273Y0093785D02*
X0055730Y0093785D01*
X0055290Y0093393D02*
X0054054Y0093393D01*
X0053914Y0093000D02*
X0055116Y0093000D01*
X0055041Y0092608D02*
X0053833Y0092608D01*
X0053978Y0092431D02*
X0053800Y0092376D01*
X0053729Y0092167D01*
X0053734Y0091945D01*
X0053753Y0091723D01*
X0053789Y0091504D01*
X0053845Y0091289D01*
X0053920Y0091080D01*
X0054015Y0090879D01*
X0053940Y0091039D02*
X0055101Y0091039D01*
X0055062Y0091095D02*
X0054964Y0091294D01*
X0054899Y0091507D01*
X0054862Y0091726D01*
X0054842Y0091947D01*
X0054889Y0092162D01*
X0054993Y0092358D01*
X0054867Y0092431D01*
X0053978Y0092431D01*
X0053745Y0092216D02*
X0054918Y0092216D01*
X0054853Y0091824D02*
X0053744Y0091824D01*
X0053808Y0091431D02*
X0054922Y0091431D01*
X0055062Y0091095D02*
X0055189Y0090913D01*
X0055335Y0090745D01*
X0055496Y0090592D01*
X0055671Y0090455D01*
X0055861Y0090339D01*
X0056061Y0090243D01*
X0056270Y0090166D01*
X0056484Y0090105D01*
X0056701Y0090059D01*
X0057141Y0089996D01*
X0057584Y0089958D01*
X0057806Y0089948D01*
X0058028Y0089959D01*
X0058071Y0090160D01*
X0058074Y0090827D01*
X0058060Y0092383D01*
X0058234Y0092431D01*
X0059123Y0092431D01*
X0059123Y0094878D01*
X0059087Y0095064D01*
X0057530Y0095033D01*
X0057085Y0095014D01*
X0056494Y0094961D02*
X0059107Y0094961D01*
X0059123Y0094569D02*
X0055166Y0094569D01*
X0055438Y0090647D02*
X0054150Y0090647D01*
X0054446Y0090255D02*
X0056036Y0090255D01*
X0055635Y0089470D02*
X0059123Y0089470D01*
X0059123Y0089078D02*
X0058053Y0089078D01*
X0058052Y0088686D02*
X0059123Y0088686D01*
X0059123Y0088294D02*
X0058050Y0088294D01*
X0058049Y0087902D02*
X0059123Y0087902D01*
X0059123Y0087509D02*
X0058047Y0087509D01*
X0058045Y0087117D02*
X0059123Y0087117D01*
X0059123Y0086725D02*
X0058044Y0086725D01*
X0059123Y0089863D02*
X0054880Y0089863D01*
X0058072Y0090255D02*
X0059123Y0090255D01*
X0059123Y0090647D02*
X0058073Y0090647D01*
X0058072Y0091039D02*
X0059123Y0091039D01*
X0059123Y0091431D02*
X0058068Y0091431D01*
X0058065Y0091824D02*
X0059123Y0091824D01*
X0059123Y0092216D02*
X0058062Y0092216D01*
X0058060Y0092608D02*
X0059123Y0092608D01*
X0059123Y0093000D02*
X0058062Y0093000D01*
X0058063Y0093393D02*
X0059123Y0093393D01*
X0059123Y0093785D02*
X0058050Y0093785D01*
X0058014Y0094177D02*
X0059123Y0094177D01*
X0032961Y0091824D02*
X0031037Y0091824D01*
X0031681Y0091431D02*
X0032769Y0091431D01*
X0032715Y0091039D02*
X0031681Y0091039D01*
X0031681Y0090647D02*
X0032704Y0090647D01*
X0032699Y0090255D02*
X0031681Y0090255D01*
X0031681Y0089863D02*
X0032697Y0089863D01*
X0032697Y0089470D02*
X0031681Y0089470D01*
X0031681Y0089078D02*
X0032697Y0089078D01*
X0032696Y0088686D02*
X0031681Y0088686D01*
X0031681Y0088294D02*
X0032696Y0088294D01*
X0032696Y0087902D02*
X0031681Y0087902D01*
X0031681Y0087509D02*
X0032696Y0087509D01*
X0032695Y0087117D02*
X0031681Y0087117D01*
X0031681Y0086725D02*
X0032695Y0086725D01*
X0031115Y0092608D02*
X0028099Y0092608D01*
X0028770Y0093000D02*
X0030118Y0093000D01*
D11*
X0033024Y0078365D02*
X0033024Y0077881D01*
X0033024Y0076913D02*
X0033024Y0074978D01*
X0033508Y0074978D02*
X0032540Y0074978D01*
X0031544Y0075462D02*
X0031060Y0074978D01*
X0030092Y0074978D01*
X0029609Y0075462D01*
X0029609Y0076430D01*
X0030092Y0076913D01*
X0031060Y0076913D01*
X0031544Y0076430D01*
X0031544Y0075462D01*
X0033024Y0076913D02*
X0033508Y0076913D01*
X0034519Y0076913D02*
X0035971Y0076913D01*
X0036454Y0076430D01*
X0036454Y0075462D01*
X0035971Y0074978D01*
X0034519Y0074978D01*
X0034519Y0077881D01*
X0037466Y0076913D02*
X0037466Y0074978D01*
X0038917Y0074978D01*
X0039401Y0075462D01*
X0039401Y0076913D01*
X0040412Y0076430D02*
X0040412Y0074978D01*
X0041864Y0074978D01*
X0042347Y0075462D01*
X0041864Y0075946D01*
X0040412Y0075946D01*
X0040412Y0076430D02*
X0040896Y0076913D01*
X0041864Y0076913D01*
X0043359Y0076430D02*
X0045294Y0076430D01*
X0046305Y0076430D02*
X0046305Y0074978D01*
X0047273Y0074978D02*
X0047273Y0076430D01*
X0046789Y0076913D01*
X0046305Y0076430D01*
X0047273Y0076430D02*
X0047757Y0076913D01*
X0048240Y0076913D01*
X0048240Y0074978D01*
X0049252Y0074978D02*
X0049252Y0076913D01*
X0049252Y0074978D02*
X0050703Y0074978D01*
X0051187Y0075462D01*
X0051187Y0076913D01*
X0052184Y0074978D02*
X0053151Y0074978D01*
X0052668Y0074978D02*
X0052668Y0077881D01*
X0053151Y0077881D01*
X0054163Y0076430D02*
X0054163Y0075462D01*
X0054647Y0074978D01*
X0056098Y0074978D01*
X0056098Y0074011D02*
X0056098Y0076913D01*
X0054647Y0076913D01*
X0054163Y0076430D01*
X0053486Y0067255D02*
X0052869Y0066638D01*
X0052869Y0065403D01*
X0053486Y0064786D01*
X0055337Y0064786D01*
X0055337Y0063552D02*
X0055337Y0067255D01*
X0053486Y0067255D01*
X0054103Y0064786D02*
X0052869Y0063552D01*
X0051654Y0063552D02*
X0049185Y0063552D01*
X0050420Y0063552D02*
X0050420Y0067255D01*
X0051654Y0066020D01*
X0047971Y0066638D02*
X0047354Y0067255D01*
X0046119Y0067255D01*
X0045502Y0066638D01*
X0045502Y0066020D01*
X0047971Y0063552D01*
X0045502Y0063552D01*
X0057087Y0074978D02*
X0057571Y0074978D01*
X0057571Y0075462D01*
X0057087Y0075462D01*
X0057087Y0074978D01*
X0058583Y0075462D02*
X0058583Y0076913D01*
X0058583Y0075462D02*
X0059066Y0074978D01*
X0059550Y0075462D01*
X0060034Y0074978D01*
X0060518Y0075462D01*
X0060518Y0076913D01*
X0061529Y0076913D02*
X0061529Y0075462D01*
X0062013Y0074978D01*
X0062497Y0075462D01*
X0062980Y0074978D01*
X0063464Y0075462D01*
X0063464Y0076913D01*
X0064476Y0076913D02*
X0064476Y0075462D01*
X0064959Y0074978D01*
X0065443Y0075462D01*
X0065927Y0074978D01*
X0066411Y0075462D01*
X0066411Y0076913D01*
X0065466Y0064298D02*
X0065466Y0063681D01*
X0067935Y0061212D01*
X0067935Y0060595D01*
X0069149Y0060595D02*
X0071618Y0060595D01*
X0072832Y0060595D02*
X0074067Y0061829D01*
X0073449Y0061829D02*
X0075301Y0061829D01*
X0075301Y0060595D02*
X0075301Y0064298D01*
X0073449Y0064298D01*
X0072832Y0063681D01*
X0072832Y0062447D01*
X0073449Y0061829D01*
X0073957Y0056423D02*
X0073340Y0055806D01*
X0073340Y0054572D01*
X0073957Y0053954D01*
X0075809Y0053954D01*
X0075809Y0052720D02*
X0075809Y0056423D01*
X0073957Y0056423D01*
X0074574Y0053954D02*
X0073340Y0052720D01*
X0072126Y0052720D02*
X0069657Y0052720D01*
X0068443Y0053337D02*
X0068443Y0053954D01*
X0067825Y0054572D01*
X0066591Y0054572D01*
X0065974Y0053954D01*
X0065974Y0053337D01*
X0066591Y0052720D01*
X0067825Y0052720D01*
X0068443Y0053337D01*
X0067825Y0054572D02*
X0068443Y0055189D01*
X0068443Y0055806D01*
X0067825Y0056423D01*
X0066591Y0056423D01*
X0065974Y0055806D01*
X0065974Y0055189D01*
X0066591Y0054572D01*
X0065466Y0064298D02*
X0067935Y0064298D01*
X0070384Y0064298D02*
X0070384Y0060595D01*
X0071618Y0063064D02*
X0070384Y0064298D01*
X0070891Y0056423D02*
X0070891Y0052720D01*
X0072126Y0055189D02*
X0070891Y0056423D01*
X0070333Y0031655D02*
X0072801Y0031655D01*
X0072801Y0029803D01*
X0071567Y0030421D01*
X0070950Y0030421D01*
X0070333Y0029803D01*
X0070333Y0028569D01*
X0070950Y0027952D01*
X0072184Y0027952D01*
X0072801Y0028569D01*
X0074016Y0028569D02*
X0074633Y0027952D01*
X0075867Y0027952D01*
X0076484Y0028569D01*
X0076484Y0031038D01*
X0075867Y0031655D01*
X0074633Y0031655D01*
X0074016Y0031038D01*
X0074128Y0163301D02*
X0071660Y0163301D01*
X0072894Y0163301D02*
X0072894Y0167004D01*
X0074128Y0165770D01*
X0075343Y0166387D02*
X0075343Y0165153D01*
X0075960Y0164535D01*
X0077811Y0164535D01*
X0076577Y0164535D02*
X0075343Y0163301D01*
X0075343Y0166387D02*
X0075960Y0167004D01*
X0077811Y0167004D01*
X0077811Y0163301D01*
X0070445Y0163918D02*
X0069828Y0163301D01*
X0068594Y0163301D01*
X0067976Y0163918D01*
X0067976Y0164535D01*
X0068594Y0165153D01*
X0070445Y0165153D01*
X0070445Y0163918D01*
X0070445Y0165153D02*
X0069211Y0166387D01*
X0067976Y0167004D01*
X0069542Y0224884D02*
X0070777Y0224884D01*
X0071394Y0225501D01*
X0070160Y0226735D02*
X0069542Y0226735D01*
X0068925Y0226118D01*
X0068925Y0225501D01*
X0069542Y0224884D01*
X0069542Y0226735D02*
X0068925Y0227353D01*
X0068925Y0227970D01*
X0069542Y0228587D01*
X0070777Y0228587D01*
X0071394Y0227970D01*
X0072608Y0227970D02*
X0073226Y0228587D01*
X0074460Y0228587D01*
X0075077Y0227970D01*
X0075077Y0225501D01*
X0074460Y0224884D01*
X0073226Y0224884D01*
X0072608Y0225501D01*
X0072306Y0249020D02*
X0072306Y0252723D01*
X0073540Y0251489D01*
X0074755Y0252106D02*
X0074755Y0250872D01*
X0075372Y0250254D01*
X0077223Y0250254D01*
X0077223Y0249020D02*
X0077223Y0252723D01*
X0075372Y0252723D01*
X0074755Y0252106D01*
X0075989Y0250254D02*
X0074755Y0249020D01*
X0073540Y0249020D02*
X0071072Y0249020D01*
X0069857Y0249637D02*
X0069240Y0249020D01*
X0068006Y0249020D01*
X0067388Y0249637D01*
X0067388Y0250872D01*
X0068006Y0251489D01*
X0068623Y0251489D01*
X0069857Y0250872D01*
X0069857Y0252723D01*
X0067388Y0252723D01*
X0073687Y0275629D02*
X0073687Y0277480D01*
X0074304Y0278098D01*
X0074921Y0278098D01*
X0075539Y0277480D01*
X0075539Y0275629D01*
X0075539Y0277480D02*
X0076156Y0278098D01*
X0076773Y0278098D01*
X0077390Y0277480D01*
X0077390Y0275629D01*
X0073687Y0275629D01*
X0074304Y0279312D02*
X0073687Y0279929D01*
X0073687Y0281781D01*
X0076156Y0281781D01*
X0075539Y0282995D02*
X0075539Y0284230D01*
X0075539Y0285451D02*
X0075539Y0286685D01*
X0075539Y0287906D02*
X0076156Y0288523D01*
X0076156Y0289758D01*
X0075539Y0290375D01*
X0074921Y0290375D01*
X0074921Y0287906D01*
X0074304Y0287906D02*
X0075539Y0287906D01*
X0074304Y0287906D02*
X0073687Y0288523D01*
X0073687Y0289758D01*
X0073687Y0291589D02*
X0076156Y0291589D01*
X0076156Y0292824D02*
X0076156Y0293441D01*
X0076156Y0292824D02*
X0074921Y0291589D01*
X0075539Y0294658D02*
X0074921Y0295276D01*
X0074921Y0296510D01*
X0074304Y0297127D01*
X0073687Y0296510D01*
X0073687Y0294658D01*
X0073687Y0302025D02*
X0076156Y0302025D01*
X0076156Y0303259D02*
X0076156Y0303876D01*
X0076156Y0303259D02*
X0074921Y0302025D01*
X0074921Y0305094D02*
X0074921Y0307563D01*
X0075539Y0307563D01*
X0076156Y0306946D01*
X0076156Y0305711D01*
X0075539Y0305094D01*
X0074304Y0305094D01*
X0073687Y0305711D01*
X0073687Y0306946D01*
X0073687Y0310012D02*
X0076156Y0311246D01*
X0076156Y0308777D02*
X0073687Y0310012D01*
X0073687Y0316143D02*
X0073687Y0318612D01*
X0073687Y0319827D02*
X0073687Y0320444D01*
X0074304Y0320444D01*
X0074304Y0319827D01*
X0073687Y0319827D01*
X0073687Y0321668D02*
X0076156Y0324137D01*
X0076773Y0324137D01*
X0077390Y0323520D01*
X0077390Y0322285D01*
X0076773Y0321668D01*
X0077390Y0317378D02*
X0073687Y0317378D01*
X0073687Y0321668D02*
X0073687Y0324137D01*
X0077390Y0317378D02*
X0076156Y0316143D01*
X0076156Y0297127D02*
X0076156Y0295276D01*
X0075539Y0294658D01*
X0077390Y0286685D02*
X0076773Y0286068D01*
X0073687Y0286068D01*
X0073687Y0283612D02*
X0076773Y0283612D01*
X0077390Y0284230D01*
X0076156Y0279312D02*
X0074304Y0279312D01*
X0067685Y0299104D02*
X0067685Y0302808D01*
X0065833Y0302808D01*
X0065216Y0302190D01*
X0065216Y0300956D01*
X0065833Y0300339D01*
X0067685Y0300339D01*
X0066450Y0300339D02*
X0065216Y0299104D01*
X0064002Y0299104D02*
X0061533Y0299104D01*
X0060319Y0300956D02*
X0057850Y0300956D01*
X0058467Y0299104D02*
X0058467Y0302808D01*
X0060319Y0300956D01*
X0062767Y0302808D02*
X0062767Y0299104D01*
X0064002Y0301573D02*
X0062767Y0302808D01*
X0070904Y0355045D02*
X0073373Y0355045D01*
X0074587Y0355662D02*
X0075204Y0355045D01*
X0076439Y0355045D01*
X0077056Y0355662D01*
X0077056Y0358131D01*
X0076439Y0358748D01*
X0075204Y0358748D01*
X0074587Y0358131D01*
X0073373Y0357513D02*
X0072138Y0358748D01*
X0072138Y0355045D01*
X0072499Y0379497D02*
X0070031Y0379497D01*
X0071265Y0379497D02*
X0071265Y0383200D01*
X0072499Y0381965D01*
X0073714Y0381348D02*
X0074331Y0380731D01*
X0076183Y0380731D01*
X0076183Y0379497D02*
X0076183Y0383200D01*
X0074331Y0383200D01*
X0073714Y0382583D01*
X0073714Y0381348D01*
X0074948Y0380731D02*
X0073714Y0379497D01*
X0068816Y0380114D02*
X0068199Y0379497D01*
X0066965Y0379497D01*
X0066348Y0380114D01*
X0066348Y0380731D01*
X0066965Y0381348D01*
X0067582Y0381348D01*
X0066965Y0381348D02*
X0066348Y0381965D01*
X0066348Y0382583D01*
X0066965Y0383200D01*
X0068199Y0383200D01*
X0068816Y0382583D01*
X0071684Y0403219D02*
X0073619Y0403219D01*
X0072651Y0403219D02*
X0072651Y0406121D01*
X0073619Y0405154D01*
X0074630Y0405637D02*
X0075114Y0406121D01*
X0076565Y0406121D01*
X0076565Y0403219D01*
X0075114Y0403219D01*
X0074630Y0403702D01*
X0074630Y0405637D01*
X0057015Y0405195D02*
X0057015Y0402727D01*
X0056397Y0402109D01*
X0055163Y0402109D01*
X0054546Y0402727D01*
X0054546Y0405195D02*
X0055163Y0405813D01*
X0056397Y0405813D01*
X0057015Y0405195D01*
X0053331Y0405813D02*
X0050863Y0405813D01*
X0050863Y0405195D01*
X0053331Y0402727D01*
X0053331Y0402109D01*
X0049402Y0386477D02*
X0049402Y0382774D01*
X0049402Y0384008D02*
X0047551Y0384008D01*
X0046934Y0384626D01*
X0046934Y0385860D01*
X0047551Y0386477D01*
X0049402Y0386477D01*
X0048168Y0384008D02*
X0046934Y0382774D01*
X0045719Y0384626D02*
X0043250Y0384626D01*
X0043868Y0386477D02*
X0045719Y0384626D01*
X0043868Y0386477D02*
X0043868Y0382774D01*
X0035849Y0402268D02*
X0036466Y0402885D01*
X0036466Y0405353D01*
X0035849Y0405971D01*
X0034615Y0405971D01*
X0033998Y0405353D01*
X0032783Y0405353D02*
X0032783Y0404736D01*
X0032166Y0404119D01*
X0030932Y0404119D01*
X0030315Y0403502D01*
X0030315Y0402885D01*
X0030932Y0402268D01*
X0032166Y0402268D01*
X0032783Y0402885D01*
X0032783Y0403502D01*
X0032166Y0404119D01*
X0030932Y0404119D02*
X0030315Y0404736D01*
X0030315Y0405353D01*
X0030932Y0405971D01*
X0032166Y0405971D01*
X0032783Y0405353D01*
X0033998Y0402885D02*
X0034615Y0402268D01*
X0035849Y0402268D01*
X0019195Y0383336D02*
X0019195Y0379633D01*
X0019195Y0380868D02*
X0017343Y0380868D01*
X0016726Y0381485D01*
X0016726Y0382719D01*
X0017343Y0383336D01*
X0019195Y0383336D01*
X0017961Y0380868D02*
X0016726Y0379633D01*
X0015512Y0379633D02*
X0013043Y0379633D01*
X0014277Y0379633D02*
X0014277Y0383336D01*
X0015512Y0382102D01*
X0015092Y0404205D02*
X0013641Y0404205D01*
X0013157Y0404689D01*
X0013157Y0406624D01*
X0013641Y0407108D01*
X0015092Y0407108D01*
X0015092Y0404205D01*
X0012146Y0404205D02*
X0010211Y0406140D01*
X0010211Y0406624D01*
X0010694Y0407108D01*
X0011662Y0407108D01*
X0012146Y0406624D01*
X0012146Y0404205D02*
X0010211Y0404205D01*
X0012865Y0359241D02*
X0012248Y0358624D01*
X0012248Y0358007D01*
X0014717Y0355538D01*
X0012248Y0355538D01*
X0012865Y0359241D02*
X0014100Y0359241D01*
X0014717Y0358624D01*
X0015931Y0358624D02*
X0016548Y0359241D01*
X0017783Y0359241D01*
X0018400Y0358624D01*
X0018400Y0356155D01*
X0017783Y0355538D01*
X0016548Y0355538D01*
X0015931Y0356155D01*
X0016872Y0316878D02*
X0016254Y0316261D01*
X0016254Y0315027D01*
X0016872Y0314410D01*
X0018723Y0314410D01*
X0017489Y0314410D02*
X0016254Y0313175D01*
X0015040Y0313175D02*
X0012571Y0315644D01*
X0012571Y0316261D01*
X0013188Y0316878D01*
X0014423Y0316878D01*
X0015040Y0316261D01*
X0015040Y0313175D02*
X0012571Y0313175D01*
X0016872Y0316878D02*
X0018723Y0316878D01*
X0018723Y0313175D01*
X0019300Y0290280D02*
X0017448Y0290280D01*
X0016831Y0289663D01*
X0016831Y0288428D01*
X0017448Y0287811D01*
X0019300Y0287811D01*
X0019300Y0286577D02*
X0019300Y0290280D01*
X0018065Y0287811D02*
X0016831Y0286577D01*
X0015617Y0287194D02*
X0014999Y0286577D01*
X0013765Y0286577D01*
X0013148Y0287194D01*
X0013148Y0288428D01*
X0013765Y0289046D01*
X0014382Y0289046D01*
X0015617Y0288428D01*
X0015617Y0290280D01*
X0013148Y0290280D01*
X0014342Y0272864D02*
X0011873Y0272864D01*
X0011873Y0272247D01*
X0014342Y0269778D01*
X0014342Y0269161D01*
X0015556Y0269161D02*
X0016791Y0270395D01*
X0016174Y0270395D02*
X0018025Y0270395D01*
X0018025Y0269161D02*
X0018025Y0272864D01*
X0016174Y0272864D01*
X0015556Y0272247D01*
X0015556Y0271012D01*
X0016174Y0270395D01*
X0015771Y0253153D02*
X0015153Y0252536D01*
X0015153Y0251302D01*
X0015771Y0250684D01*
X0017622Y0250684D01*
X0017622Y0249450D02*
X0017622Y0253153D01*
X0015771Y0253153D01*
X0016388Y0250684D02*
X0015153Y0249450D01*
X0013939Y0250067D02*
X0013322Y0249450D01*
X0012087Y0249450D01*
X0011470Y0250067D01*
X0011470Y0252536D01*
X0012087Y0253153D01*
X0013322Y0253153D01*
X0013939Y0252536D01*
X0013939Y0251919D01*
X0013322Y0251302D01*
X0011470Y0251302D01*
X0012219Y0228489D02*
X0014070Y0226637D01*
X0011602Y0226637D01*
X0012219Y0224786D02*
X0012219Y0228489D01*
X0015285Y0227872D02*
X0015902Y0228489D01*
X0017136Y0228489D01*
X0017754Y0227872D01*
X0017754Y0225403D01*
X0017136Y0224786D01*
X0015902Y0224786D01*
X0015285Y0225403D01*
X0030438Y0179710D02*
X0031673Y0179093D01*
X0032907Y0177858D01*
X0031055Y0177858D01*
X0030438Y0177241D01*
X0030438Y0176624D01*
X0031055Y0176007D01*
X0032290Y0176007D01*
X0032907Y0176624D01*
X0032907Y0177858D01*
X0034121Y0177858D02*
X0034738Y0177241D01*
X0036590Y0177241D01*
X0035356Y0177241D02*
X0034121Y0176007D01*
X0034121Y0177858D02*
X0034121Y0179093D01*
X0034738Y0179710D01*
X0036590Y0179710D01*
X0036590Y0176007D01*
X0036503Y0167324D02*
X0034652Y0167324D01*
X0034035Y0166707D01*
X0034035Y0165473D01*
X0034652Y0164856D01*
X0036503Y0164856D01*
X0036503Y0163621D02*
X0036503Y0167324D01*
X0035269Y0164856D02*
X0034035Y0163621D01*
X0032820Y0164238D02*
X0032203Y0163621D01*
X0030969Y0163621D01*
X0030351Y0164238D01*
X0030351Y0164856D01*
X0030969Y0165473D01*
X0031586Y0165473D01*
X0030969Y0165473D02*
X0030351Y0166090D01*
X0030351Y0166707D01*
X0030969Y0167324D01*
X0032203Y0167324D01*
X0032820Y0166707D01*
X0016737Y0123016D02*
X0016737Y0119313D01*
X0016737Y0120548D02*
X0014886Y0120548D01*
X0014268Y0121165D01*
X0014268Y0122399D01*
X0014886Y0123016D01*
X0016737Y0123016D01*
X0015503Y0120548D02*
X0014268Y0119313D01*
X0013054Y0119930D02*
X0013054Y0120548D01*
X0012437Y0121165D01*
X0011202Y0121165D01*
X0010585Y0120548D01*
X0010585Y0119930D01*
X0011202Y0119313D01*
X0012437Y0119313D01*
X0013054Y0119930D01*
X0012437Y0121165D02*
X0013054Y0121782D01*
X0013054Y0122399D01*
X0012437Y0123016D01*
X0011202Y0123016D01*
X0010585Y0122399D01*
X0010585Y0121782D01*
X0011202Y0121165D01*
X0011827Y0097056D02*
X0011827Y0093353D01*
X0013061Y0093353D02*
X0010592Y0093353D01*
X0009378Y0093353D02*
X0006909Y0093353D01*
X0008144Y0093353D02*
X0008144Y0097056D01*
X0009378Y0095822D01*
X0011827Y0097056D02*
X0013061Y0095822D01*
X0014276Y0096439D02*
X0014276Y0095204D01*
X0014893Y0094587D01*
X0016744Y0094587D01*
X0015510Y0094587D02*
X0014276Y0093353D01*
X0014276Y0096439D02*
X0014893Y0097056D01*
X0016744Y0097056D01*
X0016744Y0093353D01*
X0019779Y0076913D02*
X0019296Y0076430D01*
X0019296Y0074978D01*
X0020263Y0074978D02*
X0020263Y0076430D01*
X0019779Y0076913D01*
X0020263Y0076430D02*
X0020747Y0076913D01*
X0021231Y0076913D01*
X0021231Y0074978D01*
X0022242Y0075462D02*
X0022242Y0076430D01*
X0022726Y0076913D01*
X0023693Y0076913D01*
X0024177Y0076430D01*
X0024177Y0075462D01*
X0023693Y0074978D01*
X0022726Y0074978D01*
X0022242Y0075462D01*
X0025189Y0074978D02*
X0026640Y0074978D01*
X0027124Y0075462D01*
X0027124Y0076430D01*
X0026640Y0076913D01*
X0025189Y0076913D01*
X0028113Y0075462D02*
X0028113Y0074978D01*
X0028597Y0074978D01*
X0028597Y0075462D01*
X0028113Y0075462D01*
X0018387Y0056848D02*
X0018387Y0053145D01*
X0018387Y0054380D02*
X0016535Y0054380D01*
X0015918Y0054997D01*
X0015918Y0056231D01*
X0016535Y0056848D01*
X0018387Y0056848D01*
X0017153Y0054380D02*
X0015918Y0053145D01*
X0014704Y0053145D02*
X0012235Y0053145D01*
X0013470Y0053145D02*
X0013470Y0056848D01*
X0014704Y0055614D01*
X0011021Y0056231D02*
X0011021Y0053762D01*
X0008552Y0056231D01*
X0008552Y0053762D01*
X0009169Y0053145D01*
X0010404Y0053145D01*
X0011021Y0053762D01*
X0011021Y0056231D02*
X0010404Y0056848D01*
X0009169Y0056848D01*
X0008552Y0056231D01*
X0011812Y0031556D02*
X0013046Y0030939D01*
X0014281Y0029705D01*
X0012429Y0029705D01*
X0011812Y0029087D01*
X0011812Y0028470D01*
X0012429Y0027853D01*
X0013663Y0027853D01*
X0014281Y0028470D01*
X0014281Y0029705D01*
X0015495Y0030939D02*
X0016112Y0031556D01*
X0017347Y0031556D01*
X0017964Y0030939D01*
X0017964Y0028470D01*
X0017347Y0027853D01*
X0016112Y0027853D01*
X0015495Y0028470D01*
D12*
X0035834Y0031006D02*
X0035834Y0049006D01*
X0050434Y0049006D01*
X0050434Y0031006D01*
X0035834Y0031006D01*
X0035425Y0224737D02*
X0035425Y0242737D01*
X0050025Y0242737D01*
X0050025Y0224737D01*
X0035425Y0224737D01*
X0047094Y0277529D02*
X0047094Y0278808D01*
X0047520Y0279234D01*
X0047946Y0279234D01*
X0048373Y0278808D01*
X0048373Y0277529D01*
X0048373Y0278808D02*
X0048799Y0279234D01*
X0049225Y0279234D01*
X0049652Y0278808D01*
X0049652Y0277529D01*
X0047094Y0277529D01*
X0047520Y0280066D02*
X0047094Y0280493D01*
X0047094Y0281772D01*
X0048373Y0281772D01*
X0048799Y0281345D01*
X0048799Y0280493D01*
X0047946Y0280493D02*
X0047946Y0281772D01*
X0048373Y0282604D02*
X0047946Y0283030D01*
X0047946Y0283883D01*
X0047520Y0284309D01*
X0047094Y0283883D01*
X0047094Y0282604D01*
X0047946Y0280493D02*
X0047520Y0280066D01*
X0048373Y0282604D02*
X0048799Y0283030D01*
X0048799Y0284309D01*
X0048373Y0285141D02*
X0048799Y0285568D01*
X0048799Y0286420D01*
X0048373Y0286847D01*
X0047946Y0286847D01*
X0047946Y0285141D01*
X0047520Y0285141D02*
X0048373Y0285141D01*
X0047520Y0285141D02*
X0047094Y0285568D01*
X0047094Y0286420D01*
X0047520Y0287679D02*
X0047094Y0288105D01*
X0047094Y0289384D01*
X0049652Y0289384D01*
X0048799Y0289384D02*
X0048799Y0288105D01*
X0048373Y0287679D01*
X0047520Y0287679D01*
X0047520Y0292754D02*
X0047094Y0293181D01*
X0047094Y0294033D01*
X0047520Y0294460D01*
X0048373Y0294460D01*
X0048799Y0294033D01*
X0048799Y0293181D01*
X0048373Y0292754D01*
X0047520Y0292754D01*
X0047094Y0295292D02*
X0048799Y0295292D01*
X0048799Y0296571D01*
X0048373Y0296997D01*
X0047094Y0296997D01*
X0045944Y0295718D02*
X0045518Y0295718D01*
X0044665Y0295718D02*
X0042960Y0295718D01*
X0042960Y0295292D02*
X0042960Y0296145D01*
X0043386Y0296984D02*
X0044239Y0296984D01*
X0044665Y0297410D01*
X0044665Y0298263D01*
X0044239Y0298689D01*
X0043813Y0298689D01*
X0043813Y0296984D01*
X0043386Y0296984D02*
X0042960Y0297410D01*
X0042960Y0298263D01*
X0042960Y0299521D02*
X0044665Y0299521D01*
X0043813Y0299521D02*
X0044665Y0300374D01*
X0044665Y0300800D01*
X0045092Y0304173D02*
X0043386Y0304173D01*
X0042960Y0304600D01*
X0042960Y0305452D01*
X0043386Y0305879D01*
X0044239Y0305879D01*
X0044239Y0305026D01*
X0045092Y0304173D02*
X0045518Y0304600D01*
X0045518Y0305452D01*
X0045092Y0305879D01*
X0044665Y0306711D02*
X0044665Y0307137D01*
X0042960Y0307137D01*
X0042960Y0306711D02*
X0042960Y0307564D01*
X0042960Y0308403D02*
X0042960Y0309255D01*
X0042960Y0308829D02*
X0045518Y0308829D01*
X0045518Y0308403D01*
X0045518Y0307137D02*
X0045944Y0307137D01*
X0047094Y0306711D02*
X0049652Y0306711D01*
X0047094Y0308416D01*
X0049652Y0308416D01*
X0049652Y0309249D02*
X0047094Y0309249D01*
X0047946Y0309249D02*
X0049652Y0310954D01*
X0049225Y0311786D02*
X0048799Y0311786D01*
X0048373Y0312213D01*
X0048373Y0313065D01*
X0047946Y0313492D01*
X0047520Y0313492D01*
X0047094Y0313065D01*
X0047094Y0312213D01*
X0047520Y0311786D01*
X0047094Y0310954D02*
X0048373Y0309675D01*
X0049225Y0311786D02*
X0049652Y0312213D01*
X0049652Y0313065D01*
X0049225Y0313492D01*
X0048799Y0314324D02*
X0049225Y0314750D01*
X0050078Y0314750D01*
X0050078Y0315603D02*
X0049225Y0315603D01*
X0048799Y0315177D01*
X0048373Y0318976D02*
X0048373Y0320255D01*
X0047946Y0320681D01*
X0047520Y0320681D01*
X0047094Y0320255D01*
X0047094Y0318976D01*
X0049652Y0318976D01*
X0049652Y0320255D01*
X0049225Y0320681D01*
X0048799Y0320681D01*
X0048373Y0320255D01*
X0048799Y0321514D02*
X0047520Y0321514D01*
X0047094Y0321940D01*
X0047094Y0323219D01*
X0046667Y0323219D02*
X0046241Y0322793D01*
X0046241Y0322366D01*
X0046667Y0323219D02*
X0048799Y0323219D01*
X0048799Y0324051D02*
X0048373Y0324051D01*
X0048373Y0324478D01*
X0048799Y0324478D01*
X0048799Y0324051D01*
X0047520Y0324051D02*
X0047094Y0324051D01*
X0047094Y0324478D01*
X0047520Y0324478D01*
X0047520Y0324051D01*
X0044665Y0315177D02*
X0044665Y0314324D01*
X0045092Y0314750D02*
X0043386Y0314750D01*
X0042960Y0315177D01*
X0043813Y0313492D02*
X0043813Y0311786D01*
X0044239Y0311786D02*
X0044665Y0312213D01*
X0044665Y0313065D01*
X0044239Y0313492D01*
X0043813Y0313492D01*
X0042960Y0313065D02*
X0042960Y0312213D01*
X0043386Y0311786D01*
X0044239Y0311786D01*
X0042960Y0310947D02*
X0042960Y0310095D01*
X0042960Y0310521D02*
X0045518Y0310521D01*
X0045518Y0310095D01*
X0047094Y0305872D02*
X0047094Y0305019D01*
X0047094Y0305446D02*
X0049652Y0305446D01*
X0049652Y0305872D02*
X0049652Y0305019D01*
X0049652Y0302482D02*
X0047094Y0302482D01*
X0047094Y0304187D01*
X0049225Y0301646D02*
X0048799Y0301220D01*
X0049225Y0301646D02*
X0050078Y0301646D01*
X0050078Y0300793D02*
X0049225Y0300793D01*
X0048799Y0300367D01*
X0045944Y0291489D02*
X0045518Y0291489D01*
X0044665Y0291489D02*
X0042960Y0291489D01*
X0042960Y0291063D02*
X0042960Y0291915D01*
X0042960Y0290223D02*
X0042960Y0289371D01*
X0042960Y0289797D02*
X0045518Y0289797D01*
X0045518Y0289371D01*
X0045092Y0288539D02*
X0045518Y0288112D01*
X0045518Y0287260D01*
X0045092Y0286833D01*
X0043386Y0286833D01*
X0042960Y0287260D01*
X0042960Y0288112D01*
X0043386Y0288539D01*
X0045092Y0288539D01*
X0044665Y0291063D02*
X0044665Y0291489D01*
X0044665Y0292754D02*
X0042960Y0293607D01*
X0044665Y0294460D01*
X0044665Y0295292D02*
X0044665Y0295718D01*
X0041810Y0308829D02*
X0041384Y0308829D01*
X0040531Y0308829D02*
X0038826Y0308829D01*
X0038826Y0308403D02*
X0038826Y0309255D01*
X0039252Y0310095D02*
X0038826Y0310521D01*
X0038826Y0311800D01*
X0038400Y0311800D02*
X0040531Y0311800D01*
X0040531Y0310521D01*
X0040105Y0310095D01*
X0039252Y0310095D01*
X0040531Y0308829D02*
X0040531Y0308403D01*
X0040531Y0307571D02*
X0040531Y0306292D01*
X0040105Y0305865D01*
X0039679Y0306292D01*
X0039679Y0307144D01*
X0039252Y0307571D01*
X0038826Y0307144D01*
X0038826Y0305865D01*
X0039679Y0305033D02*
X0039679Y0303328D01*
X0040105Y0303328D02*
X0039252Y0303328D01*
X0038826Y0303754D01*
X0038826Y0304607D01*
X0039679Y0305033D02*
X0040105Y0305033D01*
X0040531Y0304607D01*
X0040531Y0303754D01*
X0040105Y0303328D01*
X0039252Y0302495D02*
X0040958Y0302495D01*
X0041384Y0302069D01*
X0041384Y0300790D01*
X0038826Y0300790D01*
X0038826Y0302069D01*
X0039252Y0302495D01*
X0038826Y0297420D02*
X0040531Y0295715D01*
X0040958Y0295715D01*
X0041384Y0296141D01*
X0040958Y0296567D01*
X0040531Y0296567D01*
X0039679Y0295715D01*
X0039252Y0295715D01*
X0038826Y0296141D01*
X0038826Y0296567D01*
X0039679Y0297420D01*
X0040531Y0292338D02*
X0040531Y0291485D01*
X0040958Y0291912D02*
X0039252Y0291912D01*
X0038826Y0292338D01*
X0038826Y0290653D02*
X0040531Y0290653D01*
X0040531Y0288948D02*
X0039252Y0288948D01*
X0038826Y0289374D01*
X0038826Y0290653D01*
X0037250Y0290005D02*
X0034692Y0290005D01*
X0035118Y0289173D02*
X0034692Y0288747D01*
X0034692Y0287894D01*
X0035118Y0287468D01*
X0035971Y0287894D02*
X0035971Y0288747D01*
X0035545Y0289173D01*
X0035118Y0289173D01*
X0035971Y0290005D02*
X0036398Y0290432D01*
X0036398Y0291284D01*
X0035971Y0291711D01*
X0034692Y0291711D01*
X0035118Y0292543D02*
X0035545Y0292969D01*
X0035545Y0294248D01*
X0035971Y0294248D02*
X0034692Y0294248D01*
X0034692Y0292969D01*
X0035118Y0292543D01*
X0036398Y0293822D02*
X0035971Y0294248D01*
X0036398Y0293822D02*
X0036398Y0292969D01*
X0036398Y0295080D02*
X0035118Y0295080D01*
X0034692Y0295507D01*
X0034692Y0296786D01*
X0034266Y0296786D02*
X0033839Y0296359D01*
X0033839Y0295933D01*
X0033116Y0296349D02*
X0033116Y0297628D01*
X0032690Y0298055D01*
X0031837Y0298055D01*
X0031411Y0297628D01*
X0031411Y0296349D01*
X0030558Y0296349D02*
X0033116Y0296349D01*
X0033116Y0295510D02*
X0032264Y0294657D01*
X0031411Y0294657D01*
X0030558Y0295510D01*
X0030558Y0298887D02*
X0030558Y0300592D01*
X0030985Y0301424D02*
X0030558Y0301851D01*
X0030558Y0302703D01*
X0030985Y0303130D01*
X0033116Y0303130D01*
X0033116Y0303962D02*
X0032264Y0304815D01*
X0033116Y0305667D01*
X0030558Y0305667D01*
X0030558Y0306500D02*
X0031411Y0307352D01*
X0032264Y0307352D01*
X0033116Y0306500D01*
X0033116Y0303962D02*
X0030558Y0303962D01*
X0030985Y0301424D02*
X0033116Y0301424D01*
X0033116Y0298887D02*
X0030558Y0298887D01*
X0034266Y0296786D02*
X0036398Y0296786D01*
X0036398Y0300156D02*
X0035971Y0300582D01*
X0035971Y0301435D01*
X0035545Y0301861D01*
X0035118Y0301861D01*
X0034692Y0301435D01*
X0034692Y0300582D01*
X0035118Y0300156D01*
X0034692Y0302693D02*
X0037250Y0302693D01*
X0036824Y0301861D02*
X0037250Y0301435D01*
X0037250Y0300582D01*
X0036824Y0300156D01*
X0036398Y0300156D01*
X0035971Y0302693D02*
X0036398Y0303120D01*
X0036398Y0303972D01*
X0035971Y0304399D01*
X0034692Y0304399D01*
X0035118Y0305231D02*
X0035971Y0305231D01*
X0036398Y0305657D01*
X0036398Y0306510D01*
X0035971Y0306936D01*
X0035545Y0306936D01*
X0035545Y0305231D01*
X0035118Y0305231D02*
X0034692Y0305657D01*
X0034692Y0306510D01*
X0034692Y0307768D02*
X0034692Y0309474D01*
X0034692Y0310306D02*
X0034692Y0311159D01*
X0034692Y0310732D02*
X0036398Y0310732D01*
X0036398Y0310306D01*
X0036398Y0309474D02*
X0034692Y0307768D01*
X0035971Y0311998D02*
X0035971Y0312850D01*
X0036398Y0313689D02*
X0036398Y0314116D01*
X0034692Y0314116D01*
X0034692Y0314542D02*
X0034692Y0313689D01*
X0034692Y0312424D02*
X0036824Y0312424D01*
X0037250Y0312850D01*
X0037250Y0314116D02*
X0037677Y0314116D01*
X0038826Y0314338D02*
X0040105Y0314338D01*
X0040531Y0313911D01*
X0040531Y0312632D01*
X0038826Y0312632D01*
X0038400Y0311800D02*
X0037973Y0311374D01*
X0037973Y0310947D01*
X0037677Y0310732D02*
X0037250Y0310732D01*
X0036398Y0309474D02*
X0036398Y0307768D01*
X0038826Y0317707D02*
X0038826Y0318986D01*
X0039252Y0319413D01*
X0039679Y0319413D01*
X0040105Y0318986D01*
X0040105Y0317707D01*
X0038826Y0317707D02*
X0041384Y0317707D01*
X0041384Y0318986D01*
X0040958Y0319413D01*
X0040531Y0319413D01*
X0040105Y0318986D01*
X0040531Y0320245D02*
X0039252Y0320245D01*
X0038826Y0320671D01*
X0038826Y0321950D01*
X0038400Y0321950D02*
X0037973Y0321524D01*
X0037973Y0321098D01*
X0038400Y0321950D02*
X0040531Y0321950D01*
X0040531Y0322783D02*
X0040105Y0322783D01*
X0040105Y0323209D01*
X0040531Y0323209D01*
X0040531Y0322783D01*
X0039252Y0322783D02*
X0038826Y0322783D01*
X0038826Y0323209D01*
X0039252Y0323209D01*
X0039252Y0322783D01*
X0036361Y0355161D02*
X0036361Y0373161D01*
X0050961Y0373161D01*
X0050961Y0355161D01*
X0036361Y0355161D01*
X0036824Y0289173D02*
X0037250Y0288747D01*
X0037250Y0287894D01*
X0036824Y0287468D01*
X0036398Y0287468D01*
X0035971Y0287894D01*
X0038400Y0285578D02*
X0037973Y0285152D01*
X0037973Y0284725D01*
X0038826Y0284299D02*
X0038826Y0285578D01*
X0038400Y0285578D02*
X0040531Y0285578D01*
X0040105Y0286410D02*
X0039252Y0286410D01*
X0038826Y0286837D01*
X0038826Y0287689D01*
X0039252Y0288116D01*
X0040105Y0288116D01*
X0040531Y0287689D01*
X0040531Y0286837D01*
X0040105Y0286410D01*
X0038826Y0284299D02*
X0039252Y0283873D01*
X0040531Y0283873D01*
X0040105Y0283040D02*
X0038826Y0283040D01*
X0038826Y0281761D01*
X0039252Y0281335D01*
X0039679Y0281761D01*
X0039679Y0283040D01*
X0040105Y0283040D02*
X0040531Y0282614D01*
X0040531Y0281761D01*
X0041384Y0278797D02*
X0038826Y0278797D01*
X0038826Y0280503D01*
D13*
X0073341Y0411516D03*
D14*
X0073341Y0423870D03*
X0012613Y0424405D03*
X0012613Y0412051D03*
D15*
X0010338Y0413849D02*
X0009763Y0413858D01*
X0015319Y0413927D01*
X0015456Y0413849D01*
X0015456Y0422511D01*
X0009658Y0422553D01*
X0009693Y0413927D01*
X0070498Y0413411D02*
X0076296Y0413368D01*
X0076261Y0421994D01*
X0076191Y0422064D02*
X0070635Y0421994D01*
X0070498Y0422072D01*
X0070498Y0413411D01*
X0075616Y0422072D02*
X0076191Y0422064D01*
D16*
X0073450Y0415183D03*
X0012504Y0420739D03*
D17*
X0017840Y0426037D02*
X0017840Y0411037D01*
X0020340Y0408537D01*
X0025340Y0408537D01*
X0027840Y0411037D01*
X0027840Y0426037D01*
X0030340Y0428537D01*
X0035340Y0428537D01*
X0037840Y0426037D01*
X0037840Y0411037D01*
X0040340Y0408537D01*
X0045340Y0408537D01*
X0047840Y0411037D01*
X0047840Y0426037D01*
X0050340Y0428537D01*
X0055340Y0428537D01*
X0057840Y0426037D01*
X0060340Y0428537D01*
X0065340Y0428537D01*
X0067840Y0426037D01*
X0067840Y0411037D01*
X0065340Y0408537D01*
X0060340Y0408537D01*
X0057840Y0411037D01*
X0057840Y0426037D01*
X0057840Y0411037D02*
X0055340Y0408537D01*
X0050340Y0408537D01*
X0047840Y0411037D01*
X0047840Y0426037D02*
X0045340Y0428537D01*
X0040340Y0428537D01*
X0037840Y0426037D01*
X0037840Y0411037D02*
X0035340Y0408537D01*
X0030340Y0408537D01*
X0027840Y0411037D01*
X0027840Y0426037D02*
X0025340Y0428537D01*
X0020340Y0428537D01*
X0017840Y0426037D01*
X0019317Y0378372D02*
X0013411Y0378372D01*
X0013411Y0370891D01*
X0019317Y0370891D01*
X0019317Y0378372D01*
X0025222Y0378372D01*
X0025222Y0370891D01*
X0019317Y0370891D01*
X0019317Y0367742D02*
X0019317Y0360261D01*
X0013411Y0360261D01*
X0013411Y0367742D01*
X0019317Y0367742D01*
X0025222Y0367742D01*
X0025222Y0360261D01*
X0019317Y0360261D01*
X0029659Y0380480D02*
X0029659Y0387960D01*
X0035565Y0387960D01*
X0035565Y0380480D01*
X0029659Y0380480D01*
X0035565Y0380480D02*
X0041470Y0380480D01*
X0041470Y0387960D01*
X0035565Y0387960D01*
X0035461Y0374061D02*
X0051861Y0374061D01*
X0051861Y0354261D01*
X0035461Y0354261D01*
X0035461Y0374061D01*
X0046661Y0370561D02*
X0046663Y0370645D01*
X0046669Y0370730D01*
X0046679Y0370813D01*
X0046693Y0370897D01*
X0046710Y0370979D01*
X0046732Y0371061D01*
X0046757Y0371141D01*
X0046786Y0371220D01*
X0046819Y0371298D01*
X0046855Y0371374D01*
X0046895Y0371449D01*
X0046939Y0371521D01*
X0046985Y0371592D01*
X0047035Y0371660D01*
X0047088Y0371725D01*
X0047144Y0371788D01*
X0047203Y0371849D01*
X0047265Y0371906D01*
X0047329Y0371961D01*
X0047396Y0372012D01*
X0047465Y0372061D01*
X0047537Y0372106D01*
X0047610Y0372147D01*
X0047685Y0372185D01*
X0047762Y0372220D01*
X0047841Y0372251D01*
X0047921Y0372278D01*
X0048002Y0372301D01*
X0048084Y0372321D01*
X0048167Y0372337D01*
X0048250Y0372349D01*
X0048335Y0372357D01*
X0048419Y0372361D01*
X0048503Y0372361D01*
X0048587Y0372357D01*
X0048672Y0372349D01*
X0048755Y0372337D01*
X0048838Y0372321D01*
X0048920Y0372301D01*
X0049001Y0372278D01*
X0049081Y0372251D01*
X0049160Y0372220D01*
X0049237Y0372185D01*
X0049312Y0372147D01*
X0049385Y0372106D01*
X0049457Y0372061D01*
X0049526Y0372012D01*
X0049593Y0371961D01*
X0049657Y0371906D01*
X0049719Y0371849D01*
X0049778Y0371788D01*
X0049834Y0371725D01*
X0049887Y0371660D01*
X0049937Y0371592D01*
X0049983Y0371521D01*
X0050027Y0371449D01*
X0050067Y0371374D01*
X0050103Y0371298D01*
X0050136Y0371220D01*
X0050165Y0371141D01*
X0050190Y0371061D01*
X0050212Y0370979D01*
X0050229Y0370897D01*
X0050243Y0370813D01*
X0050253Y0370730D01*
X0050259Y0370645D01*
X0050261Y0370561D01*
X0050259Y0370477D01*
X0050253Y0370392D01*
X0050243Y0370309D01*
X0050229Y0370225D01*
X0050212Y0370143D01*
X0050190Y0370061D01*
X0050165Y0369981D01*
X0050136Y0369902D01*
X0050103Y0369824D01*
X0050067Y0369748D01*
X0050027Y0369673D01*
X0049983Y0369601D01*
X0049937Y0369530D01*
X0049887Y0369462D01*
X0049834Y0369397D01*
X0049778Y0369334D01*
X0049719Y0369273D01*
X0049657Y0369216D01*
X0049593Y0369161D01*
X0049526Y0369110D01*
X0049457Y0369061D01*
X0049385Y0369016D01*
X0049312Y0368975D01*
X0049237Y0368937D01*
X0049160Y0368902D01*
X0049081Y0368871D01*
X0049001Y0368844D01*
X0048920Y0368821D01*
X0048838Y0368801D01*
X0048755Y0368785D01*
X0048672Y0368773D01*
X0048587Y0368765D01*
X0048503Y0368761D01*
X0048419Y0368761D01*
X0048335Y0368765D01*
X0048250Y0368773D01*
X0048167Y0368785D01*
X0048084Y0368801D01*
X0048002Y0368821D01*
X0047921Y0368844D01*
X0047841Y0368871D01*
X0047762Y0368902D01*
X0047685Y0368937D01*
X0047610Y0368975D01*
X0047537Y0369016D01*
X0047465Y0369061D01*
X0047396Y0369110D01*
X0047329Y0369161D01*
X0047265Y0369216D01*
X0047203Y0369273D01*
X0047144Y0369334D01*
X0047088Y0369397D01*
X0047035Y0369462D01*
X0046985Y0369530D01*
X0046939Y0369601D01*
X0046895Y0369673D01*
X0046855Y0369748D01*
X0046819Y0369824D01*
X0046786Y0369902D01*
X0046757Y0369981D01*
X0046732Y0370061D01*
X0046710Y0370143D01*
X0046693Y0370225D01*
X0046679Y0370309D01*
X0046669Y0370392D01*
X0046663Y0370477D01*
X0046661Y0370561D01*
X0055357Y0311509D02*
X0061262Y0311509D01*
X0061262Y0304028D01*
X0055357Y0304028D01*
X0055357Y0311509D01*
X0061262Y0311509D02*
X0067168Y0311509D01*
X0067168Y0304028D01*
X0061262Y0304028D01*
X0061229Y0360196D02*
X0061229Y0367677D01*
X0067134Y0367677D01*
X0067134Y0360196D01*
X0061229Y0360196D01*
X0061159Y0370326D02*
X0061159Y0377806D01*
X0067064Y0377806D01*
X0067064Y0370326D01*
X0061159Y0370326D01*
X0067064Y0370326D02*
X0072970Y0370326D01*
X0072970Y0377806D01*
X0067064Y0377806D01*
X0067134Y0367677D02*
X0073040Y0367677D01*
X0073040Y0360196D01*
X0067134Y0360196D01*
X0064268Y0247446D02*
X0058363Y0247446D01*
X0058363Y0239966D01*
X0064268Y0239966D01*
X0064268Y0247446D01*
X0070174Y0247446D01*
X0070174Y0239966D01*
X0064268Y0239966D01*
X0064268Y0237526D02*
X0064268Y0230046D01*
X0058363Y0230046D01*
X0058363Y0237526D01*
X0064268Y0237526D01*
X0070174Y0237526D01*
X0070174Y0230046D01*
X0064268Y0230046D01*
X0064791Y0168993D02*
X0058885Y0168993D01*
X0058885Y0161512D01*
X0052980Y0161512D01*
X0052980Y0168993D01*
X0058885Y0168993D01*
X0058885Y0161512D02*
X0064791Y0161512D01*
X0064791Y0168993D01*
X0050925Y0223837D02*
X0034525Y0223837D01*
X0034525Y0243637D01*
X0050925Y0243637D01*
X0050925Y0223837D01*
X0045725Y0240137D02*
X0045727Y0240221D01*
X0045733Y0240306D01*
X0045743Y0240389D01*
X0045757Y0240473D01*
X0045774Y0240555D01*
X0045796Y0240637D01*
X0045821Y0240717D01*
X0045850Y0240796D01*
X0045883Y0240874D01*
X0045919Y0240950D01*
X0045959Y0241025D01*
X0046003Y0241097D01*
X0046049Y0241168D01*
X0046099Y0241236D01*
X0046152Y0241301D01*
X0046208Y0241364D01*
X0046267Y0241425D01*
X0046329Y0241482D01*
X0046393Y0241537D01*
X0046460Y0241588D01*
X0046529Y0241637D01*
X0046601Y0241682D01*
X0046674Y0241723D01*
X0046749Y0241761D01*
X0046826Y0241796D01*
X0046905Y0241827D01*
X0046985Y0241854D01*
X0047066Y0241877D01*
X0047148Y0241897D01*
X0047231Y0241913D01*
X0047314Y0241925D01*
X0047399Y0241933D01*
X0047483Y0241937D01*
X0047567Y0241937D01*
X0047651Y0241933D01*
X0047736Y0241925D01*
X0047819Y0241913D01*
X0047902Y0241897D01*
X0047984Y0241877D01*
X0048065Y0241854D01*
X0048145Y0241827D01*
X0048224Y0241796D01*
X0048301Y0241761D01*
X0048376Y0241723D01*
X0048449Y0241682D01*
X0048521Y0241637D01*
X0048590Y0241588D01*
X0048657Y0241537D01*
X0048721Y0241482D01*
X0048783Y0241425D01*
X0048842Y0241364D01*
X0048898Y0241301D01*
X0048951Y0241236D01*
X0049001Y0241168D01*
X0049047Y0241097D01*
X0049091Y0241025D01*
X0049131Y0240950D01*
X0049167Y0240874D01*
X0049200Y0240796D01*
X0049229Y0240717D01*
X0049254Y0240637D01*
X0049276Y0240555D01*
X0049293Y0240473D01*
X0049307Y0240389D01*
X0049317Y0240306D01*
X0049323Y0240221D01*
X0049325Y0240137D01*
X0049323Y0240053D01*
X0049317Y0239968D01*
X0049307Y0239885D01*
X0049293Y0239801D01*
X0049276Y0239719D01*
X0049254Y0239637D01*
X0049229Y0239557D01*
X0049200Y0239478D01*
X0049167Y0239400D01*
X0049131Y0239324D01*
X0049091Y0239249D01*
X0049047Y0239177D01*
X0049001Y0239106D01*
X0048951Y0239038D01*
X0048898Y0238973D01*
X0048842Y0238910D01*
X0048783Y0238849D01*
X0048721Y0238792D01*
X0048657Y0238737D01*
X0048590Y0238686D01*
X0048521Y0238637D01*
X0048449Y0238592D01*
X0048376Y0238551D01*
X0048301Y0238513D01*
X0048224Y0238478D01*
X0048145Y0238447D01*
X0048065Y0238420D01*
X0047984Y0238397D01*
X0047902Y0238377D01*
X0047819Y0238361D01*
X0047736Y0238349D01*
X0047651Y0238341D01*
X0047567Y0238337D01*
X0047483Y0238337D01*
X0047399Y0238341D01*
X0047314Y0238349D01*
X0047231Y0238361D01*
X0047148Y0238377D01*
X0047066Y0238397D01*
X0046985Y0238420D01*
X0046905Y0238447D01*
X0046826Y0238478D01*
X0046749Y0238513D01*
X0046674Y0238551D01*
X0046601Y0238592D01*
X0046529Y0238637D01*
X0046460Y0238686D01*
X0046393Y0238737D01*
X0046329Y0238792D01*
X0046267Y0238849D01*
X0046208Y0238910D01*
X0046152Y0238973D01*
X0046099Y0239038D01*
X0046049Y0239106D01*
X0046003Y0239177D01*
X0045959Y0239249D01*
X0045919Y0239324D01*
X0045883Y0239400D01*
X0045850Y0239478D01*
X0045821Y0239557D01*
X0045796Y0239637D01*
X0045774Y0239719D01*
X0045757Y0239801D01*
X0045743Y0239885D01*
X0045733Y0239968D01*
X0045727Y0240053D01*
X0045725Y0240137D01*
X0028648Y0181009D02*
X0028648Y0173528D01*
X0022742Y0173528D01*
X0022742Y0181009D01*
X0028648Y0181009D01*
X0028578Y0168853D02*
X0022672Y0168853D01*
X0022672Y0161373D01*
X0016767Y0161373D01*
X0016767Y0168853D01*
X0022672Y0168853D01*
X0022742Y0173528D02*
X0016836Y0173528D01*
X0016836Y0181009D01*
X0022742Y0181009D01*
X0022672Y0161373D02*
X0028578Y0161373D01*
X0028578Y0168853D01*
X0026131Y0117016D02*
X0020225Y0117016D01*
X0020225Y0109536D01*
X0014320Y0109536D01*
X0014320Y0117016D01*
X0020225Y0117016D01*
X0020225Y0109536D02*
X0026131Y0109536D01*
X0026131Y0117016D01*
X0026061Y0106817D02*
X0020155Y0106817D01*
X0020155Y0099336D01*
X0014250Y0099336D01*
X0014250Y0106817D01*
X0020155Y0106817D01*
X0020155Y0099336D02*
X0026061Y0099336D01*
X0026061Y0106817D01*
X0036761Y0062525D02*
X0036761Y0055045D01*
X0042666Y0055045D01*
X0042666Y0062525D01*
X0048572Y0062525D01*
X0048572Y0055045D01*
X0042666Y0055045D01*
X0042666Y0062525D02*
X0036761Y0062525D01*
X0034934Y0049906D02*
X0051334Y0049906D01*
X0051334Y0030106D01*
X0034934Y0030106D01*
X0034934Y0049906D01*
X0026620Y0051487D02*
X0026620Y0044007D01*
X0020715Y0044007D01*
X0020715Y0051487D01*
X0026620Y0051487D01*
X0026550Y0040309D02*
X0020645Y0040309D01*
X0020645Y0032829D01*
X0014739Y0032829D01*
X0014739Y0040309D01*
X0020645Y0040309D01*
X0020715Y0044007D02*
X0014809Y0044007D01*
X0014809Y0051487D01*
X0020715Y0051487D01*
X0020645Y0032829D02*
X0026550Y0032829D01*
X0026550Y0040309D01*
X0046134Y0046406D02*
X0046136Y0046490D01*
X0046142Y0046575D01*
X0046152Y0046658D01*
X0046166Y0046742D01*
X0046183Y0046824D01*
X0046205Y0046906D01*
X0046230Y0046986D01*
X0046259Y0047065D01*
X0046292Y0047143D01*
X0046328Y0047219D01*
X0046368Y0047294D01*
X0046412Y0047366D01*
X0046458Y0047437D01*
X0046508Y0047505D01*
X0046561Y0047570D01*
X0046617Y0047633D01*
X0046676Y0047694D01*
X0046738Y0047751D01*
X0046802Y0047806D01*
X0046869Y0047857D01*
X0046938Y0047906D01*
X0047010Y0047951D01*
X0047083Y0047992D01*
X0047158Y0048030D01*
X0047235Y0048065D01*
X0047314Y0048096D01*
X0047394Y0048123D01*
X0047475Y0048146D01*
X0047557Y0048166D01*
X0047640Y0048182D01*
X0047723Y0048194D01*
X0047808Y0048202D01*
X0047892Y0048206D01*
X0047976Y0048206D01*
X0048060Y0048202D01*
X0048145Y0048194D01*
X0048228Y0048182D01*
X0048311Y0048166D01*
X0048393Y0048146D01*
X0048474Y0048123D01*
X0048554Y0048096D01*
X0048633Y0048065D01*
X0048710Y0048030D01*
X0048785Y0047992D01*
X0048858Y0047951D01*
X0048930Y0047906D01*
X0048999Y0047857D01*
X0049066Y0047806D01*
X0049130Y0047751D01*
X0049192Y0047694D01*
X0049251Y0047633D01*
X0049307Y0047570D01*
X0049360Y0047505D01*
X0049410Y0047437D01*
X0049456Y0047366D01*
X0049500Y0047294D01*
X0049540Y0047219D01*
X0049576Y0047143D01*
X0049609Y0047065D01*
X0049638Y0046986D01*
X0049663Y0046906D01*
X0049685Y0046824D01*
X0049702Y0046742D01*
X0049716Y0046658D01*
X0049726Y0046575D01*
X0049732Y0046490D01*
X0049734Y0046406D01*
X0049732Y0046322D01*
X0049726Y0046237D01*
X0049716Y0046154D01*
X0049702Y0046070D01*
X0049685Y0045988D01*
X0049663Y0045906D01*
X0049638Y0045826D01*
X0049609Y0045747D01*
X0049576Y0045669D01*
X0049540Y0045593D01*
X0049500Y0045518D01*
X0049456Y0045446D01*
X0049410Y0045375D01*
X0049360Y0045307D01*
X0049307Y0045242D01*
X0049251Y0045179D01*
X0049192Y0045118D01*
X0049130Y0045061D01*
X0049066Y0045006D01*
X0048999Y0044955D01*
X0048930Y0044906D01*
X0048858Y0044861D01*
X0048785Y0044820D01*
X0048710Y0044782D01*
X0048633Y0044747D01*
X0048554Y0044716D01*
X0048474Y0044689D01*
X0048393Y0044666D01*
X0048311Y0044646D01*
X0048228Y0044630D01*
X0048145Y0044618D01*
X0048060Y0044610D01*
X0047976Y0044606D01*
X0047892Y0044606D01*
X0047808Y0044610D01*
X0047723Y0044618D01*
X0047640Y0044630D01*
X0047557Y0044646D01*
X0047475Y0044666D01*
X0047394Y0044689D01*
X0047314Y0044716D01*
X0047235Y0044747D01*
X0047158Y0044782D01*
X0047083Y0044820D01*
X0047010Y0044861D01*
X0046938Y0044906D01*
X0046869Y0044955D01*
X0046802Y0045006D01*
X0046738Y0045061D01*
X0046676Y0045118D01*
X0046617Y0045179D01*
X0046561Y0045242D01*
X0046508Y0045307D01*
X0046458Y0045375D01*
X0046412Y0045446D01*
X0046368Y0045518D01*
X0046328Y0045593D01*
X0046292Y0045669D01*
X0046259Y0045747D01*
X0046230Y0045826D01*
X0046205Y0045906D01*
X0046183Y0045988D01*
X0046166Y0046070D01*
X0046152Y0046154D01*
X0046142Y0046237D01*
X0046136Y0046322D01*
X0046134Y0046406D01*
X0059034Y0043959D02*
X0059034Y0051439D01*
X0064940Y0051439D01*
X0064940Y0043959D01*
X0059034Y0043959D01*
X0058992Y0040463D02*
X0064897Y0040463D01*
X0064897Y0032983D01*
X0058992Y0032983D01*
X0058992Y0040463D01*
X0064897Y0040463D02*
X0070803Y0040463D01*
X0070803Y0032983D01*
X0064897Y0032983D01*
X0064940Y0043959D02*
X0070845Y0043959D01*
X0070845Y0051439D01*
X0064940Y0051439D01*
X0064897Y0065660D02*
X0064897Y0073141D01*
X0070803Y0073141D01*
X0070803Y0065660D01*
X0064897Y0065660D01*
X0058992Y0065660D01*
X0058992Y0073141D01*
X0064897Y0073141D01*
X0026620Y0230046D02*
X0020715Y0230046D01*
X0020715Y0237526D01*
X0026620Y0237526D01*
X0026620Y0230046D01*
X0026550Y0239826D02*
X0020645Y0239826D01*
X0020645Y0247307D01*
X0026550Y0247307D01*
X0026550Y0239826D01*
X0026201Y0259667D02*
X0020295Y0259667D01*
X0020295Y0267147D01*
X0026201Y0267147D01*
X0026201Y0259667D01*
X0020295Y0259667D02*
X0014390Y0259667D01*
X0014390Y0267147D01*
X0020295Y0267147D01*
X0020645Y0247307D02*
X0014739Y0247307D01*
X0014739Y0239826D01*
X0020645Y0239826D01*
X0020715Y0237526D02*
X0014809Y0237526D01*
X0014809Y0230046D01*
X0020715Y0230046D01*
X0019736Y0292362D02*
X0013830Y0292362D01*
X0013830Y0299842D01*
X0019736Y0299842D01*
X0019736Y0292362D01*
X0025641Y0292362D01*
X0025641Y0299842D01*
X0019736Y0299842D01*
X0019710Y0304356D02*
X0019710Y0311836D01*
X0025616Y0311836D01*
X0025616Y0304356D01*
X0019710Y0304356D01*
X0013805Y0304356D01*
X0013805Y0311836D01*
X0019710Y0311836D01*
D18*
X0022466Y0409080D02*
X0022466Y0426797D01*
D19*
X0026258Y0403007D02*
X0016809Y0403007D01*
X0016809Y0400448D01*
X0016809Y0392968D02*
X0016809Y0390409D01*
X0026258Y0390409D01*
X0029014Y0393165D01*
X0029014Y0400251D02*
X0026258Y0403007D01*
X0027636Y0400251D02*
X0027541Y0400369D01*
X0027443Y0400484D01*
X0027342Y0400596D01*
X0027238Y0400706D01*
X0027131Y0400813D01*
X0027022Y0400917D01*
X0026909Y0401018D01*
X0026795Y0401116D01*
X0026677Y0401211D01*
X0026557Y0401303D01*
X0026435Y0401392D01*
X0026311Y0401478D01*
X0026184Y0401560D01*
X0026055Y0401639D01*
X0025924Y0401714D01*
X0025791Y0401786D01*
X0025656Y0401855D01*
X0025520Y0401919D01*
X0025382Y0401981D01*
X0025242Y0402038D01*
X0025101Y0402092D01*
X0024958Y0402142D01*
X0024815Y0402189D01*
X0024670Y0402231D01*
X0024524Y0402270D01*
X0024377Y0402305D01*
X0024229Y0402336D01*
X0024080Y0402363D01*
X0023931Y0402386D01*
X0023781Y0402405D01*
X0023631Y0402421D01*
X0023480Y0402432D01*
X0023329Y0402439D01*
X0023178Y0402443D01*
X0023027Y0402442D01*
X0022876Y0402438D01*
X0022725Y0402429D01*
X0022574Y0402416D01*
X0022424Y0402400D01*
X0022274Y0402379D01*
X0022125Y0402355D01*
X0021977Y0402327D01*
X0021829Y0402294D01*
X0021683Y0402258D01*
X0021537Y0402218D01*
X0021392Y0402175D01*
X0021249Y0402127D01*
X0021107Y0402076D01*
X0020966Y0402021D01*
X0020827Y0401962D01*
X0020689Y0401900D01*
X0020553Y0401834D01*
X0020419Y0401764D01*
X0020287Y0401691D01*
X0020157Y0401614D01*
X0020028Y0401534D01*
X0019902Y0401451D01*
X0019778Y0401365D01*
X0019657Y0401275D01*
X0019538Y0401182D01*
X0019421Y0401086D01*
X0019307Y0400987D01*
X0019196Y0400884D01*
X0019087Y0400779D01*
X0018981Y0400672D01*
X0018878Y0400561D01*
X0018778Y0400448D01*
X0018777Y0392968D02*
X0018876Y0392857D01*
X0018978Y0392748D01*
X0019082Y0392642D01*
X0019189Y0392538D01*
X0019299Y0392438D01*
X0019411Y0392340D01*
X0019526Y0392246D01*
X0019644Y0392154D01*
X0019763Y0392065D01*
X0019885Y0391980D01*
X0020009Y0391898D01*
X0020135Y0391819D01*
X0020264Y0391743D01*
X0020394Y0391671D01*
X0020526Y0391602D01*
X0020659Y0391536D01*
X0020795Y0391475D01*
X0020932Y0391416D01*
X0021070Y0391361D01*
X0021210Y0391310D01*
X0021351Y0391263D01*
X0021493Y0391219D01*
X0021636Y0391179D01*
X0021781Y0391142D01*
X0021926Y0391109D01*
X0022072Y0391081D01*
X0022219Y0391056D01*
X0022366Y0391034D01*
X0022514Y0391017D01*
X0022662Y0391003D01*
X0022810Y0390994D01*
X0022959Y0390988D01*
X0023108Y0390986D01*
X0023257Y0390988D01*
X0023406Y0390994D01*
X0023554Y0391003D01*
X0023702Y0391017D01*
X0023850Y0391034D01*
X0023997Y0391056D01*
X0024144Y0391081D01*
X0024290Y0391109D01*
X0024435Y0391142D01*
X0024580Y0391179D01*
X0024723Y0391219D01*
X0024865Y0391263D01*
X0025006Y0391310D01*
X0025146Y0391361D01*
X0025284Y0391416D01*
X0025421Y0391475D01*
X0025557Y0391536D01*
X0025690Y0391602D01*
X0025822Y0391671D01*
X0025952Y0391743D01*
X0026081Y0391819D01*
X0026207Y0391898D01*
X0026331Y0391980D01*
X0026453Y0392065D01*
X0026572Y0392154D01*
X0026690Y0392246D01*
X0026805Y0392340D01*
X0026917Y0392438D01*
X0027027Y0392538D01*
X0027134Y0392642D01*
X0027238Y0392748D01*
X0027340Y0392857D01*
X0027439Y0392968D01*
X0039557Y0349438D02*
X0041959Y0349438D01*
X0043240Y0350039D02*
X0043840Y0349438D01*
X0045041Y0349438D01*
X0045642Y0350039D01*
X0045642Y0352441D01*
X0045041Y0353041D01*
X0043840Y0353041D01*
X0043240Y0352441D01*
X0041959Y0351840D02*
X0040758Y0353041D01*
X0040758Y0349438D01*
X0046896Y0349438D02*
X0048097Y0349438D01*
X0047497Y0349438D02*
X0047497Y0353041D01*
X0048097Y0353041D02*
X0046896Y0353041D01*
X0058027Y0389660D02*
X0067475Y0389660D01*
X0070231Y0392416D01*
X0070231Y0399503D02*
X0067475Y0402259D01*
X0058027Y0402259D01*
X0058027Y0399700D01*
X0058027Y0392219D02*
X0058027Y0389660D01*
X0059995Y0392219D02*
X0060094Y0392108D01*
X0060196Y0391999D01*
X0060300Y0391893D01*
X0060407Y0391789D01*
X0060517Y0391689D01*
X0060629Y0391591D01*
X0060744Y0391497D01*
X0060862Y0391405D01*
X0060981Y0391316D01*
X0061103Y0391231D01*
X0061227Y0391149D01*
X0061353Y0391070D01*
X0061482Y0390994D01*
X0061612Y0390922D01*
X0061744Y0390853D01*
X0061877Y0390787D01*
X0062013Y0390726D01*
X0062150Y0390667D01*
X0062288Y0390612D01*
X0062428Y0390561D01*
X0062569Y0390514D01*
X0062711Y0390470D01*
X0062854Y0390430D01*
X0062999Y0390393D01*
X0063144Y0390360D01*
X0063290Y0390332D01*
X0063437Y0390307D01*
X0063584Y0390285D01*
X0063732Y0390268D01*
X0063880Y0390254D01*
X0064028Y0390245D01*
X0064177Y0390239D01*
X0064326Y0390237D01*
X0064475Y0390239D01*
X0064624Y0390245D01*
X0064772Y0390254D01*
X0064920Y0390268D01*
X0065068Y0390285D01*
X0065215Y0390307D01*
X0065362Y0390332D01*
X0065508Y0390360D01*
X0065653Y0390393D01*
X0065798Y0390430D01*
X0065941Y0390470D01*
X0066083Y0390514D01*
X0066224Y0390561D01*
X0066364Y0390612D01*
X0066502Y0390667D01*
X0066639Y0390726D01*
X0066775Y0390787D01*
X0066908Y0390853D01*
X0067040Y0390922D01*
X0067170Y0390994D01*
X0067299Y0391070D01*
X0067425Y0391149D01*
X0067549Y0391231D01*
X0067671Y0391316D01*
X0067790Y0391405D01*
X0067908Y0391497D01*
X0068023Y0391591D01*
X0068135Y0391689D01*
X0068245Y0391789D01*
X0068352Y0391893D01*
X0068456Y0391999D01*
X0068558Y0392108D01*
X0068657Y0392219D01*
X0068853Y0399502D02*
X0068758Y0399620D01*
X0068660Y0399735D01*
X0068559Y0399847D01*
X0068455Y0399957D01*
X0068348Y0400064D01*
X0068239Y0400168D01*
X0068126Y0400269D01*
X0068012Y0400367D01*
X0067894Y0400462D01*
X0067774Y0400554D01*
X0067652Y0400643D01*
X0067528Y0400729D01*
X0067401Y0400811D01*
X0067272Y0400890D01*
X0067141Y0400965D01*
X0067008Y0401037D01*
X0066873Y0401106D01*
X0066737Y0401170D01*
X0066599Y0401232D01*
X0066459Y0401289D01*
X0066318Y0401343D01*
X0066175Y0401393D01*
X0066032Y0401440D01*
X0065887Y0401482D01*
X0065741Y0401521D01*
X0065594Y0401556D01*
X0065446Y0401587D01*
X0065297Y0401614D01*
X0065148Y0401637D01*
X0064998Y0401656D01*
X0064848Y0401672D01*
X0064697Y0401683D01*
X0064546Y0401690D01*
X0064395Y0401694D01*
X0064244Y0401693D01*
X0064093Y0401689D01*
X0063942Y0401680D01*
X0063791Y0401667D01*
X0063641Y0401651D01*
X0063491Y0401630D01*
X0063342Y0401606D01*
X0063194Y0401578D01*
X0063046Y0401545D01*
X0062900Y0401509D01*
X0062754Y0401469D01*
X0062609Y0401426D01*
X0062466Y0401378D01*
X0062324Y0401327D01*
X0062183Y0401272D01*
X0062044Y0401213D01*
X0061906Y0401151D01*
X0061770Y0401085D01*
X0061636Y0401015D01*
X0061504Y0400942D01*
X0061374Y0400865D01*
X0061245Y0400785D01*
X0061119Y0400702D01*
X0060995Y0400616D01*
X0060874Y0400526D01*
X0060755Y0400433D01*
X0060638Y0400337D01*
X0060524Y0400238D01*
X0060413Y0400135D01*
X0060304Y0400030D01*
X0060198Y0399923D01*
X0060095Y0399812D01*
X0059995Y0399699D01*
X0047416Y0222324D02*
X0046215Y0222324D01*
X0046816Y0222324D02*
X0046816Y0218721D01*
X0047416Y0218721D02*
X0046215Y0218721D01*
X0044961Y0219322D02*
X0044360Y0218721D01*
X0043159Y0218721D01*
X0042559Y0219322D01*
X0041278Y0218721D02*
X0038876Y0221123D01*
X0038876Y0221724D01*
X0039476Y0222324D01*
X0040677Y0222324D01*
X0041278Y0221724D01*
X0042559Y0221724D02*
X0043159Y0222324D01*
X0044360Y0222324D01*
X0044961Y0221724D01*
X0044961Y0219322D01*
X0041278Y0218721D02*
X0038876Y0218721D01*
X0039649Y0028720D02*
X0039048Y0028119D01*
X0039048Y0027519D01*
X0039649Y0026918D01*
X0039048Y0026318D01*
X0039048Y0025717D01*
X0039649Y0025117D01*
X0040850Y0025117D01*
X0041451Y0025717D01*
X0040250Y0026918D02*
X0039649Y0026918D01*
X0039649Y0028720D02*
X0040850Y0028720D01*
X0041451Y0028119D01*
X0042732Y0028119D02*
X0043332Y0028720D01*
X0044533Y0028720D01*
X0045134Y0028119D01*
X0045134Y0025717D01*
X0044533Y0025117D01*
X0043332Y0025117D01*
X0042732Y0025717D01*
X0046388Y0025117D02*
X0047589Y0025117D01*
X0046989Y0025117D02*
X0046989Y0028720D01*
X0047589Y0028720D02*
X0046388Y0028720D01*
D20*
X0025340Y0431037D02*
X0020340Y0431037D01*
D21*
X0042840Y0423537D03*
D22*
X0060740Y0429508D02*
X0061741Y0429508D01*
X0061241Y0429508D02*
X0061241Y0431010D01*
X0061741Y0430509D01*
X0062214Y0430259D02*
X0062464Y0430009D01*
X0063215Y0430009D01*
X0063215Y0429508D02*
X0063215Y0431010D01*
X0062464Y0431010D01*
X0062214Y0430759D01*
X0062214Y0430259D01*
X0063687Y0431010D02*
X0064187Y0431010D01*
X0063937Y0431010D02*
X0063937Y0429758D01*
X0064187Y0429508D01*
X0064438Y0429508D01*
X0064688Y0429758D01*
M02*
