G75*
%MOIN*%
%OFA0B0*%
%FSLAX25Y25*%
%IPPOS*%
%LPD*%
%AMOC8*
5,1,8,0,0,1.08239X$1,22.5*
%
%ADD10C,0.00394*%
%ADD11C,0.00000*%
D10*
X0001998Y0001336D02*
X0001998Y0507242D01*
X0081998Y0507242D01*
X0081998Y0001336D01*
X0001998Y0001336D01*
D11*
X0010977Y0075837D02*
X0010981Y0076132D01*
X0010991Y0076426D01*
X0011010Y0076720D01*
X0011035Y0077014D01*
X0011067Y0077307D01*
X0011107Y0077599D01*
X0011154Y0077890D01*
X0011208Y0078180D01*
X0011269Y0078468D01*
X0011337Y0078755D01*
X0011412Y0079040D01*
X0011494Y0079323D01*
X0011583Y0079604D01*
X0011679Y0079882D01*
X0011782Y0080159D01*
X0011891Y0080432D01*
X0012007Y0080703D01*
X0012130Y0080971D01*
X0012259Y0081236D01*
X0012395Y0081498D01*
X0012537Y0081756D01*
X0012685Y0082010D01*
X0012840Y0082261D01*
X0013001Y0082508D01*
X0013167Y0082751D01*
X0013340Y0082990D01*
X0013519Y0083225D01*
X0013703Y0083455D01*
X0013892Y0083680D01*
X0014088Y0083901D01*
X0014288Y0084117D01*
X0014494Y0084328D01*
X0014705Y0084534D01*
X0014921Y0084734D01*
X0015142Y0084930D01*
X0015367Y0085119D01*
X0015597Y0085303D01*
X0015832Y0085482D01*
X0016071Y0085655D01*
X0016314Y0085821D01*
X0016561Y0085982D01*
X0016812Y0086137D01*
X0017066Y0086285D01*
X0017324Y0086427D01*
X0017586Y0086563D01*
X0017851Y0086692D01*
X0018119Y0086815D01*
X0018390Y0086931D01*
X0018663Y0087040D01*
X0018940Y0087143D01*
X0019218Y0087239D01*
X0019499Y0087328D01*
X0019782Y0087410D01*
X0020067Y0087485D01*
X0020354Y0087553D01*
X0020642Y0087614D01*
X0020932Y0087668D01*
X0021223Y0087715D01*
X0021515Y0087755D01*
X0021808Y0087787D01*
X0022102Y0087812D01*
X0022396Y0087831D01*
X0022690Y0087841D01*
X0022985Y0087845D01*
X0023280Y0087841D01*
X0023574Y0087831D01*
X0023868Y0087812D01*
X0024162Y0087787D01*
X0024455Y0087755D01*
X0024747Y0087715D01*
X0025038Y0087668D01*
X0025328Y0087614D01*
X0025616Y0087553D01*
X0025903Y0087485D01*
X0026188Y0087410D01*
X0026471Y0087328D01*
X0026752Y0087239D01*
X0027030Y0087143D01*
X0027307Y0087040D01*
X0027580Y0086931D01*
X0027851Y0086815D01*
X0028119Y0086692D01*
X0028384Y0086563D01*
X0028646Y0086427D01*
X0028904Y0086285D01*
X0029158Y0086137D01*
X0029409Y0085982D01*
X0029656Y0085821D01*
X0029899Y0085655D01*
X0030138Y0085482D01*
X0030373Y0085303D01*
X0030603Y0085119D01*
X0030828Y0084930D01*
X0031049Y0084734D01*
X0031265Y0084534D01*
X0031476Y0084328D01*
X0031682Y0084117D01*
X0031882Y0083901D01*
X0032078Y0083680D01*
X0032267Y0083455D01*
X0032451Y0083225D01*
X0032630Y0082990D01*
X0032803Y0082751D01*
X0032969Y0082508D01*
X0033130Y0082261D01*
X0033285Y0082010D01*
X0033433Y0081756D01*
X0033575Y0081498D01*
X0033711Y0081236D01*
X0033840Y0080971D01*
X0033963Y0080703D01*
X0034079Y0080432D01*
X0034188Y0080159D01*
X0034291Y0079882D01*
X0034387Y0079604D01*
X0034476Y0079323D01*
X0034558Y0079040D01*
X0034633Y0078755D01*
X0034701Y0078468D01*
X0034762Y0078180D01*
X0034816Y0077890D01*
X0034863Y0077599D01*
X0034903Y0077307D01*
X0034935Y0077014D01*
X0034960Y0076720D01*
X0034979Y0076426D01*
X0034989Y0076132D01*
X0034993Y0075837D01*
X0034989Y0075542D01*
X0034979Y0075248D01*
X0034960Y0074954D01*
X0034935Y0074660D01*
X0034903Y0074367D01*
X0034863Y0074075D01*
X0034816Y0073784D01*
X0034762Y0073494D01*
X0034701Y0073206D01*
X0034633Y0072919D01*
X0034558Y0072634D01*
X0034476Y0072351D01*
X0034387Y0072070D01*
X0034291Y0071792D01*
X0034188Y0071515D01*
X0034079Y0071242D01*
X0033963Y0070971D01*
X0033840Y0070703D01*
X0033711Y0070438D01*
X0033575Y0070176D01*
X0033433Y0069918D01*
X0033285Y0069664D01*
X0033130Y0069413D01*
X0032969Y0069166D01*
X0032803Y0068923D01*
X0032630Y0068684D01*
X0032451Y0068449D01*
X0032267Y0068219D01*
X0032078Y0067994D01*
X0031882Y0067773D01*
X0031682Y0067557D01*
X0031476Y0067346D01*
X0031265Y0067140D01*
X0031049Y0066940D01*
X0030828Y0066744D01*
X0030603Y0066555D01*
X0030373Y0066371D01*
X0030138Y0066192D01*
X0029899Y0066019D01*
X0029656Y0065853D01*
X0029409Y0065692D01*
X0029158Y0065537D01*
X0028904Y0065389D01*
X0028646Y0065247D01*
X0028384Y0065111D01*
X0028119Y0064982D01*
X0027851Y0064859D01*
X0027580Y0064743D01*
X0027307Y0064634D01*
X0027030Y0064531D01*
X0026752Y0064435D01*
X0026471Y0064346D01*
X0026188Y0064264D01*
X0025903Y0064189D01*
X0025616Y0064121D01*
X0025328Y0064060D01*
X0025038Y0064006D01*
X0024747Y0063959D01*
X0024455Y0063919D01*
X0024162Y0063887D01*
X0023868Y0063862D01*
X0023574Y0063843D01*
X0023280Y0063833D01*
X0022985Y0063829D01*
X0022690Y0063833D01*
X0022396Y0063843D01*
X0022102Y0063862D01*
X0021808Y0063887D01*
X0021515Y0063919D01*
X0021223Y0063959D01*
X0020932Y0064006D01*
X0020642Y0064060D01*
X0020354Y0064121D01*
X0020067Y0064189D01*
X0019782Y0064264D01*
X0019499Y0064346D01*
X0019218Y0064435D01*
X0018940Y0064531D01*
X0018663Y0064634D01*
X0018390Y0064743D01*
X0018119Y0064859D01*
X0017851Y0064982D01*
X0017586Y0065111D01*
X0017324Y0065247D01*
X0017066Y0065389D01*
X0016812Y0065537D01*
X0016561Y0065692D01*
X0016314Y0065853D01*
X0016071Y0066019D01*
X0015832Y0066192D01*
X0015597Y0066371D01*
X0015367Y0066555D01*
X0015142Y0066744D01*
X0014921Y0066940D01*
X0014705Y0067140D01*
X0014494Y0067346D01*
X0014288Y0067557D01*
X0014088Y0067773D01*
X0013892Y0067994D01*
X0013703Y0068219D01*
X0013519Y0068449D01*
X0013340Y0068684D01*
X0013167Y0068923D01*
X0013001Y0069166D01*
X0012840Y0069413D01*
X0012685Y0069664D01*
X0012537Y0069918D01*
X0012395Y0070176D01*
X0012259Y0070438D01*
X0012130Y0070703D01*
X0012007Y0070971D01*
X0011891Y0071242D01*
X0011782Y0071515D01*
X0011679Y0071792D01*
X0011583Y0072070D01*
X0011494Y0072351D01*
X0011412Y0072634D01*
X0011337Y0072919D01*
X0011269Y0073206D01*
X0011208Y0073494D01*
X0011154Y0073784D01*
X0011107Y0074075D01*
X0011067Y0074367D01*
X0011035Y0074660D01*
X0011010Y0074954D01*
X0010991Y0075248D01*
X0010981Y0075542D01*
X0010977Y0075837D01*
X0011161Y0144562D02*
X0011165Y0144857D01*
X0011175Y0145151D01*
X0011194Y0145445D01*
X0011219Y0145739D01*
X0011251Y0146032D01*
X0011291Y0146324D01*
X0011338Y0146615D01*
X0011392Y0146905D01*
X0011453Y0147193D01*
X0011521Y0147480D01*
X0011596Y0147765D01*
X0011678Y0148048D01*
X0011767Y0148329D01*
X0011863Y0148607D01*
X0011966Y0148884D01*
X0012075Y0149157D01*
X0012191Y0149428D01*
X0012314Y0149696D01*
X0012443Y0149961D01*
X0012579Y0150223D01*
X0012721Y0150481D01*
X0012869Y0150735D01*
X0013024Y0150986D01*
X0013185Y0151233D01*
X0013351Y0151476D01*
X0013524Y0151715D01*
X0013703Y0151950D01*
X0013887Y0152180D01*
X0014076Y0152405D01*
X0014272Y0152626D01*
X0014472Y0152842D01*
X0014678Y0153053D01*
X0014889Y0153259D01*
X0015105Y0153459D01*
X0015326Y0153655D01*
X0015551Y0153844D01*
X0015781Y0154028D01*
X0016016Y0154207D01*
X0016255Y0154380D01*
X0016498Y0154546D01*
X0016745Y0154707D01*
X0016996Y0154862D01*
X0017250Y0155010D01*
X0017508Y0155152D01*
X0017770Y0155288D01*
X0018035Y0155417D01*
X0018303Y0155540D01*
X0018574Y0155656D01*
X0018847Y0155765D01*
X0019124Y0155868D01*
X0019402Y0155964D01*
X0019683Y0156053D01*
X0019966Y0156135D01*
X0020251Y0156210D01*
X0020538Y0156278D01*
X0020826Y0156339D01*
X0021116Y0156393D01*
X0021407Y0156440D01*
X0021699Y0156480D01*
X0021992Y0156512D01*
X0022286Y0156537D01*
X0022580Y0156556D01*
X0022874Y0156566D01*
X0023169Y0156570D01*
X0023464Y0156566D01*
X0023758Y0156556D01*
X0024052Y0156537D01*
X0024346Y0156512D01*
X0024639Y0156480D01*
X0024931Y0156440D01*
X0025222Y0156393D01*
X0025512Y0156339D01*
X0025800Y0156278D01*
X0026087Y0156210D01*
X0026372Y0156135D01*
X0026655Y0156053D01*
X0026936Y0155964D01*
X0027214Y0155868D01*
X0027491Y0155765D01*
X0027764Y0155656D01*
X0028035Y0155540D01*
X0028303Y0155417D01*
X0028568Y0155288D01*
X0028830Y0155152D01*
X0029088Y0155010D01*
X0029342Y0154862D01*
X0029593Y0154707D01*
X0029840Y0154546D01*
X0030083Y0154380D01*
X0030322Y0154207D01*
X0030557Y0154028D01*
X0030787Y0153844D01*
X0031012Y0153655D01*
X0031233Y0153459D01*
X0031449Y0153259D01*
X0031660Y0153053D01*
X0031866Y0152842D01*
X0032066Y0152626D01*
X0032262Y0152405D01*
X0032451Y0152180D01*
X0032635Y0151950D01*
X0032814Y0151715D01*
X0032987Y0151476D01*
X0033153Y0151233D01*
X0033314Y0150986D01*
X0033469Y0150735D01*
X0033617Y0150481D01*
X0033759Y0150223D01*
X0033895Y0149961D01*
X0034024Y0149696D01*
X0034147Y0149428D01*
X0034263Y0149157D01*
X0034372Y0148884D01*
X0034475Y0148607D01*
X0034571Y0148329D01*
X0034660Y0148048D01*
X0034742Y0147765D01*
X0034817Y0147480D01*
X0034885Y0147193D01*
X0034946Y0146905D01*
X0035000Y0146615D01*
X0035047Y0146324D01*
X0035087Y0146032D01*
X0035119Y0145739D01*
X0035144Y0145445D01*
X0035163Y0145151D01*
X0035173Y0144857D01*
X0035177Y0144562D01*
X0035173Y0144267D01*
X0035163Y0143973D01*
X0035144Y0143679D01*
X0035119Y0143385D01*
X0035087Y0143092D01*
X0035047Y0142800D01*
X0035000Y0142509D01*
X0034946Y0142219D01*
X0034885Y0141931D01*
X0034817Y0141644D01*
X0034742Y0141359D01*
X0034660Y0141076D01*
X0034571Y0140795D01*
X0034475Y0140517D01*
X0034372Y0140240D01*
X0034263Y0139967D01*
X0034147Y0139696D01*
X0034024Y0139428D01*
X0033895Y0139163D01*
X0033759Y0138901D01*
X0033617Y0138643D01*
X0033469Y0138389D01*
X0033314Y0138138D01*
X0033153Y0137891D01*
X0032987Y0137648D01*
X0032814Y0137409D01*
X0032635Y0137174D01*
X0032451Y0136944D01*
X0032262Y0136719D01*
X0032066Y0136498D01*
X0031866Y0136282D01*
X0031660Y0136071D01*
X0031449Y0135865D01*
X0031233Y0135665D01*
X0031012Y0135469D01*
X0030787Y0135280D01*
X0030557Y0135096D01*
X0030322Y0134917D01*
X0030083Y0134744D01*
X0029840Y0134578D01*
X0029593Y0134417D01*
X0029342Y0134262D01*
X0029088Y0134114D01*
X0028830Y0133972D01*
X0028568Y0133836D01*
X0028303Y0133707D01*
X0028035Y0133584D01*
X0027764Y0133468D01*
X0027491Y0133359D01*
X0027214Y0133256D01*
X0026936Y0133160D01*
X0026655Y0133071D01*
X0026372Y0132989D01*
X0026087Y0132914D01*
X0025800Y0132846D01*
X0025512Y0132785D01*
X0025222Y0132731D01*
X0024931Y0132684D01*
X0024639Y0132644D01*
X0024346Y0132612D01*
X0024052Y0132587D01*
X0023758Y0132568D01*
X0023464Y0132558D01*
X0023169Y0132554D01*
X0022874Y0132558D01*
X0022580Y0132568D01*
X0022286Y0132587D01*
X0021992Y0132612D01*
X0021699Y0132644D01*
X0021407Y0132684D01*
X0021116Y0132731D01*
X0020826Y0132785D01*
X0020538Y0132846D01*
X0020251Y0132914D01*
X0019966Y0132989D01*
X0019683Y0133071D01*
X0019402Y0133160D01*
X0019124Y0133256D01*
X0018847Y0133359D01*
X0018574Y0133468D01*
X0018303Y0133584D01*
X0018035Y0133707D01*
X0017770Y0133836D01*
X0017508Y0133972D01*
X0017250Y0134114D01*
X0016996Y0134262D01*
X0016745Y0134417D01*
X0016498Y0134578D01*
X0016255Y0134744D01*
X0016016Y0134917D01*
X0015781Y0135096D01*
X0015551Y0135280D01*
X0015326Y0135469D01*
X0015105Y0135665D01*
X0014889Y0135865D01*
X0014678Y0136071D01*
X0014472Y0136282D01*
X0014272Y0136498D01*
X0014076Y0136719D01*
X0013887Y0136944D01*
X0013703Y0137174D01*
X0013524Y0137409D01*
X0013351Y0137648D01*
X0013185Y0137891D01*
X0013024Y0138138D01*
X0012869Y0138389D01*
X0012721Y0138643D01*
X0012579Y0138901D01*
X0012443Y0139163D01*
X0012314Y0139428D01*
X0012191Y0139696D01*
X0012075Y0139967D01*
X0011966Y0140240D01*
X0011863Y0140517D01*
X0011767Y0140795D01*
X0011678Y0141076D01*
X0011596Y0141359D01*
X0011521Y0141644D01*
X0011453Y0141931D01*
X0011392Y0142219D01*
X0011338Y0142509D01*
X0011291Y0142800D01*
X0011251Y0143092D01*
X0011219Y0143385D01*
X0011194Y0143679D01*
X0011175Y0143973D01*
X0011165Y0144267D01*
X0011161Y0144562D01*
X0011118Y0205982D02*
X0011122Y0206277D01*
X0011132Y0206571D01*
X0011151Y0206865D01*
X0011176Y0207159D01*
X0011208Y0207452D01*
X0011248Y0207744D01*
X0011295Y0208035D01*
X0011349Y0208325D01*
X0011410Y0208613D01*
X0011478Y0208900D01*
X0011553Y0209185D01*
X0011635Y0209468D01*
X0011724Y0209749D01*
X0011820Y0210027D01*
X0011923Y0210304D01*
X0012032Y0210577D01*
X0012148Y0210848D01*
X0012271Y0211116D01*
X0012400Y0211381D01*
X0012536Y0211643D01*
X0012678Y0211901D01*
X0012826Y0212155D01*
X0012981Y0212406D01*
X0013142Y0212653D01*
X0013308Y0212896D01*
X0013481Y0213135D01*
X0013660Y0213370D01*
X0013844Y0213600D01*
X0014033Y0213825D01*
X0014229Y0214046D01*
X0014429Y0214262D01*
X0014635Y0214473D01*
X0014846Y0214679D01*
X0015062Y0214879D01*
X0015283Y0215075D01*
X0015508Y0215264D01*
X0015738Y0215448D01*
X0015973Y0215627D01*
X0016212Y0215800D01*
X0016455Y0215966D01*
X0016702Y0216127D01*
X0016953Y0216282D01*
X0017207Y0216430D01*
X0017465Y0216572D01*
X0017727Y0216708D01*
X0017992Y0216837D01*
X0018260Y0216960D01*
X0018531Y0217076D01*
X0018804Y0217185D01*
X0019081Y0217288D01*
X0019359Y0217384D01*
X0019640Y0217473D01*
X0019923Y0217555D01*
X0020208Y0217630D01*
X0020495Y0217698D01*
X0020783Y0217759D01*
X0021073Y0217813D01*
X0021364Y0217860D01*
X0021656Y0217900D01*
X0021949Y0217932D01*
X0022243Y0217957D01*
X0022537Y0217976D01*
X0022831Y0217986D01*
X0023126Y0217990D01*
X0023421Y0217986D01*
X0023715Y0217976D01*
X0024009Y0217957D01*
X0024303Y0217932D01*
X0024596Y0217900D01*
X0024888Y0217860D01*
X0025179Y0217813D01*
X0025469Y0217759D01*
X0025757Y0217698D01*
X0026044Y0217630D01*
X0026329Y0217555D01*
X0026612Y0217473D01*
X0026893Y0217384D01*
X0027171Y0217288D01*
X0027448Y0217185D01*
X0027721Y0217076D01*
X0027992Y0216960D01*
X0028260Y0216837D01*
X0028525Y0216708D01*
X0028787Y0216572D01*
X0029045Y0216430D01*
X0029299Y0216282D01*
X0029550Y0216127D01*
X0029797Y0215966D01*
X0030040Y0215800D01*
X0030279Y0215627D01*
X0030514Y0215448D01*
X0030744Y0215264D01*
X0030969Y0215075D01*
X0031190Y0214879D01*
X0031406Y0214679D01*
X0031617Y0214473D01*
X0031823Y0214262D01*
X0032023Y0214046D01*
X0032219Y0213825D01*
X0032408Y0213600D01*
X0032592Y0213370D01*
X0032771Y0213135D01*
X0032944Y0212896D01*
X0033110Y0212653D01*
X0033271Y0212406D01*
X0033426Y0212155D01*
X0033574Y0211901D01*
X0033716Y0211643D01*
X0033852Y0211381D01*
X0033981Y0211116D01*
X0034104Y0210848D01*
X0034220Y0210577D01*
X0034329Y0210304D01*
X0034432Y0210027D01*
X0034528Y0209749D01*
X0034617Y0209468D01*
X0034699Y0209185D01*
X0034774Y0208900D01*
X0034842Y0208613D01*
X0034903Y0208325D01*
X0034957Y0208035D01*
X0035004Y0207744D01*
X0035044Y0207452D01*
X0035076Y0207159D01*
X0035101Y0206865D01*
X0035120Y0206571D01*
X0035130Y0206277D01*
X0035134Y0205982D01*
X0035130Y0205687D01*
X0035120Y0205393D01*
X0035101Y0205099D01*
X0035076Y0204805D01*
X0035044Y0204512D01*
X0035004Y0204220D01*
X0034957Y0203929D01*
X0034903Y0203639D01*
X0034842Y0203351D01*
X0034774Y0203064D01*
X0034699Y0202779D01*
X0034617Y0202496D01*
X0034528Y0202215D01*
X0034432Y0201937D01*
X0034329Y0201660D01*
X0034220Y0201387D01*
X0034104Y0201116D01*
X0033981Y0200848D01*
X0033852Y0200583D01*
X0033716Y0200321D01*
X0033574Y0200063D01*
X0033426Y0199809D01*
X0033271Y0199558D01*
X0033110Y0199311D01*
X0032944Y0199068D01*
X0032771Y0198829D01*
X0032592Y0198594D01*
X0032408Y0198364D01*
X0032219Y0198139D01*
X0032023Y0197918D01*
X0031823Y0197702D01*
X0031617Y0197491D01*
X0031406Y0197285D01*
X0031190Y0197085D01*
X0030969Y0196889D01*
X0030744Y0196700D01*
X0030514Y0196516D01*
X0030279Y0196337D01*
X0030040Y0196164D01*
X0029797Y0195998D01*
X0029550Y0195837D01*
X0029299Y0195682D01*
X0029045Y0195534D01*
X0028787Y0195392D01*
X0028525Y0195256D01*
X0028260Y0195127D01*
X0027992Y0195004D01*
X0027721Y0194888D01*
X0027448Y0194779D01*
X0027171Y0194676D01*
X0026893Y0194580D01*
X0026612Y0194491D01*
X0026329Y0194409D01*
X0026044Y0194334D01*
X0025757Y0194266D01*
X0025469Y0194205D01*
X0025179Y0194151D01*
X0024888Y0194104D01*
X0024596Y0194064D01*
X0024303Y0194032D01*
X0024009Y0194007D01*
X0023715Y0193988D01*
X0023421Y0193978D01*
X0023126Y0193974D01*
X0022831Y0193978D01*
X0022537Y0193988D01*
X0022243Y0194007D01*
X0021949Y0194032D01*
X0021656Y0194064D01*
X0021364Y0194104D01*
X0021073Y0194151D01*
X0020783Y0194205D01*
X0020495Y0194266D01*
X0020208Y0194334D01*
X0019923Y0194409D01*
X0019640Y0194491D01*
X0019359Y0194580D01*
X0019081Y0194676D01*
X0018804Y0194779D01*
X0018531Y0194888D01*
X0018260Y0195004D01*
X0017992Y0195127D01*
X0017727Y0195256D01*
X0017465Y0195392D01*
X0017207Y0195534D01*
X0016953Y0195682D01*
X0016702Y0195837D01*
X0016455Y0195998D01*
X0016212Y0196164D01*
X0015973Y0196337D01*
X0015738Y0196516D01*
X0015508Y0196700D01*
X0015283Y0196889D01*
X0015062Y0197085D01*
X0014846Y0197285D01*
X0014635Y0197491D01*
X0014429Y0197702D01*
X0014229Y0197918D01*
X0014033Y0198139D01*
X0013844Y0198364D01*
X0013660Y0198594D01*
X0013481Y0198829D01*
X0013308Y0199068D01*
X0013142Y0199311D01*
X0012981Y0199558D01*
X0012826Y0199809D01*
X0012678Y0200063D01*
X0012536Y0200321D01*
X0012400Y0200583D01*
X0012271Y0200848D01*
X0012148Y0201116D01*
X0012032Y0201387D01*
X0011923Y0201660D01*
X0011820Y0201937D01*
X0011724Y0202215D01*
X0011635Y0202496D01*
X0011553Y0202779D01*
X0011478Y0203064D01*
X0011410Y0203351D01*
X0011349Y0203639D01*
X0011295Y0203929D01*
X0011248Y0204220D01*
X0011208Y0204512D01*
X0011176Y0204805D01*
X0011151Y0205099D01*
X0011132Y0205393D01*
X0011122Y0205687D01*
X0011118Y0205982D01*
X0011161Y0271822D02*
X0011165Y0272117D01*
X0011175Y0272411D01*
X0011194Y0272705D01*
X0011219Y0272999D01*
X0011251Y0273292D01*
X0011291Y0273584D01*
X0011338Y0273875D01*
X0011392Y0274165D01*
X0011453Y0274453D01*
X0011521Y0274740D01*
X0011596Y0275025D01*
X0011678Y0275308D01*
X0011767Y0275589D01*
X0011863Y0275867D01*
X0011966Y0276144D01*
X0012075Y0276417D01*
X0012191Y0276688D01*
X0012314Y0276956D01*
X0012443Y0277221D01*
X0012579Y0277483D01*
X0012721Y0277741D01*
X0012869Y0277995D01*
X0013024Y0278246D01*
X0013185Y0278493D01*
X0013351Y0278736D01*
X0013524Y0278975D01*
X0013703Y0279210D01*
X0013887Y0279440D01*
X0014076Y0279665D01*
X0014272Y0279886D01*
X0014472Y0280102D01*
X0014678Y0280313D01*
X0014889Y0280519D01*
X0015105Y0280719D01*
X0015326Y0280915D01*
X0015551Y0281104D01*
X0015781Y0281288D01*
X0016016Y0281467D01*
X0016255Y0281640D01*
X0016498Y0281806D01*
X0016745Y0281967D01*
X0016996Y0282122D01*
X0017250Y0282270D01*
X0017508Y0282412D01*
X0017770Y0282548D01*
X0018035Y0282677D01*
X0018303Y0282800D01*
X0018574Y0282916D01*
X0018847Y0283025D01*
X0019124Y0283128D01*
X0019402Y0283224D01*
X0019683Y0283313D01*
X0019966Y0283395D01*
X0020251Y0283470D01*
X0020538Y0283538D01*
X0020826Y0283599D01*
X0021116Y0283653D01*
X0021407Y0283700D01*
X0021699Y0283740D01*
X0021992Y0283772D01*
X0022286Y0283797D01*
X0022580Y0283816D01*
X0022874Y0283826D01*
X0023169Y0283830D01*
X0023464Y0283826D01*
X0023758Y0283816D01*
X0024052Y0283797D01*
X0024346Y0283772D01*
X0024639Y0283740D01*
X0024931Y0283700D01*
X0025222Y0283653D01*
X0025512Y0283599D01*
X0025800Y0283538D01*
X0026087Y0283470D01*
X0026372Y0283395D01*
X0026655Y0283313D01*
X0026936Y0283224D01*
X0027214Y0283128D01*
X0027491Y0283025D01*
X0027764Y0282916D01*
X0028035Y0282800D01*
X0028303Y0282677D01*
X0028568Y0282548D01*
X0028830Y0282412D01*
X0029088Y0282270D01*
X0029342Y0282122D01*
X0029593Y0281967D01*
X0029840Y0281806D01*
X0030083Y0281640D01*
X0030322Y0281467D01*
X0030557Y0281288D01*
X0030787Y0281104D01*
X0031012Y0280915D01*
X0031233Y0280719D01*
X0031449Y0280519D01*
X0031660Y0280313D01*
X0031866Y0280102D01*
X0032066Y0279886D01*
X0032262Y0279665D01*
X0032451Y0279440D01*
X0032635Y0279210D01*
X0032814Y0278975D01*
X0032987Y0278736D01*
X0033153Y0278493D01*
X0033314Y0278246D01*
X0033469Y0277995D01*
X0033617Y0277741D01*
X0033759Y0277483D01*
X0033895Y0277221D01*
X0034024Y0276956D01*
X0034147Y0276688D01*
X0034263Y0276417D01*
X0034372Y0276144D01*
X0034475Y0275867D01*
X0034571Y0275589D01*
X0034660Y0275308D01*
X0034742Y0275025D01*
X0034817Y0274740D01*
X0034885Y0274453D01*
X0034946Y0274165D01*
X0035000Y0273875D01*
X0035047Y0273584D01*
X0035087Y0273292D01*
X0035119Y0272999D01*
X0035144Y0272705D01*
X0035163Y0272411D01*
X0035173Y0272117D01*
X0035177Y0271822D01*
X0035173Y0271527D01*
X0035163Y0271233D01*
X0035144Y0270939D01*
X0035119Y0270645D01*
X0035087Y0270352D01*
X0035047Y0270060D01*
X0035000Y0269769D01*
X0034946Y0269479D01*
X0034885Y0269191D01*
X0034817Y0268904D01*
X0034742Y0268619D01*
X0034660Y0268336D01*
X0034571Y0268055D01*
X0034475Y0267777D01*
X0034372Y0267500D01*
X0034263Y0267227D01*
X0034147Y0266956D01*
X0034024Y0266688D01*
X0033895Y0266423D01*
X0033759Y0266161D01*
X0033617Y0265903D01*
X0033469Y0265649D01*
X0033314Y0265398D01*
X0033153Y0265151D01*
X0032987Y0264908D01*
X0032814Y0264669D01*
X0032635Y0264434D01*
X0032451Y0264204D01*
X0032262Y0263979D01*
X0032066Y0263758D01*
X0031866Y0263542D01*
X0031660Y0263331D01*
X0031449Y0263125D01*
X0031233Y0262925D01*
X0031012Y0262729D01*
X0030787Y0262540D01*
X0030557Y0262356D01*
X0030322Y0262177D01*
X0030083Y0262004D01*
X0029840Y0261838D01*
X0029593Y0261677D01*
X0029342Y0261522D01*
X0029088Y0261374D01*
X0028830Y0261232D01*
X0028568Y0261096D01*
X0028303Y0260967D01*
X0028035Y0260844D01*
X0027764Y0260728D01*
X0027491Y0260619D01*
X0027214Y0260516D01*
X0026936Y0260420D01*
X0026655Y0260331D01*
X0026372Y0260249D01*
X0026087Y0260174D01*
X0025800Y0260106D01*
X0025512Y0260045D01*
X0025222Y0259991D01*
X0024931Y0259944D01*
X0024639Y0259904D01*
X0024346Y0259872D01*
X0024052Y0259847D01*
X0023758Y0259828D01*
X0023464Y0259818D01*
X0023169Y0259814D01*
X0022874Y0259818D01*
X0022580Y0259828D01*
X0022286Y0259847D01*
X0021992Y0259872D01*
X0021699Y0259904D01*
X0021407Y0259944D01*
X0021116Y0259991D01*
X0020826Y0260045D01*
X0020538Y0260106D01*
X0020251Y0260174D01*
X0019966Y0260249D01*
X0019683Y0260331D01*
X0019402Y0260420D01*
X0019124Y0260516D01*
X0018847Y0260619D01*
X0018574Y0260728D01*
X0018303Y0260844D01*
X0018035Y0260967D01*
X0017770Y0261096D01*
X0017508Y0261232D01*
X0017250Y0261374D01*
X0016996Y0261522D01*
X0016745Y0261677D01*
X0016498Y0261838D01*
X0016255Y0262004D01*
X0016016Y0262177D01*
X0015781Y0262356D01*
X0015551Y0262540D01*
X0015326Y0262729D01*
X0015105Y0262925D01*
X0014889Y0263125D01*
X0014678Y0263331D01*
X0014472Y0263542D01*
X0014272Y0263758D01*
X0014076Y0263979D01*
X0013887Y0264204D01*
X0013703Y0264434D01*
X0013524Y0264669D01*
X0013351Y0264908D01*
X0013185Y0265151D01*
X0013024Y0265398D01*
X0012869Y0265649D01*
X0012721Y0265903D01*
X0012579Y0266161D01*
X0012443Y0266423D01*
X0012314Y0266688D01*
X0012191Y0266956D01*
X0012075Y0267227D01*
X0011966Y0267500D01*
X0011863Y0267777D01*
X0011767Y0268055D01*
X0011678Y0268336D01*
X0011596Y0268619D01*
X0011521Y0268904D01*
X0011453Y0269191D01*
X0011392Y0269479D01*
X0011338Y0269769D01*
X0011291Y0270060D01*
X0011251Y0270352D01*
X0011219Y0270645D01*
X0011194Y0270939D01*
X0011175Y0271233D01*
X0011165Y0271527D01*
X0011161Y0271822D01*
X0011178Y0337910D02*
X0011182Y0338205D01*
X0011192Y0338499D01*
X0011211Y0338793D01*
X0011236Y0339087D01*
X0011268Y0339380D01*
X0011308Y0339672D01*
X0011355Y0339963D01*
X0011409Y0340253D01*
X0011470Y0340541D01*
X0011538Y0340828D01*
X0011613Y0341113D01*
X0011695Y0341396D01*
X0011784Y0341677D01*
X0011880Y0341955D01*
X0011983Y0342232D01*
X0012092Y0342505D01*
X0012208Y0342776D01*
X0012331Y0343044D01*
X0012460Y0343309D01*
X0012596Y0343571D01*
X0012738Y0343829D01*
X0012886Y0344083D01*
X0013041Y0344334D01*
X0013202Y0344581D01*
X0013368Y0344824D01*
X0013541Y0345063D01*
X0013720Y0345298D01*
X0013904Y0345528D01*
X0014093Y0345753D01*
X0014289Y0345974D01*
X0014489Y0346190D01*
X0014695Y0346401D01*
X0014906Y0346607D01*
X0015122Y0346807D01*
X0015343Y0347003D01*
X0015568Y0347192D01*
X0015798Y0347376D01*
X0016033Y0347555D01*
X0016272Y0347728D01*
X0016515Y0347894D01*
X0016762Y0348055D01*
X0017013Y0348210D01*
X0017267Y0348358D01*
X0017525Y0348500D01*
X0017787Y0348636D01*
X0018052Y0348765D01*
X0018320Y0348888D01*
X0018591Y0349004D01*
X0018864Y0349113D01*
X0019141Y0349216D01*
X0019419Y0349312D01*
X0019700Y0349401D01*
X0019983Y0349483D01*
X0020268Y0349558D01*
X0020555Y0349626D01*
X0020843Y0349687D01*
X0021133Y0349741D01*
X0021424Y0349788D01*
X0021716Y0349828D01*
X0022009Y0349860D01*
X0022303Y0349885D01*
X0022597Y0349904D01*
X0022891Y0349914D01*
X0023186Y0349918D01*
X0023481Y0349914D01*
X0023775Y0349904D01*
X0024069Y0349885D01*
X0024363Y0349860D01*
X0024656Y0349828D01*
X0024948Y0349788D01*
X0025239Y0349741D01*
X0025529Y0349687D01*
X0025817Y0349626D01*
X0026104Y0349558D01*
X0026389Y0349483D01*
X0026672Y0349401D01*
X0026953Y0349312D01*
X0027231Y0349216D01*
X0027508Y0349113D01*
X0027781Y0349004D01*
X0028052Y0348888D01*
X0028320Y0348765D01*
X0028585Y0348636D01*
X0028847Y0348500D01*
X0029105Y0348358D01*
X0029359Y0348210D01*
X0029610Y0348055D01*
X0029857Y0347894D01*
X0030100Y0347728D01*
X0030339Y0347555D01*
X0030574Y0347376D01*
X0030804Y0347192D01*
X0031029Y0347003D01*
X0031250Y0346807D01*
X0031466Y0346607D01*
X0031677Y0346401D01*
X0031883Y0346190D01*
X0032083Y0345974D01*
X0032279Y0345753D01*
X0032468Y0345528D01*
X0032652Y0345298D01*
X0032831Y0345063D01*
X0033004Y0344824D01*
X0033170Y0344581D01*
X0033331Y0344334D01*
X0033486Y0344083D01*
X0033634Y0343829D01*
X0033776Y0343571D01*
X0033912Y0343309D01*
X0034041Y0343044D01*
X0034164Y0342776D01*
X0034280Y0342505D01*
X0034389Y0342232D01*
X0034492Y0341955D01*
X0034588Y0341677D01*
X0034677Y0341396D01*
X0034759Y0341113D01*
X0034834Y0340828D01*
X0034902Y0340541D01*
X0034963Y0340253D01*
X0035017Y0339963D01*
X0035064Y0339672D01*
X0035104Y0339380D01*
X0035136Y0339087D01*
X0035161Y0338793D01*
X0035180Y0338499D01*
X0035190Y0338205D01*
X0035194Y0337910D01*
X0035190Y0337615D01*
X0035180Y0337321D01*
X0035161Y0337027D01*
X0035136Y0336733D01*
X0035104Y0336440D01*
X0035064Y0336148D01*
X0035017Y0335857D01*
X0034963Y0335567D01*
X0034902Y0335279D01*
X0034834Y0334992D01*
X0034759Y0334707D01*
X0034677Y0334424D01*
X0034588Y0334143D01*
X0034492Y0333865D01*
X0034389Y0333588D01*
X0034280Y0333315D01*
X0034164Y0333044D01*
X0034041Y0332776D01*
X0033912Y0332511D01*
X0033776Y0332249D01*
X0033634Y0331991D01*
X0033486Y0331737D01*
X0033331Y0331486D01*
X0033170Y0331239D01*
X0033004Y0330996D01*
X0032831Y0330757D01*
X0032652Y0330522D01*
X0032468Y0330292D01*
X0032279Y0330067D01*
X0032083Y0329846D01*
X0031883Y0329630D01*
X0031677Y0329419D01*
X0031466Y0329213D01*
X0031250Y0329013D01*
X0031029Y0328817D01*
X0030804Y0328628D01*
X0030574Y0328444D01*
X0030339Y0328265D01*
X0030100Y0328092D01*
X0029857Y0327926D01*
X0029610Y0327765D01*
X0029359Y0327610D01*
X0029105Y0327462D01*
X0028847Y0327320D01*
X0028585Y0327184D01*
X0028320Y0327055D01*
X0028052Y0326932D01*
X0027781Y0326816D01*
X0027508Y0326707D01*
X0027231Y0326604D01*
X0026953Y0326508D01*
X0026672Y0326419D01*
X0026389Y0326337D01*
X0026104Y0326262D01*
X0025817Y0326194D01*
X0025529Y0326133D01*
X0025239Y0326079D01*
X0024948Y0326032D01*
X0024656Y0325992D01*
X0024363Y0325960D01*
X0024069Y0325935D01*
X0023775Y0325916D01*
X0023481Y0325906D01*
X0023186Y0325902D01*
X0022891Y0325906D01*
X0022597Y0325916D01*
X0022303Y0325935D01*
X0022009Y0325960D01*
X0021716Y0325992D01*
X0021424Y0326032D01*
X0021133Y0326079D01*
X0020843Y0326133D01*
X0020555Y0326194D01*
X0020268Y0326262D01*
X0019983Y0326337D01*
X0019700Y0326419D01*
X0019419Y0326508D01*
X0019141Y0326604D01*
X0018864Y0326707D01*
X0018591Y0326816D01*
X0018320Y0326932D01*
X0018052Y0327055D01*
X0017787Y0327184D01*
X0017525Y0327320D01*
X0017267Y0327462D01*
X0017013Y0327610D01*
X0016762Y0327765D01*
X0016515Y0327926D01*
X0016272Y0328092D01*
X0016033Y0328265D01*
X0015798Y0328444D01*
X0015568Y0328628D01*
X0015343Y0328817D01*
X0015122Y0329013D01*
X0014906Y0329213D01*
X0014695Y0329419D01*
X0014489Y0329630D01*
X0014289Y0329846D01*
X0014093Y0330067D01*
X0013904Y0330292D01*
X0013720Y0330522D01*
X0013541Y0330757D01*
X0013368Y0330996D01*
X0013202Y0331239D01*
X0013041Y0331486D01*
X0012886Y0331737D01*
X0012738Y0331991D01*
X0012596Y0332249D01*
X0012460Y0332511D01*
X0012331Y0332776D01*
X0012208Y0333044D01*
X0012092Y0333315D01*
X0011983Y0333588D01*
X0011880Y0333865D01*
X0011784Y0334143D01*
X0011695Y0334424D01*
X0011613Y0334707D01*
X0011538Y0334992D01*
X0011470Y0335279D01*
X0011409Y0335567D01*
X0011355Y0335857D01*
X0011308Y0336148D01*
X0011268Y0336440D01*
X0011236Y0336733D01*
X0011211Y0337027D01*
X0011192Y0337321D01*
X0011182Y0337615D01*
X0011178Y0337910D01*
X0011051Y0402798D02*
X0011055Y0403093D01*
X0011065Y0403387D01*
X0011084Y0403681D01*
X0011109Y0403975D01*
X0011141Y0404268D01*
X0011181Y0404560D01*
X0011228Y0404851D01*
X0011282Y0405141D01*
X0011343Y0405429D01*
X0011411Y0405716D01*
X0011486Y0406001D01*
X0011568Y0406284D01*
X0011657Y0406565D01*
X0011753Y0406843D01*
X0011856Y0407120D01*
X0011965Y0407393D01*
X0012081Y0407664D01*
X0012204Y0407932D01*
X0012333Y0408197D01*
X0012469Y0408459D01*
X0012611Y0408717D01*
X0012759Y0408971D01*
X0012914Y0409222D01*
X0013075Y0409469D01*
X0013241Y0409712D01*
X0013414Y0409951D01*
X0013593Y0410186D01*
X0013777Y0410416D01*
X0013966Y0410641D01*
X0014162Y0410862D01*
X0014362Y0411078D01*
X0014568Y0411289D01*
X0014779Y0411495D01*
X0014995Y0411695D01*
X0015216Y0411891D01*
X0015441Y0412080D01*
X0015671Y0412264D01*
X0015906Y0412443D01*
X0016145Y0412616D01*
X0016388Y0412782D01*
X0016635Y0412943D01*
X0016886Y0413098D01*
X0017140Y0413246D01*
X0017398Y0413388D01*
X0017660Y0413524D01*
X0017925Y0413653D01*
X0018193Y0413776D01*
X0018464Y0413892D01*
X0018737Y0414001D01*
X0019014Y0414104D01*
X0019292Y0414200D01*
X0019573Y0414289D01*
X0019856Y0414371D01*
X0020141Y0414446D01*
X0020428Y0414514D01*
X0020716Y0414575D01*
X0021006Y0414629D01*
X0021297Y0414676D01*
X0021589Y0414716D01*
X0021882Y0414748D01*
X0022176Y0414773D01*
X0022470Y0414792D01*
X0022764Y0414802D01*
X0023059Y0414806D01*
X0023354Y0414802D01*
X0023648Y0414792D01*
X0023942Y0414773D01*
X0024236Y0414748D01*
X0024529Y0414716D01*
X0024821Y0414676D01*
X0025112Y0414629D01*
X0025402Y0414575D01*
X0025690Y0414514D01*
X0025977Y0414446D01*
X0026262Y0414371D01*
X0026545Y0414289D01*
X0026826Y0414200D01*
X0027104Y0414104D01*
X0027381Y0414001D01*
X0027654Y0413892D01*
X0027925Y0413776D01*
X0028193Y0413653D01*
X0028458Y0413524D01*
X0028720Y0413388D01*
X0028978Y0413246D01*
X0029232Y0413098D01*
X0029483Y0412943D01*
X0029730Y0412782D01*
X0029973Y0412616D01*
X0030212Y0412443D01*
X0030447Y0412264D01*
X0030677Y0412080D01*
X0030902Y0411891D01*
X0031123Y0411695D01*
X0031339Y0411495D01*
X0031550Y0411289D01*
X0031756Y0411078D01*
X0031956Y0410862D01*
X0032152Y0410641D01*
X0032341Y0410416D01*
X0032525Y0410186D01*
X0032704Y0409951D01*
X0032877Y0409712D01*
X0033043Y0409469D01*
X0033204Y0409222D01*
X0033359Y0408971D01*
X0033507Y0408717D01*
X0033649Y0408459D01*
X0033785Y0408197D01*
X0033914Y0407932D01*
X0034037Y0407664D01*
X0034153Y0407393D01*
X0034262Y0407120D01*
X0034365Y0406843D01*
X0034461Y0406565D01*
X0034550Y0406284D01*
X0034632Y0406001D01*
X0034707Y0405716D01*
X0034775Y0405429D01*
X0034836Y0405141D01*
X0034890Y0404851D01*
X0034937Y0404560D01*
X0034977Y0404268D01*
X0035009Y0403975D01*
X0035034Y0403681D01*
X0035053Y0403387D01*
X0035063Y0403093D01*
X0035067Y0402798D01*
X0035063Y0402503D01*
X0035053Y0402209D01*
X0035034Y0401915D01*
X0035009Y0401621D01*
X0034977Y0401328D01*
X0034937Y0401036D01*
X0034890Y0400745D01*
X0034836Y0400455D01*
X0034775Y0400167D01*
X0034707Y0399880D01*
X0034632Y0399595D01*
X0034550Y0399312D01*
X0034461Y0399031D01*
X0034365Y0398753D01*
X0034262Y0398476D01*
X0034153Y0398203D01*
X0034037Y0397932D01*
X0033914Y0397664D01*
X0033785Y0397399D01*
X0033649Y0397137D01*
X0033507Y0396879D01*
X0033359Y0396625D01*
X0033204Y0396374D01*
X0033043Y0396127D01*
X0032877Y0395884D01*
X0032704Y0395645D01*
X0032525Y0395410D01*
X0032341Y0395180D01*
X0032152Y0394955D01*
X0031956Y0394734D01*
X0031756Y0394518D01*
X0031550Y0394307D01*
X0031339Y0394101D01*
X0031123Y0393901D01*
X0030902Y0393705D01*
X0030677Y0393516D01*
X0030447Y0393332D01*
X0030212Y0393153D01*
X0029973Y0392980D01*
X0029730Y0392814D01*
X0029483Y0392653D01*
X0029232Y0392498D01*
X0028978Y0392350D01*
X0028720Y0392208D01*
X0028458Y0392072D01*
X0028193Y0391943D01*
X0027925Y0391820D01*
X0027654Y0391704D01*
X0027381Y0391595D01*
X0027104Y0391492D01*
X0026826Y0391396D01*
X0026545Y0391307D01*
X0026262Y0391225D01*
X0025977Y0391150D01*
X0025690Y0391082D01*
X0025402Y0391021D01*
X0025112Y0390967D01*
X0024821Y0390920D01*
X0024529Y0390880D01*
X0024236Y0390848D01*
X0023942Y0390823D01*
X0023648Y0390804D01*
X0023354Y0390794D01*
X0023059Y0390790D01*
X0022764Y0390794D01*
X0022470Y0390804D01*
X0022176Y0390823D01*
X0021882Y0390848D01*
X0021589Y0390880D01*
X0021297Y0390920D01*
X0021006Y0390967D01*
X0020716Y0391021D01*
X0020428Y0391082D01*
X0020141Y0391150D01*
X0019856Y0391225D01*
X0019573Y0391307D01*
X0019292Y0391396D01*
X0019014Y0391492D01*
X0018737Y0391595D01*
X0018464Y0391704D01*
X0018193Y0391820D01*
X0017925Y0391943D01*
X0017660Y0392072D01*
X0017398Y0392208D01*
X0017140Y0392350D01*
X0016886Y0392498D01*
X0016635Y0392653D01*
X0016388Y0392814D01*
X0016145Y0392980D01*
X0015906Y0393153D01*
X0015671Y0393332D01*
X0015441Y0393516D01*
X0015216Y0393705D01*
X0014995Y0393901D01*
X0014779Y0394101D01*
X0014568Y0394307D01*
X0014362Y0394518D01*
X0014162Y0394734D01*
X0013966Y0394955D01*
X0013777Y0395180D01*
X0013593Y0395410D01*
X0013414Y0395645D01*
X0013241Y0395884D01*
X0013075Y0396127D01*
X0012914Y0396374D01*
X0012759Y0396625D01*
X0012611Y0396879D01*
X0012469Y0397137D01*
X0012333Y0397399D01*
X0012204Y0397664D01*
X0012081Y0397932D01*
X0011965Y0398203D01*
X0011856Y0398476D01*
X0011753Y0398753D01*
X0011657Y0399031D01*
X0011568Y0399312D01*
X0011486Y0399595D01*
X0011411Y0399880D01*
X0011343Y0400167D01*
X0011282Y0400455D01*
X0011228Y0400745D01*
X0011181Y0401036D01*
X0011141Y0401328D01*
X0011109Y0401621D01*
X0011084Y0401915D01*
X0011065Y0402209D01*
X0011055Y0402503D01*
X0011051Y0402798D01*
X0049454Y0402761D02*
X0049458Y0403056D01*
X0049468Y0403350D01*
X0049487Y0403644D01*
X0049512Y0403938D01*
X0049544Y0404231D01*
X0049584Y0404523D01*
X0049631Y0404814D01*
X0049685Y0405104D01*
X0049746Y0405392D01*
X0049814Y0405679D01*
X0049889Y0405964D01*
X0049971Y0406247D01*
X0050060Y0406528D01*
X0050156Y0406806D01*
X0050259Y0407083D01*
X0050368Y0407356D01*
X0050484Y0407627D01*
X0050607Y0407895D01*
X0050736Y0408160D01*
X0050872Y0408422D01*
X0051014Y0408680D01*
X0051162Y0408934D01*
X0051317Y0409185D01*
X0051478Y0409432D01*
X0051644Y0409675D01*
X0051817Y0409914D01*
X0051996Y0410149D01*
X0052180Y0410379D01*
X0052369Y0410604D01*
X0052565Y0410825D01*
X0052765Y0411041D01*
X0052971Y0411252D01*
X0053182Y0411458D01*
X0053398Y0411658D01*
X0053619Y0411854D01*
X0053844Y0412043D01*
X0054074Y0412227D01*
X0054309Y0412406D01*
X0054548Y0412579D01*
X0054791Y0412745D01*
X0055038Y0412906D01*
X0055289Y0413061D01*
X0055543Y0413209D01*
X0055801Y0413351D01*
X0056063Y0413487D01*
X0056328Y0413616D01*
X0056596Y0413739D01*
X0056867Y0413855D01*
X0057140Y0413964D01*
X0057417Y0414067D01*
X0057695Y0414163D01*
X0057976Y0414252D01*
X0058259Y0414334D01*
X0058544Y0414409D01*
X0058831Y0414477D01*
X0059119Y0414538D01*
X0059409Y0414592D01*
X0059700Y0414639D01*
X0059992Y0414679D01*
X0060285Y0414711D01*
X0060579Y0414736D01*
X0060873Y0414755D01*
X0061167Y0414765D01*
X0061462Y0414769D01*
X0061757Y0414765D01*
X0062051Y0414755D01*
X0062345Y0414736D01*
X0062639Y0414711D01*
X0062932Y0414679D01*
X0063224Y0414639D01*
X0063515Y0414592D01*
X0063805Y0414538D01*
X0064093Y0414477D01*
X0064380Y0414409D01*
X0064665Y0414334D01*
X0064948Y0414252D01*
X0065229Y0414163D01*
X0065507Y0414067D01*
X0065784Y0413964D01*
X0066057Y0413855D01*
X0066328Y0413739D01*
X0066596Y0413616D01*
X0066861Y0413487D01*
X0067123Y0413351D01*
X0067381Y0413209D01*
X0067635Y0413061D01*
X0067886Y0412906D01*
X0068133Y0412745D01*
X0068376Y0412579D01*
X0068615Y0412406D01*
X0068850Y0412227D01*
X0069080Y0412043D01*
X0069305Y0411854D01*
X0069526Y0411658D01*
X0069742Y0411458D01*
X0069953Y0411252D01*
X0070159Y0411041D01*
X0070359Y0410825D01*
X0070555Y0410604D01*
X0070744Y0410379D01*
X0070928Y0410149D01*
X0071107Y0409914D01*
X0071280Y0409675D01*
X0071446Y0409432D01*
X0071607Y0409185D01*
X0071762Y0408934D01*
X0071910Y0408680D01*
X0072052Y0408422D01*
X0072188Y0408160D01*
X0072317Y0407895D01*
X0072440Y0407627D01*
X0072556Y0407356D01*
X0072665Y0407083D01*
X0072768Y0406806D01*
X0072864Y0406528D01*
X0072953Y0406247D01*
X0073035Y0405964D01*
X0073110Y0405679D01*
X0073178Y0405392D01*
X0073239Y0405104D01*
X0073293Y0404814D01*
X0073340Y0404523D01*
X0073380Y0404231D01*
X0073412Y0403938D01*
X0073437Y0403644D01*
X0073456Y0403350D01*
X0073466Y0403056D01*
X0073470Y0402761D01*
X0073466Y0402466D01*
X0073456Y0402172D01*
X0073437Y0401878D01*
X0073412Y0401584D01*
X0073380Y0401291D01*
X0073340Y0400999D01*
X0073293Y0400708D01*
X0073239Y0400418D01*
X0073178Y0400130D01*
X0073110Y0399843D01*
X0073035Y0399558D01*
X0072953Y0399275D01*
X0072864Y0398994D01*
X0072768Y0398716D01*
X0072665Y0398439D01*
X0072556Y0398166D01*
X0072440Y0397895D01*
X0072317Y0397627D01*
X0072188Y0397362D01*
X0072052Y0397100D01*
X0071910Y0396842D01*
X0071762Y0396588D01*
X0071607Y0396337D01*
X0071446Y0396090D01*
X0071280Y0395847D01*
X0071107Y0395608D01*
X0070928Y0395373D01*
X0070744Y0395143D01*
X0070555Y0394918D01*
X0070359Y0394697D01*
X0070159Y0394481D01*
X0069953Y0394270D01*
X0069742Y0394064D01*
X0069526Y0393864D01*
X0069305Y0393668D01*
X0069080Y0393479D01*
X0068850Y0393295D01*
X0068615Y0393116D01*
X0068376Y0392943D01*
X0068133Y0392777D01*
X0067886Y0392616D01*
X0067635Y0392461D01*
X0067381Y0392313D01*
X0067123Y0392171D01*
X0066861Y0392035D01*
X0066596Y0391906D01*
X0066328Y0391783D01*
X0066057Y0391667D01*
X0065784Y0391558D01*
X0065507Y0391455D01*
X0065229Y0391359D01*
X0064948Y0391270D01*
X0064665Y0391188D01*
X0064380Y0391113D01*
X0064093Y0391045D01*
X0063805Y0390984D01*
X0063515Y0390930D01*
X0063224Y0390883D01*
X0062932Y0390843D01*
X0062639Y0390811D01*
X0062345Y0390786D01*
X0062051Y0390767D01*
X0061757Y0390757D01*
X0061462Y0390753D01*
X0061167Y0390757D01*
X0060873Y0390767D01*
X0060579Y0390786D01*
X0060285Y0390811D01*
X0059992Y0390843D01*
X0059700Y0390883D01*
X0059409Y0390930D01*
X0059119Y0390984D01*
X0058831Y0391045D01*
X0058544Y0391113D01*
X0058259Y0391188D01*
X0057976Y0391270D01*
X0057695Y0391359D01*
X0057417Y0391455D01*
X0057140Y0391558D01*
X0056867Y0391667D01*
X0056596Y0391783D01*
X0056328Y0391906D01*
X0056063Y0392035D01*
X0055801Y0392171D01*
X0055543Y0392313D01*
X0055289Y0392461D01*
X0055038Y0392616D01*
X0054791Y0392777D01*
X0054548Y0392943D01*
X0054309Y0393116D01*
X0054074Y0393295D01*
X0053844Y0393479D01*
X0053619Y0393668D01*
X0053398Y0393864D01*
X0053182Y0394064D01*
X0052971Y0394270D01*
X0052765Y0394481D01*
X0052565Y0394697D01*
X0052369Y0394918D01*
X0052180Y0395143D01*
X0051996Y0395373D01*
X0051817Y0395608D01*
X0051644Y0395847D01*
X0051478Y0396090D01*
X0051317Y0396337D01*
X0051162Y0396588D01*
X0051014Y0396842D01*
X0050872Y0397100D01*
X0050736Y0397362D01*
X0050607Y0397627D01*
X0050484Y0397895D01*
X0050368Y0398166D01*
X0050259Y0398439D01*
X0050156Y0398716D01*
X0050060Y0398994D01*
X0049971Y0399275D01*
X0049889Y0399558D01*
X0049814Y0399843D01*
X0049746Y0400130D01*
X0049685Y0400418D01*
X0049631Y0400708D01*
X0049584Y0400999D01*
X0049544Y0401291D01*
X0049512Y0401584D01*
X0049487Y0401878D01*
X0049468Y0402172D01*
X0049458Y0402466D01*
X0049454Y0402761D01*
X0049527Y0337972D02*
X0049531Y0338267D01*
X0049541Y0338561D01*
X0049560Y0338855D01*
X0049585Y0339149D01*
X0049617Y0339442D01*
X0049657Y0339734D01*
X0049704Y0340025D01*
X0049758Y0340315D01*
X0049819Y0340603D01*
X0049887Y0340890D01*
X0049962Y0341175D01*
X0050044Y0341458D01*
X0050133Y0341739D01*
X0050229Y0342017D01*
X0050332Y0342294D01*
X0050441Y0342567D01*
X0050557Y0342838D01*
X0050680Y0343106D01*
X0050809Y0343371D01*
X0050945Y0343633D01*
X0051087Y0343891D01*
X0051235Y0344145D01*
X0051390Y0344396D01*
X0051551Y0344643D01*
X0051717Y0344886D01*
X0051890Y0345125D01*
X0052069Y0345360D01*
X0052253Y0345590D01*
X0052442Y0345815D01*
X0052638Y0346036D01*
X0052838Y0346252D01*
X0053044Y0346463D01*
X0053255Y0346669D01*
X0053471Y0346869D01*
X0053692Y0347065D01*
X0053917Y0347254D01*
X0054147Y0347438D01*
X0054382Y0347617D01*
X0054621Y0347790D01*
X0054864Y0347956D01*
X0055111Y0348117D01*
X0055362Y0348272D01*
X0055616Y0348420D01*
X0055874Y0348562D01*
X0056136Y0348698D01*
X0056401Y0348827D01*
X0056669Y0348950D01*
X0056940Y0349066D01*
X0057213Y0349175D01*
X0057490Y0349278D01*
X0057768Y0349374D01*
X0058049Y0349463D01*
X0058332Y0349545D01*
X0058617Y0349620D01*
X0058904Y0349688D01*
X0059192Y0349749D01*
X0059482Y0349803D01*
X0059773Y0349850D01*
X0060065Y0349890D01*
X0060358Y0349922D01*
X0060652Y0349947D01*
X0060946Y0349966D01*
X0061240Y0349976D01*
X0061535Y0349980D01*
X0061830Y0349976D01*
X0062124Y0349966D01*
X0062418Y0349947D01*
X0062712Y0349922D01*
X0063005Y0349890D01*
X0063297Y0349850D01*
X0063588Y0349803D01*
X0063878Y0349749D01*
X0064166Y0349688D01*
X0064453Y0349620D01*
X0064738Y0349545D01*
X0065021Y0349463D01*
X0065302Y0349374D01*
X0065580Y0349278D01*
X0065857Y0349175D01*
X0066130Y0349066D01*
X0066401Y0348950D01*
X0066669Y0348827D01*
X0066934Y0348698D01*
X0067196Y0348562D01*
X0067454Y0348420D01*
X0067708Y0348272D01*
X0067959Y0348117D01*
X0068206Y0347956D01*
X0068449Y0347790D01*
X0068688Y0347617D01*
X0068923Y0347438D01*
X0069153Y0347254D01*
X0069378Y0347065D01*
X0069599Y0346869D01*
X0069815Y0346669D01*
X0070026Y0346463D01*
X0070232Y0346252D01*
X0070432Y0346036D01*
X0070628Y0345815D01*
X0070817Y0345590D01*
X0071001Y0345360D01*
X0071180Y0345125D01*
X0071353Y0344886D01*
X0071519Y0344643D01*
X0071680Y0344396D01*
X0071835Y0344145D01*
X0071983Y0343891D01*
X0072125Y0343633D01*
X0072261Y0343371D01*
X0072390Y0343106D01*
X0072513Y0342838D01*
X0072629Y0342567D01*
X0072738Y0342294D01*
X0072841Y0342017D01*
X0072937Y0341739D01*
X0073026Y0341458D01*
X0073108Y0341175D01*
X0073183Y0340890D01*
X0073251Y0340603D01*
X0073312Y0340315D01*
X0073366Y0340025D01*
X0073413Y0339734D01*
X0073453Y0339442D01*
X0073485Y0339149D01*
X0073510Y0338855D01*
X0073529Y0338561D01*
X0073539Y0338267D01*
X0073543Y0337972D01*
X0073539Y0337677D01*
X0073529Y0337383D01*
X0073510Y0337089D01*
X0073485Y0336795D01*
X0073453Y0336502D01*
X0073413Y0336210D01*
X0073366Y0335919D01*
X0073312Y0335629D01*
X0073251Y0335341D01*
X0073183Y0335054D01*
X0073108Y0334769D01*
X0073026Y0334486D01*
X0072937Y0334205D01*
X0072841Y0333927D01*
X0072738Y0333650D01*
X0072629Y0333377D01*
X0072513Y0333106D01*
X0072390Y0332838D01*
X0072261Y0332573D01*
X0072125Y0332311D01*
X0071983Y0332053D01*
X0071835Y0331799D01*
X0071680Y0331548D01*
X0071519Y0331301D01*
X0071353Y0331058D01*
X0071180Y0330819D01*
X0071001Y0330584D01*
X0070817Y0330354D01*
X0070628Y0330129D01*
X0070432Y0329908D01*
X0070232Y0329692D01*
X0070026Y0329481D01*
X0069815Y0329275D01*
X0069599Y0329075D01*
X0069378Y0328879D01*
X0069153Y0328690D01*
X0068923Y0328506D01*
X0068688Y0328327D01*
X0068449Y0328154D01*
X0068206Y0327988D01*
X0067959Y0327827D01*
X0067708Y0327672D01*
X0067454Y0327524D01*
X0067196Y0327382D01*
X0066934Y0327246D01*
X0066669Y0327117D01*
X0066401Y0326994D01*
X0066130Y0326878D01*
X0065857Y0326769D01*
X0065580Y0326666D01*
X0065302Y0326570D01*
X0065021Y0326481D01*
X0064738Y0326399D01*
X0064453Y0326324D01*
X0064166Y0326256D01*
X0063878Y0326195D01*
X0063588Y0326141D01*
X0063297Y0326094D01*
X0063005Y0326054D01*
X0062712Y0326022D01*
X0062418Y0325997D01*
X0062124Y0325978D01*
X0061830Y0325968D01*
X0061535Y0325964D01*
X0061240Y0325968D01*
X0060946Y0325978D01*
X0060652Y0325997D01*
X0060358Y0326022D01*
X0060065Y0326054D01*
X0059773Y0326094D01*
X0059482Y0326141D01*
X0059192Y0326195D01*
X0058904Y0326256D01*
X0058617Y0326324D01*
X0058332Y0326399D01*
X0058049Y0326481D01*
X0057768Y0326570D01*
X0057490Y0326666D01*
X0057213Y0326769D01*
X0056940Y0326878D01*
X0056669Y0326994D01*
X0056401Y0327117D01*
X0056136Y0327246D01*
X0055874Y0327382D01*
X0055616Y0327524D01*
X0055362Y0327672D01*
X0055111Y0327827D01*
X0054864Y0327988D01*
X0054621Y0328154D01*
X0054382Y0328327D01*
X0054147Y0328506D01*
X0053917Y0328690D01*
X0053692Y0328879D01*
X0053471Y0329075D01*
X0053255Y0329275D01*
X0053044Y0329481D01*
X0052838Y0329692D01*
X0052638Y0329908D01*
X0052442Y0330129D01*
X0052253Y0330354D01*
X0052069Y0330584D01*
X0051890Y0330819D01*
X0051717Y0331058D01*
X0051551Y0331301D01*
X0051390Y0331548D01*
X0051235Y0331799D01*
X0051087Y0332053D01*
X0050945Y0332311D01*
X0050809Y0332573D01*
X0050680Y0332838D01*
X0050557Y0333106D01*
X0050441Y0333377D01*
X0050332Y0333650D01*
X0050229Y0333927D01*
X0050133Y0334205D01*
X0050044Y0334486D01*
X0049962Y0334769D01*
X0049887Y0335054D01*
X0049819Y0335341D01*
X0049758Y0335629D01*
X0049704Y0335919D01*
X0049657Y0336210D01*
X0049617Y0336502D01*
X0049585Y0336795D01*
X0049560Y0337089D01*
X0049541Y0337383D01*
X0049531Y0337677D01*
X0049527Y0337972D01*
X0049601Y0271932D02*
X0049605Y0272227D01*
X0049615Y0272521D01*
X0049634Y0272815D01*
X0049659Y0273109D01*
X0049691Y0273402D01*
X0049731Y0273694D01*
X0049778Y0273985D01*
X0049832Y0274275D01*
X0049893Y0274563D01*
X0049961Y0274850D01*
X0050036Y0275135D01*
X0050118Y0275418D01*
X0050207Y0275699D01*
X0050303Y0275977D01*
X0050406Y0276254D01*
X0050515Y0276527D01*
X0050631Y0276798D01*
X0050754Y0277066D01*
X0050883Y0277331D01*
X0051019Y0277593D01*
X0051161Y0277851D01*
X0051309Y0278105D01*
X0051464Y0278356D01*
X0051625Y0278603D01*
X0051791Y0278846D01*
X0051964Y0279085D01*
X0052143Y0279320D01*
X0052327Y0279550D01*
X0052516Y0279775D01*
X0052712Y0279996D01*
X0052912Y0280212D01*
X0053118Y0280423D01*
X0053329Y0280629D01*
X0053545Y0280829D01*
X0053766Y0281025D01*
X0053991Y0281214D01*
X0054221Y0281398D01*
X0054456Y0281577D01*
X0054695Y0281750D01*
X0054938Y0281916D01*
X0055185Y0282077D01*
X0055436Y0282232D01*
X0055690Y0282380D01*
X0055948Y0282522D01*
X0056210Y0282658D01*
X0056475Y0282787D01*
X0056743Y0282910D01*
X0057014Y0283026D01*
X0057287Y0283135D01*
X0057564Y0283238D01*
X0057842Y0283334D01*
X0058123Y0283423D01*
X0058406Y0283505D01*
X0058691Y0283580D01*
X0058978Y0283648D01*
X0059266Y0283709D01*
X0059556Y0283763D01*
X0059847Y0283810D01*
X0060139Y0283850D01*
X0060432Y0283882D01*
X0060726Y0283907D01*
X0061020Y0283926D01*
X0061314Y0283936D01*
X0061609Y0283940D01*
X0061904Y0283936D01*
X0062198Y0283926D01*
X0062492Y0283907D01*
X0062786Y0283882D01*
X0063079Y0283850D01*
X0063371Y0283810D01*
X0063662Y0283763D01*
X0063952Y0283709D01*
X0064240Y0283648D01*
X0064527Y0283580D01*
X0064812Y0283505D01*
X0065095Y0283423D01*
X0065376Y0283334D01*
X0065654Y0283238D01*
X0065931Y0283135D01*
X0066204Y0283026D01*
X0066475Y0282910D01*
X0066743Y0282787D01*
X0067008Y0282658D01*
X0067270Y0282522D01*
X0067528Y0282380D01*
X0067782Y0282232D01*
X0068033Y0282077D01*
X0068280Y0281916D01*
X0068523Y0281750D01*
X0068762Y0281577D01*
X0068997Y0281398D01*
X0069227Y0281214D01*
X0069452Y0281025D01*
X0069673Y0280829D01*
X0069889Y0280629D01*
X0070100Y0280423D01*
X0070306Y0280212D01*
X0070506Y0279996D01*
X0070702Y0279775D01*
X0070891Y0279550D01*
X0071075Y0279320D01*
X0071254Y0279085D01*
X0071427Y0278846D01*
X0071593Y0278603D01*
X0071754Y0278356D01*
X0071909Y0278105D01*
X0072057Y0277851D01*
X0072199Y0277593D01*
X0072335Y0277331D01*
X0072464Y0277066D01*
X0072587Y0276798D01*
X0072703Y0276527D01*
X0072812Y0276254D01*
X0072915Y0275977D01*
X0073011Y0275699D01*
X0073100Y0275418D01*
X0073182Y0275135D01*
X0073257Y0274850D01*
X0073325Y0274563D01*
X0073386Y0274275D01*
X0073440Y0273985D01*
X0073487Y0273694D01*
X0073527Y0273402D01*
X0073559Y0273109D01*
X0073584Y0272815D01*
X0073603Y0272521D01*
X0073613Y0272227D01*
X0073617Y0271932D01*
X0073613Y0271637D01*
X0073603Y0271343D01*
X0073584Y0271049D01*
X0073559Y0270755D01*
X0073527Y0270462D01*
X0073487Y0270170D01*
X0073440Y0269879D01*
X0073386Y0269589D01*
X0073325Y0269301D01*
X0073257Y0269014D01*
X0073182Y0268729D01*
X0073100Y0268446D01*
X0073011Y0268165D01*
X0072915Y0267887D01*
X0072812Y0267610D01*
X0072703Y0267337D01*
X0072587Y0267066D01*
X0072464Y0266798D01*
X0072335Y0266533D01*
X0072199Y0266271D01*
X0072057Y0266013D01*
X0071909Y0265759D01*
X0071754Y0265508D01*
X0071593Y0265261D01*
X0071427Y0265018D01*
X0071254Y0264779D01*
X0071075Y0264544D01*
X0070891Y0264314D01*
X0070702Y0264089D01*
X0070506Y0263868D01*
X0070306Y0263652D01*
X0070100Y0263441D01*
X0069889Y0263235D01*
X0069673Y0263035D01*
X0069452Y0262839D01*
X0069227Y0262650D01*
X0068997Y0262466D01*
X0068762Y0262287D01*
X0068523Y0262114D01*
X0068280Y0261948D01*
X0068033Y0261787D01*
X0067782Y0261632D01*
X0067528Y0261484D01*
X0067270Y0261342D01*
X0067008Y0261206D01*
X0066743Y0261077D01*
X0066475Y0260954D01*
X0066204Y0260838D01*
X0065931Y0260729D01*
X0065654Y0260626D01*
X0065376Y0260530D01*
X0065095Y0260441D01*
X0064812Y0260359D01*
X0064527Y0260284D01*
X0064240Y0260216D01*
X0063952Y0260155D01*
X0063662Y0260101D01*
X0063371Y0260054D01*
X0063079Y0260014D01*
X0062786Y0259982D01*
X0062492Y0259957D01*
X0062198Y0259938D01*
X0061904Y0259928D01*
X0061609Y0259924D01*
X0061314Y0259928D01*
X0061020Y0259938D01*
X0060726Y0259957D01*
X0060432Y0259982D01*
X0060139Y0260014D01*
X0059847Y0260054D01*
X0059556Y0260101D01*
X0059266Y0260155D01*
X0058978Y0260216D01*
X0058691Y0260284D01*
X0058406Y0260359D01*
X0058123Y0260441D01*
X0057842Y0260530D01*
X0057564Y0260626D01*
X0057287Y0260729D01*
X0057014Y0260838D01*
X0056743Y0260954D01*
X0056475Y0261077D01*
X0056210Y0261206D01*
X0055948Y0261342D01*
X0055690Y0261484D01*
X0055436Y0261632D01*
X0055185Y0261787D01*
X0054938Y0261948D01*
X0054695Y0262114D01*
X0054456Y0262287D01*
X0054221Y0262466D01*
X0053991Y0262650D01*
X0053766Y0262839D01*
X0053545Y0263035D01*
X0053329Y0263235D01*
X0053118Y0263441D01*
X0052912Y0263652D01*
X0052712Y0263868D01*
X0052516Y0264089D01*
X0052327Y0264314D01*
X0052143Y0264544D01*
X0051964Y0264779D01*
X0051791Y0265018D01*
X0051625Y0265261D01*
X0051464Y0265508D01*
X0051309Y0265759D01*
X0051161Y0266013D01*
X0051019Y0266271D01*
X0050883Y0266533D01*
X0050754Y0266798D01*
X0050631Y0267066D01*
X0050515Y0267337D01*
X0050406Y0267610D01*
X0050303Y0267887D01*
X0050207Y0268165D01*
X0050118Y0268446D01*
X0050036Y0268729D01*
X0049961Y0269014D01*
X0049893Y0269301D01*
X0049832Y0269589D01*
X0049778Y0269879D01*
X0049731Y0270170D01*
X0049691Y0270462D01*
X0049659Y0270755D01*
X0049634Y0271049D01*
X0049615Y0271343D01*
X0049605Y0271637D01*
X0049601Y0271932D01*
X0049527Y0206261D02*
X0049531Y0206556D01*
X0049541Y0206850D01*
X0049560Y0207144D01*
X0049585Y0207438D01*
X0049617Y0207731D01*
X0049657Y0208023D01*
X0049704Y0208314D01*
X0049758Y0208604D01*
X0049819Y0208892D01*
X0049887Y0209179D01*
X0049962Y0209464D01*
X0050044Y0209747D01*
X0050133Y0210028D01*
X0050229Y0210306D01*
X0050332Y0210583D01*
X0050441Y0210856D01*
X0050557Y0211127D01*
X0050680Y0211395D01*
X0050809Y0211660D01*
X0050945Y0211922D01*
X0051087Y0212180D01*
X0051235Y0212434D01*
X0051390Y0212685D01*
X0051551Y0212932D01*
X0051717Y0213175D01*
X0051890Y0213414D01*
X0052069Y0213649D01*
X0052253Y0213879D01*
X0052442Y0214104D01*
X0052638Y0214325D01*
X0052838Y0214541D01*
X0053044Y0214752D01*
X0053255Y0214958D01*
X0053471Y0215158D01*
X0053692Y0215354D01*
X0053917Y0215543D01*
X0054147Y0215727D01*
X0054382Y0215906D01*
X0054621Y0216079D01*
X0054864Y0216245D01*
X0055111Y0216406D01*
X0055362Y0216561D01*
X0055616Y0216709D01*
X0055874Y0216851D01*
X0056136Y0216987D01*
X0056401Y0217116D01*
X0056669Y0217239D01*
X0056940Y0217355D01*
X0057213Y0217464D01*
X0057490Y0217567D01*
X0057768Y0217663D01*
X0058049Y0217752D01*
X0058332Y0217834D01*
X0058617Y0217909D01*
X0058904Y0217977D01*
X0059192Y0218038D01*
X0059482Y0218092D01*
X0059773Y0218139D01*
X0060065Y0218179D01*
X0060358Y0218211D01*
X0060652Y0218236D01*
X0060946Y0218255D01*
X0061240Y0218265D01*
X0061535Y0218269D01*
X0061830Y0218265D01*
X0062124Y0218255D01*
X0062418Y0218236D01*
X0062712Y0218211D01*
X0063005Y0218179D01*
X0063297Y0218139D01*
X0063588Y0218092D01*
X0063878Y0218038D01*
X0064166Y0217977D01*
X0064453Y0217909D01*
X0064738Y0217834D01*
X0065021Y0217752D01*
X0065302Y0217663D01*
X0065580Y0217567D01*
X0065857Y0217464D01*
X0066130Y0217355D01*
X0066401Y0217239D01*
X0066669Y0217116D01*
X0066934Y0216987D01*
X0067196Y0216851D01*
X0067454Y0216709D01*
X0067708Y0216561D01*
X0067959Y0216406D01*
X0068206Y0216245D01*
X0068449Y0216079D01*
X0068688Y0215906D01*
X0068923Y0215727D01*
X0069153Y0215543D01*
X0069378Y0215354D01*
X0069599Y0215158D01*
X0069815Y0214958D01*
X0070026Y0214752D01*
X0070232Y0214541D01*
X0070432Y0214325D01*
X0070628Y0214104D01*
X0070817Y0213879D01*
X0071001Y0213649D01*
X0071180Y0213414D01*
X0071353Y0213175D01*
X0071519Y0212932D01*
X0071680Y0212685D01*
X0071835Y0212434D01*
X0071983Y0212180D01*
X0072125Y0211922D01*
X0072261Y0211660D01*
X0072390Y0211395D01*
X0072513Y0211127D01*
X0072629Y0210856D01*
X0072738Y0210583D01*
X0072841Y0210306D01*
X0072937Y0210028D01*
X0073026Y0209747D01*
X0073108Y0209464D01*
X0073183Y0209179D01*
X0073251Y0208892D01*
X0073312Y0208604D01*
X0073366Y0208314D01*
X0073413Y0208023D01*
X0073453Y0207731D01*
X0073485Y0207438D01*
X0073510Y0207144D01*
X0073529Y0206850D01*
X0073539Y0206556D01*
X0073543Y0206261D01*
X0073539Y0205966D01*
X0073529Y0205672D01*
X0073510Y0205378D01*
X0073485Y0205084D01*
X0073453Y0204791D01*
X0073413Y0204499D01*
X0073366Y0204208D01*
X0073312Y0203918D01*
X0073251Y0203630D01*
X0073183Y0203343D01*
X0073108Y0203058D01*
X0073026Y0202775D01*
X0072937Y0202494D01*
X0072841Y0202216D01*
X0072738Y0201939D01*
X0072629Y0201666D01*
X0072513Y0201395D01*
X0072390Y0201127D01*
X0072261Y0200862D01*
X0072125Y0200600D01*
X0071983Y0200342D01*
X0071835Y0200088D01*
X0071680Y0199837D01*
X0071519Y0199590D01*
X0071353Y0199347D01*
X0071180Y0199108D01*
X0071001Y0198873D01*
X0070817Y0198643D01*
X0070628Y0198418D01*
X0070432Y0198197D01*
X0070232Y0197981D01*
X0070026Y0197770D01*
X0069815Y0197564D01*
X0069599Y0197364D01*
X0069378Y0197168D01*
X0069153Y0196979D01*
X0068923Y0196795D01*
X0068688Y0196616D01*
X0068449Y0196443D01*
X0068206Y0196277D01*
X0067959Y0196116D01*
X0067708Y0195961D01*
X0067454Y0195813D01*
X0067196Y0195671D01*
X0066934Y0195535D01*
X0066669Y0195406D01*
X0066401Y0195283D01*
X0066130Y0195167D01*
X0065857Y0195058D01*
X0065580Y0194955D01*
X0065302Y0194859D01*
X0065021Y0194770D01*
X0064738Y0194688D01*
X0064453Y0194613D01*
X0064166Y0194545D01*
X0063878Y0194484D01*
X0063588Y0194430D01*
X0063297Y0194383D01*
X0063005Y0194343D01*
X0062712Y0194311D01*
X0062418Y0194286D01*
X0062124Y0194267D01*
X0061830Y0194257D01*
X0061535Y0194253D01*
X0061240Y0194257D01*
X0060946Y0194267D01*
X0060652Y0194286D01*
X0060358Y0194311D01*
X0060065Y0194343D01*
X0059773Y0194383D01*
X0059482Y0194430D01*
X0059192Y0194484D01*
X0058904Y0194545D01*
X0058617Y0194613D01*
X0058332Y0194688D01*
X0058049Y0194770D01*
X0057768Y0194859D01*
X0057490Y0194955D01*
X0057213Y0195058D01*
X0056940Y0195167D01*
X0056669Y0195283D01*
X0056401Y0195406D01*
X0056136Y0195535D01*
X0055874Y0195671D01*
X0055616Y0195813D01*
X0055362Y0195961D01*
X0055111Y0196116D01*
X0054864Y0196277D01*
X0054621Y0196443D01*
X0054382Y0196616D01*
X0054147Y0196795D01*
X0053917Y0196979D01*
X0053692Y0197168D01*
X0053471Y0197364D01*
X0053255Y0197564D01*
X0053044Y0197770D01*
X0052838Y0197981D01*
X0052638Y0198197D01*
X0052442Y0198418D01*
X0052253Y0198643D01*
X0052069Y0198873D01*
X0051890Y0199108D01*
X0051717Y0199347D01*
X0051551Y0199590D01*
X0051390Y0199837D01*
X0051235Y0200088D01*
X0051087Y0200342D01*
X0050945Y0200600D01*
X0050809Y0200862D01*
X0050680Y0201127D01*
X0050557Y0201395D01*
X0050441Y0201666D01*
X0050332Y0201939D01*
X0050229Y0202216D01*
X0050133Y0202494D01*
X0050044Y0202775D01*
X0049962Y0203058D01*
X0049887Y0203343D01*
X0049819Y0203630D01*
X0049758Y0203918D01*
X0049704Y0204208D01*
X0049657Y0204499D01*
X0049617Y0204791D01*
X0049585Y0205084D01*
X0049560Y0205378D01*
X0049541Y0205672D01*
X0049531Y0205966D01*
X0049527Y0206261D01*
X0049417Y0144673D02*
X0049421Y0144968D01*
X0049431Y0145262D01*
X0049450Y0145556D01*
X0049475Y0145850D01*
X0049507Y0146143D01*
X0049547Y0146435D01*
X0049594Y0146726D01*
X0049648Y0147016D01*
X0049709Y0147304D01*
X0049777Y0147591D01*
X0049852Y0147876D01*
X0049934Y0148159D01*
X0050023Y0148440D01*
X0050119Y0148718D01*
X0050222Y0148995D01*
X0050331Y0149268D01*
X0050447Y0149539D01*
X0050570Y0149807D01*
X0050699Y0150072D01*
X0050835Y0150334D01*
X0050977Y0150592D01*
X0051125Y0150846D01*
X0051280Y0151097D01*
X0051441Y0151344D01*
X0051607Y0151587D01*
X0051780Y0151826D01*
X0051959Y0152061D01*
X0052143Y0152291D01*
X0052332Y0152516D01*
X0052528Y0152737D01*
X0052728Y0152953D01*
X0052934Y0153164D01*
X0053145Y0153370D01*
X0053361Y0153570D01*
X0053582Y0153766D01*
X0053807Y0153955D01*
X0054037Y0154139D01*
X0054272Y0154318D01*
X0054511Y0154491D01*
X0054754Y0154657D01*
X0055001Y0154818D01*
X0055252Y0154973D01*
X0055506Y0155121D01*
X0055764Y0155263D01*
X0056026Y0155399D01*
X0056291Y0155528D01*
X0056559Y0155651D01*
X0056830Y0155767D01*
X0057103Y0155876D01*
X0057380Y0155979D01*
X0057658Y0156075D01*
X0057939Y0156164D01*
X0058222Y0156246D01*
X0058507Y0156321D01*
X0058794Y0156389D01*
X0059082Y0156450D01*
X0059372Y0156504D01*
X0059663Y0156551D01*
X0059955Y0156591D01*
X0060248Y0156623D01*
X0060542Y0156648D01*
X0060836Y0156667D01*
X0061130Y0156677D01*
X0061425Y0156681D01*
X0061720Y0156677D01*
X0062014Y0156667D01*
X0062308Y0156648D01*
X0062602Y0156623D01*
X0062895Y0156591D01*
X0063187Y0156551D01*
X0063478Y0156504D01*
X0063768Y0156450D01*
X0064056Y0156389D01*
X0064343Y0156321D01*
X0064628Y0156246D01*
X0064911Y0156164D01*
X0065192Y0156075D01*
X0065470Y0155979D01*
X0065747Y0155876D01*
X0066020Y0155767D01*
X0066291Y0155651D01*
X0066559Y0155528D01*
X0066824Y0155399D01*
X0067086Y0155263D01*
X0067344Y0155121D01*
X0067598Y0154973D01*
X0067849Y0154818D01*
X0068096Y0154657D01*
X0068339Y0154491D01*
X0068578Y0154318D01*
X0068813Y0154139D01*
X0069043Y0153955D01*
X0069268Y0153766D01*
X0069489Y0153570D01*
X0069705Y0153370D01*
X0069916Y0153164D01*
X0070122Y0152953D01*
X0070322Y0152737D01*
X0070518Y0152516D01*
X0070707Y0152291D01*
X0070891Y0152061D01*
X0071070Y0151826D01*
X0071243Y0151587D01*
X0071409Y0151344D01*
X0071570Y0151097D01*
X0071725Y0150846D01*
X0071873Y0150592D01*
X0072015Y0150334D01*
X0072151Y0150072D01*
X0072280Y0149807D01*
X0072403Y0149539D01*
X0072519Y0149268D01*
X0072628Y0148995D01*
X0072731Y0148718D01*
X0072827Y0148440D01*
X0072916Y0148159D01*
X0072998Y0147876D01*
X0073073Y0147591D01*
X0073141Y0147304D01*
X0073202Y0147016D01*
X0073256Y0146726D01*
X0073303Y0146435D01*
X0073343Y0146143D01*
X0073375Y0145850D01*
X0073400Y0145556D01*
X0073419Y0145262D01*
X0073429Y0144968D01*
X0073433Y0144673D01*
X0073429Y0144378D01*
X0073419Y0144084D01*
X0073400Y0143790D01*
X0073375Y0143496D01*
X0073343Y0143203D01*
X0073303Y0142911D01*
X0073256Y0142620D01*
X0073202Y0142330D01*
X0073141Y0142042D01*
X0073073Y0141755D01*
X0072998Y0141470D01*
X0072916Y0141187D01*
X0072827Y0140906D01*
X0072731Y0140628D01*
X0072628Y0140351D01*
X0072519Y0140078D01*
X0072403Y0139807D01*
X0072280Y0139539D01*
X0072151Y0139274D01*
X0072015Y0139012D01*
X0071873Y0138754D01*
X0071725Y0138500D01*
X0071570Y0138249D01*
X0071409Y0138002D01*
X0071243Y0137759D01*
X0071070Y0137520D01*
X0070891Y0137285D01*
X0070707Y0137055D01*
X0070518Y0136830D01*
X0070322Y0136609D01*
X0070122Y0136393D01*
X0069916Y0136182D01*
X0069705Y0135976D01*
X0069489Y0135776D01*
X0069268Y0135580D01*
X0069043Y0135391D01*
X0068813Y0135207D01*
X0068578Y0135028D01*
X0068339Y0134855D01*
X0068096Y0134689D01*
X0067849Y0134528D01*
X0067598Y0134373D01*
X0067344Y0134225D01*
X0067086Y0134083D01*
X0066824Y0133947D01*
X0066559Y0133818D01*
X0066291Y0133695D01*
X0066020Y0133579D01*
X0065747Y0133470D01*
X0065470Y0133367D01*
X0065192Y0133271D01*
X0064911Y0133182D01*
X0064628Y0133100D01*
X0064343Y0133025D01*
X0064056Y0132957D01*
X0063768Y0132896D01*
X0063478Y0132842D01*
X0063187Y0132795D01*
X0062895Y0132755D01*
X0062602Y0132723D01*
X0062308Y0132698D01*
X0062014Y0132679D01*
X0061720Y0132669D01*
X0061425Y0132665D01*
X0061130Y0132669D01*
X0060836Y0132679D01*
X0060542Y0132698D01*
X0060248Y0132723D01*
X0059955Y0132755D01*
X0059663Y0132795D01*
X0059372Y0132842D01*
X0059082Y0132896D01*
X0058794Y0132957D01*
X0058507Y0133025D01*
X0058222Y0133100D01*
X0057939Y0133182D01*
X0057658Y0133271D01*
X0057380Y0133367D01*
X0057103Y0133470D01*
X0056830Y0133579D01*
X0056559Y0133695D01*
X0056291Y0133818D01*
X0056026Y0133947D01*
X0055764Y0134083D01*
X0055506Y0134225D01*
X0055252Y0134373D01*
X0055001Y0134528D01*
X0054754Y0134689D01*
X0054511Y0134855D01*
X0054272Y0135028D01*
X0054037Y0135207D01*
X0053807Y0135391D01*
X0053582Y0135580D01*
X0053361Y0135776D01*
X0053145Y0135976D01*
X0052934Y0136182D01*
X0052728Y0136393D01*
X0052528Y0136609D01*
X0052332Y0136830D01*
X0052143Y0137055D01*
X0051959Y0137285D01*
X0051780Y0137520D01*
X0051607Y0137759D01*
X0051441Y0138002D01*
X0051280Y0138249D01*
X0051125Y0138500D01*
X0050977Y0138754D01*
X0050835Y0139012D01*
X0050699Y0139274D01*
X0050570Y0139539D01*
X0050447Y0139807D01*
X0050331Y0140078D01*
X0050222Y0140351D01*
X0050119Y0140628D01*
X0050023Y0140906D01*
X0049934Y0141187D01*
X0049852Y0141470D01*
X0049777Y0141755D01*
X0049709Y0142042D01*
X0049648Y0142330D01*
X0049594Y0142620D01*
X0049547Y0142911D01*
X0049507Y0143203D01*
X0049475Y0143496D01*
X0049450Y0143790D01*
X0049431Y0144084D01*
X0049421Y0144378D01*
X0049417Y0144673D01*
X0049527Y0075911D02*
X0049531Y0076206D01*
X0049541Y0076500D01*
X0049560Y0076794D01*
X0049585Y0077088D01*
X0049617Y0077381D01*
X0049657Y0077673D01*
X0049704Y0077964D01*
X0049758Y0078254D01*
X0049819Y0078542D01*
X0049887Y0078829D01*
X0049962Y0079114D01*
X0050044Y0079397D01*
X0050133Y0079678D01*
X0050229Y0079956D01*
X0050332Y0080233D01*
X0050441Y0080506D01*
X0050557Y0080777D01*
X0050680Y0081045D01*
X0050809Y0081310D01*
X0050945Y0081572D01*
X0051087Y0081830D01*
X0051235Y0082084D01*
X0051390Y0082335D01*
X0051551Y0082582D01*
X0051717Y0082825D01*
X0051890Y0083064D01*
X0052069Y0083299D01*
X0052253Y0083529D01*
X0052442Y0083754D01*
X0052638Y0083975D01*
X0052838Y0084191D01*
X0053044Y0084402D01*
X0053255Y0084608D01*
X0053471Y0084808D01*
X0053692Y0085004D01*
X0053917Y0085193D01*
X0054147Y0085377D01*
X0054382Y0085556D01*
X0054621Y0085729D01*
X0054864Y0085895D01*
X0055111Y0086056D01*
X0055362Y0086211D01*
X0055616Y0086359D01*
X0055874Y0086501D01*
X0056136Y0086637D01*
X0056401Y0086766D01*
X0056669Y0086889D01*
X0056940Y0087005D01*
X0057213Y0087114D01*
X0057490Y0087217D01*
X0057768Y0087313D01*
X0058049Y0087402D01*
X0058332Y0087484D01*
X0058617Y0087559D01*
X0058904Y0087627D01*
X0059192Y0087688D01*
X0059482Y0087742D01*
X0059773Y0087789D01*
X0060065Y0087829D01*
X0060358Y0087861D01*
X0060652Y0087886D01*
X0060946Y0087905D01*
X0061240Y0087915D01*
X0061535Y0087919D01*
X0061830Y0087915D01*
X0062124Y0087905D01*
X0062418Y0087886D01*
X0062712Y0087861D01*
X0063005Y0087829D01*
X0063297Y0087789D01*
X0063588Y0087742D01*
X0063878Y0087688D01*
X0064166Y0087627D01*
X0064453Y0087559D01*
X0064738Y0087484D01*
X0065021Y0087402D01*
X0065302Y0087313D01*
X0065580Y0087217D01*
X0065857Y0087114D01*
X0066130Y0087005D01*
X0066401Y0086889D01*
X0066669Y0086766D01*
X0066934Y0086637D01*
X0067196Y0086501D01*
X0067454Y0086359D01*
X0067708Y0086211D01*
X0067959Y0086056D01*
X0068206Y0085895D01*
X0068449Y0085729D01*
X0068688Y0085556D01*
X0068923Y0085377D01*
X0069153Y0085193D01*
X0069378Y0085004D01*
X0069599Y0084808D01*
X0069815Y0084608D01*
X0070026Y0084402D01*
X0070232Y0084191D01*
X0070432Y0083975D01*
X0070628Y0083754D01*
X0070817Y0083529D01*
X0071001Y0083299D01*
X0071180Y0083064D01*
X0071353Y0082825D01*
X0071519Y0082582D01*
X0071680Y0082335D01*
X0071835Y0082084D01*
X0071983Y0081830D01*
X0072125Y0081572D01*
X0072261Y0081310D01*
X0072390Y0081045D01*
X0072513Y0080777D01*
X0072629Y0080506D01*
X0072738Y0080233D01*
X0072841Y0079956D01*
X0072937Y0079678D01*
X0073026Y0079397D01*
X0073108Y0079114D01*
X0073183Y0078829D01*
X0073251Y0078542D01*
X0073312Y0078254D01*
X0073366Y0077964D01*
X0073413Y0077673D01*
X0073453Y0077381D01*
X0073485Y0077088D01*
X0073510Y0076794D01*
X0073529Y0076500D01*
X0073539Y0076206D01*
X0073543Y0075911D01*
X0073539Y0075616D01*
X0073529Y0075322D01*
X0073510Y0075028D01*
X0073485Y0074734D01*
X0073453Y0074441D01*
X0073413Y0074149D01*
X0073366Y0073858D01*
X0073312Y0073568D01*
X0073251Y0073280D01*
X0073183Y0072993D01*
X0073108Y0072708D01*
X0073026Y0072425D01*
X0072937Y0072144D01*
X0072841Y0071866D01*
X0072738Y0071589D01*
X0072629Y0071316D01*
X0072513Y0071045D01*
X0072390Y0070777D01*
X0072261Y0070512D01*
X0072125Y0070250D01*
X0071983Y0069992D01*
X0071835Y0069738D01*
X0071680Y0069487D01*
X0071519Y0069240D01*
X0071353Y0068997D01*
X0071180Y0068758D01*
X0071001Y0068523D01*
X0070817Y0068293D01*
X0070628Y0068068D01*
X0070432Y0067847D01*
X0070232Y0067631D01*
X0070026Y0067420D01*
X0069815Y0067214D01*
X0069599Y0067014D01*
X0069378Y0066818D01*
X0069153Y0066629D01*
X0068923Y0066445D01*
X0068688Y0066266D01*
X0068449Y0066093D01*
X0068206Y0065927D01*
X0067959Y0065766D01*
X0067708Y0065611D01*
X0067454Y0065463D01*
X0067196Y0065321D01*
X0066934Y0065185D01*
X0066669Y0065056D01*
X0066401Y0064933D01*
X0066130Y0064817D01*
X0065857Y0064708D01*
X0065580Y0064605D01*
X0065302Y0064509D01*
X0065021Y0064420D01*
X0064738Y0064338D01*
X0064453Y0064263D01*
X0064166Y0064195D01*
X0063878Y0064134D01*
X0063588Y0064080D01*
X0063297Y0064033D01*
X0063005Y0063993D01*
X0062712Y0063961D01*
X0062418Y0063936D01*
X0062124Y0063917D01*
X0061830Y0063907D01*
X0061535Y0063903D01*
X0061240Y0063907D01*
X0060946Y0063917D01*
X0060652Y0063936D01*
X0060358Y0063961D01*
X0060065Y0063993D01*
X0059773Y0064033D01*
X0059482Y0064080D01*
X0059192Y0064134D01*
X0058904Y0064195D01*
X0058617Y0064263D01*
X0058332Y0064338D01*
X0058049Y0064420D01*
X0057768Y0064509D01*
X0057490Y0064605D01*
X0057213Y0064708D01*
X0056940Y0064817D01*
X0056669Y0064933D01*
X0056401Y0065056D01*
X0056136Y0065185D01*
X0055874Y0065321D01*
X0055616Y0065463D01*
X0055362Y0065611D01*
X0055111Y0065766D01*
X0054864Y0065927D01*
X0054621Y0066093D01*
X0054382Y0066266D01*
X0054147Y0066445D01*
X0053917Y0066629D01*
X0053692Y0066818D01*
X0053471Y0067014D01*
X0053255Y0067214D01*
X0053044Y0067420D01*
X0052838Y0067631D01*
X0052638Y0067847D01*
X0052442Y0068068D01*
X0052253Y0068293D01*
X0052069Y0068523D01*
X0051890Y0068758D01*
X0051717Y0068997D01*
X0051551Y0069240D01*
X0051390Y0069487D01*
X0051235Y0069738D01*
X0051087Y0069992D01*
X0050945Y0070250D01*
X0050809Y0070512D01*
X0050680Y0070777D01*
X0050557Y0071045D01*
X0050441Y0071316D01*
X0050332Y0071589D01*
X0050229Y0071866D01*
X0050133Y0072144D01*
X0050044Y0072425D01*
X0049962Y0072708D01*
X0049887Y0072993D01*
X0049819Y0073280D01*
X0049758Y0073568D01*
X0049704Y0073858D01*
X0049657Y0074149D01*
X0049617Y0074441D01*
X0049585Y0074734D01*
X0049560Y0075028D01*
X0049541Y0075322D01*
X0049531Y0075616D01*
X0049527Y0075911D01*
M02*
