G75*
%MOIN*%
%OFA0B0*%
%FSLAX25Y25*%
%IPPOS*%
%LPD*%
%AMOC8*
5,1,8,0,0,1.08239X$1,22.5*
%
%ADD10C,0.00600*%
D10*
X0002895Y0002233D02*
X0002895Y0506345D01*
X0081102Y0506345D01*
X0081102Y0002233D01*
X0002895Y0002233D01*
X0002895Y0002533D02*
X0081102Y0002533D01*
X0081102Y0003132D02*
X0002895Y0003132D01*
X0002895Y0003730D02*
X0081102Y0003730D01*
X0081102Y0004329D02*
X0002895Y0004329D01*
X0002895Y0004928D02*
X0081102Y0004928D01*
X0081102Y0005526D02*
X0002895Y0005526D01*
X0002895Y0006125D02*
X0081102Y0006125D01*
X0081102Y0006723D02*
X0002895Y0006723D01*
X0002895Y0007322D02*
X0081102Y0007322D01*
X0081102Y0007920D02*
X0002895Y0007920D01*
X0002895Y0008519D02*
X0081102Y0008519D01*
X0081102Y0009117D02*
X0002895Y0009117D01*
X0002895Y0009716D02*
X0081102Y0009716D01*
X0081102Y0010314D02*
X0002895Y0010314D01*
X0002895Y0010913D02*
X0081102Y0010913D01*
X0081102Y0011511D02*
X0002895Y0011511D01*
X0002895Y0012110D02*
X0081102Y0012110D01*
X0081102Y0012708D02*
X0002895Y0012708D01*
X0002895Y0013307D02*
X0081102Y0013307D01*
X0081102Y0013905D02*
X0002895Y0013905D01*
X0002895Y0014504D02*
X0081102Y0014504D01*
X0081102Y0015102D02*
X0002895Y0015102D01*
X0002895Y0015701D02*
X0081102Y0015701D01*
X0081102Y0016299D02*
X0002895Y0016299D01*
X0002895Y0016898D02*
X0081102Y0016898D01*
X0081102Y0017496D02*
X0002895Y0017496D01*
X0002895Y0018095D02*
X0081102Y0018095D01*
X0081102Y0018693D02*
X0002895Y0018693D01*
X0002895Y0019292D02*
X0081102Y0019292D01*
X0081102Y0019890D02*
X0002895Y0019890D01*
X0002895Y0020489D02*
X0081102Y0020489D01*
X0081102Y0021087D02*
X0002895Y0021087D01*
X0002895Y0021686D02*
X0081102Y0021686D01*
X0081102Y0022284D02*
X0002895Y0022284D01*
X0002895Y0022883D02*
X0081102Y0022883D01*
X0081102Y0023481D02*
X0002895Y0023481D01*
X0002895Y0024080D02*
X0081102Y0024080D01*
X0081102Y0024678D02*
X0002895Y0024678D01*
X0002895Y0025277D02*
X0081102Y0025277D01*
X0081102Y0025875D02*
X0002895Y0025875D01*
X0002895Y0026474D02*
X0081102Y0026474D01*
X0081102Y0027072D02*
X0002895Y0027072D01*
X0002895Y0027671D02*
X0081102Y0027671D01*
X0081102Y0028269D02*
X0002895Y0028269D01*
X0002895Y0028868D02*
X0081102Y0028868D01*
X0081102Y0029466D02*
X0002895Y0029466D01*
X0002895Y0030065D02*
X0081102Y0030065D01*
X0081102Y0030664D02*
X0002895Y0030664D01*
X0002895Y0031262D02*
X0081102Y0031262D01*
X0081102Y0031861D02*
X0002895Y0031861D01*
X0002895Y0032459D02*
X0081102Y0032459D01*
X0081102Y0033058D02*
X0002895Y0033058D01*
X0002895Y0033656D02*
X0081102Y0033656D01*
X0081102Y0034255D02*
X0002895Y0034255D01*
X0002895Y0034853D02*
X0081102Y0034853D01*
X0081102Y0035452D02*
X0002895Y0035452D01*
X0002895Y0036050D02*
X0081102Y0036050D01*
X0081102Y0036649D02*
X0002895Y0036649D01*
X0002895Y0037247D02*
X0081102Y0037247D01*
X0081102Y0037846D02*
X0002895Y0037846D01*
X0002895Y0038444D02*
X0081102Y0038444D01*
X0081102Y0039043D02*
X0002895Y0039043D01*
X0002895Y0039641D02*
X0081102Y0039641D01*
X0081102Y0040240D02*
X0002895Y0040240D01*
X0002895Y0040838D02*
X0081102Y0040838D01*
X0081102Y0041437D02*
X0002895Y0041437D01*
X0002895Y0042035D02*
X0081102Y0042035D01*
X0081102Y0042634D02*
X0002895Y0042634D01*
X0002895Y0043232D02*
X0081102Y0043232D01*
X0081102Y0043831D02*
X0002895Y0043831D01*
X0002895Y0044429D02*
X0081102Y0044429D01*
X0081102Y0045028D02*
X0002895Y0045028D01*
X0002895Y0045626D02*
X0081102Y0045626D01*
X0081102Y0046225D02*
X0002895Y0046225D01*
X0002895Y0046823D02*
X0081102Y0046823D01*
X0081102Y0047422D02*
X0002895Y0047422D01*
X0002895Y0048020D02*
X0081102Y0048020D01*
X0081102Y0048619D02*
X0002895Y0048619D01*
X0002895Y0049217D02*
X0081102Y0049217D01*
X0081102Y0049816D02*
X0002895Y0049816D01*
X0002895Y0050414D02*
X0081102Y0050414D01*
X0081102Y0051013D02*
X0002895Y0051013D01*
X0002895Y0051611D02*
X0081102Y0051611D01*
X0081102Y0052210D02*
X0002895Y0052210D01*
X0002895Y0052808D02*
X0081102Y0052808D01*
X0081102Y0053407D02*
X0002895Y0053407D01*
X0002895Y0054005D02*
X0081102Y0054005D01*
X0081102Y0054604D02*
X0002895Y0054604D01*
X0002895Y0055202D02*
X0081102Y0055202D01*
X0081102Y0055801D02*
X0002895Y0055801D01*
X0002895Y0056399D02*
X0081102Y0056399D01*
X0081102Y0056998D02*
X0002895Y0056998D01*
X0002895Y0057597D02*
X0081102Y0057597D01*
X0081102Y0058195D02*
X0002895Y0058195D01*
X0002895Y0058794D02*
X0081102Y0058794D01*
X0081102Y0059392D02*
X0002895Y0059392D01*
X0002895Y0059991D02*
X0081102Y0059991D01*
X0081102Y0060589D02*
X0002895Y0060589D01*
X0002895Y0061188D02*
X0081102Y0061188D01*
X0081102Y0061786D02*
X0002895Y0061786D01*
X0002895Y0062385D02*
X0081102Y0062385D01*
X0081102Y0062983D02*
X0002895Y0062983D01*
X0002895Y0063582D02*
X0019625Y0063582D01*
X0018080Y0063995D02*
X0021312Y0063129D01*
X0024658Y0063129D01*
X0027890Y0063995D01*
X0030788Y0065668D01*
X0033154Y0068034D01*
X0034827Y0070932D01*
X0035693Y0074164D01*
X0035693Y0077510D01*
X0034827Y0080742D01*
X0033154Y0083640D01*
X0030788Y0086006D01*
X0027890Y0087679D01*
X0024658Y0088545D01*
X0021312Y0088545D01*
X0018080Y0087679D01*
X0015183Y0086006D01*
X0012816Y0083640D01*
X0011143Y0080742D01*
X0010277Y0077510D01*
X0010277Y0074164D01*
X0011143Y0070932D01*
X0012816Y0068034D01*
X0015183Y0065668D01*
X0018080Y0063995D01*
X0017760Y0064180D02*
X0002895Y0064180D01*
X0002895Y0064779D02*
X0016724Y0064779D01*
X0015687Y0065377D02*
X0002895Y0065377D01*
X0002895Y0065976D02*
X0014875Y0065976D01*
X0014277Y0066574D02*
X0002895Y0066574D01*
X0002895Y0067173D02*
X0013678Y0067173D01*
X0013080Y0067771D02*
X0002895Y0067771D01*
X0002895Y0068370D02*
X0012623Y0068370D01*
X0012277Y0068968D02*
X0002895Y0068968D01*
X0002895Y0069567D02*
X0011932Y0069567D01*
X0011586Y0070165D02*
X0002895Y0070165D01*
X0002895Y0070764D02*
X0011241Y0070764D01*
X0011028Y0071362D02*
X0002895Y0071362D01*
X0002895Y0071961D02*
X0010868Y0071961D01*
X0010707Y0072559D02*
X0002895Y0072559D01*
X0002895Y0073158D02*
X0010547Y0073158D01*
X0010387Y0073756D02*
X0002895Y0073756D01*
X0002895Y0074355D02*
X0010277Y0074355D01*
X0010277Y0074953D02*
X0002895Y0074953D01*
X0002895Y0075552D02*
X0010277Y0075552D01*
X0010277Y0076150D02*
X0002895Y0076150D01*
X0002895Y0076749D02*
X0010277Y0076749D01*
X0010277Y0077347D02*
X0002895Y0077347D01*
X0002895Y0077946D02*
X0010394Y0077946D01*
X0010555Y0078544D02*
X0002895Y0078544D01*
X0002895Y0079143D02*
X0010715Y0079143D01*
X0010875Y0079741D02*
X0002895Y0079741D01*
X0002895Y0080340D02*
X0011036Y0080340D01*
X0011257Y0080938D02*
X0002895Y0080938D01*
X0002895Y0081537D02*
X0011602Y0081537D01*
X0011948Y0082135D02*
X0002895Y0082135D01*
X0002895Y0082734D02*
X0012293Y0082734D01*
X0012639Y0083333D02*
X0002895Y0083333D01*
X0002895Y0083931D02*
X0013107Y0083931D01*
X0013706Y0084530D02*
X0002895Y0084530D01*
X0002895Y0085128D02*
X0014304Y0085128D01*
X0014903Y0085727D02*
X0002895Y0085727D01*
X0002895Y0086325D02*
X0015735Y0086325D01*
X0016772Y0086924D02*
X0002895Y0086924D01*
X0002895Y0087522D02*
X0017808Y0087522D01*
X0019728Y0088121D02*
X0002895Y0088121D01*
X0002895Y0088719D02*
X0081102Y0088719D01*
X0081102Y0088121D02*
X0065068Y0088121D01*
X0066440Y0087753D02*
X0063208Y0088619D01*
X0059862Y0088619D01*
X0056630Y0087753D01*
X0053732Y0086080D01*
X0051366Y0083714D01*
X0049693Y0080816D01*
X0048827Y0077584D01*
X0048827Y0074238D01*
X0049693Y0071006D01*
X0051366Y0068108D01*
X0053732Y0065742D01*
X0056630Y0064069D01*
X0059862Y0063203D01*
X0063208Y0063203D01*
X0066440Y0064069D01*
X0069338Y0065742D01*
X0071704Y0068108D01*
X0073377Y0071006D01*
X0074243Y0074238D01*
X0074243Y0077584D01*
X0073377Y0080816D01*
X0071704Y0083714D01*
X0069338Y0086080D01*
X0066440Y0087753D01*
X0066840Y0087522D02*
X0081102Y0087522D01*
X0081102Y0086924D02*
X0067877Y0086924D01*
X0068913Y0086325D02*
X0081102Y0086325D01*
X0081102Y0085727D02*
X0069691Y0085727D01*
X0070290Y0085128D02*
X0081102Y0085128D01*
X0081102Y0084530D02*
X0070888Y0084530D01*
X0071487Y0083931D02*
X0081102Y0083931D01*
X0081102Y0083333D02*
X0071924Y0083333D01*
X0072270Y0082734D02*
X0081102Y0082734D01*
X0081102Y0082135D02*
X0072615Y0082135D01*
X0072961Y0081537D02*
X0081102Y0081537D01*
X0081102Y0080938D02*
X0073306Y0080938D01*
X0073505Y0080340D02*
X0081102Y0080340D01*
X0081102Y0079741D02*
X0073665Y0079741D01*
X0073825Y0079143D02*
X0081102Y0079143D01*
X0081102Y0078544D02*
X0073986Y0078544D01*
X0074146Y0077946D02*
X0081102Y0077946D01*
X0081102Y0077347D02*
X0074243Y0077347D01*
X0074243Y0076749D02*
X0081102Y0076749D01*
X0081102Y0076150D02*
X0074243Y0076150D01*
X0074243Y0075552D02*
X0081102Y0075552D01*
X0081102Y0074953D02*
X0074243Y0074953D01*
X0074243Y0074355D02*
X0081102Y0074355D01*
X0081102Y0073756D02*
X0074114Y0073756D01*
X0073954Y0073158D02*
X0081102Y0073158D01*
X0081102Y0072559D02*
X0073793Y0072559D01*
X0073633Y0071961D02*
X0081102Y0071961D01*
X0081102Y0071362D02*
X0073472Y0071362D01*
X0073237Y0070764D02*
X0081102Y0070764D01*
X0081102Y0070165D02*
X0072892Y0070165D01*
X0072546Y0069567D02*
X0081102Y0069567D01*
X0081102Y0068968D02*
X0072200Y0068968D01*
X0071855Y0068370D02*
X0081102Y0068370D01*
X0081102Y0067771D02*
X0071367Y0067771D01*
X0070768Y0067173D02*
X0081102Y0067173D01*
X0081102Y0066574D02*
X0070170Y0066574D01*
X0069571Y0065976D02*
X0081102Y0065976D01*
X0081102Y0065377D02*
X0068706Y0065377D01*
X0067669Y0064779D02*
X0081102Y0064779D01*
X0081102Y0064180D02*
X0066632Y0064180D01*
X0064621Y0063582D02*
X0081102Y0063582D01*
X0081102Y0089318D02*
X0002895Y0089318D01*
X0002895Y0089916D02*
X0081102Y0089916D01*
X0081102Y0090515D02*
X0002895Y0090515D01*
X0002895Y0091113D02*
X0081102Y0091113D01*
X0081102Y0091712D02*
X0002895Y0091712D01*
X0002895Y0092310D02*
X0081102Y0092310D01*
X0081102Y0092909D02*
X0002895Y0092909D01*
X0002895Y0093507D02*
X0081102Y0093507D01*
X0081102Y0094106D02*
X0002895Y0094106D01*
X0002895Y0094704D02*
X0081102Y0094704D01*
X0081102Y0095303D02*
X0002895Y0095303D01*
X0002895Y0095901D02*
X0081102Y0095901D01*
X0081102Y0096500D02*
X0002895Y0096500D01*
X0002895Y0097098D02*
X0081102Y0097098D01*
X0081102Y0097697D02*
X0002895Y0097697D01*
X0002895Y0098295D02*
X0081102Y0098295D01*
X0081102Y0098894D02*
X0002895Y0098894D01*
X0002895Y0099492D02*
X0081102Y0099492D01*
X0081102Y0100091D02*
X0062936Y0100091D01*
X0062992Y0100147D02*
X0062992Y0100147D01*
X0062860Y0100014D01*
X0062730Y0099884D01*
X0062729Y0099884D01*
X0062728Y0099883D01*
X0062541Y0099883D01*
X0062357Y0099883D01*
X0062356Y0099884D01*
X0020548Y0099902D01*
X0020360Y0099902D01*
X0020359Y0099902D01*
X0020359Y0099902D01*
X0020226Y0100034D01*
X0020096Y0100165D01*
X0020096Y0100165D01*
X0020095Y0100166D01*
X0020095Y0100349D01*
X0020059Y0118559D01*
X0020058Y0118560D01*
X0020058Y0118747D01*
X0020058Y0118931D01*
X0020058Y0118932D01*
X0020058Y0118932D01*
X0020191Y0119065D01*
X0020321Y0119195D01*
X0020322Y0119195D01*
X0020322Y0119196D01*
X0020509Y0119196D01*
X0020694Y0119196D01*
X0020694Y0119196D01*
X0062503Y0119177D01*
X0062691Y0119178D01*
X0062691Y0119177D01*
X0062692Y0119177D01*
X0062824Y0119045D01*
X0062955Y0118915D01*
X0062955Y0118914D01*
X0062955Y0118914D01*
X0062955Y0118730D01*
X0062992Y0100520D01*
X0062992Y0100520D01*
X0062992Y0100332D01*
X0062993Y0100148D01*
X0062992Y0100147D01*
X0062991Y0100689D02*
X0081102Y0100689D01*
X0081102Y0101288D02*
X0062990Y0101288D01*
X0062989Y0101886D02*
X0081102Y0101886D01*
X0081102Y0102485D02*
X0062988Y0102485D01*
X0062987Y0103083D02*
X0081102Y0103083D01*
X0081102Y0103682D02*
X0062985Y0103682D01*
X0062984Y0104280D02*
X0081102Y0104280D01*
X0081102Y0104879D02*
X0062983Y0104879D01*
X0062982Y0105477D02*
X0081102Y0105477D01*
X0081102Y0106076D02*
X0062981Y0106076D01*
X0062979Y0106674D02*
X0081102Y0106674D01*
X0081102Y0107273D02*
X0062978Y0107273D01*
X0062977Y0107871D02*
X0081102Y0107871D01*
X0081102Y0108470D02*
X0062976Y0108470D01*
X0062975Y0109068D02*
X0081102Y0109068D01*
X0081102Y0109667D02*
X0062973Y0109667D01*
X0062972Y0110266D02*
X0081102Y0110266D01*
X0081102Y0110864D02*
X0062971Y0110864D01*
X0062970Y0111463D02*
X0081102Y0111463D01*
X0081102Y0112061D02*
X0062969Y0112061D01*
X0062967Y0112660D02*
X0081102Y0112660D01*
X0081102Y0113258D02*
X0062966Y0113258D01*
X0062965Y0113857D02*
X0081102Y0113857D01*
X0081102Y0114455D02*
X0062964Y0114455D01*
X0062963Y0115054D02*
X0081102Y0115054D01*
X0081102Y0115652D02*
X0062961Y0115652D01*
X0062960Y0116251D02*
X0081102Y0116251D01*
X0081102Y0116849D02*
X0062959Y0116849D01*
X0062958Y0117448D02*
X0081102Y0117448D01*
X0081102Y0118046D02*
X0062957Y0118046D01*
X0062955Y0118645D02*
X0081102Y0118645D01*
X0081102Y0119243D02*
X0002895Y0119243D01*
X0002895Y0118645D02*
X0020058Y0118645D01*
X0020060Y0118046D02*
X0002895Y0118046D01*
X0002895Y0117448D02*
X0020061Y0117448D01*
X0020062Y0116849D02*
X0002895Y0116849D01*
X0002895Y0116251D02*
X0020063Y0116251D01*
X0020065Y0115652D02*
X0002895Y0115652D01*
X0002895Y0115054D02*
X0020066Y0115054D01*
X0020067Y0114455D02*
X0002895Y0114455D01*
X0002895Y0113857D02*
X0020068Y0113857D01*
X0020069Y0113258D02*
X0002895Y0113258D01*
X0002895Y0112660D02*
X0020071Y0112660D01*
X0020072Y0112061D02*
X0002895Y0112061D01*
X0002895Y0111463D02*
X0020073Y0111463D01*
X0020074Y0110864D02*
X0002895Y0110864D01*
X0002895Y0110266D02*
X0020075Y0110266D01*
X0020077Y0109667D02*
X0002895Y0109667D01*
X0002895Y0109068D02*
X0020078Y0109068D01*
X0020079Y0108470D02*
X0002895Y0108470D01*
X0002895Y0107871D02*
X0020080Y0107871D01*
X0020081Y0107273D02*
X0002895Y0107273D01*
X0002895Y0106674D02*
X0020083Y0106674D01*
X0020084Y0106076D02*
X0002895Y0106076D01*
X0002895Y0105477D02*
X0020085Y0105477D01*
X0020086Y0104879D02*
X0002895Y0104879D01*
X0002895Y0104280D02*
X0020087Y0104280D01*
X0020089Y0103682D02*
X0002895Y0103682D01*
X0002895Y0103083D02*
X0020090Y0103083D01*
X0020091Y0102485D02*
X0002895Y0102485D01*
X0002895Y0101886D02*
X0020092Y0101886D01*
X0020093Y0101288D02*
X0002895Y0101288D01*
X0002895Y0100689D02*
X0020095Y0100689D01*
X0020170Y0100091D02*
X0002895Y0100091D01*
X0002895Y0119842D02*
X0081102Y0119842D01*
X0081102Y0120440D02*
X0002895Y0120440D01*
X0002895Y0121039D02*
X0081102Y0121039D01*
X0081102Y0121637D02*
X0002895Y0121637D01*
X0002895Y0122236D02*
X0081102Y0122236D01*
X0081102Y0122834D02*
X0002895Y0122834D01*
X0002895Y0123433D02*
X0081102Y0123433D01*
X0081102Y0124031D02*
X0002895Y0124031D01*
X0002895Y0124630D02*
X0081102Y0124630D01*
X0081102Y0125228D02*
X0002895Y0125228D01*
X0002895Y0125827D02*
X0081102Y0125827D01*
X0081102Y0126425D02*
X0002895Y0126425D01*
X0002895Y0127024D02*
X0081102Y0127024D01*
X0081102Y0127622D02*
X0002895Y0127622D01*
X0002895Y0128221D02*
X0081102Y0128221D01*
X0081102Y0128819D02*
X0002895Y0128819D01*
X0002895Y0129418D02*
X0081102Y0129418D01*
X0081102Y0130016D02*
X0002895Y0130016D01*
X0002895Y0130615D02*
X0081102Y0130615D01*
X0081102Y0131213D02*
X0002895Y0131213D01*
X0002895Y0131812D02*
X0081102Y0131812D01*
X0081102Y0132410D02*
X0064761Y0132410D01*
X0066330Y0132831D02*
X0069228Y0134504D01*
X0071594Y0136870D01*
X0073267Y0139768D01*
X0074133Y0143000D01*
X0074133Y0146346D01*
X0073267Y0149578D01*
X0071594Y0152475D01*
X0069228Y0154841D01*
X0066330Y0156514D01*
X0063098Y0157381D01*
X0059752Y0157381D01*
X0056520Y0156514D01*
X0053622Y0154841D01*
X0051256Y0152475D01*
X0049583Y0149578D01*
X0048717Y0146346D01*
X0048717Y0143000D01*
X0049583Y0139768D01*
X0051256Y0136870D01*
X0053622Y0134504D01*
X0056520Y0132831D01*
X0059752Y0131965D01*
X0063098Y0131965D01*
X0066330Y0132831D01*
X0066638Y0133009D02*
X0081102Y0133009D01*
X0081102Y0133607D02*
X0067675Y0133607D01*
X0068712Y0134206D02*
X0081102Y0134206D01*
X0081102Y0134804D02*
X0069528Y0134804D01*
X0070127Y0135403D02*
X0081102Y0135403D01*
X0081102Y0136002D02*
X0070725Y0136002D01*
X0071324Y0136600D02*
X0081102Y0136600D01*
X0081102Y0137199D02*
X0071783Y0137199D01*
X0072129Y0137797D02*
X0081102Y0137797D01*
X0081102Y0138396D02*
X0072474Y0138396D01*
X0072820Y0138994D02*
X0081102Y0138994D01*
X0081102Y0139593D02*
X0073166Y0139593D01*
X0073380Y0140191D02*
X0081102Y0140191D01*
X0081102Y0140790D02*
X0073540Y0140790D01*
X0073701Y0141388D02*
X0081102Y0141388D01*
X0081102Y0141987D02*
X0073861Y0141987D01*
X0074022Y0142585D02*
X0081102Y0142585D01*
X0081102Y0143184D02*
X0074133Y0143184D01*
X0074133Y0143782D02*
X0081102Y0143782D01*
X0081102Y0144381D02*
X0074133Y0144381D01*
X0074133Y0144979D02*
X0081102Y0144979D01*
X0081102Y0145578D02*
X0074133Y0145578D01*
X0074133Y0146176D02*
X0081102Y0146176D01*
X0081102Y0146775D02*
X0074018Y0146775D01*
X0073857Y0147373D02*
X0081102Y0147373D01*
X0081102Y0147972D02*
X0073697Y0147972D01*
X0073537Y0148570D02*
X0081102Y0148570D01*
X0081102Y0149169D02*
X0073376Y0149169D01*
X0073157Y0149767D02*
X0081102Y0149767D01*
X0081102Y0150366D02*
X0072812Y0150366D01*
X0072466Y0150964D02*
X0081102Y0150964D01*
X0081102Y0151563D02*
X0072120Y0151563D01*
X0071775Y0152161D02*
X0081102Y0152161D01*
X0081102Y0152760D02*
X0071309Y0152760D01*
X0070711Y0153358D02*
X0081102Y0153358D01*
X0081102Y0153957D02*
X0070112Y0153957D01*
X0069514Y0154555D02*
X0081102Y0154555D01*
X0081102Y0155154D02*
X0068686Y0155154D01*
X0067650Y0155752D02*
X0081102Y0155752D01*
X0081102Y0156351D02*
X0066613Y0156351D01*
X0064707Y0156949D02*
X0081102Y0156949D01*
X0081102Y0157548D02*
X0002895Y0157548D01*
X0002895Y0158146D02*
X0081102Y0158146D01*
X0081102Y0158745D02*
X0002895Y0158745D01*
X0002895Y0159343D02*
X0081102Y0159343D01*
X0081102Y0159942D02*
X0002895Y0159942D01*
X0002895Y0160540D02*
X0081102Y0160540D01*
X0081102Y0161139D02*
X0002895Y0161139D01*
X0002895Y0161737D02*
X0081102Y0161737D01*
X0081102Y0162336D02*
X0002895Y0162336D01*
X0002895Y0162935D02*
X0081102Y0162935D01*
X0081102Y0163533D02*
X0002895Y0163533D01*
X0002895Y0164132D02*
X0081102Y0164132D01*
X0081102Y0164730D02*
X0002895Y0164730D01*
X0002895Y0165329D02*
X0081102Y0165329D01*
X0081102Y0165927D02*
X0002895Y0165927D01*
X0002895Y0166526D02*
X0019958Y0166526D01*
X0019958Y0166504D02*
X0020222Y0166241D01*
X0063208Y0166241D01*
X0063472Y0166504D01*
X0063472Y0166877D01*
X0063472Y0185499D01*
X0063208Y0185763D01*
X0020222Y0185763D01*
X0019958Y0185499D01*
X0019958Y0166504D01*
X0019958Y0167124D02*
X0002895Y0167124D01*
X0002895Y0167723D02*
X0019958Y0167723D01*
X0019958Y0168321D02*
X0002895Y0168321D01*
X0002895Y0168920D02*
X0019958Y0168920D01*
X0019958Y0169518D02*
X0002895Y0169518D01*
X0002895Y0170117D02*
X0019958Y0170117D01*
X0019958Y0170715D02*
X0002895Y0170715D01*
X0002895Y0171314D02*
X0019958Y0171314D01*
X0019958Y0171912D02*
X0002895Y0171912D01*
X0002895Y0172511D02*
X0019958Y0172511D01*
X0019958Y0173109D02*
X0002895Y0173109D01*
X0002895Y0173708D02*
X0019958Y0173708D01*
X0019958Y0174306D02*
X0002895Y0174306D01*
X0002895Y0174905D02*
X0019958Y0174905D01*
X0019958Y0175503D02*
X0002895Y0175503D01*
X0002895Y0176102D02*
X0019958Y0176102D01*
X0019958Y0176700D02*
X0002895Y0176700D01*
X0002895Y0177299D02*
X0019958Y0177299D01*
X0019958Y0177897D02*
X0002895Y0177897D01*
X0002895Y0178496D02*
X0019958Y0178496D01*
X0019958Y0179094D02*
X0002895Y0179094D01*
X0002895Y0179693D02*
X0019958Y0179693D01*
X0019958Y0180291D02*
X0002895Y0180291D01*
X0002895Y0180890D02*
X0019958Y0180890D01*
X0019958Y0181488D02*
X0002895Y0181488D01*
X0002895Y0182087D02*
X0019958Y0182087D01*
X0019958Y0182685D02*
X0002895Y0182685D01*
X0002895Y0183284D02*
X0019958Y0183284D01*
X0019958Y0183882D02*
X0002895Y0183882D01*
X0002895Y0184481D02*
X0019958Y0184481D01*
X0019958Y0185079D02*
X0002895Y0185079D01*
X0002895Y0185678D02*
X0020136Y0185678D01*
X0021453Y0193274D02*
X0018221Y0194140D01*
X0015323Y0195813D01*
X0012957Y0198179D01*
X0011284Y0201077D01*
X0010418Y0204309D01*
X0010418Y0207655D01*
X0011284Y0210887D01*
X0012957Y0213785D01*
X0015323Y0216151D01*
X0018221Y0217824D01*
X0021453Y0218690D01*
X0024799Y0218690D01*
X0028031Y0217824D01*
X0030929Y0216151D01*
X0033295Y0213785D01*
X0034968Y0210887D01*
X0035834Y0207655D01*
X0035834Y0204309D01*
X0034968Y0201077D01*
X0033295Y0198179D01*
X0030929Y0195813D01*
X0028031Y0194140D01*
X0024799Y0193274D01*
X0021453Y0193274D01*
X0020764Y0193459D02*
X0002895Y0193459D01*
X0002895Y0194057D02*
X0018531Y0194057D01*
X0017328Y0194656D02*
X0002895Y0194656D01*
X0002895Y0195254D02*
X0016291Y0195254D01*
X0015284Y0195853D02*
X0002895Y0195853D01*
X0002895Y0196451D02*
X0014685Y0196451D01*
X0014087Y0197050D02*
X0002895Y0197050D01*
X0002895Y0197648D02*
X0013488Y0197648D01*
X0012918Y0198247D02*
X0002895Y0198247D01*
X0002895Y0198845D02*
X0012573Y0198845D01*
X0012227Y0199444D02*
X0002895Y0199444D01*
X0002895Y0200042D02*
X0011881Y0200042D01*
X0011536Y0200641D02*
X0002895Y0200641D01*
X0002895Y0201239D02*
X0011241Y0201239D01*
X0011080Y0201838D02*
X0002895Y0201838D01*
X0002895Y0202436D02*
X0010920Y0202436D01*
X0010759Y0203035D02*
X0002895Y0203035D01*
X0002895Y0203633D02*
X0010599Y0203633D01*
X0010439Y0204232D02*
X0002895Y0204232D01*
X0002895Y0204830D02*
X0010418Y0204830D01*
X0010418Y0205429D02*
X0002895Y0205429D01*
X0002895Y0206027D02*
X0010418Y0206027D01*
X0010418Y0206626D02*
X0002895Y0206626D01*
X0002895Y0207224D02*
X0010418Y0207224D01*
X0010463Y0207823D02*
X0002895Y0207823D01*
X0002895Y0208421D02*
X0010623Y0208421D01*
X0010784Y0209020D02*
X0002895Y0209020D01*
X0002895Y0209618D02*
X0010944Y0209618D01*
X0011105Y0210217D02*
X0002895Y0210217D01*
X0002895Y0210815D02*
X0011265Y0210815D01*
X0011588Y0211414D02*
X0002895Y0211414D01*
X0002895Y0212012D02*
X0011934Y0212012D01*
X0012279Y0212611D02*
X0002895Y0212611D01*
X0002895Y0213209D02*
X0012625Y0213209D01*
X0012980Y0213808D02*
X0002895Y0213808D01*
X0002895Y0214406D02*
X0013579Y0214406D01*
X0014177Y0215005D02*
X0002895Y0215005D01*
X0002895Y0215604D02*
X0014776Y0215604D01*
X0015412Y0216202D02*
X0002895Y0216202D01*
X0002895Y0216801D02*
X0016448Y0216801D01*
X0017485Y0217399D02*
X0002895Y0217399D01*
X0002895Y0217998D02*
X0018869Y0217998D01*
X0021103Y0218596D02*
X0002895Y0218596D01*
X0002895Y0219195D02*
X0081102Y0219195D01*
X0081102Y0219793D02*
X0002895Y0219793D01*
X0002895Y0220392D02*
X0081102Y0220392D01*
X0081102Y0220990D02*
X0002895Y0220990D01*
X0002895Y0221589D02*
X0081102Y0221589D01*
X0081102Y0222187D02*
X0002895Y0222187D01*
X0002895Y0222786D02*
X0081102Y0222786D01*
X0081102Y0223384D02*
X0002895Y0223384D01*
X0002895Y0223983D02*
X0081102Y0223983D01*
X0081102Y0224581D02*
X0002895Y0224581D01*
X0002895Y0225180D02*
X0081102Y0225180D01*
X0081102Y0225778D02*
X0002895Y0225778D01*
X0002895Y0226377D02*
X0081102Y0226377D01*
X0081102Y0226975D02*
X0002895Y0226975D01*
X0002895Y0227574D02*
X0081102Y0227574D01*
X0081102Y0228172D02*
X0002895Y0228172D01*
X0002895Y0228771D02*
X0081102Y0228771D01*
X0081102Y0229369D02*
X0002895Y0229369D01*
X0002895Y0229968D02*
X0081102Y0229968D01*
X0081102Y0230566D02*
X0002895Y0230566D01*
X0002895Y0231165D02*
X0020106Y0231165D01*
X0020106Y0231234D02*
X0020106Y0231066D01*
X0020107Y0231066D01*
X0020239Y0230934D01*
X0020371Y0230803D01*
X0020537Y0230803D01*
X0062577Y0230877D01*
X0062764Y0230877D01*
X0062765Y0230877D01*
X0062766Y0230877D01*
X0062898Y0231010D01*
X0063028Y0231140D01*
X0063028Y0231141D01*
X0063029Y0231141D01*
X0063029Y0231327D01*
X0063065Y0248908D01*
X0063152Y0248893D01*
X0063229Y0248947D01*
X0063321Y0248967D01*
X0063375Y0249050D01*
X0063457Y0249108D01*
X0063472Y0249200D01*
X0063524Y0249279D01*
X0063503Y0249377D01*
X0063520Y0249475D01*
X0063466Y0249552D01*
X0063421Y0249763D01*
X0063421Y0249902D01*
X0063383Y0249939D01*
X0063372Y0249991D01*
X0063256Y0250067D01*
X0063157Y0250165D01*
X0063104Y0250165D01*
X0063060Y0250194D01*
X0062923Y0250165D01*
X0020705Y0250165D01*
X0020705Y0250166D01*
X0020518Y0250165D01*
X0020333Y0250165D01*
X0020332Y0250165D01*
X0020200Y0250033D01*
X0020069Y0249902D01*
X0020069Y0249901D01*
X0020069Y0249716D01*
X0020069Y0249529D01*
X0020070Y0249529D01*
X0020106Y0231234D01*
X0020107Y0231066D02*
X0020107Y0231066D01*
X0020371Y0230803D02*
X0020371Y0230803D01*
X0020371Y0230803D01*
X0020105Y0231763D02*
X0002895Y0231763D01*
X0002895Y0232362D02*
X0020104Y0232362D01*
X0020103Y0232960D02*
X0002895Y0232960D01*
X0002895Y0233559D02*
X0020102Y0233559D01*
X0020100Y0234157D02*
X0002895Y0234157D01*
X0002895Y0234756D02*
X0020099Y0234756D01*
X0020098Y0235354D02*
X0002895Y0235354D01*
X0002895Y0235953D02*
X0020097Y0235953D01*
X0020096Y0236551D02*
X0002895Y0236551D01*
X0002895Y0237150D02*
X0020094Y0237150D01*
X0020093Y0237748D02*
X0002895Y0237748D01*
X0002895Y0238347D02*
X0020092Y0238347D01*
X0020091Y0238945D02*
X0002895Y0238945D01*
X0002895Y0239544D02*
X0020090Y0239544D01*
X0020088Y0240142D02*
X0002895Y0240142D01*
X0002895Y0240741D02*
X0020087Y0240741D01*
X0020086Y0241339D02*
X0002895Y0241339D01*
X0002895Y0241938D02*
X0020085Y0241938D01*
X0020084Y0242537D02*
X0002895Y0242537D01*
X0002895Y0243135D02*
X0020082Y0243135D01*
X0020081Y0243734D02*
X0002895Y0243734D01*
X0002895Y0244332D02*
X0020080Y0244332D01*
X0020079Y0244931D02*
X0002895Y0244931D01*
X0002895Y0245529D02*
X0020078Y0245529D01*
X0020076Y0246128D02*
X0002895Y0246128D01*
X0002895Y0246726D02*
X0020075Y0246726D01*
X0020074Y0247325D02*
X0002895Y0247325D01*
X0002895Y0247923D02*
X0020073Y0247923D01*
X0020072Y0248522D02*
X0002895Y0248522D01*
X0002895Y0249120D02*
X0020070Y0249120D01*
X0020069Y0249719D02*
X0002895Y0249719D01*
X0002895Y0250317D02*
X0081102Y0250317D01*
X0081102Y0249719D02*
X0063430Y0249719D01*
X0063459Y0249120D02*
X0081102Y0249120D01*
X0081102Y0248522D02*
X0063064Y0248522D01*
X0063063Y0247923D02*
X0081102Y0247923D01*
X0081102Y0247325D02*
X0063061Y0247325D01*
X0063060Y0246726D02*
X0081102Y0246726D01*
X0081102Y0246128D02*
X0063059Y0246128D01*
X0063058Y0245529D02*
X0081102Y0245529D01*
X0081102Y0244931D02*
X0063057Y0244931D01*
X0063055Y0244332D02*
X0081102Y0244332D01*
X0081102Y0243734D02*
X0063054Y0243734D01*
X0063053Y0243135D02*
X0081102Y0243135D01*
X0081102Y0242537D02*
X0063052Y0242537D01*
X0063050Y0241938D02*
X0081102Y0241938D01*
X0081102Y0241339D02*
X0063049Y0241339D01*
X0063048Y0240741D02*
X0081102Y0240741D01*
X0081102Y0240142D02*
X0063047Y0240142D01*
X0063046Y0239544D02*
X0081102Y0239544D01*
X0081102Y0238945D02*
X0063044Y0238945D01*
X0063043Y0238347D02*
X0081102Y0238347D01*
X0081102Y0237748D02*
X0063042Y0237748D01*
X0063041Y0237150D02*
X0081102Y0237150D01*
X0081102Y0236551D02*
X0063039Y0236551D01*
X0063038Y0235953D02*
X0081102Y0235953D01*
X0081102Y0235354D02*
X0063037Y0235354D01*
X0063036Y0234756D02*
X0081102Y0234756D01*
X0081102Y0234157D02*
X0063035Y0234157D01*
X0063033Y0233559D02*
X0081102Y0233559D01*
X0081102Y0232960D02*
X0063032Y0232960D01*
X0063031Y0232362D02*
X0081102Y0232362D01*
X0081102Y0231763D02*
X0063030Y0231763D01*
X0063029Y0231165D02*
X0081102Y0231165D01*
X0081102Y0218596D02*
X0064600Y0218596D01*
X0063208Y0218969D02*
X0059862Y0218969D01*
X0056630Y0218103D01*
X0053732Y0216430D01*
X0051366Y0214064D01*
X0049693Y0211166D01*
X0048827Y0207934D01*
X0048827Y0204588D01*
X0049693Y0201356D01*
X0051366Y0198458D01*
X0053732Y0196092D01*
X0056630Y0194419D01*
X0059862Y0193553D01*
X0063208Y0193553D01*
X0066440Y0194419D01*
X0069338Y0196092D01*
X0071704Y0198458D01*
X0073377Y0201356D01*
X0074243Y0204588D01*
X0074243Y0207934D01*
X0073377Y0211166D01*
X0071704Y0214064D01*
X0069338Y0216430D01*
X0066440Y0218103D01*
X0063208Y0218969D01*
X0066623Y0217998D02*
X0081102Y0217998D01*
X0081102Y0217399D02*
X0067660Y0217399D01*
X0068696Y0216801D02*
X0081102Y0216801D01*
X0081102Y0216202D02*
X0069566Y0216202D01*
X0070164Y0215604D02*
X0081102Y0215604D01*
X0081102Y0215005D02*
X0070763Y0215005D01*
X0071361Y0214406D02*
X0081102Y0214406D01*
X0081102Y0213808D02*
X0071852Y0213808D01*
X0072197Y0213209D02*
X0081102Y0213209D01*
X0081102Y0212611D02*
X0072543Y0212611D01*
X0072888Y0212012D02*
X0081102Y0212012D01*
X0081102Y0211414D02*
X0073234Y0211414D01*
X0073471Y0210815D02*
X0081102Y0210815D01*
X0081102Y0210217D02*
X0073631Y0210217D01*
X0073792Y0209618D02*
X0081102Y0209618D01*
X0081102Y0209020D02*
X0073952Y0209020D01*
X0074112Y0208421D02*
X0081102Y0208421D01*
X0081102Y0207823D02*
X0074243Y0207823D01*
X0074243Y0207224D02*
X0081102Y0207224D01*
X0081102Y0206626D02*
X0074243Y0206626D01*
X0074243Y0206027D02*
X0081102Y0206027D01*
X0081102Y0205429D02*
X0074243Y0205429D01*
X0074243Y0204830D02*
X0081102Y0204830D01*
X0081102Y0204232D02*
X0074147Y0204232D01*
X0073987Y0203633D02*
X0081102Y0203633D01*
X0081102Y0203035D02*
X0073827Y0203035D01*
X0073666Y0202436D02*
X0081102Y0202436D01*
X0081102Y0201838D02*
X0073506Y0201838D01*
X0073309Y0201239D02*
X0081102Y0201239D01*
X0081102Y0200641D02*
X0072964Y0200641D01*
X0072618Y0200042D02*
X0081102Y0200042D01*
X0081102Y0199444D02*
X0072273Y0199444D01*
X0071927Y0198845D02*
X0081102Y0198845D01*
X0081102Y0198247D02*
X0071492Y0198247D01*
X0070894Y0197648D02*
X0081102Y0197648D01*
X0081102Y0197050D02*
X0070295Y0197050D01*
X0069696Y0196451D02*
X0081102Y0196451D01*
X0081102Y0195853D02*
X0068922Y0195853D01*
X0067886Y0195254D02*
X0081102Y0195254D01*
X0081102Y0194656D02*
X0066849Y0194656D01*
X0065088Y0194057D02*
X0081102Y0194057D01*
X0081102Y0193459D02*
X0025488Y0193459D01*
X0027721Y0194057D02*
X0057982Y0194057D01*
X0056221Y0194656D02*
X0028924Y0194656D01*
X0029961Y0195254D02*
X0055184Y0195254D01*
X0054148Y0195853D02*
X0030968Y0195853D01*
X0031567Y0196451D02*
X0053374Y0196451D01*
X0052775Y0197050D02*
X0032165Y0197050D01*
X0032764Y0197648D02*
X0052177Y0197648D01*
X0051578Y0198247D02*
X0033334Y0198247D01*
X0033679Y0198845D02*
X0051143Y0198845D01*
X0050797Y0199444D02*
X0034025Y0199444D01*
X0034370Y0200042D02*
X0050452Y0200042D01*
X0050106Y0200641D02*
X0034716Y0200641D01*
X0035011Y0201239D02*
X0049761Y0201239D01*
X0049564Y0201838D02*
X0035172Y0201838D01*
X0035332Y0202436D02*
X0049404Y0202436D01*
X0049243Y0203035D02*
X0035492Y0203035D01*
X0035653Y0203633D02*
X0049083Y0203633D01*
X0048923Y0204232D02*
X0035813Y0204232D01*
X0035834Y0204830D02*
X0048827Y0204830D01*
X0048827Y0205429D02*
X0035834Y0205429D01*
X0035834Y0206027D02*
X0048827Y0206027D01*
X0048827Y0206626D02*
X0035834Y0206626D01*
X0035834Y0207224D02*
X0048827Y0207224D01*
X0048827Y0207823D02*
X0035789Y0207823D01*
X0035628Y0208421D02*
X0048958Y0208421D01*
X0049118Y0209020D02*
X0035468Y0209020D01*
X0035308Y0209618D02*
X0049278Y0209618D01*
X0049439Y0210217D02*
X0035147Y0210217D01*
X0034987Y0210815D02*
X0049599Y0210815D01*
X0049836Y0211414D02*
X0034664Y0211414D01*
X0034318Y0212012D02*
X0050182Y0212012D01*
X0050527Y0212611D02*
X0033972Y0212611D01*
X0033627Y0213209D02*
X0050873Y0213209D01*
X0051218Y0213808D02*
X0033272Y0213808D01*
X0032673Y0214406D02*
X0051709Y0214406D01*
X0052307Y0215005D02*
X0032074Y0215005D01*
X0031476Y0215604D02*
X0052906Y0215604D01*
X0053504Y0216202D02*
X0030840Y0216202D01*
X0029803Y0216801D02*
X0054374Y0216801D01*
X0055410Y0217399D02*
X0028767Y0217399D01*
X0027383Y0217998D02*
X0056447Y0217998D01*
X0058470Y0218596D02*
X0025149Y0218596D01*
X0020069Y0249901D02*
X0020069Y0249901D01*
X0020332Y0250165D02*
X0020332Y0250165D01*
X0021496Y0259114D02*
X0024842Y0259114D01*
X0028074Y0259980D01*
X0030972Y0261653D01*
X0033338Y0264019D01*
X0035011Y0266917D01*
X0035877Y0270149D01*
X0035877Y0273495D01*
X0035011Y0276727D01*
X0033338Y0279625D01*
X0030972Y0281991D01*
X0028074Y0283664D01*
X0024842Y0284530D01*
X0021496Y0284530D01*
X0018264Y0283664D01*
X0015366Y0281991D01*
X0013000Y0279625D01*
X0011327Y0276727D01*
X0010461Y0273495D01*
X0010461Y0270149D01*
X0011327Y0266917D01*
X0013000Y0264019D01*
X0015366Y0261653D01*
X0018264Y0259980D01*
X0021496Y0259114D01*
X0020821Y0259295D02*
X0002895Y0259295D01*
X0002895Y0259893D02*
X0018587Y0259893D01*
X0017377Y0260492D02*
X0002895Y0260492D01*
X0002895Y0261090D02*
X0016341Y0261090D01*
X0015330Y0261689D02*
X0002895Y0261689D01*
X0002895Y0262287D02*
X0014732Y0262287D01*
X0014133Y0262886D02*
X0002895Y0262886D01*
X0002895Y0263484D02*
X0013535Y0263484D01*
X0012963Y0264083D02*
X0002895Y0264083D01*
X0002895Y0264681D02*
X0012618Y0264681D01*
X0012272Y0265280D02*
X0002895Y0265280D01*
X0002895Y0265878D02*
X0011927Y0265878D01*
X0011581Y0266477D02*
X0002895Y0266477D01*
X0002895Y0267075D02*
X0011285Y0267075D01*
X0011125Y0267674D02*
X0002895Y0267674D01*
X0002895Y0268273D02*
X0010964Y0268273D01*
X0010804Y0268871D02*
X0002895Y0268871D01*
X0002895Y0269470D02*
X0010643Y0269470D01*
X0010483Y0270068D02*
X0002895Y0270068D01*
X0002895Y0270667D02*
X0010461Y0270667D01*
X0010461Y0271265D02*
X0002895Y0271265D01*
X0002895Y0271864D02*
X0010461Y0271864D01*
X0010461Y0272462D02*
X0002895Y0272462D01*
X0002895Y0273061D02*
X0010461Y0273061D01*
X0010505Y0273659D02*
X0002895Y0273659D01*
X0002895Y0274258D02*
X0010666Y0274258D01*
X0010826Y0274856D02*
X0002895Y0274856D01*
X0002895Y0275455D02*
X0010987Y0275455D01*
X0011147Y0276053D02*
X0002895Y0276053D01*
X0002895Y0276652D02*
X0011307Y0276652D01*
X0011630Y0277250D02*
X0002895Y0277250D01*
X0002895Y0277849D02*
X0011975Y0277849D01*
X0012321Y0278447D02*
X0002895Y0278447D01*
X0002895Y0279046D02*
X0012666Y0279046D01*
X0013020Y0279644D02*
X0002895Y0279644D01*
X0002895Y0280243D02*
X0013619Y0280243D01*
X0014217Y0280841D02*
X0002895Y0280841D01*
X0002895Y0281440D02*
X0014816Y0281440D01*
X0015449Y0282038D02*
X0002895Y0282038D01*
X0002895Y0282637D02*
X0016486Y0282637D01*
X0017522Y0283235D02*
X0002895Y0283235D01*
X0002895Y0283834D02*
X0018900Y0283834D01*
X0020156Y0294747D02*
X0020345Y0294747D01*
X0062318Y0294673D01*
X0062319Y0294673D01*
X0062508Y0294673D01*
X0062691Y0294673D01*
X0062691Y0294673D01*
X0062691Y0294673D01*
X0062824Y0294806D01*
X0062955Y0294936D01*
X0062955Y0294936D01*
X0062955Y0294937D01*
X0062955Y0295126D01*
X0062955Y0295309D01*
X0062955Y0313630D01*
X0062955Y0313813D01*
X0062955Y0313814D01*
X0062822Y0313947D01*
X0062692Y0314077D01*
X0062692Y0314077D01*
X0062691Y0314078D01*
X0062503Y0314078D01*
X0020529Y0314151D01*
X0020340Y0314151D01*
X0020157Y0314152D01*
X0020157Y0314151D01*
X0020156Y0314151D01*
X0020023Y0314018D01*
X0019893Y0313889D01*
X0019893Y0313888D01*
X0019893Y0313888D01*
X0019893Y0313699D01*
X0019892Y0313516D01*
X0019893Y0313515D01*
X0019893Y0295194D01*
X0019892Y0295011D01*
X0019893Y0295011D01*
X0019893Y0295011D01*
X0020026Y0294877D01*
X0020156Y0294747D01*
X0020156Y0294747D01*
X0020156Y0294747D01*
X0019893Y0295206D02*
X0002895Y0295206D01*
X0002895Y0295804D02*
X0019893Y0295804D01*
X0019893Y0296403D02*
X0002895Y0296403D01*
X0002895Y0297001D02*
X0019893Y0297001D01*
X0019893Y0297600D02*
X0002895Y0297600D01*
X0002895Y0298198D02*
X0019893Y0298198D01*
X0019893Y0298797D02*
X0002895Y0298797D01*
X0002895Y0299395D02*
X0019893Y0299395D01*
X0019893Y0299994D02*
X0002895Y0299994D01*
X0002895Y0300592D02*
X0019893Y0300592D01*
X0019893Y0301191D02*
X0002895Y0301191D01*
X0002895Y0301789D02*
X0019893Y0301789D01*
X0019893Y0302388D02*
X0002895Y0302388D01*
X0002895Y0302986D02*
X0019893Y0302986D01*
X0019893Y0303585D02*
X0002895Y0303585D01*
X0002895Y0304183D02*
X0019893Y0304183D01*
X0019893Y0304782D02*
X0002895Y0304782D01*
X0002895Y0305380D02*
X0019893Y0305380D01*
X0019893Y0305979D02*
X0002895Y0305979D01*
X0002895Y0306577D02*
X0019893Y0306577D01*
X0019893Y0307176D02*
X0002895Y0307176D01*
X0002895Y0307774D02*
X0019893Y0307774D01*
X0019893Y0308373D02*
X0002895Y0308373D01*
X0002895Y0308971D02*
X0019893Y0308971D01*
X0019893Y0309570D02*
X0002895Y0309570D01*
X0002895Y0310168D02*
X0019893Y0310168D01*
X0019893Y0310767D02*
X0002895Y0310767D01*
X0002895Y0311365D02*
X0019893Y0311365D01*
X0019893Y0311964D02*
X0002895Y0311964D01*
X0002895Y0312562D02*
X0019893Y0312562D01*
X0019893Y0313161D02*
X0002895Y0313161D01*
X0002895Y0313759D02*
X0019893Y0313759D01*
X0020529Y0314151D02*
X0020529Y0314151D01*
X0021513Y0325202D02*
X0024859Y0325202D01*
X0028091Y0326068D01*
X0030988Y0327741D01*
X0033354Y0330107D01*
X0035027Y0333005D01*
X0035894Y0336237D01*
X0035894Y0339583D01*
X0035027Y0342815D01*
X0033354Y0345712D01*
X0030988Y0348078D01*
X0028091Y0349751D01*
X0024859Y0350617D01*
X0021513Y0350617D01*
X0018281Y0349751D01*
X0015383Y0348078D01*
X0013017Y0345712D01*
X0011344Y0342815D01*
X0010478Y0339583D01*
X0010478Y0336237D01*
X0011344Y0333005D01*
X0013017Y0330107D01*
X0015383Y0327741D01*
X0018281Y0326068D01*
X0021513Y0325202D01*
X0019543Y0325730D02*
X0002895Y0325730D01*
X0002895Y0326328D02*
X0017830Y0326328D01*
X0016793Y0326927D02*
X0002895Y0326927D01*
X0002895Y0327525D02*
X0015756Y0327525D01*
X0015000Y0328124D02*
X0002895Y0328124D01*
X0002895Y0328722D02*
X0014401Y0328722D01*
X0013803Y0329321D02*
X0002895Y0329321D01*
X0002895Y0329919D02*
X0013204Y0329919D01*
X0012780Y0330518D02*
X0002895Y0330518D01*
X0002895Y0331116D02*
X0012434Y0331116D01*
X0012088Y0331715D02*
X0002895Y0331715D01*
X0002895Y0332313D02*
X0011743Y0332313D01*
X0011397Y0332912D02*
X0002895Y0332912D01*
X0002895Y0333510D02*
X0011208Y0333510D01*
X0011048Y0334109D02*
X0002895Y0334109D01*
X0002895Y0334707D02*
X0010888Y0334707D01*
X0010727Y0335306D02*
X0002895Y0335306D01*
X0002895Y0335904D02*
X0010567Y0335904D01*
X0010478Y0336503D02*
X0002895Y0336503D01*
X0002895Y0337101D02*
X0010478Y0337101D01*
X0010478Y0337700D02*
X0002895Y0337700D01*
X0002895Y0338298D02*
X0010478Y0338298D01*
X0010478Y0338897D02*
X0002895Y0338897D01*
X0002895Y0339495D02*
X0010478Y0339495D01*
X0010615Y0340094D02*
X0002895Y0340094D01*
X0002895Y0340692D02*
X0010775Y0340692D01*
X0010936Y0341291D02*
X0002895Y0341291D01*
X0002895Y0341889D02*
X0011096Y0341889D01*
X0011256Y0342488D02*
X0002895Y0342488D01*
X0002895Y0343086D02*
X0011501Y0343086D01*
X0011846Y0343685D02*
X0002895Y0343685D01*
X0002895Y0344283D02*
X0012192Y0344283D01*
X0012537Y0344882D02*
X0002895Y0344882D01*
X0002895Y0345480D02*
X0012883Y0345480D01*
X0013383Y0346079D02*
X0002895Y0346079D01*
X0002895Y0346677D02*
X0013982Y0346677D01*
X0014580Y0347276D02*
X0002895Y0347276D01*
X0002895Y0347875D02*
X0015179Y0347875D01*
X0016066Y0348473D02*
X0002895Y0348473D01*
X0002895Y0349072D02*
X0017103Y0349072D01*
X0018140Y0349670D02*
X0002895Y0349670D01*
X0002895Y0350269D02*
X0020210Y0350269D01*
X0020268Y0361602D02*
X0020454Y0361602D01*
X0062282Y0361602D01*
X0062283Y0361602D01*
X0062469Y0361602D01*
X0062654Y0361602D01*
X0062655Y0361603D01*
X0062655Y0361603D01*
X0062787Y0361735D01*
X0062918Y0361866D01*
X0062918Y0361866D01*
X0062918Y0361867D01*
X0062918Y0362052D01*
X0062918Y0362239D01*
X0081102Y0362239D01*
X0081102Y0362837D02*
X0062916Y0362837D01*
X0062918Y0362239D02*
X0062881Y0380632D01*
X0062881Y0380817D01*
X0062881Y0380817D01*
X0062881Y0380818D01*
X0062749Y0380949D01*
X0062618Y0381081D01*
X0062617Y0381081D01*
X0062430Y0381081D01*
X0020602Y0381081D01*
X0020416Y0381081D01*
X0020230Y0381081D01*
X0020230Y0381080D01*
X0020229Y0381080D01*
X0020098Y0380948D01*
X0019967Y0380817D01*
X0019967Y0380816D01*
X0019966Y0380816D01*
X0019967Y0380630D01*
X0019967Y0380444D01*
X0020004Y0362051D01*
X0020004Y0361866D01*
X0020004Y0361865D01*
X0020136Y0361733D01*
X0020267Y0361602D01*
X0020268Y0361602D01*
X0020268Y0361602D01*
X0020229Y0361640D02*
X0002895Y0361640D01*
X0002895Y0361042D02*
X0081102Y0361042D01*
X0081102Y0361640D02*
X0062693Y0361640D01*
X0062918Y0362239D02*
X0062918Y0362239D01*
X0062915Y0363436D02*
X0081102Y0363436D01*
X0081102Y0364034D02*
X0062914Y0364034D01*
X0062913Y0364633D02*
X0081102Y0364633D01*
X0081102Y0365231D02*
X0062912Y0365231D01*
X0062911Y0365830D02*
X0081102Y0365830D01*
X0081102Y0366428D02*
X0062909Y0366428D01*
X0062908Y0367027D02*
X0081102Y0367027D01*
X0081102Y0367625D02*
X0062907Y0367625D01*
X0062906Y0368224D02*
X0081102Y0368224D01*
X0081102Y0368822D02*
X0062905Y0368822D01*
X0062903Y0369421D02*
X0081102Y0369421D01*
X0081102Y0370019D02*
X0062902Y0370019D01*
X0062901Y0370618D02*
X0081102Y0370618D01*
X0081102Y0371216D02*
X0062900Y0371216D01*
X0062899Y0371815D02*
X0081102Y0371815D01*
X0081102Y0372413D02*
X0062897Y0372413D01*
X0062896Y0373012D02*
X0081102Y0373012D01*
X0081102Y0373610D02*
X0062895Y0373610D01*
X0062894Y0374209D02*
X0081102Y0374209D01*
X0081102Y0374808D02*
X0062893Y0374808D01*
X0062891Y0375406D02*
X0081102Y0375406D01*
X0081102Y0376005D02*
X0062890Y0376005D01*
X0062889Y0376603D02*
X0081102Y0376603D01*
X0081102Y0377202D02*
X0062888Y0377202D01*
X0062887Y0377800D02*
X0081102Y0377800D01*
X0081102Y0378399D02*
X0062886Y0378399D01*
X0062884Y0378997D02*
X0081102Y0378997D01*
X0081102Y0379596D02*
X0062883Y0379596D01*
X0062882Y0380194D02*
X0081102Y0380194D01*
X0081102Y0380793D02*
X0062881Y0380793D01*
X0062617Y0381081D02*
X0062617Y0381081D01*
X0063135Y0390053D02*
X0066367Y0390919D01*
X0069264Y0392592D01*
X0071630Y0394958D01*
X0073303Y0397856D01*
X0074169Y0401088D01*
X0074169Y0404434D01*
X0073303Y0407666D01*
X0071630Y0410564D01*
X0069264Y0412930D01*
X0066367Y0414603D01*
X0063135Y0415469D01*
X0059789Y0415469D01*
X0056557Y0414603D01*
X0053659Y0412930D01*
X0051293Y0410564D01*
X0049620Y0407666D01*
X0048754Y0404434D01*
X0048754Y0401088D01*
X0049620Y0397856D01*
X0051293Y0394958D01*
X0053659Y0392592D01*
X0056557Y0390919D01*
X0059789Y0390053D01*
X0063135Y0390053D01*
X0064312Y0390369D02*
X0081102Y0390369D01*
X0081102Y0390967D02*
X0066450Y0390967D01*
X0067486Y0391566D02*
X0081102Y0391566D01*
X0081102Y0392164D02*
X0068523Y0392164D01*
X0069435Y0392763D02*
X0081102Y0392763D01*
X0081102Y0393361D02*
X0070033Y0393361D01*
X0070632Y0393960D02*
X0081102Y0393960D01*
X0081102Y0394558D02*
X0071230Y0394558D01*
X0071745Y0395157D02*
X0081102Y0395157D01*
X0081102Y0395755D02*
X0072091Y0395755D01*
X0072436Y0396354D02*
X0081102Y0396354D01*
X0081102Y0396952D02*
X0072782Y0396952D01*
X0073127Y0397551D02*
X0081102Y0397551D01*
X0081102Y0398149D02*
X0073382Y0398149D01*
X0073542Y0398748D02*
X0081102Y0398748D01*
X0081102Y0399346D02*
X0073703Y0399346D01*
X0073863Y0399945D02*
X0081102Y0399945D01*
X0081102Y0400544D02*
X0074024Y0400544D01*
X0074169Y0401142D02*
X0081102Y0401142D01*
X0081102Y0401741D02*
X0074169Y0401741D01*
X0074169Y0402339D02*
X0081102Y0402339D01*
X0081102Y0402938D02*
X0074169Y0402938D01*
X0074169Y0403536D02*
X0081102Y0403536D01*
X0081102Y0404135D02*
X0074169Y0404135D01*
X0074089Y0404733D02*
X0081102Y0404733D01*
X0081102Y0405332D02*
X0073929Y0405332D01*
X0073769Y0405930D02*
X0081102Y0405930D01*
X0081102Y0406529D02*
X0073608Y0406529D01*
X0073448Y0407127D02*
X0081102Y0407127D01*
X0081102Y0407726D02*
X0073269Y0407726D01*
X0072924Y0408324D02*
X0081102Y0408324D01*
X0081102Y0408923D02*
X0072578Y0408923D01*
X0072233Y0409521D02*
X0081102Y0409521D01*
X0081102Y0410120D02*
X0071887Y0410120D01*
X0071476Y0410718D02*
X0081102Y0410718D01*
X0081102Y0411317D02*
X0070878Y0411317D01*
X0070279Y0411915D02*
X0081102Y0411915D01*
X0081102Y0412514D02*
X0069681Y0412514D01*
X0068949Y0413112D02*
X0081102Y0413112D01*
X0081102Y0413711D02*
X0067912Y0413711D01*
X0066876Y0414309D02*
X0081102Y0414309D01*
X0081102Y0414908D02*
X0065230Y0414908D01*
X0062690Y0426599D02*
X0062691Y0426600D01*
X0062692Y0426600D01*
X0062823Y0426731D01*
X0062955Y0426862D01*
X0062955Y0426863D01*
X0062955Y0426864D01*
X0062955Y0427049D01*
X0062992Y0445405D01*
X0062992Y0445592D01*
X0062992Y0445777D01*
X0062992Y0445778D01*
X0062860Y0445909D01*
X0062729Y0446041D01*
X0062728Y0446041D01*
X0062543Y0446041D01*
X0062356Y0446042D01*
X0062356Y0446041D01*
X0020416Y0446004D01*
X0020231Y0446005D01*
X0020231Y0446004D01*
X0020230Y0446004D01*
X0020099Y0445873D01*
X0019967Y0445742D01*
X0019967Y0445741D01*
X0019966Y0445740D01*
X0019967Y0445555D01*
X0019930Y0427199D01*
X0019930Y0427199D01*
X0019930Y0427013D01*
X0019929Y0426827D01*
X0019930Y0426827D01*
X0019930Y0426826D01*
X0020061Y0426695D01*
X0020192Y0426563D01*
X0020193Y0426563D01*
X0020194Y0426563D01*
X0020378Y0426563D01*
X0020565Y0426563D01*
X0020566Y0426563D01*
X0062506Y0426600D01*
X0062690Y0426599D01*
X0062955Y0426878D02*
X0081102Y0426878D01*
X0081102Y0427477D02*
X0062956Y0427477D01*
X0062957Y0428075D02*
X0081102Y0428075D01*
X0081102Y0428674D02*
X0062958Y0428674D01*
X0062959Y0429272D02*
X0081102Y0429272D01*
X0081102Y0429871D02*
X0062961Y0429871D01*
X0062962Y0430469D02*
X0081102Y0430469D01*
X0081102Y0431068D02*
X0062963Y0431068D01*
X0062964Y0431666D02*
X0081102Y0431666D01*
X0081102Y0432265D02*
X0062965Y0432265D01*
X0062967Y0432863D02*
X0081102Y0432863D01*
X0081102Y0433462D02*
X0062968Y0433462D01*
X0062969Y0434060D02*
X0081102Y0434060D01*
X0081102Y0434659D02*
X0062970Y0434659D01*
X0062971Y0435257D02*
X0081102Y0435257D01*
X0081102Y0435856D02*
X0062972Y0435856D01*
X0062974Y0436454D02*
X0081102Y0436454D01*
X0081102Y0437053D02*
X0062975Y0437053D01*
X0062976Y0437651D02*
X0081102Y0437651D01*
X0081102Y0438250D02*
X0062977Y0438250D01*
X0062978Y0438848D02*
X0081102Y0438848D01*
X0081102Y0439447D02*
X0062980Y0439447D01*
X0062981Y0440045D02*
X0081102Y0440045D01*
X0081102Y0440644D02*
X0062982Y0440644D01*
X0062983Y0441242D02*
X0081102Y0441242D01*
X0081102Y0441841D02*
X0062984Y0441841D01*
X0062986Y0442439D02*
X0081102Y0442439D01*
X0081102Y0443038D02*
X0062987Y0443038D01*
X0062988Y0443636D02*
X0081102Y0443636D01*
X0081102Y0444235D02*
X0062989Y0444235D01*
X0062990Y0444833D02*
X0081102Y0444833D01*
X0081102Y0445432D02*
X0062992Y0445432D01*
X0062992Y0445405D02*
X0062992Y0445405D01*
X0062992Y0445777D02*
X0062992Y0445777D01*
X0062740Y0446030D02*
X0081102Y0446030D01*
X0081102Y0446629D02*
X0002895Y0446629D01*
X0002895Y0447227D02*
X0081102Y0447227D01*
X0081102Y0447826D02*
X0002895Y0447826D01*
X0002895Y0448424D02*
X0081102Y0448424D01*
X0081102Y0449023D02*
X0002895Y0449023D01*
X0002895Y0449621D02*
X0081102Y0449621D01*
X0081102Y0450220D02*
X0002895Y0450220D01*
X0002895Y0450818D02*
X0081102Y0450818D01*
X0081102Y0451417D02*
X0002895Y0451417D01*
X0002895Y0452015D02*
X0081102Y0452015D01*
X0081102Y0452614D02*
X0002895Y0452614D01*
X0002895Y0453212D02*
X0081102Y0453212D01*
X0081102Y0453811D02*
X0002895Y0453811D01*
X0002895Y0454410D02*
X0081102Y0454410D01*
X0081102Y0455008D02*
X0002895Y0455008D01*
X0002895Y0455607D02*
X0081102Y0455607D01*
X0081102Y0456205D02*
X0002895Y0456205D01*
X0002895Y0456804D02*
X0081102Y0456804D01*
X0081102Y0457402D02*
X0002895Y0457402D01*
X0002895Y0458001D02*
X0081102Y0458001D01*
X0081102Y0458599D02*
X0002895Y0458599D01*
X0002895Y0459198D02*
X0081102Y0459198D01*
X0081102Y0459796D02*
X0002895Y0459796D01*
X0002895Y0460395D02*
X0081102Y0460395D01*
X0081102Y0460993D02*
X0002895Y0460993D01*
X0002895Y0461592D02*
X0081102Y0461592D01*
X0081102Y0462190D02*
X0002895Y0462190D01*
X0002895Y0462789D02*
X0081102Y0462789D01*
X0081102Y0463387D02*
X0002895Y0463387D01*
X0002895Y0463986D02*
X0081102Y0463986D01*
X0081102Y0464584D02*
X0002895Y0464584D01*
X0002895Y0465183D02*
X0081102Y0465183D01*
X0081102Y0465781D02*
X0002895Y0465781D01*
X0002895Y0466380D02*
X0081102Y0466380D01*
X0081102Y0466978D02*
X0002895Y0466978D01*
X0002895Y0467577D02*
X0081102Y0467577D01*
X0081102Y0468175D02*
X0002895Y0468175D01*
X0002895Y0468774D02*
X0081102Y0468774D01*
X0081102Y0469372D02*
X0002895Y0469372D01*
X0002895Y0469971D02*
X0081102Y0469971D01*
X0081102Y0470569D02*
X0002895Y0470569D01*
X0002895Y0471168D02*
X0081102Y0471168D01*
X0081102Y0471766D02*
X0002895Y0471766D01*
X0002895Y0472365D02*
X0081102Y0472365D01*
X0081102Y0472963D02*
X0002895Y0472963D01*
X0002895Y0473562D02*
X0081102Y0473562D01*
X0081102Y0474160D02*
X0002895Y0474160D01*
X0002895Y0474759D02*
X0081102Y0474759D01*
X0081102Y0475357D02*
X0002895Y0475357D01*
X0002895Y0475956D02*
X0081102Y0475956D01*
X0081102Y0476554D02*
X0002895Y0476554D01*
X0002895Y0477153D02*
X0081102Y0477153D01*
X0081102Y0477751D02*
X0002895Y0477751D01*
X0002895Y0478350D02*
X0081102Y0478350D01*
X0081102Y0478948D02*
X0002895Y0478948D01*
X0002895Y0479547D02*
X0081102Y0479547D01*
X0081102Y0480146D02*
X0002895Y0480146D01*
X0002895Y0480744D02*
X0081102Y0480744D01*
X0081102Y0481343D02*
X0002895Y0481343D01*
X0002895Y0481941D02*
X0081102Y0481941D01*
X0081102Y0482540D02*
X0002895Y0482540D01*
X0002895Y0483138D02*
X0081102Y0483138D01*
X0081102Y0483737D02*
X0002895Y0483737D01*
X0002895Y0484335D02*
X0081102Y0484335D01*
X0081102Y0484934D02*
X0002895Y0484934D01*
X0002895Y0485532D02*
X0081102Y0485532D01*
X0081102Y0486131D02*
X0002895Y0486131D01*
X0002895Y0486729D02*
X0081102Y0486729D01*
X0081102Y0487328D02*
X0002895Y0487328D01*
X0002895Y0487926D02*
X0081102Y0487926D01*
X0081102Y0488525D02*
X0002895Y0488525D01*
X0002895Y0489123D02*
X0081102Y0489123D01*
X0081102Y0489722D02*
X0002895Y0489722D01*
X0002895Y0490320D02*
X0081102Y0490320D01*
X0081102Y0490919D02*
X0002895Y0490919D01*
X0002895Y0491517D02*
X0081102Y0491517D01*
X0081102Y0492116D02*
X0002895Y0492116D01*
X0002895Y0492714D02*
X0081102Y0492714D01*
X0081102Y0493313D02*
X0002895Y0493313D01*
X0002895Y0493911D02*
X0081102Y0493911D01*
X0081102Y0494510D02*
X0002895Y0494510D01*
X0002895Y0495108D02*
X0081102Y0495108D01*
X0081102Y0495707D02*
X0002895Y0495707D01*
X0002895Y0496305D02*
X0081102Y0496305D01*
X0081102Y0496904D02*
X0002895Y0496904D01*
X0002895Y0497502D02*
X0081102Y0497502D01*
X0081102Y0498101D02*
X0002895Y0498101D01*
X0002895Y0498699D02*
X0081102Y0498699D01*
X0081102Y0499298D02*
X0002895Y0499298D01*
X0002895Y0499896D02*
X0081102Y0499896D01*
X0081102Y0500495D02*
X0002895Y0500495D01*
X0002895Y0501093D02*
X0081102Y0501093D01*
X0081102Y0501692D02*
X0002895Y0501692D01*
X0002895Y0502290D02*
X0081102Y0502290D01*
X0081102Y0502889D02*
X0002895Y0502889D01*
X0002895Y0503487D02*
X0081102Y0503487D01*
X0081102Y0504086D02*
X0002895Y0504086D01*
X0002895Y0504684D02*
X0081102Y0504684D01*
X0081102Y0505283D02*
X0002895Y0505283D01*
X0002895Y0505881D02*
X0081102Y0505881D01*
X0081102Y0426279D02*
X0002895Y0426279D01*
X0002895Y0425681D02*
X0081102Y0425681D01*
X0081102Y0425082D02*
X0002895Y0425082D01*
X0002895Y0424484D02*
X0081102Y0424484D01*
X0081102Y0423885D02*
X0002895Y0423885D01*
X0002895Y0423287D02*
X0081102Y0423287D01*
X0081102Y0422688D02*
X0002895Y0422688D01*
X0002895Y0422090D02*
X0081102Y0422090D01*
X0081102Y0421491D02*
X0002895Y0421491D01*
X0002895Y0420893D02*
X0081102Y0420893D01*
X0081102Y0420294D02*
X0002895Y0420294D01*
X0002895Y0419696D02*
X0081102Y0419696D01*
X0081102Y0419097D02*
X0002895Y0419097D01*
X0002895Y0418499D02*
X0081102Y0418499D01*
X0081102Y0417900D02*
X0002895Y0417900D01*
X0002895Y0417302D02*
X0081102Y0417302D01*
X0081102Y0416703D02*
X0002895Y0416703D01*
X0002895Y0416105D02*
X0081102Y0416105D01*
X0081102Y0415506D02*
X0002895Y0415506D01*
X0002895Y0414908D02*
X0019154Y0414908D01*
X0018154Y0414640D02*
X0015256Y0412967D01*
X0012890Y0410601D01*
X0011217Y0407703D01*
X0010351Y0404471D01*
X0010351Y0401125D01*
X0011217Y0397893D01*
X0012890Y0394995D01*
X0015256Y0392629D01*
X0018154Y0390956D01*
X0021386Y0390090D01*
X0024732Y0390090D01*
X0027964Y0390956D01*
X0030862Y0392629D01*
X0033228Y0394995D01*
X0034901Y0397893D01*
X0035767Y0401125D01*
X0035767Y0404471D01*
X0034901Y0407703D01*
X0033228Y0410601D01*
X0030862Y0412967D01*
X0027964Y0414640D01*
X0024732Y0415506D01*
X0021386Y0415506D01*
X0018154Y0414640D01*
X0017582Y0414309D02*
X0002895Y0414309D01*
X0002895Y0413711D02*
X0016545Y0413711D01*
X0015508Y0413112D02*
X0002895Y0413112D01*
X0002895Y0412514D02*
X0014803Y0412514D01*
X0014205Y0411915D02*
X0002895Y0411915D01*
X0002895Y0411317D02*
X0013606Y0411317D01*
X0013008Y0410718D02*
X0002895Y0410718D01*
X0002895Y0410120D02*
X0012612Y0410120D01*
X0012267Y0409521D02*
X0002895Y0409521D01*
X0002895Y0408923D02*
X0011921Y0408923D01*
X0011576Y0408324D02*
X0002895Y0408324D01*
X0002895Y0407726D02*
X0011230Y0407726D01*
X0011063Y0407127D02*
X0002895Y0407127D01*
X0002895Y0406529D02*
X0010902Y0406529D01*
X0010742Y0405930D02*
X0002895Y0405930D01*
X0002895Y0405332D02*
X0010582Y0405332D01*
X0010421Y0404733D02*
X0002895Y0404733D01*
X0002895Y0404135D02*
X0010351Y0404135D01*
X0010351Y0403536D02*
X0002895Y0403536D01*
X0002895Y0402938D02*
X0010351Y0402938D01*
X0010351Y0402339D02*
X0002895Y0402339D01*
X0002895Y0401741D02*
X0010351Y0401741D01*
X0010351Y0401142D02*
X0002895Y0401142D01*
X0002895Y0400544D02*
X0010507Y0400544D01*
X0010667Y0399945D02*
X0002895Y0399945D01*
X0002895Y0399346D02*
X0010828Y0399346D01*
X0010988Y0398748D02*
X0002895Y0398748D01*
X0002895Y0398149D02*
X0011148Y0398149D01*
X0011415Y0397551D02*
X0002895Y0397551D01*
X0002895Y0396952D02*
X0011760Y0396952D01*
X0012106Y0396354D02*
X0002895Y0396354D01*
X0002895Y0395755D02*
X0012451Y0395755D01*
X0012797Y0395157D02*
X0002895Y0395157D01*
X0002895Y0394558D02*
X0013327Y0394558D01*
X0013925Y0393960D02*
X0002895Y0393960D01*
X0002895Y0393361D02*
X0014524Y0393361D01*
X0015122Y0392763D02*
X0002895Y0392763D01*
X0002895Y0392164D02*
X0016061Y0392164D01*
X0017098Y0391566D02*
X0002895Y0391566D01*
X0002895Y0390967D02*
X0018134Y0390967D01*
X0019966Y0380793D02*
X0002895Y0380793D01*
X0002895Y0381391D02*
X0081102Y0381391D01*
X0081102Y0381990D02*
X0002895Y0381990D01*
X0002895Y0382588D02*
X0081102Y0382588D01*
X0081102Y0383187D02*
X0002895Y0383187D01*
X0002895Y0383785D02*
X0081102Y0383785D01*
X0081102Y0384384D02*
X0002895Y0384384D01*
X0002895Y0384982D02*
X0081102Y0384982D01*
X0081102Y0385581D02*
X0002895Y0385581D01*
X0002895Y0386179D02*
X0081102Y0386179D01*
X0081102Y0386778D02*
X0002895Y0386778D01*
X0002895Y0387376D02*
X0081102Y0387376D01*
X0081102Y0387975D02*
X0002895Y0387975D01*
X0002895Y0388573D02*
X0081102Y0388573D01*
X0081102Y0389172D02*
X0002895Y0389172D01*
X0002895Y0389770D02*
X0081102Y0389770D01*
X0081102Y0360443D02*
X0002895Y0360443D01*
X0002895Y0359845D02*
X0081102Y0359845D01*
X0081102Y0359246D02*
X0002895Y0359246D01*
X0002895Y0358648D02*
X0081102Y0358648D01*
X0081102Y0358049D02*
X0002895Y0358049D01*
X0002895Y0357451D02*
X0081102Y0357451D01*
X0081102Y0356852D02*
X0002895Y0356852D01*
X0002895Y0356254D02*
X0081102Y0356254D01*
X0081102Y0355655D02*
X0002895Y0355655D01*
X0002895Y0355057D02*
X0081102Y0355057D01*
X0081102Y0354458D02*
X0002895Y0354458D01*
X0002895Y0353860D02*
X0081102Y0353860D01*
X0081102Y0353261D02*
X0002895Y0353261D01*
X0002895Y0352663D02*
X0081102Y0352663D01*
X0081102Y0352064D02*
X0002895Y0352064D01*
X0002895Y0351466D02*
X0081102Y0351466D01*
X0081102Y0350867D02*
X0002895Y0350867D01*
X0002895Y0362239D02*
X0020003Y0362239D01*
X0020004Y0361866D02*
X0020004Y0361866D01*
X0020002Y0362837D02*
X0002895Y0362837D01*
X0002895Y0363436D02*
X0020001Y0363436D01*
X0020000Y0364034D02*
X0002895Y0364034D01*
X0002895Y0364633D02*
X0019998Y0364633D01*
X0019997Y0365231D02*
X0002895Y0365231D01*
X0002895Y0365830D02*
X0019996Y0365830D01*
X0019995Y0366428D02*
X0002895Y0366428D01*
X0002895Y0367027D02*
X0019994Y0367027D01*
X0019992Y0367625D02*
X0002895Y0367625D01*
X0002895Y0368224D02*
X0019991Y0368224D01*
X0019990Y0368822D02*
X0002895Y0368822D01*
X0002895Y0369421D02*
X0019989Y0369421D01*
X0019988Y0370019D02*
X0002895Y0370019D01*
X0002895Y0370618D02*
X0019986Y0370618D01*
X0019985Y0371216D02*
X0002895Y0371216D01*
X0002895Y0371815D02*
X0019984Y0371815D01*
X0019983Y0372413D02*
X0002895Y0372413D01*
X0002895Y0373012D02*
X0019982Y0373012D01*
X0019981Y0373610D02*
X0002895Y0373610D01*
X0002895Y0374209D02*
X0019979Y0374209D01*
X0019978Y0374808D02*
X0002895Y0374808D01*
X0002895Y0375406D02*
X0019977Y0375406D01*
X0019976Y0376005D02*
X0002895Y0376005D01*
X0002895Y0376603D02*
X0019975Y0376603D01*
X0019973Y0377202D02*
X0002895Y0377202D01*
X0002895Y0377800D02*
X0019972Y0377800D01*
X0019971Y0378399D02*
X0002895Y0378399D01*
X0002895Y0378997D02*
X0019970Y0378997D01*
X0019969Y0379596D02*
X0002895Y0379596D01*
X0002895Y0380194D02*
X0019967Y0380194D01*
X0019967Y0380444D02*
X0019967Y0380444D01*
X0020602Y0381081D02*
X0020602Y0381081D01*
X0020345Y0390369D02*
X0002895Y0390369D01*
X0002895Y0426878D02*
X0019929Y0426878D01*
X0019931Y0427477D02*
X0002895Y0427477D01*
X0002895Y0428075D02*
X0019932Y0428075D01*
X0019933Y0428674D02*
X0002895Y0428674D01*
X0002895Y0429272D02*
X0019934Y0429272D01*
X0019935Y0429871D02*
X0002895Y0429871D01*
X0002895Y0430469D02*
X0019937Y0430469D01*
X0019938Y0431068D02*
X0002895Y0431068D01*
X0002895Y0431666D02*
X0019939Y0431666D01*
X0019940Y0432265D02*
X0002895Y0432265D01*
X0002895Y0432863D02*
X0019941Y0432863D01*
X0019943Y0433462D02*
X0002895Y0433462D01*
X0002895Y0434060D02*
X0019944Y0434060D01*
X0019945Y0434659D02*
X0002895Y0434659D01*
X0002895Y0435257D02*
X0019946Y0435257D01*
X0019947Y0435856D02*
X0002895Y0435856D01*
X0002895Y0436454D02*
X0019948Y0436454D01*
X0019950Y0437053D02*
X0002895Y0437053D01*
X0002895Y0437651D02*
X0019951Y0437651D01*
X0019952Y0438250D02*
X0002895Y0438250D01*
X0002895Y0438848D02*
X0019953Y0438848D01*
X0019954Y0439447D02*
X0002895Y0439447D01*
X0002895Y0440045D02*
X0019956Y0440045D01*
X0019957Y0440644D02*
X0002895Y0440644D01*
X0002895Y0441242D02*
X0019958Y0441242D01*
X0019959Y0441841D02*
X0002895Y0441841D01*
X0002895Y0442439D02*
X0019960Y0442439D01*
X0019962Y0443038D02*
X0002895Y0443038D01*
X0002895Y0443636D02*
X0019963Y0443636D01*
X0019964Y0444235D02*
X0002895Y0444235D01*
X0002895Y0444833D02*
X0019965Y0444833D01*
X0019966Y0445432D02*
X0002895Y0445432D01*
X0002895Y0446030D02*
X0050216Y0446030D01*
X0055011Y0413711D02*
X0029573Y0413711D01*
X0030610Y0413112D02*
X0053974Y0413112D01*
X0053242Y0412514D02*
X0031315Y0412514D01*
X0031913Y0411915D02*
X0052644Y0411915D01*
X0052045Y0411317D02*
X0032512Y0411317D01*
X0033110Y0410718D02*
X0051447Y0410718D01*
X0051036Y0410120D02*
X0033506Y0410120D01*
X0033851Y0409521D02*
X0050691Y0409521D01*
X0050345Y0408923D02*
X0034197Y0408923D01*
X0034542Y0408324D02*
X0050000Y0408324D01*
X0049654Y0407726D02*
X0034888Y0407726D01*
X0035055Y0407127D02*
X0049475Y0407127D01*
X0049315Y0406529D02*
X0035215Y0406529D01*
X0035376Y0405930D02*
X0049155Y0405930D01*
X0048994Y0405332D02*
X0035536Y0405332D01*
X0035697Y0404733D02*
X0048834Y0404733D01*
X0048754Y0404135D02*
X0035767Y0404135D01*
X0035767Y0403536D02*
X0048754Y0403536D01*
X0048754Y0402938D02*
X0035767Y0402938D01*
X0035767Y0402339D02*
X0048754Y0402339D01*
X0048754Y0401741D02*
X0035767Y0401741D01*
X0035767Y0401142D02*
X0048754Y0401142D01*
X0048900Y0400544D02*
X0035611Y0400544D01*
X0035451Y0399945D02*
X0049060Y0399945D01*
X0049220Y0399346D02*
X0035290Y0399346D01*
X0035130Y0398748D02*
X0049381Y0398748D01*
X0049541Y0398149D02*
X0034970Y0398149D01*
X0034703Y0397551D02*
X0049796Y0397551D01*
X0050142Y0396952D02*
X0034358Y0396952D01*
X0034012Y0396354D02*
X0050487Y0396354D01*
X0050833Y0395755D02*
X0033667Y0395755D01*
X0033321Y0395157D02*
X0051178Y0395157D01*
X0051693Y0394558D02*
X0032791Y0394558D01*
X0032193Y0393960D02*
X0052291Y0393960D01*
X0052890Y0393361D02*
X0031594Y0393361D01*
X0030996Y0392763D02*
X0053488Y0392763D01*
X0054400Y0392164D02*
X0030057Y0392164D01*
X0029020Y0391566D02*
X0055437Y0391566D01*
X0056474Y0390967D02*
X0027984Y0390967D01*
X0025772Y0390369D02*
X0058611Y0390369D01*
X0056048Y0414309D02*
X0028536Y0414309D01*
X0026964Y0414908D02*
X0057694Y0414908D01*
X0062728Y0446041D02*
X0062728Y0446041D01*
X0063208Y0350680D02*
X0059862Y0350680D01*
X0056630Y0349814D01*
X0053732Y0348141D01*
X0051366Y0345775D01*
X0049693Y0342877D01*
X0048827Y0339645D01*
X0048827Y0336299D01*
X0049693Y0333067D01*
X0051366Y0330170D01*
X0053732Y0327803D01*
X0056630Y0326130D01*
X0059862Y0325264D01*
X0063208Y0325264D01*
X0066440Y0326130D01*
X0069338Y0327803D01*
X0071704Y0330170D01*
X0073377Y0333067D01*
X0074243Y0336299D01*
X0074243Y0339645D01*
X0073377Y0342877D01*
X0071704Y0345775D01*
X0069338Y0348141D01*
X0066440Y0349814D01*
X0063208Y0350680D01*
X0064744Y0350269D02*
X0081102Y0350269D01*
X0081102Y0349670D02*
X0066690Y0349670D01*
X0067727Y0349072D02*
X0081102Y0349072D01*
X0081102Y0348473D02*
X0068763Y0348473D01*
X0069605Y0347875D02*
X0081102Y0347875D01*
X0081102Y0347276D02*
X0070203Y0347276D01*
X0070802Y0346677D02*
X0081102Y0346677D01*
X0081102Y0346079D02*
X0071400Y0346079D01*
X0071874Y0345480D02*
X0081102Y0345480D01*
X0081102Y0344882D02*
X0072220Y0344882D01*
X0072565Y0344283D02*
X0081102Y0344283D01*
X0081102Y0343685D02*
X0072911Y0343685D01*
X0073256Y0343086D02*
X0081102Y0343086D01*
X0081102Y0342488D02*
X0073481Y0342488D01*
X0073642Y0341889D02*
X0081102Y0341889D01*
X0081102Y0341291D02*
X0073802Y0341291D01*
X0073962Y0340692D02*
X0081102Y0340692D01*
X0081102Y0340094D02*
X0074123Y0340094D01*
X0074243Y0339495D02*
X0081102Y0339495D01*
X0081102Y0338897D02*
X0074243Y0338897D01*
X0074243Y0338298D02*
X0081102Y0338298D01*
X0081102Y0337700D02*
X0074243Y0337700D01*
X0074243Y0337101D02*
X0081102Y0337101D01*
X0081102Y0336503D02*
X0074243Y0336503D01*
X0074137Y0335904D02*
X0081102Y0335904D01*
X0081102Y0335306D02*
X0073977Y0335306D01*
X0073816Y0334707D02*
X0081102Y0334707D01*
X0081102Y0334109D02*
X0073656Y0334109D01*
X0073496Y0333510D02*
X0081102Y0333510D01*
X0081102Y0332912D02*
X0073287Y0332912D01*
X0072942Y0332313D02*
X0081102Y0332313D01*
X0081102Y0331715D02*
X0072596Y0331715D01*
X0072251Y0331116D02*
X0081102Y0331116D01*
X0081102Y0330518D02*
X0071905Y0330518D01*
X0071454Y0329919D02*
X0081102Y0329919D01*
X0081102Y0329321D02*
X0070855Y0329321D01*
X0070257Y0328722D02*
X0081102Y0328722D01*
X0081102Y0328124D02*
X0069658Y0328124D01*
X0068856Y0327525D02*
X0081102Y0327525D01*
X0081102Y0326927D02*
X0067819Y0326927D01*
X0066783Y0326328D02*
X0081102Y0326328D01*
X0081102Y0325730D02*
X0064944Y0325730D01*
X0062955Y0313814D02*
X0062955Y0313814D01*
X0062955Y0313759D02*
X0081102Y0313759D01*
X0081102Y0313161D02*
X0062955Y0313161D01*
X0062955Y0312562D02*
X0081102Y0312562D01*
X0081102Y0311964D02*
X0062955Y0311964D01*
X0062955Y0311365D02*
X0081102Y0311365D01*
X0081102Y0310767D02*
X0062955Y0310767D01*
X0062955Y0310168D02*
X0081102Y0310168D01*
X0081102Y0309570D02*
X0062955Y0309570D01*
X0062955Y0308971D02*
X0081102Y0308971D01*
X0081102Y0308373D02*
X0062955Y0308373D01*
X0062955Y0307774D02*
X0081102Y0307774D01*
X0081102Y0307176D02*
X0062955Y0307176D01*
X0062955Y0306577D02*
X0081102Y0306577D01*
X0081102Y0305979D02*
X0062955Y0305979D01*
X0062955Y0305380D02*
X0081102Y0305380D01*
X0081102Y0304782D02*
X0062955Y0304782D01*
X0062955Y0304183D02*
X0081102Y0304183D01*
X0081102Y0303585D02*
X0062955Y0303585D01*
X0062955Y0302986D02*
X0081102Y0302986D01*
X0081102Y0302388D02*
X0062955Y0302388D01*
X0062955Y0301789D02*
X0081102Y0301789D01*
X0081102Y0301191D02*
X0062955Y0301191D01*
X0062955Y0300592D02*
X0081102Y0300592D01*
X0081102Y0299994D02*
X0062955Y0299994D01*
X0062955Y0299395D02*
X0081102Y0299395D01*
X0081102Y0298797D02*
X0062955Y0298797D01*
X0062955Y0298198D02*
X0081102Y0298198D01*
X0081102Y0297600D02*
X0062955Y0297600D01*
X0062955Y0297001D02*
X0081102Y0297001D01*
X0081102Y0296403D02*
X0062955Y0296403D01*
X0062955Y0295804D02*
X0081102Y0295804D01*
X0081102Y0295206D02*
X0062955Y0295206D01*
X0062955Y0295309D02*
X0062955Y0295309D01*
X0063282Y0284640D02*
X0059936Y0284640D01*
X0056704Y0283774D01*
X0053806Y0282101D01*
X0051440Y0279735D01*
X0049767Y0276837D01*
X0048901Y0273605D01*
X0048901Y0270259D01*
X0049767Y0267027D01*
X0051440Y0264129D01*
X0053806Y0261763D01*
X0056704Y0260090D01*
X0059936Y0259224D01*
X0063282Y0259224D01*
X0066514Y0260090D01*
X0069411Y0261763D01*
X0071777Y0264129D01*
X0073450Y0267027D01*
X0074316Y0270259D01*
X0074316Y0273605D01*
X0073450Y0276837D01*
X0071777Y0279735D01*
X0069411Y0282101D01*
X0066514Y0283774D01*
X0063282Y0284640D01*
X0064057Y0284432D02*
X0081102Y0284432D01*
X0081102Y0283834D02*
X0066291Y0283834D01*
X0067447Y0283235D02*
X0081102Y0283235D01*
X0081102Y0282637D02*
X0068484Y0282637D01*
X0069474Y0282038D02*
X0081102Y0282038D01*
X0081102Y0281440D02*
X0070073Y0281440D01*
X0070671Y0280841D02*
X0081102Y0280841D01*
X0081102Y0280243D02*
X0071270Y0280243D01*
X0071830Y0279644D02*
X0081102Y0279644D01*
X0081102Y0279046D02*
X0072175Y0279046D01*
X0072521Y0278447D02*
X0081102Y0278447D01*
X0081102Y0277849D02*
X0072867Y0277849D01*
X0073212Y0277250D02*
X0081102Y0277250D01*
X0081102Y0276652D02*
X0073500Y0276652D01*
X0073661Y0276053D02*
X0081102Y0276053D01*
X0081102Y0275455D02*
X0073821Y0275455D01*
X0073981Y0274856D02*
X0081102Y0274856D01*
X0081102Y0274258D02*
X0074142Y0274258D01*
X0074302Y0273659D02*
X0081102Y0273659D01*
X0081102Y0273061D02*
X0074316Y0273061D01*
X0074316Y0272462D02*
X0081102Y0272462D01*
X0081102Y0271864D02*
X0074316Y0271864D01*
X0074316Y0271265D02*
X0081102Y0271265D01*
X0081102Y0270667D02*
X0074316Y0270667D01*
X0074265Y0270068D02*
X0081102Y0270068D01*
X0081102Y0269470D02*
X0074105Y0269470D01*
X0073944Y0268871D02*
X0081102Y0268871D01*
X0081102Y0268273D02*
X0073784Y0268273D01*
X0073624Y0267674D02*
X0081102Y0267674D01*
X0081102Y0267075D02*
X0073463Y0267075D01*
X0073133Y0266477D02*
X0081102Y0266477D01*
X0081102Y0265878D02*
X0072787Y0265878D01*
X0072442Y0265280D02*
X0081102Y0265280D01*
X0081102Y0264681D02*
X0072096Y0264681D01*
X0071731Y0264083D02*
X0081102Y0264083D01*
X0081102Y0263484D02*
X0071132Y0263484D01*
X0070534Y0262886D02*
X0081102Y0262886D01*
X0081102Y0262287D02*
X0069935Y0262287D01*
X0069282Y0261689D02*
X0081102Y0261689D01*
X0081102Y0261090D02*
X0068246Y0261090D01*
X0067209Y0260492D02*
X0081102Y0260492D01*
X0081102Y0259893D02*
X0065778Y0259893D01*
X0063544Y0259295D02*
X0081102Y0259295D01*
X0081102Y0258696D02*
X0002895Y0258696D01*
X0002895Y0258098D02*
X0081102Y0258098D01*
X0081102Y0257499D02*
X0002895Y0257499D01*
X0002895Y0256901D02*
X0081102Y0256901D01*
X0081102Y0256302D02*
X0002895Y0256302D01*
X0002895Y0255704D02*
X0081102Y0255704D01*
X0081102Y0255105D02*
X0002895Y0255105D01*
X0002895Y0254507D02*
X0081102Y0254507D01*
X0081102Y0253908D02*
X0002895Y0253908D01*
X0002895Y0253310D02*
X0081102Y0253310D01*
X0081102Y0252711D02*
X0002895Y0252711D01*
X0002895Y0252113D02*
X0081102Y0252113D01*
X0081102Y0251514D02*
X0002895Y0251514D01*
X0002895Y0250916D02*
X0081102Y0250916D01*
X0081102Y0285031D02*
X0002895Y0285031D01*
X0002895Y0285629D02*
X0081102Y0285629D01*
X0081102Y0286228D02*
X0002895Y0286228D01*
X0002895Y0286826D02*
X0081102Y0286826D01*
X0081102Y0287425D02*
X0002895Y0287425D01*
X0002895Y0288023D02*
X0081102Y0288023D01*
X0081102Y0288622D02*
X0002895Y0288622D01*
X0002895Y0289220D02*
X0081102Y0289220D01*
X0081102Y0289819D02*
X0002895Y0289819D01*
X0002895Y0290417D02*
X0081102Y0290417D01*
X0081102Y0291016D02*
X0002895Y0291016D01*
X0002895Y0291614D02*
X0081102Y0291614D01*
X0081102Y0292213D02*
X0002895Y0292213D01*
X0002895Y0292811D02*
X0081102Y0292811D01*
X0081102Y0293410D02*
X0002895Y0293410D01*
X0002895Y0294008D02*
X0081102Y0294008D01*
X0081102Y0294607D02*
X0002895Y0294607D01*
X0002895Y0284432D02*
X0021133Y0284432D01*
X0025205Y0284432D02*
X0059160Y0284432D01*
X0056926Y0283834D02*
X0027439Y0283834D01*
X0028816Y0283235D02*
X0055770Y0283235D01*
X0054734Y0282637D02*
X0029853Y0282637D01*
X0030889Y0282038D02*
X0053743Y0282038D01*
X0053144Y0281440D02*
X0031523Y0281440D01*
X0032121Y0280841D02*
X0052546Y0280841D01*
X0051947Y0280243D02*
X0032720Y0280243D01*
X0033318Y0279644D02*
X0051387Y0279644D01*
X0051042Y0279046D02*
X0033672Y0279046D01*
X0034018Y0278447D02*
X0050696Y0278447D01*
X0050351Y0277849D02*
X0034363Y0277849D01*
X0034709Y0277250D02*
X0050005Y0277250D01*
X0049717Y0276652D02*
X0035031Y0276652D01*
X0035192Y0276053D02*
X0049557Y0276053D01*
X0049396Y0275455D02*
X0035352Y0275455D01*
X0035512Y0274856D02*
X0049236Y0274856D01*
X0049076Y0274258D02*
X0035673Y0274258D01*
X0035833Y0273659D02*
X0048915Y0273659D01*
X0048901Y0273061D02*
X0035877Y0273061D01*
X0035877Y0272462D02*
X0048901Y0272462D01*
X0048901Y0271864D02*
X0035877Y0271864D01*
X0035877Y0271265D02*
X0048901Y0271265D01*
X0048901Y0270667D02*
X0035877Y0270667D01*
X0035856Y0270068D02*
X0048952Y0270068D01*
X0049112Y0269470D02*
X0035695Y0269470D01*
X0035535Y0268871D02*
X0049273Y0268871D01*
X0049433Y0268273D02*
X0035374Y0268273D01*
X0035214Y0267674D02*
X0049593Y0267674D01*
X0049754Y0267075D02*
X0035054Y0267075D01*
X0034757Y0266477D02*
X0050084Y0266477D01*
X0050430Y0265878D02*
X0034412Y0265878D01*
X0034066Y0265280D02*
X0050776Y0265280D01*
X0051121Y0264681D02*
X0033721Y0264681D01*
X0033375Y0264083D02*
X0051486Y0264083D01*
X0052085Y0263484D02*
X0032804Y0263484D01*
X0032205Y0262886D02*
X0052683Y0262886D01*
X0053282Y0262287D02*
X0031607Y0262287D01*
X0031008Y0261689D02*
X0053935Y0261689D01*
X0054972Y0261090D02*
X0029998Y0261090D01*
X0028961Y0260492D02*
X0056008Y0260492D01*
X0057439Y0259893D02*
X0027751Y0259893D01*
X0025518Y0259295D02*
X0059673Y0259295D01*
X0058126Y0325730D02*
X0026829Y0325730D01*
X0028542Y0326328D02*
X0056288Y0326328D01*
X0055251Y0326927D02*
X0029578Y0326927D01*
X0030615Y0327525D02*
X0054214Y0327525D01*
X0053412Y0328124D02*
X0031371Y0328124D01*
X0031970Y0328722D02*
X0052814Y0328722D01*
X0052215Y0329321D02*
X0032568Y0329321D01*
X0033167Y0329919D02*
X0051617Y0329919D01*
X0051165Y0330518D02*
X0033592Y0330518D01*
X0033937Y0331116D02*
X0050820Y0331116D01*
X0050474Y0331715D02*
X0034283Y0331715D01*
X0034628Y0332313D02*
X0050129Y0332313D01*
X0049783Y0332912D02*
X0034974Y0332912D01*
X0035163Y0333510D02*
X0049575Y0333510D01*
X0049414Y0334109D02*
X0035323Y0334109D01*
X0035484Y0334707D02*
X0049254Y0334707D01*
X0049093Y0335306D02*
X0035644Y0335306D01*
X0035804Y0335904D02*
X0048933Y0335904D01*
X0048827Y0336503D02*
X0035894Y0336503D01*
X0035894Y0337101D02*
X0048827Y0337101D01*
X0048827Y0337700D02*
X0035894Y0337700D01*
X0035894Y0338298D02*
X0048827Y0338298D01*
X0048827Y0338897D02*
X0035894Y0338897D01*
X0035894Y0339495D02*
X0048827Y0339495D01*
X0048947Y0340094D02*
X0035757Y0340094D01*
X0035596Y0340692D02*
X0049108Y0340692D01*
X0049268Y0341291D02*
X0035436Y0341291D01*
X0035275Y0341889D02*
X0049429Y0341889D01*
X0049589Y0342488D02*
X0035115Y0342488D01*
X0034871Y0343086D02*
X0049814Y0343086D01*
X0050160Y0343685D02*
X0034525Y0343685D01*
X0034180Y0344283D02*
X0050505Y0344283D01*
X0050851Y0344882D02*
X0033834Y0344882D01*
X0033488Y0345480D02*
X0051196Y0345480D01*
X0051670Y0346079D02*
X0032988Y0346079D01*
X0032389Y0346677D02*
X0052269Y0346677D01*
X0052867Y0347276D02*
X0031791Y0347276D01*
X0031192Y0347875D02*
X0053466Y0347875D01*
X0054307Y0348473D02*
X0030305Y0348473D01*
X0029268Y0349072D02*
X0055344Y0349072D01*
X0056380Y0349670D02*
X0028232Y0349670D01*
X0026161Y0350269D02*
X0058326Y0350269D01*
X0081102Y0325131D02*
X0002895Y0325131D01*
X0002895Y0324533D02*
X0081102Y0324533D01*
X0081102Y0323934D02*
X0002895Y0323934D01*
X0002895Y0323336D02*
X0081102Y0323336D01*
X0081102Y0322737D02*
X0002895Y0322737D01*
X0002895Y0322139D02*
X0081102Y0322139D01*
X0081102Y0321540D02*
X0002895Y0321540D01*
X0002895Y0320941D02*
X0081102Y0320941D01*
X0081102Y0320343D02*
X0002895Y0320343D01*
X0002895Y0319744D02*
X0081102Y0319744D01*
X0081102Y0319146D02*
X0002895Y0319146D01*
X0002895Y0318547D02*
X0081102Y0318547D01*
X0081102Y0317949D02*
X0002895Y0317949D01*
X0002895Y0317350D02*
X0081102Y0317350D01*
X0081102Y0316752D02*
X0002895Y0316752D01*
X0002895Y0316153D02*
X0081102Y0316153D01*
X0081102Y0315555D02*
X0002895Y0315555D01*
X0002895Y0314956D02*
X0081102Y0314956D01*
X0081102Y0314358D02*
X0002895Y0314358D01*
X0002895Y0192860D02*
X0081102Y0192860D01*
X0081102Y0192262D02*
X0002895Y0192262D01*
X0002895Y0191663D02*
X0081102Y0191663D01*
X0081102Y0191065D02*
X0002895Y0191065D01*
X0002895Y0190466D02*
X0081102Y0190466D01*
X0081102Y0189868D02*
X0002895Y0189868D01*
X0002895Y0189269D02*
X0081102Y0189269D01*
X0081102Y0188670D02*
X0002895Y0188670D01*
X0002895Y0188072D02*
X0081102Y0188072D01*
X0081102Y0187473D02*
X0002895Y0187473D01*
X0002895Y0186875D02*
X0081102Y0186875D01*
X0081102Y0186276D02*
X0002895Y0186276D01*
X0002895Y0156949D02*
X0020299Y0156949D01*
X0021496Y0157270D02*
X0018264Y0156404D01*
X0015367Y0154731D01*
X0013001Y0152365D01*
X0011328Y0149467D01*
X0010462Y0146235D01*
X0010462Y0142889D01*
X0011328Y0139657D01*
X0013001Y0136760D01*
X0015367Y0134394D01*
X0018264Y0132721D01*
X0021496Y0131855D01*
X0024842Y0131855D01*
X0028074Y0132721D01*
X0030972Y0134394D01*
X0033338Y0136760D01*
X0035011Y0139657D01*
X0035877Y0142889D01*
X0035877Y0146235D01*
X0035011Y0149467D01*
X0033338Y0152365D01*
X0030972Y0154731D01*
X0028074Y0156404D01*
X0024842Y0157270D01*
X0021496Y0157270D01*
X0018172Y0156351D02*
X0002895Y0156351D01*
X0002895Y0155752D02*
X0017135Y0155752D01*
X0016099Y0155154D02*
X0002895Y0155154D01*
X0002895Y0154555D02*
X0015191Y0154555D01*
X0014592Y0153957D02*
X0002895Y0153957D01*
X0002895Y0153358D02*
X0013994Y0153358D01*
X0013395Y0152760D02*
X0002895Y0152760D01*
X0002895Y0152161D02*
X0012883Y0152161D01*
X0012537Y0151563D02*
X0002895Y0151563D01*
X0002895Y0150964D02*
X0012192Y0150964D01*
X0011846Y0150366D02*
X0002895Y0150366D01*
X0002895Y0149767D02*
X0011501Y0149767D01*
X0011248Y0149169D02*
X0002895Y0149169D01*
X0002895Y0148570D02*
X0011087Y0148570D01*
X0010927Y0147972D02*
X0002895Y0147972D01*
X0002895Y0147373D02*
X0010766Y0147373D01*
X0010606Y0146775D02*
X0002895Y0146775D01*
X0002895Y0146176D02*
X0010462Y0146176D01*
X0010462Y0145578D02*
X0002895Y0145578D01*
X0002895Y0144979D02*
X0010462Y0144979D01*
X0010462Y0144381D02*
X0002895Y0144381D01*
X0002895Y0143782D02*
X0010462Y0143782D01*
X0010462Y0143184D02*
X0002895Y0143184D01*
X0002895Y0142585D02*
X0010543Y0142585D01*
X0010703Y0141987D02*
X0002895Y0141987D01*
X0002895Y0141388D02*
X0010864Y0141388D01*
X0011024Y0140790D02*
X0002895Y0140790D01*
X0002895Y0140191D02*
X0011185Y0140191D01*
X0011365Y0139593D02*
X0002895Y0139593D01*
X0002895Y0138994D02*
X0011710Y0138994D01*
X0012056Y0138396D02*
X0002895Y0138396D01*
X0002895Y0137797D02*
X0012402Y0137797D01*
X0012747Y0137199D02*
X0002895Y0137199D01*
X0002895Y0136600D02*
X0013160Y0136600D01*
X0013759Y0136002D02*
X0002895Y0136002D01*
X0002895Y0135403D02*
X0014357Y0135403D01*
X0014956Y0134804D02*
X0002895Y0134804D01*
X0002895Y0134206D02*
X0015691Y0134206D01*
X0016728Y0133607D02*
X0002895Y0133607D01*
X0002895Y0133009D02*
X0017765Y0133009D01*
X0019422Y0132410D02*
X0002895Y0132410D01*
X0026040Y0156949D02*
X0058143Y0156949D01*
X0056236Y0156351D02*
X0028167Y0156351D01*
X0029204Y0155752D02*
X0055200Y0155752D01*
X0054163Y0155154D02*
X0030240Y0155154D01*
X0031148Y0154555D02*
X0053336Y0154555D01*
X0052737Y0153957D02*
X0031747Y0153957D01*
X0032345Y0153358D02*
X0052139Y0153358D01*
X0051540Y0152760D02*
X0032944Y0152760D01*
X0033456Y0152161D02*
X0051075Y0152161D01*
X0050729Y0151563D02*
X0033802Y0151563D01*
X0034147Y0150964D02*
X0050383Y0150964D01*
X0050038Y0150366D02*
X0034493Y0150366D01*
X0034838Y0149767D02*
X0049692Y0149767D01*
X0049473Y0149169D02*
X0035091Y0149169D01*
X0035252Y0148570D02*
X0049313Y0148570D01*
X0049153Y0147972D02*
X0035412Y0147972D01*
X0035572Y0147373D02*
X0048992Y0147373D01*
X0048832Y0146775D02*
X0035733Y0146775D01*
X0035877Y0146176D02*
X0048717Y0146176D01*
X0048717Y0145578D02*
X0035877Y0145578D01*
X0035877Y0144979D02*
X0048717Y0144979D01*
X0048717Y0144381D02*
X0035877Y0144381D01*
X0035877Y0143782D02*
X0048717Y0143782D01*
X0048717Y0143184D02*
X0035877Y0143184D01*
X0035796Y0142585D02*
X0048828Y0142585D01*
X0048988Y0141987D02*
X0035635Y0141987D01*
X0035475Y0141388D02*
X0049149Y0141388D01*
X0049309Y0140790D02*
X0035315Y0140790D01*
X0035154Y0140191D02*
X0049469Y0140191D01*
X0049684Y0139593D02*
X0034974Y0139593D01*
X0034628Y0138994D02*
X0050029Y0138994D01*
X0050375Y0138396D02*
X0034283Y0138396D01*
X0033937Y0137797D02*
X0050721Y0137797D01*
X0051066Y0137199D02*
X0033592Y0137199D01*
X0033179Y0136600D02*
X0051526Y0136600D01*
X0052124Y0136002D02*
X0032580Y0136002D01*
X0031982Y0135403D02*
X0052723Y0135403D01*
X0053321Y0134804D02*
X0031383Y0134804D01*
X0030647Y0134206D02*
X0054138Y0134206D01*
X0055174Y0133607D02*
X0029611Y0133607D01*
X0028574Y0133009D02*
X0056211Y0133009D01*
X0058088Y0132410D02*
X0026917Y0132410D01*
X0026243Y0088121D02*
X0058003Y0088121D01*
X0056230Y0087522D02*
X0028162Y0087522D01*
X0029199Y0086924D02*
X0055194Y0086924D01*
X0054157Y0086325D02*
X0030236Y0086325D01*
X0031068Y0085727D02*
X0053379Y0085727D01*
X0052781Y0085128D02*
X0031666Y0085128D01*
X0032265Y0084530D02*
X0052182Y0084530D01*
X0051583Y0083931D02*
X0032863Y0083931D01*
X0033332Y0083333D02*
X0051146Y0083333D01*
X0050801Y0082734D02*
X0033677Y0082734D01*
X0034023Y0082135D02*
X0050455Y0082135D01*
X0050109Y0081537D02*
X0034368Y0081537D01*
X0034714Y0080938D02*
X0049764Y0080938D01*
X0049566Y0080340D02*
X0034935Y0080340D01*
X0035095Y0079741D02*
X0049405Y0079741D01*
X0049245Y0079143D02*
X0035256Y0079143D01*
X0035416Y0078544D02*
X0049085Y0078544D01*
X0048924Y0077946D02*
X0035576Y0077946D01*
X0035693Y0077347D02*
X0048827Y0077347D01*
X0048827Y0076749D02*
X0035693Y0076749D01*
X0035693Y0076150D02*
X0048827Y0076150D01*
X0048827Y0075552D02*
X0035693Y0075552D01*
X0035693Y0074953D02*
X0048827Y0074953D01*
X0048827Y0074355D02*
X0035693Y0074355D01*
X0035584Y0073756D02*
X0048956Y0073756D01*
X0049117Y0073158D02*
X0035423Y0073158D01*
X0035263Y0072559D02*
X0049277Y0072559D01*
X0049437Y0071961D02*
X0035103Y0071961D01*
X0034942Y0071362D02*
X0049598Y0071362D01*
X0049833Y0070764D02*
X0034730Y0070764D01*
X0034384Y0070165D02*
X0050179Y0070165D01*
X0050524Y0069567D02*
X0034039Y0069567D01*
X0033693Y0068968D02*
X0050870Y0068968D01*
X0051215Y0068370D02*
X0033348Y0068370D01*
X0032891Y0067771D02*
X0051703Y0067771D01*
X0052302Y0067173D02*
X0032292Y0067173D01*
X0031694Y0066574D02*
X0052900Y0066574D01*
X0053499Y0065976D02*
X0031095Y0065976D01*
X0030284Y0065377D02*
X0054364Y0065377D01*
X0055401Y0064779D02*
X0029247Y0064779D01*
X0028210Y0064180D02*
X0056438Y0064180D01*
X0058449Y0063582D02*
X0026346Y0063582D01*
X0063472Y0166526D02*
X0081102Y0166526D01*
X0081102Y0167124D02*
X0063472Y0167124D01*
X0063472Y0167723D02*
X0081102Y0167723D01*
X0081102Y0168321D02*
X0063472Y0168321D01*
X0063472Y0168920D02*
X0081102Y0168920D01*
X0081102Y0169518D02*
X0063472Y0169518D01*
X0063472Y0170117D02*
X0081102Y0170117D01*
X0081102Y0170715D02*
X0063472Y0170715D01*
X0063472Y0171314D02*
X0081102Y0171314D01*
X0081102Y0171912D02*
X0063472Y0171912D01*
X0063472Y0172511D02*
X0081102Y0172511D01*
X0081102Y0173109D02*
X0063472Y0173109D01*
X0063472Y0173708D02*
X0081102Y0173708D01*
X0081102Y0174306D02*
X0063472Y0174306D01*
X0063472Y0174905D02*
X0081102Y0174905D01*
X0081102Y0175503D02*
X0063472Y0175503D01*
X0063472Y0176102D02*
X0081102Y0176102D01*
X0081102Y0176700D02*
X0063472Y0176700D01*
X0063472Y0177299D02*
X0081102Y0177299D01*
X0081102Y0177897D02*
X0063472Y0177897D01*
X0063472Y0178496D02*
X0081102Y0178496D01*
X0081102Y0179094D02*
X0063472Y0179094D01*
X0063472Y0179693D02*
X0081102Y0179693D01*
X0081102Y0180291D02*
X0063472Y0180291D01*
X0063472Y0180890D02*
X0081102Y0180890D01*
X0081102Y0181488D02*
X0063472Y0181488D01*
X0063472Y0182087D02*
X0081102Y0182087D01*
X0081102Y0182685D02*
X0063472Y0182685D01*
X0063472Y0183284D02*
X0081102Y0183284D01*
X0081102Y0183882D02*
X0063472Y0183882D01*
X0063472Y0184481D02*
X0081102Y0184481D01*
X0081102Y0185079D02*
X0063472Y0185079D01*
X0063293Y0185678D02*
X0081102Y0185678D01*
M02*
