G75*
%MOIN*%
%OFA0B0*%
%FSLAX25Y25*%
%IPPOS*%
%LPD*%
%AMOC8*
5,1,8,0,0,1.08239X$1,22.5*
%
%ADD10C,0.00394*%
%ADD11C,0.00000*%
%ADD12C,0.03937*%
D10*
X0001998Y0001336D02*
X0001998Y0507242D01*
X0081998Y0507242D01*
X0081998Y0001336D01*
X0001998Y0001336D01*
X0013186Y0462280D02*
X0012521Y0462296D01*
X0011413Y0462343D01*
X0011376Y0462528D01*
X0011405Y0464967D01*
X0011418Y0466963D01*
X0011423Y0469181D01*
X0011412Y0470734D01*
X0011404Y0472736D01*
X0011375Y0475405D01*
X0011437Y0475568D01*
X0012548Y0475617D01*
X0013438Y0475644D01*
X0014327Y0475653D01*
X0014995Y0475637D01*
X0015660Y0475587D01*
X0016101Y0475531D01*
X0016540Y0475460D01*
X0016759Y0475416D01*
X0017191Y0475310D01*
X0017403Y0475245D01*
X0017613Y0475171D01*
X0017819Y0475086D01*
X0018020Y0474991D01*
X0018215Y0474884D01*
X0018402Y0474765D01*
X0018582Y0474633D01*
X0018751Y0474488D01*
X0018909Y0474332D01*
X0019054Y0474164D01*
X0019186Y0473985D01*
X0019302Y0473795D01*
X0019398Y0473594D01*
X0019476Y0473386D01*
X0019535Y0473171D01*
X0019575Y0472953D01*
X0019600Y0472732D01*
X0019609Y0472509D01*
X0019602Y0472287D01*
X0019578Y0472066D01*
X0019535Y0471848D01*
X0019474Y0471634D01*
X0019395Y0471426D01*
X0019299Y0471225D01*
X0019189Y0471032D01*
X0019065Y0470847D01*
X0018900Y0470734D01*
X0017342Y0470734D01*
X0017376Y0470839D01*
X0017533Y0470997D01*
X0017661Y0471178D01*
X0017758Y0471378D01*
X0017831Y0471588D01*
X0017880Y0471805D01*
X0017906Y0472026D01*
X0017911Y0472248D01*
X0017895Y0472470D01*
X0017855Y0472688D01*
X0017788Y0472900D01*
X0017694Y0473102D01*
X0017575Y0473289D01*
X0017435Y0473462D01*
X0017277Y0473618D01*
X0017102Y0473757D01*
X0016915Y0473876D01*
X0016716Y0473975D01*
X0016509Y0474056D01*
X0016296Y0474122D01*
X0016080Y0474176D01*
X0015643Y0474256D01*
X0015202Y0474313D01*
X0014980Y0474332D01*
X0014536Y0474352D01*
X0014091Y0474351D01*
X0013201Y0474325D01*
X0013009Y0474292D01*
X0012979Y0472290D01*
X0012970Y0470734D01*
X0011412Y0470734D01*
X0012965Y0470734D01*
X0012971Y0470517D01*
X0012977Y0466304D01*
X0013001Y0463643D01*
X0013195Y0463604D01*
X0013638Y0463583D01*
X0014304Y0463577D01*
X0014969Y0463591D01*
X0015633Y0463630D01*
X0016075Y0463670D01*
X0016515Y0463726D01*
X0016733Y0463765D01*
X0016949Y0463812D01*
X0017164Y0463870D01*
X0017375Y0463938D01*
X0017582Y0464017D01*
X0017784Y0464108D01*
X0017980Y0464212D01*
X0018167Y0464330D01*
X0018343Y0464465D01*
X0018505Y0464616D01*
X0018651Y0464783D01*
X0018778Y0464965D01*
X0018886Y0465158D01*
X0018973Y0465362D01*
X0019037Y0465574D01*
X0019078Y0465792D01*
X0019100Y0466013D01*
X0019102Y0466234D01*
X0019087Y0466456D01*
X0019051Y0466674D01*
X0018992Y0466888D01*
X0018910Y0467094D01*
X0018807Y0467290D01*
X0018687Y0467477D01*
X0018552Y0467652D01*
X0018404Y0467817D01*
X0018239Y0467966D01*
X0018058Y0468094D01*
X0017866Y0468204D01*
X0017665Y0468298D01*
X0017458Y0468378D01*
X0017247Y0468445D01*
X0017032Y0468499D01*
X0016814Y0468540D01*
X0016594Y0468567D01*
X0016373Y0468583D01*
X0015708Y0468585D01*
X0015042Y0468571D01*
X0014825Y0468573D01*
X0014679Y0469672D01*
X0014802Y0469764D01*
X0015244Y0469797D01*
X0015464Y0469825D01*
X0015682Y0469863D01*
X0015899Y0469911D01*
X0016112Y0469973D01*
X0016320Y0470049D01*
X0016523Y0470138D01*
X0016720Y0470241D01*
X0016908Y0470358D01*
X0017076Y0470501D01*
X0017216Y0470673D01*
X0017411Y0470734D01*
X0018963Y0470734D01*
X0018871Y0470564D01*
X0018721Y0470401D01*
X0018561Y0470247D01*
X0018393Y0470103D01*
X0018216Y0469969D01*
X0018030Y0469849D01*
X0017836Y0469742D01*
X0017634Y0469650D01*
X0017476Y0469537D01*
X0017649Y0469471D01*
X0017869Y0469438D01*
X0018086Y0469394D01*
X0018301Y0469338D01*
X0018512Y0469273D01*
X0018721Y0469197D01*
X0018925Y0469112D01*
X0019125Y0469015D01*
X0019318Y0468906D01*
X0019503Y0468784D01*
X0019680Y0468650D01*
X0019847Y0468504D01*
X0020004Y0468348D01*
X0020151Y0468182D01*
X0020286Y0468006D01*
X0020407Y0467820D01*
X0020513Y0467625D01*
X0020603Y0467423D01*
X0020674Y0467213D01*
X0020727Y0466998D01*
X0020764Y0466779D01*
X0020787Y0466558D01*
X0020799Y0466337D01*
X0020799Y0466115D01*
X0020787Y0465894D01*
X0020761Y0465674D01*
X0020720Y0465456D01*
X0020665Y0465241D01*
X0020594Y0465031D01*
X0020509Y0464826D01*
X0020409Y0464628D01*
X0020296Y0464437D01*
X0020172Y0464254D01*
X0020035Y0464079D01*
X0019888Y0463914D01*
X0019730Y0463758D01*
X0019562Y0463613D01*
X0019387Y0463477D01*
X0019204Y0463351D01*
X0019016Y0463234D01*
X0018822Y0463127D01*
X0018422Y0462936D01*
X0018010Y0462771D01*
X0017589Y0462633D01*
X0017160Y0462520D01*
X0016943Y0462472D01*
X0016506Y0462397D01*
X0016066Y0462341D01*
X0015624Y0462302D01*
X0014960Y0462271D01*
X0014073Y0462268D01*
X0013186Y0462280D01*
X0013000Y0463755D02*
X0011391Y0463755D01*
X0011395Y0464147D02*
X0012996Y0464147D01*
X0012993Y0464539D02*
X0011400Y0464539D01*
X0011405Y0464931D02*
X0012989Y0464931D01*
X0012986Y0465323D02*
X0011408Y0465323D01*
X0011410Y0465716D02*
X0012982Y0465716D01*
X0012979Y0466108D02*
X0011412Y0466108D01*
X0011415Y0466500D02*
X0012977Y0466500D01*
X0012976Y0466892D02*
X0011417Y0466892D01*
X0011419Y0467284D02*
X0012976Y0467284D01*
X0012975Y0467677D02*
X0011420Y0467677D01*
X0011421Y0468069D02*
X0012974Y0468069D01*
X0012974Y0468461D02*
X0011421Y0468461D01*
X0011422Y0468853D02*
X0012973Y0468853D01*
X0012973Y0469245D02*
X0011423Y0469245D01*
X0011420Y0469638D02*
X0012972Y0469638D01*
X0012971Y0470030D02*
X0011417Y0470030D01*
X0011415Y0470422D02*
X0012971Y0470422D01*
X0012970Y0470814D02*
X0011412Y0470814D01*
X0011410Y0471207D02*
X0012973Y0471207D01*
X0012975Y0471599D02*
X0011409Y0471599D01*
X0011407Y0471991D02*
X0012977Y0471991D01*
X0012980Y0472383D02*
X0011405Y0472383D01*
X0011404Y0472775D02*
X0012986Y0472775D01*
X0012992Y0473168D02*
X0011399Y0473168D01*
X0011395Y0473560D02*
X0012998Y0473560D01*
X0013004Y0473952D02*
X0011391Y0473952D01*
X0011387Y0474344D02*
X0013866Y0474344D01*
X0014702Y0474344D02*
X0018896Y0474344D01*
X0019206Y0473952D02*
X0016762Y0473952D01*
X0017336Y0473560D02*
X0019411Y0473560D01*
X0019535Y0473168D02*
X0017652Y0473168D01*
X0017827Y0472775D02*
X0019595Y0472775D01*
X0019605Y0472383D02*
X0017901Y0472383D01*
X0017902Y0471991D02*
X0019563Y0471991D01*
X0019460Y0471599D02*
X0017833Y0471599D01*
X0017675Y0471207D02*
X0019289Y0471207D01*
X0019017Y0470814D02*
X0017368Y0470814D01*
X0016984Y0470422D02*
X0018740Y0470422D01*
X0018297Y0470030D02*
X0016267Y0470030D01*
X0017617Y0469638D02*
X0014684Y0469638D01*
X0014736Y0469245D02*
X0018587Y0469245D01*
X0019398Y0468853D02*
X0014788Y0468853D01*
X0016676Y0463755D02*
X0019726Y0463755D01*
X0020088Y0464147D02*
X0017857Y0464147D01*
X0018422Y0464539D02*
X0020356Y0464539D01*
X0020553Y0464931D02*
X0018754Y0464931D01*
X0018956Y0465323D02*
X0020686Y0465323D01*
X0020766Y0465716D02*
X0019064Y0465716D01*
X0019101Y0466108D02*
X0020799Y0466108D01*
X0020790Y0466500D02*
X0019080Y0466500D01*
X0018991Y0466892D02*
X0020745Y0466892D01*
X0020650Y0467284D02*
X0018811Y0467284D01*
X0018530Y0467677D02*
X0020485Y0467677D01*
X0020237Y0468069D02*
X0018094Y0468069D01*
X0017185Y0468461D02*
X0019890Y0468461D01*
X0019221Y0463362D02*
X0011386Y0463362D01*
X0011381Y0462970D02*
X0018494Y0462970D01*
X0017379Y0462578D02*
X0011377Y0462578D01*
X0011382Y0474736D02*
X0018441Y0474736D01*
X0017716Y0475129D02*
X0011378Y0475129D01*
X0011419Y0475521D02*
X0016165Y0475521D01*
X0023850Y0472338D02*
X0023799Y0472169D01*
X0023840Y0469507D01*
X0023847Y0468620D01*
X0023820Y0466180D01*
X0023817Y0465071D01*
X0023825Y0464849D01*
X0023842Y0464628D01*
X0023870Y0464408D01*
X0023911Y0464190D01*
X0023965Y0463975D01*
X0024033Y0463764D01*
X0024117Y0463559D01*
X0024217Y0463361D01*
X0024333Y0463172D01*
X0024465Y0462994D01*
X0024613Y0462829D01*
X0024775Y0462677D01*
X0024950Y0462540D01*
X0025136Y0462420D01*
X0025333Y0462318D01*
X0025538Y0462233D01*
X0025748Y0462164D01*
X0025964Y0462112D01*
X0026183Y0462074D01*
X0026403Y0462051D01*
X0026625Y0462039D01*
X0026846Y0462040D01*
X0027068Y0462051D01*
X0027288Y0462074D01*
X0027508Y0462108D01*
X0027725Y0462153D01*
X0027940Y0462208D01*
X0028152Y0462271D01*
X0028568Y0462426D01*
X0028971Y0462610D01*
X0029566Y0462909D01*
X0029955Y0463122D01*
X0030336Y0463349D01*
X0030515Y0463439D01*
X0030515Y0462330D01*
X0030702Y0462296D01*
X0032033Y0462296D01*
X0031998Y0466510D01*
X0031994Y0468063D01*
X0032001Y0470282D01*
X0032033Y0472278D01*
X0031872Y0472338D01*
X0030541Y0472338D01*
X0030467Y0472192D01*
X0030511Y0469087D01*
X0030512Y0466646D01*
X0030497Y0464872D01*
X0030432Y0464683D01*
X0030246Y0464562D01*
X0030055Y0464449D01*
X0029861Y0464342D01*
X0029466Y0464141D01*
X0028862Y0463860D01*
X0028450Y0463695D01*
X0028240Y0463624D01*
X0028027Y0463562D01*
X0027812Y0463510D01*
X0027594Y0463468D01*
X0027374Y0463438D01*
X0027153Y0463421D01*
X0026931Y0463418D01*
X0026710Y0463435D01*
X0026492Y0463475D01*
X0026282Y0463544D01*
X0026085Y0463646D01*
X0025910Y0463781D01*
X0025763Y0463947D01*
X0025647Y0464136D01*
X0025556Y0464338D01*
X0025487Y0464549D01*
X0025435Y0464764D01*
X0025397Y0464983D01*
X0025371Y0465203D01*
X0025346Y0465646D01*
X0025326Y0468973D01*
X0025331Y0469861D01*
X0025364Y0472301D01*
X0025181Y0472338D01*
X0023850Y0472338D01*
X0023802Y0471991D02*
X0025360Y0471991D01*
X0025355Y0471599D02*
X0023808Y0471599D01*
X0023814Y0471207D02*
X0025350Y0471207D01*
X0025344Y0470814D02*
X0023820Y0470814D01*
X0023826Y0470422D02*
X0025339Y0470422D01*
X0025334Y0470030D02*
X0023832Y0470030D01*
X0023838Y0469638D02*
X0025330Y0469638D01*
X0025328Y0469245D02*
X0023842Y0469245D01*
X0023845Y0468853D02*
X0025327Y0468853D01*
X0025329Y0468461D02*
X0023845Y0468461D01*
X0023841Y0468069D02*
X0025331Y0468069D01*
X0025334Y0467677D02*
X0023836Y0467677D01*
X0023832Y0467284D02*
X0025336Y0467284D01*
X0025338Y0466892D02*
X0023828Y0466892D01*
X0023824Y0466500D02*
X0025341Y0466500D01*
X0025343Y0466108D02*
X0023820Y0466108D01*
X0023819Y0465716D02*
X0025346Y0465716D01*
X0025364Y0465323D02*
X0023818Y0465323D01*
X0023822Y0464931D02*
X0025406Y0464931D01*
X0025490Y0464539D02*
X0023853Y0464539D01*
X0023922Y0464147D02*
X0025642Y0464147D01*
X0025945Y0463755D02*
X0024037Y0463755D01*
X0024216Y0463362D02*
X0030363Y0463362D01*
X0030515Y0463362D02*
X0032024Y0463362D01*
X0032028Y0462970D02*
X0030515Y0462970D01*
X0030515Y0462578D02*
X0032031Y0462578D01*
X0032021Y0463755D02*
X0028598Y0463755D01*
X0029478Y0464147D02*
X0032018Y0464147D01*
X0032014Y0464539D02*
X0030207Y0464539D01*
X0030497Y0464931D02*
X0032011Y0464931D01*
X0032008Y0465323D02*
X0030500Y0465323D01*
X0030504Y0465716D02*
X0032004Y0465716D01*
X0032001Y0466108D02*
X0030507Y0466108D01*
X0030510Y0466500D02*
X0031998Y0466500D01*
X0031997Y0466892D02*
X0030512Y0466892D01*
X0030511Y0467284D02*
X0031996Y0467284D01*
X0031995Y0467677D02*
X0030511Y0467677D01*
X0030511Y0468069D02*
X0031994Y0468069D01*
X0031995Y0468461D02*
X0030511Y0468461D01*
X0030511Y0468853D02*
X0031997Y0468853D01*
X0031998Y0469245D02*
X0030509Y0469245D01*
X0030503Y0469638D02*
X0031999Y0469638D01*
X0032001Y0470030D02*
X0030498Y0470030D01*
X0030492Y0470422D02*
X0032004Y0470422D01*
X0032010Y0470814D02*
X0030487Y0470814D01*
X0030481Y0471207D02*
X0032016Y0471207D01*
X0032022Y0471599D02*
X0030476Y0471599D01*
X0030470Y0471991D02*
X0032028Y0471991D01*
X0034376Y0471991D02*
X0041203Y0471991D01*
X0041203Y0472147D02*
X0041171Y0472338D01*
X0037834Y0472338D01*
X0037829Y0472777D01*
X0037833Y0473000D01*
X0037848Y0473222D01*
X0037875Y0473443D01*
X0037913Y0473662D01*
X0037966Y0473878D01*
X0038034Y0474089D01*
X0038120Y0474295D01*
X0038225Y0474490D01*
X0038351Y0474673D01*
X0038501Y0474837D01*
X0038668Y0474984D01*
X0038847Y0475116D01*
X0039037Y0475232D01*
X0039237Y0475329D01*
X0039445Y0475408D01*
X0039659Y0475467D01*
X0039878Y0475510D01*
X0040098Y0475541D01*
X0040541Y0475575D01*
X0040764Y0475582D01*
X0041431Y0475583D01*
X0041268Y0476683D01*
X0041192Y0476853D01*
X0040525Y0476851D01*
X0040303Y0476844D01*
X0039859Y0476807D01*
X0039639Y0476777D01*
X0039420Y0476739D01*
X0039203Y0476691D01*
X0038988Y0476632D01*
X0038777Y0476562D01*
X0038570Y0476480D01*
X0038368Y0476388D01*
X0038170Y0476287D01*
X0037978Y0476175D01*
X0037793Y0476051D01*
X0037616Y0475916D01*
X0037450Y0475769D01*
X0037295Y0475609D01*
X0037150Y0475441D01*
X0037014Y0475264D01*
X0036890Y0475080D01*
X0036777Y0474888D01*
X0036679Y0474689D01*
X0036594Y0474483D01*
X0036524Y0474272D01*
X0036466Y0474057D01*
X0036419Y0473840D01*
X0036383Y0473620D01*
X0036357Y0473400D01*
X0036340Y0473178D01*
X0036332Y0472955D01*
X0036330Y0472511D01*
X0036280Y0472338D01*
X0034501Y0472338D01*
X0034376Y0472241D01*
X0034376Y0471351D01*
X0034424Y0471177D01*
X0036204Y0471177D01*
X0036330Y0471082D01*
X0036322Y0467078D01*
X0036291Y0462406D01*
X0036403Y0462296D01*
X0037737Y0462296D01*
X0037858Y0462397D01*
X0037838Y0465289D01*
X0037829Y0471072D01*
X0037946Y0471177D01*
X0041061Y0471177D01*
X0041203Y0471258D01*
X0041203Y0472147D01*
X0041203Y0471599D02*
X0034376Y0471599D01*
X0034416Y0471207D02*
X0041112Y0471207D01*
X0041838Y0471351D02*
X0041886Y0471177D01*
X0043666Y0471177D01*
X0043793Y0471082D01*
X0043785Y0467078D01*
X0043754Y0462406D01*
X0043865Y0462296D01*
X0045200Y0462296D01*
X0045320Y0462397D01*
X0045301Y0465289D01*
X0045291Y0471072D01*
X0045409Y0471177D01*
X0048523Y0471177D01*
X0048665Y0471258D01*
X0048665Y0472147D01*
X0048634Y0472338D01*
X0045297Y0472338D01*
X0045291Y0472777D01*
X0045296Y0473000D01*
X0045311Y0473222D01*
X0045337Y0473443D01*
X0045376Y0473662D01*
X0045428Y0473878D01*
X0045496Y0474089D01*
X0045582Y0474295D01*
X0045687Y0474490D01*
X0045814Y0474673D01*
X0045964Y0474837D01*
X0046131Y0474984D01*
X0046310Y0475116D01*
X0046500Y0475232D01*
X0046699Y0475329D01*
X0046907Y0475408D01*
X0047122Y0475467D01*
X0047340Y0475510D01*
X0047560Y0475541D01*
X0048004Y0475575D01*
X0048226Y0475582D01*
X0048893Y0475583D01*
X0048730Y0476683D01*
X0048655Y0476853D01*
X0047987Y0476851D01*
X0047765Y0476844D01*
X0047322Y0476807D01*
X0047101Y0476777D01*
X0046882Y0476739D01*
X0046665Y0476691D01*
X0046451Y0476632D01*
X0046240Y0476562D01*
X0046033Y0476480D01*
X0045830Y0476388D01*
X0045632Y0476287D01*
X0045440Y0476175D01*
X0045255Y0476051D01*
X0045079Y0475916D01*
X0044912Y0475769D01*
X0044757Y0475609D01*
X0044612Y0475441D01*
X0044477Y0475264D01*
X0044352Y0475080D01*
X0044240Y0474888D01*
X0044141Y0474689D01*
X0044056Y0474483D01*
X0043986Y0474272D01*
X0043929Y0474057D01*
X0043882Y0473840D01*
X0043846Y0473620D01*
X0043820Y0473400D01*
X0043803Y0473178D01*
X0043794Y0472955D01*
X0043793Y0472511D01*
X0043743Y0472338D01*
X0041963Y0472338D01*
X0041838Y0472241D01*
X0041838Y0471351D01*
X0041878Y0471207D02*
X0048575Y0471207D01*
X0048665Y0471599D02*
X0041838Y0471599D01*
X0041838Y0471991D02*
X0048665Y0471991D01*
X0047419Y0475521D02*
X0044681Y0475521D01*
X0044385Y0475129D02*
X0046330Y0475129D01*
X0045872Y0474736D02*
X0044165Y0474736D01*
X0044010Y0474344D02*
X0045609Y0474344D01*
X0045452Y0473952D02*
X0043906Y0473952D01*
X0043839Y0473560D02*
X0045358Y0473560D01*
X0045307Y0473168D02*
X0043803Y0473168D01*
X0043794Y0472775D02*
X0045291Y0472775D01*
X0045296Y0472383D02*
X0043756Y0472383D01*
X0043792Y0470814D02*
X0045292Y0470814D01*
X0045292Y0470422D02*
X0043792Y0470422D01*
X0043791Y0470030D02*
X0045293Y0470030D01*
X0045294Y0469638D02*
X0043790Y0469638D01*
X0043789Y0469245D02*
X0045294Y0469245D01*
X0045295Y0468853D02*
X0043788Y0468853D01*
X0043788Y0468461D02*
X0045296Y0468461D01*
X0045296Y0468069D02*
X0043787Y0468069D01*
X0043786Y0467677D02*
X0045297Y0467677D01*
X0045298Y0467284D02*
X0043785Y0467284D01*
X0043783Y0466892D02*
X0045298Y0466892D01*
X0045299Y0466500D02*
X0043781Y0466500D01*
X0043778Y0466108D02*
X0045300Y0466108D01*
X0045300Y0465716D02*
X0043776Y0465716D01*
X0043773Y0465323D02*
X0045301Y0465323D01*
X0045303Y0464931D02*
X0043771Y0464931D01*
X0043768Y0464539D02*
X0045306Y0464539D01*
X0045309Y0464147D02*
X0043765Y0464147D01*
X0043763Y0463755D02*
X0045311Y0463755D01*
X0045314Y0463362D02*
X0043760Y0463362D01*
X0043758Y0462970D02*
X0045317Y0462970D01*
X0045319Y0462578D02*
X0043755Y0462578D01*
X0045075Y0475913D02*
X0048845Y0475913D01*
X0048786Y0476305D02*
X0045669Y0476305D01*
X0046696Y0476698D02*
X0048724Y0476698D01*
X0050429Y0470391D02*
X0050318Y0470198D01*
X0050216Y0470001D01*
X0050121Y0469799D01*
X0050035Y0469594D01*
X0049958Y0469385D01*
X0049891Y0469173D01*
X0049832Y0468958D01*
X0049782Y0468741D01*
X0049710Y0468302D01*
X0049685Y0468081D01*
X0049660Y0467636D01*
X0049663Y0467191D01*
X0049677Y0466969D01*
X0049701Y0466748D01*
X0049734Y0466528D01*
X0049777Y0466309D01*
X0049830Y0466093D01*
X0049894Y0465880D01*
X0049969Y0465670D01*
X0050053Y0465464D01*
X0050148Y0465263D01*
X0050251Y0465065D01*
X0050479Y0464683D01*
X0050604Y0464499D01*
X0050737Y0464320D01*
X0050878Y0464148D01*
X0051027Y0463983D01*
X0051185Y0463825D01*
X0051348Y0463674D01*
X0051519Y0463532D01*
X0051697Y0463397D01*
X0051880Y0463271D01*
X0052069Y0463154D01*
X0052263Y0463045D01*
X0052461Y0462943D01*
X0052663Y0462849D01*
X0053076Y0462683D01*
X0053501Y0462549D01*
X0053933Y0462443D01*
X0054152Y0462401D01*
X0054592Y0462334D01*
X0054813Y0462309D01*
X0055257Y0462275D01*
X0055925Y0462257D01*
X0056592Y0462268D01*
X0057260Y0462300D01*
X0057478Y0462319D01*
X0057627Y0463422D01*
X0057648Y0463634D01*
X0056981Y0463591D01*
X0056314Y0463567D01*
X0055646Y0463573D01*
X0055202Y0463600D01*
X0054759Y0463652D01*
X0054540Y0463689D01*
X0054322Y0463734D01*
X0054107Y0463791D01*
X0053895Y0463858D01*
X0053686Y0463935D01*
X0053481Y0464022D01*
X0053280Y0464118D01*
X0053085Y0464226D01*
X0052897Y0464344D01*
X0052714Y0464472D01*
X0052539Y0464609D01*
X0052371Y0464755D01*
X0052213Y0464912D01*
X0052064Y0465077D01*
X0051927Y0465252D01*
X0051801Y0465436D01*
X0051687Y0465627D01*
X0051586Y0465826D01*
X0051497Y0466030D01*
X0051419Y0466238D01*
X0051351Y0466450D01*
X0051295Y0466666D01*
X0051250Y0466884D01*
X0051216Y0467104D01*
X0051192Y0467325D01*
X0051179Y0467547D01*
X0051261Y0467684D01*
X0053933Y0467684D01*
X0054082Y0467758D01*
X0054082Y0468649D01*
X0054006Y0468796D01*
X0051334Y0468796D01*
X0051341Y0468974D01*
X0051405Y0469187D01*
X0051478Y0469397D01*
X0051562Y0469603D01*
X0051657Y0469805D01*
X0051764Y0470000D01*
X0051883Y0470188D01*
X0052014Y0470368D01*
X0052157Y0470538D01*
X0052312Y0470698D01*
X0052479Y0470846D01*
X0052659Y0470977D01*
X0052851Y0471089D01*
X0053053Y0471182D01*
X0053262Y0471257D01*
X0053478Y0471313D01*
X0053697Y0471353D01*
X0053918Y0471377D01*
X0054082Y0471445D01*
X0054082Y0472559D01*
X0054300Y0472595D01*
X0054523Y0472589D01*
X0054745Y0472575D01*
X0054967Y0472551D01*
X0055187Y0472516D01*
X0055405Y0472471D01*
X0055620Y0472413D01*
X0055832Y0472343D01*
X0056039Y0472260D01*
X0056240Y0472164D01*
X0056434Y0472054D01*
X0056620Y0471932D01*
X0056797Y0471797D01*
X0056965Y0471650D01*
X0057123Y0471493D01*
X0057270Y0471326D01*
X0057407Y0471150D01*
X0057533Y0470967D01*
X0057649Y0470776D01*
X0057755Y0470580D01*
X0057851Y0470379D01*
X0057937Y0470174D01*
X0058014Y0469965D01*
X0058082Y0469752D01*
X0058141Y0469537D01*
X0058191Y0469320D01*
X0058267Y0468881D01*
X0058317Y0468438D01*
X0058333Y0468216D01*
X0058349Y0467771D01*
X0058214Y0467684D01*
X0054202Y0467684D01*
X0054082Y0467787D01*
X0054082Y0468678D01*
X0054187Y0468796D01*
X0056639Y0468796D01*
X0056805Y0468845D01*
X0056769Y0469065D01*
X0056723Y0469283D01*
X0056666Y0469498D01*
X0056595Y0469710D01*
X0056511Y0469916D01*
X0056413Y0470116D01*
X0056300Y0470308D01*
X0056171Y0470490D01*
X0056027Y0470660D01*
X0055870Y0470818D01*
X0055700Y0470961D01*
X0055515Y0471086D01*
X0055319Y0471191D01*
X0055113Y0471276D01*
X0054900Y0471341D01*
X0054682Y0471386D01*
X0054461Y0471414D01*
X0054238Y0471425D01*
X0054082Y0471444D01*
X0054082Y0472559D01*
X0053638Y0472525D01*
X0053417Y0472496D01*
X0053198Y0472456D01*
X0052981Y0472406D01*
X0052768Y0472344D01*
X0052558Y0472270D01*
X0052352Y0472183D01*
X0052152Y0472085D01*
X0051958Y0471977D01*
X0051769Y0471859D01*
X0051588Y0471730D01*
X0051414Y0471591D01*
X0051249Y0471442D01*
X0051093Y0471283D01*
X0050946Y0471115D01*
X0050674Y0470763D01*
X0050548Y0470580D01*
X0050429Y0470391D01*
X0050448Y0470422D02*
X0052059Y0470422D01*
X0051783Y0470030D02*
X0050231Y0470030D01*
X0050053Y0469638D02*
X0051578Y0469638D01*
X0051425Y0469245D02*
X0049914Y0469245D01*
X0049808Y0468853D02*
X0051336Y0468853D01*
X0051256Y0467677D02*
X0049662Y0467677D01*
X0049685Y0468069D02*
X0054082Y0468069D01*
X0058338Y0468069D01*
X0058315Y0468461D02*
X0054082Y0468461D01*
X0049736Y0468461D01*
X0049662Y0467284D02*
X0051197Y0467284D01*
X0051249Y0466892D02*
X0049685Y0466892D01*
X0049739Y0466500D02*
X0051338Y0466500D01*
X0051468Y0466108D02*
X0049827Y0466108D01*
X0049952Y0465716D02*
X0051642Y0465716D01*
X0051878Y0465323D02*
X0050119Y0465323D01*
X0050331Y0464931D02*
X0052195Y0464931D01*
X0052628Y0464539D02*
X0050577Y0464539D01*
X0050879Y0464147D02*
X0053229Y0464147D01*
X0054245Y0463755D02*
X0051261Y0463755D01*
X0051747Y0463362D02*
X0057619Y0463362D01*
X0057566Y0462970D02*
X0052409Y0462970D01*
X0053408Y0462578D02*
X0057513Y0462578D01*
X0056803Y0468853D02*
X0058270Y0468853D01*
X0058204Y0469245D02*
X0056731Y0469245D01*
X0056619Y0469638D02*
X0058113Y0469638D01*
X0057990Y0470030D02*
X0056455Y0470030D01*
X0056219Y0470422D02*
X0057831Y0470422D01*
X0057626Y0470814D02*
X0055874Y0470814D01*
X0055282Y0471207D02*
X0057363Y0471207D01*
X0057017Y0471599D02*
X0054082Y0471599D01*
X0051424Y0471599D01*
X0051026Y0471207D02*
X0053122Y0471207D01*
X0052443Y0470814D02*
X0050713Y0470814D01*
X0051982Y0471991D02*
X0054082Y0471991D01*
X0056530Y0471991D01*
X0055711Y0472383D02*
X0054082Y0472383D01*
X0052904Y0472383D01*
X0061011Y0472264D02*
X0061038Y0469375D01*
X0061050Y0466708D01*
X0061043Y0464486D01*
X0061013Y0462486D01*
X0061042Y0462296D01*
X0062376Y0462296D01*
X0062577Y0462316D01*
X0062548Y0464093D01*
X0062530Y0466094D01*
X0062531Y0467649D01*
X0062547Y0469427D01*
X0062674Y0469569D01*
X0063482Y0469939D01*
X0063889Y0470118D01*
X0064504Y0470375D01*
X0065126Y0470617D01*
X0065964Y0470914D01*
X0066387Y0471049D01*
X0066815Y0471167D01*
X0066536Y0472471D01*
X0066388Y0472521D01*
X0065964Y0472388D01*
X0065546Y0472236D01*
X0065133Y0472072D01*
X0064519Y0471812D01*
X0064115Y0471627D01*
X0063714Y0471434D01*
X0063318Y0471233D01*
X0062731Y0470916D01*
X0062548Y0470840D01*
X0062548Y0472173D01*
X0062491Y0472338D01*
X0061157Y0472338D01*
X0061011Y0472264D01*
X0061013Y0471991D02*
X0062548Y0471991D01*
X0062548Y0471599D02*
X0061017Y0471599D01*
X0061021Y0471207D02*
X0062548Y0471207D01*
X0063270Y0471207D02*
X0066807Y0471207D01*
X0066723Y0471599D02*
X0064057Y0471599D01*
X0064941Y0471991D02*
X0066639Y0471991D01*
X0066555Y0472383D02*
X0065952Y0472383D01*
X0065683Y0470814D02*
X0061025Y0470814D01*
X0061028Y0470422D02*
X0064625Y0470422D01*
X0063690Y0470030D02*
X0061032Y0470030D01*
X0061036Y0469638D02*
X0062824Y0469638D01*
X0062546Y0469245D02*
X0061039Y0469245D01*
X0061041Y0468853D02*
X0062542Y0468853D01*
X0062538Y0468461D02*
X0061042Y0468461D01*
X0061044Y0468069D02*
X0062535Y0468069D01*
X0062531Y0467677D02*
X0061045Y0467677D01*
X0061047Y0467284D02*
X0062531Y0467284D01*
X0062531Y0466892D02*
X0061049Y0466892D01*
X0061049Y0466500D02*
X0062530Y0466500D01*
X0062530Y0466108D02*
X0061048Y0466108D01*
X0061047Y0465716D02*
X0062534Y0465716D01*
X0062537Y0465323D02*
X0061046Y0465323D01*
X0061045Y0464931D02*
X0062541Y0464931D01*
X0062544Y0464539D02*
X0061043Y0464539D01*
X0061038Y0464147D02*
X0062547Y0464147D01*
X0062554Y0463755D02*
X0061032Y0463755D01*
X0061026Y0463362D02*
X0062560Y0463362D01*
X0062567Y0462970D02*
X0061020Y0462970D01*
X0061014Y0462578D02*
X0062573Y0462578D01*
X0068104Y0462970D02*
X0073011Y0462970D01*
X0073030Y0462981D02*
X0073213Y0463108D01*
X0073385Y0463248D01*
X0073546Y0463401D01*
X0073695Y0463566D01*
X0073830Y0463743D01*
X0073952Y0463929D01*
X0074056Y0464125D01*
X0074142Y0464330D01*
X0074207Y0464543D01*
X0074253Y0464760D01*
X0074279Y0464981D01*
X0074288Y0465203D01*
X0074278Y0465425D01*
X0074251Y0465646D01*
X0074203Y0465863D01*
X0074132Y0466074D01*
X0074040Y0466276D01*
X0073925Y0466466D01*
X0073794Y0466646D01*
X0073649Y0466815D01*
X0073492Y0466972D01*
X0073325Y0467118D01*
X0073149Y0467255D01*
X0072967Y0467382D01*
X0072778Y0467500D01*
X0072387Y0467711D01*
X0071385Y0468193D01*
X0070989Y0468396D01*
X0070603Y0468618D01*
X0070423Y0468748D01*
X0070255Y0468894D01*
X0070103Y0469055D01*
X0069980Y0469240D01*
X0069902Y0469448D01*
X0069872Y0469668D01*
X0069889Y0469889D01*
X0069952Y0470102D01*
X0070049Y0470302D01*
X0070183Y0470479D01*
X0070347Y0470629D01*
X0070530Y0470755D01*
X0070726Y0470860D01*
X0070932Y0470944D01*
X0071145Y0471009D01*
X0071362Y0471058D01*
X0071581Y0471094D01*
X0071802Y0471119D01*
X0072024Y0471133D01*
X0072469Y0471136D01*
X0072913Y0471125D01*
X0074023Y0471058D01*
X0074012Y0471274D01*
X0073916Y0472378D01*
X0073027Y0472413D01*
X0072582Y0472417D01*
X0072138Y0472411D01*
X0071694Y0472381D01*
X0071473Y0472358D01*
X0071032Y0472298D01*
X0070813Y0472258D01*
X0070597Y0472205D01*
X0070384Y0472140D01*
X0070176Y0472063D01*
X0069972Y0471974D01*
X0069775Y0471872D01*
X0069583Y0471759D01*
X0069399Y0471634D01*
X0069225Y0471495D01*
X0069062Y0471345D01*
X0068911Y0471182D01*
X0068772Y0471008D01*
X0068650Y0470822D01*
X0068547Y0470625D01*
X0068463Y0470419D01*
X0068400Y0470206D01*
X0068358Y0469988D01*
X0068337Y0469766D01*
X0068335Y0469544D01*
X0068350Y0469322D01*
X0068383Y0469102D01*
X0068436Y0468886D01*
X0068509Y0468676D01*
X0068603Y0468475D01*
X0068717Y0468284D01*
X0068850Y0468106D01*
X0068997Y0467939D01*
X0069156Y0467783D01*
X0069325Y0467639D01*
X0069504Y0467507D01*
X0069690Y0467385D01*
X0069882Y0467274D01*
X0070275Y0467065D01*
X0070676Y0466872D01*
X0071283Y0466596D01*
X0071678Y0466391D01*
X0071868Y0466276D01*
X0072053Y0466153D01*
X0072230Y0466018D01*
X0072395Y0465869D01*
X0072543Y0465703D01*
X0072652Y0465510D01*
X0072712Y0465296D01*
X0072730Y0465075D01*
X0072714Y0464853D01*
X0072662Y0464637D01*
X0072572Y0464434D01*
X0072445Y0464252D01*
X0072287Y0464096D01*
X0072109Y0463963D01*
X0071917Y0463851D01*
X0071716Y0463757D01*
X0071506Y0463682D01*
X0071291Y0463626D01*
X0071072Y0463586D01*
X0070631Y0463534D01*
X0070187Y0463502D01*
X0069742Y0463498D01*
X0069075Y0463518D01*
X0068632Y0463547D01*
X0068188Y0463585D01*
X0068080Y0463487D01*
X0068131Y0462376D01*
X0068277Y0462282D01*
X0069164Y0462213D01*
X0069608Y0462197D01*
X0069830Y0462198D01*
X0070275Y0462211D01*
X0070497Y0462226D01*
X0070939Y0462274D01*
X0071159Y0462307D01*
X0071595Y0462394D01*
X0072023Y0462515D01*
X0072233Y0462589D01*
X0072439Y0462672D01*
X0072642Y0462764D01*
X0072839Y0462867D01*
X0073030Y0462981D01*
X0073506Y0463362D02*
X0068086Y0463362D01*
X0068122Y0462578D02*
X0072202Y0462578D01*
X0071710Y0463755D02*
X0073838Y0463755D01*
X0074065Y0464147D02*
X0072339Y0464147D01*
X0072619Y0464539D02*
X0074206Y0464539D01*
X0074273Y0464931D02*
X0072719Y0464931D01*
X0072704Y0465323D02*
X0074283Y0465323D01*
X0074235Y0465716D02*
X0072531Y0465716D01*
X0072112Y0466108D02*
X0074116Y0466108D01*
X0073901Y0466500D02*
X0071468Y0466500D01*
X0070635Y0466892D02*
X0073572Y0466892D01*
X0073107Y0467284D02*
X0069864Y0467284D01*
X0069281Y0467677D02*
X0072450Y0467677D01*
X0071643Y0468069D02*
X0068883Y0468069D01*
X0068611Y0468461D02*
X0070875Y0468461D01*
X0070302Y0468853D02*
X0068447Y0468853D01*
X0068361Y0469245D02*
X0069978Y0469245D01*
X0069877Y0469638D02*
X0068336Y0469638D01*
X0068367Y0470030D02*
X0069930Y0470030D01*
X0070140Y0470422D02*
X0068464Y0470422D01*
X0068646Y0470814D02*
X0070642Y0470814D01*
X0070012Y0471991D02*
X0073950Y0471991D01*
X0073984Y0471599D02*
X0069356Y0471599D01*
X0068934Y0471207D02*
X0074015Y0471207D01*
X0073786Y0472383D02*
X0071730Y0472383D01*
X0041382Y0475913D02*
X0037613Y0475913D01*
X0037219Y0475521D02*
X0039956Y0475521D01*
X0038868Y0475129D02*
X0036922Y0475129D01*
X0036702Y0474736D02*
X0038409Y0474736D01*
X0038146Y0474344D02*
X0036548Y0474344D01*
X0036443Y0473952D02*
X0037990Y0473952D01*
X0037895Y0473560D02*
X0036376Y0473560D01*
X0036340Y0473168D02*
X0037845Y0473168D01*
X0037829Y0472775D02*
X0036331Y0472775D01*
X0036293Y0472383D02*
X0037834Y0472383D01*
X0037829Y0470814D02*
X0036330Y0470814D01*
X0036329Y0470422D02*
X0037830Y0470422D01*
X0037831Y0470030D02*
X0036328Y0470030D01*
X0036327Y0469638D02*
X0037831Y0469638D01*
X0037832Y0469245D02*
X0036327Y0469245D01*
X0036326Y0468853D02*
X0037832Y0468853D01*
X0037833Y0468461D02*
X0036325Y0468461D01*
X0036324Y0468069D02*
X0037834Y0468069D01*
X0037834Y0467677D02*
X0036323Y0467677D01*
X0036323Y0467284D02*
X0037835Y0467284D01*
X0037836Y0466892D02*
X0036321Y0466892D01*
X0036318Y0466500D02*
X0037836Y0466500D01*
X0037837Y0466108D02*
X0036316Y0466108D01*
X0036313Y0465716D02*
X0037838Y0465716D01*
X0037838Y0465323D02*
X0036311Y0465323D01*
X0036308Y0464931D02*
X0037841Y0464931D01*
X0037844Y0464539D02*
X0036305Y0464539D01*
X0036303Y0464147D02*
X0037846Y0464147D01*
X0037849Y0463755D02*
X0036300Y0463755D01*
X0036298Y0463362D02*
X0037851Y0463362D01*
X0037854Y0462970D02*
X0036295Y0462970D01*
X0036293Y0462578D02*
X0037857Y0462578D01*
X0038206Y0476305D02*
X0041324Y0476305D01*
X0041262Y0476698D02*
X0039233Y0476698D01*
X0029677Y0462970D02*
X0024487Y0462970D01*
X0024902Y0462578D02*
X0028900Y0462578D01*
X0027854Y0462186D02*
X0025682Y0462186D01*
D11*
X0011051Y0402798D02*
X0011055Y0403093D01*
X0011065Y0403387D01*
X0011084Y0403681D01*
X0011109Y0403975D01*
X0011141Y0404268D01*
X0011181Y0404560D01*
X0011228Y0404851D01*
X0011282Y0405141D01*
X0011343Y0405429D01*
X0011411Y0405716D01*
X0011486Y0406001D01*
X0011568Y0406284D01*
X0011657Y0406565D01*
X0011753Y0406843D01*
X0011856Y0407120D01*
X0011965Y0407393D01*
X0012081Y0407664D01*
X0012204Y0407932D01*
X0012333Y0408197D01*
X0012469Y0408459D01*
X0012611Y0408717D01*
X0012759Y0408971D01*
X0012914Y0409222D01*
X0013075Y0409469D01*
X0013241Y0409712D01*
X0013414Y0409951D01*
X0013593Y0410186D01*
X0013777Y0410416D01*
X0013966Y0410641D01*
X0014162Y0410862D01*
X0014362Y0411078D01*
X0014568Y0411289D01*
X0014779Y0411495D01*
X0014995Y0411695D01*
X0015216Y0411891D01*
X0015441Y0412080D01*
X0015671Y0412264D01*
X0015906Y0412443D01*
X0016145Y0412616D01*
X0016388Y0412782D01*
X0016635Y0412943D01*
X0016886Y0413098D01*
X0017140Y0413246D01*
X0017398Y0413388D01*
X0017660Y0413524D01*
X0017925Y0413653D01*
X0018193Y0413776D01*
X0018464Y0413892D01*
X0018737Y0414001D01*
X0019014Y0414104D01*
X0019292Y0414200D01*
X0019573Y0414289D01*
X0019856Y0414371D01*
X0020141Y0414446D01*
X0020428Y0414514D01*
X0020716Y0414575D01*
X0021006Y0414629D01*
X0021297Y0414676D01*
X0021589Y0414716D01*
X0021882Y0414748D01*
X0022176Y0414773D01*
X0022470Y0414792D01*
X0022764Y0414802D01*
X0023059Y0414806D01*
X0023354Y0414802D01*
X0023648Y0414792D01*
X0023942Y0414773D01*
X0024236Y0414748D01*
X0024529Y0414716D01*
X0024821Y0414676D01*
X0025112Y0414629D01*
X0025402Y0414575D01*
X0025690Y0414514D01*
X0025977Y0414446D01*
X0026262Y0414371D01*
X0026545Y0414289D01*
X0026826Y0414200D01*
X0027104Y0414104D01*
X0027381Y0414001D01*
X0027654Y0413892D01*
X0027925Y0413776D01*
X0028193Y0413653D01*
X0028458Y0413524D01*
X0028720Y0413388D01*
X0028978Y0413246D01*
X0029232Y0413098D01*
X0029483Y0412943D01*
X0029730Y0412782D01*
X0029973Y0412616D01*
X0030212Y0412443D01*
X0030447Y0412264D01*
X0030677Y0412080D01*
X0030902Y0411891D01*
X0031123Y0411695D01*
X0031339Y0411495D01*
X0031550Y0411289D01*
X0031756Y0411078D01*
X0031956Y0410862D01*
X0032152Y0410641D01*
X0032341Y0410416D01*
X0032525Y0410186D01*
X0032704Y0409951D01*
X0032877Y0409712D01*
X0033043Y0409469D01*
X0033204Y0409222D01*
X0033359Y0408971D01*
X0033507Y0408717D01*
X0033649Y0408459D01*
X0033785Y0408197D01*
X0033914Y0407932D01*
X0034037Y0407664D01*
X0034153Y0407393D01*
X0034262Y0407120D01*
X0034365Y0406843D01*
X0034461Y0406565D01*
X0034550Y0406284D01*
X0034632Y0406001D01*
X0034707Y0405716D01*
X0034775Y0405429D01*
X0034836Y0405141D01*
X0034890Y0404851D01*
X0034937Y0404560D01*
X0034977Y0404268D01*
X0035009Y0403975D01*
X0035034Y0403681D01*
X0035053Y0403387D01*
X0035063Y0403093D01*
X0035067Y0402798D01*
X0035063Y0402503D01*
X0035053Y0402209D01*
X0035034Y0401915D01*
X0035009Y0401621D01*
X0034977Y0401328D01*
X0034937Y0401036D01*
X0034890Y0400745D01*
X0034836Y0400455D01*
X0034775Y0400167D01*
X0034707Y0399880D01*
X0034632Y0399595D01*
X0034550Y0399312D01*
X0034461Y0399031D01*
X0034365Y0398753D01*
X0034262Y0398476D01*
X0034153Y0398203D01*
X0034037Y0397932D01*
X0033914Y0397664D01*
X0033785Y0397399D01*
X0033649Y0397137D01*
X0033507Y0396879D01*
X0033359Y0396625D01*
X0033204Y0396374D01*
X0033043Y0396127D01*
X0032877Y0395884D01*
X0032704Y0395645D01*
X0032525Y0395410D01*
X0032341Y0395180D01*
X0032152Y0394955D01*
X0031956Y0394734D01*
X0031756Y0394518D01*
X0031550Y0394307D01*
X0031339Y0394101D01*
X0031123Y0393901D01*
X0030902Y0393705D01*
X0030677Y0393516D01*
X0030447Y0393332D01*
X0030212Y0393153D01*
X0029973Y0392980D01*
X0029730Y0392814D01*
X0029483Y0392653D01*
X0029232Y0392498D01*
X0028978Y0392350D01*
X0028720Y0392208D01*
X0028458Y0392072D01*
X0028193Y0391943D01*
X0027925Y0391820D01*
X0027654Y0391704D01*
X0027381Y0391595D01*
X0027104Y0391492D01*
X0026826Y0391396D01*
X0026545Y0391307D01*
X0026262Y0391225D01*
X0025977Y0391150D01*
X0025690Y0391082D01*
X0025402Y0391021D01*
X0025112Y0390967D01*
X0024821Y0390920D01*
X0024529Y0390880D01*
X0024236Y0390848D01*
X0023942Y0390823D01*
X0023648Y0390804D01*
X0023354Y0390794D01*
X0023059Y0390790D01*
X0022764Y0390794D01*
X0022470Y0390804D01*
X0022176Y0390823D01*
X0021882Y0390848D01*
X0021589Y0390880D01*
X0021297Y0390920D01*
X0021006Y0390967D01*
X0020716Y0391021D01*
X0020428Y0391082D01*
X0020141Y0391150D01*
X0019856Y0391225D01*
X0019573Y0391307D01*
X0019292Y0391396D01*
X0019014Y0391492D01*
X0018737Y0391595D01*
X0018464Y0391704D01*
X0018193Y0391820D01*
X0017925Y0391943D01*
X0017660Y0392072D01*
X0017398Y0392208D01*
X0017140Y0392350D01*
X0016886Y0392498D01*
X0016635Y0392653D01*
X0016388Y0392814D01*
X0016145Y0392980D01*
X0015906Y0393153D01*
X0015671Y0393332D01*
X0015441Y0393516D01*
X0015216Y0393705D01*
X0014995Y0393901D01*
X0014779Y0394101D01*
X0014568Y0394307D01*
X0014362Y0394518D01*
X0014162Y0394734D01*
X0013966Y0394955D01*
X0013777Y0395180D01*
X0013593Y0395410D01*
X0013414Y0395645D01*
X0013241Y0395884D01*
X0013075Y0396127D01*
X0012914Y0396374D01*
X0012759Y0396625D01*
X0012611Y0396879D01*
X0012469Y0397137D01*
X0012333Y0397399D01*
X0012204Y0397664D01*
X0012081Y0397932D01*
X0011965Y0398203D01*
X0011856Y0398476D01*
X0011753Y0398753D01*
X0011657Y0399031D01*
X0011568Y0399312D01*
X0011486Y0399595D01*
X0011411Y0399880D01*
X0011343Y0400167D01*
X0011282Y0400455D01*
X0011228Y0400745D01*
X0011181Y0401036D01*
X0011141Y0401328D01*
X0011109Y0401621D01*
X0011084Y0401915D01*
X0011065Y0402209D01*
X0011055Y0402503D01*
X0011051Y0402798D01*
X0011178Y0337910D02*
X0011182Y0338205D01*
X0011192Y0338499D01*
X0011211Y0338793D01*
X0011236Y0339087D01*
X0011268Y0339380D01*
X0011308Y0339672D01*
X0011355Y0339963D01*
X0011409Y0340253D01*
X0011470Y0340541D01*
X0011538Y0340828D01*
X0011613Y0341113D01*
X0011695Y0341396D01*
X0011784Y0341677D01*
X0011880Y0341955D01*
X0011983Y0342232D01*
X0012092Y0342505D01*
X0012208Y0342776D01*
X0012331Y0343044D01*
X0012460Y0343309D01*
X0012596Y0343571D01*
X0012738Y0343829D01*
X0012886Y0344083D01*
X0013041Y0344334D01*
X0013202Y0344581D01*
X0013368Y0344824D01*
X0013541Y0345063D01*
X0013720Y0345298D01*
X0013904Y0345528D01*
X0014093Y0345753D01*
X0014289Y0345974D01*
X0014489Y0346190D01*
X0014695Y0346401D01*
X0014906Y0346607D01*
X0015122Y0346807D01*
X0015343Y0347003D01*
X0015568Y0347192D01*
X0015798Y0347376D01*
X0016033Y0347555D01*
X0016272Y0347728D01*
X0016515Y0347894D01*
X0016762Y0348055D01*
X0017013Y0348210D01*
X0017267Y0348358D01*
X0017525Y0348500D01*
X0017787Y0348636D01*
X0018052Y0348765D01*
X0018320Y0348888D01*
X0018591Y0349004D01*
X0018864Y0349113D01*
X0019141Y0349216D01*
X0019419Y0349312D01*
X0019700Y0349401D01*
X0019983Y0349483D01*
X0020268Y0349558D01*
X0020555Y0349626D01*
X0020843Y0349687D01*
X0021133Y0349741D01*
X0021424Y0349788D01*
X0021716Y0349828D01*
X0022009Y0349860D01*
X0022303Y0349885D01*
X0022597Y0349904D01*
X0022891Y0349914D01*
X0023186Y0349918D01*
X0023481Y0349914D01*
X0023775Y0349904D01*
X0024069Y0349885D01*
X0024363Y0349860D01*
X0024656Y0349828D01*
X0024948Y0349788D01*
X0025239Y0349741D01*
X0025529Y0349687D01*
X0025817Y0349626D01*
X0026104Y0349558D01*
X0026389Y0349483D01*
X0026672Y0349401D01*
X0026953Y0349312D01*
X0027231Y0349216D01*
X0027508Y0349113D01*
X0027781Y0349004D01*
X0028052Y0348888D01*
X0028320Y0348765D01*
X0028585Y0348636D01*
X0028847Y0348500D01*
X0029105Y0348358D01*
X0029359Y0348210D01*
X0029610Y0348055D01*
X0029857Y0347894D01*
X0030100Y0347728D01*
X0030339Y0347555D01*
X0030574Y0347376D01*
X0030804Y0347192D01*
X0031029Y0347003D01*
X0031250Y0346807D01*
X0031466Y0346607D01*
X0031677Y0346401D01*
X0031883Y0346190D01*
X0032083Y0345974D01*
X0032279Y0345753D01*
X0032468Y0345528D01*
X0032652Y0345298D01*
X0032831Y0345063D01*
X0033004Y0344824D01*
X0033170Y0344581D01*
X0033331Y0344334D01*
X0033486Y0344083D01*
X0033634Y0343829D01*
X0033776Y0343571D01*
X0033912Y0343309D01*
X0034041Y0343044D01*
X0034164Y0342776D01*
X0034280Y0342505D01*
X0034389Y0342232D01*
X0034492Y0341955D01*
X0034588Y0341677D01*
X0034677Y0341396D01*
X0034759Y0341113D01*
X0034834Y0340828D01*
X0034902Y0340541D01*
X0034963Y0340253D01*
X0035017Y0339963D01*
X0035064Y0339672D01*
X0035104Y0339380D01*
X0035136Y0339087D01*
X0035161Y0338793D01*
X0035180Y0338499D01*
X0035190Y0338205D01*
X0035194Y0337910D01*
X0035190Y0337615D01*
X0035180Y0337321D01*
X0035161Y0337027D01*
X0035136Y0336733D01*
X0035104Y0336440D01*
X0035064Y0336148D01*
X0035017Y0335857D01*
X0034963Y0335567D01*
X0034902Y0335279D01*
X0034834Y0334992D01*
X0034759Y0334707D01*
X0034677Y0334424D01*
X0034588Y0334143D01*
X0034492Y0333865D01*
X0034389Y0333588D01*
X0034280Y0333315D01*
X0034164Y0333044D01*
X0034041Y0332776D01*
X0033912Y0332511D01*
X0033776Y0332249D01*
X0033634Y0331991D01*
X0033486Y0331737D01*
X0033331Y0331486D01*
X0033170Y0331239D01*
X0033004Y0330996D01*
X0032831Y0330757D01*
X0032652Y0330522D01*
X0032468Y0330292D01*
X0032279Y0330067D01*
X0032083Y0329846D01*
X0031883Y0329630D01*
X0031677Y0329419D01*
X0031466Y0329213D01*
X0031250Y0329013D01*
X0031029Y0328817D01*
X0030804Y0328628D01*
X0030574Y0328444D01*
X0030339Y0328265D01*
X0030100Y0328092D01*
X0029857Y0327926D01*
X0029610Y0327765D01*
X0029359Y0327610D01*
X0029105Y0327462D01*
X0028847Y0327320D01*
X0028585Y0327184D01*
X0028320Y0327055D01*
X0028052Y0326932D01*
X0027781Y0326816D01*
X0027508Y0326707D01*
X0027231Y0326604D01*
X0026953Y0326508D01*
X0026672Y0326419D01*
X0026389Y0326337D01*
X0026104Y0326262D01*
X0025817Y0326194D01*
X0025529Y0326133D01*
X0025239Y0326079D01*
X0024948Y0326032D01*
X0024656Y0325992D01*
X0024363Y0325960D01*
X0024069Y0325935D01*
X0023775Y0325916D01*
X0023481Y0325906D01*
X0023186Y0325902D01*
X0022891Y0325906D01*
X0022597Y0325916D01*
X0022303Y0325935D01*
X0022009Y0325960D01*
X0021716Y0325992D01*
X0021424Y0326032D01*
X0021133Y0326079D01*
X0020843Y0326133D01*
X0020555Y0326194D01*
X0020268Y0326262D01*
X0019983Y0326337D01*
X0019700Y0326419D01*
X0019419Y0326508D01*
X0019141Y0326604D01*
X0018864Y0326707D01*
X0018591Y0326816D01*
X0018320Y0326932D01*
X0018052Y0327055D01*
X0017787Y0327184D01*
X0017525Y0327320D01*
X0017267Y0327462D01*
X0017013Y0327610D01*
X0016762Y0327765D01*
X0016515Y0327926D01*
X0016272Y0328092D01*
X0016033Y0328265D01*
X0015798Y0328444D01*
X0015568Y0328628D01*
X0015343Y0328817D01*
X0015122Y0329013D01*
X0014906Y0329213D01*
X0014695Y0329419D01*
X0014489Y0329630D01*
X0014289Y0329846D01*
X0014093Y0330067D01*
X0013904Y0330292D01*
X0013720Y0330522D01*
X0013541Y0330757D01*
X0013368Y0330996D01*
X0013202Y0331239D01*
X0013041Y0331486D01*
X0012886Y0331737D01*
X0012738Y0331991D01*
X0012596Y0332249D01*
X0012460Y0332511D01*
X0012331Y0332776D01*
X0012208Y0333044D01*
X0012092Y0333315D01*
X0011983Y0333588D01*
X0011880Y0333865D01*
X0011784Y0334143D01*
X0011695Y0334424D01*
X0011613Y0334707D01*
X0011538Y0334992D01*
X0011470Y0335279D01*
X0011409Y0335567D01*
X0011355Y0335857D01*
X0011308Y0336148D01*
X0011268Y0336440D01*
X0011236Y0336733D01*
X0011211Y0337027D01*
X0011192Y0337321D01*
X0011182Y0337615D01*
X0011178Y0337910D01*
X0011161Y0271822D02*
X0011165Y0272117D01*
X0011175Y0272411D01*
X0011194Y0272705D01*
X0011219Y0272999D01*
X0011251Y0273292D01*
X0011291Y0273584D01*
X0011338Y0273875D01*
X0011392Y0274165D01*
X0011453Y0274453D01*
X0011521Y0274740D01*
X0011596Y0275025D01*
X0011678Y0275308D01*
X0011767Y0275589D01*
X0011863Y0275867D01*
X0011966Y0276144D01*
X0012075Y0276417D01*
X0012191Y0276688D01*
X0012314Y0276956D01*
X0012443Y0277221D01*
X0012579Y0277483D01*
X0012721Y0277741D01*
X0012869Y0277995D01*
X0013024Y0278246D01*
X0013185Y0278493D01*
X0013351Y0278736D01*
X0013524Y0278975D01*
X0013703Y0279210D01*
X0013887Y0279440D01*
X0014076Y0279665D01*
X0014272Y0279886D01*
X0014472Y0280102D01*
X0014678Y0280313D01*
X0014889Y0280519D01*
X0015105Y0280719D01*
X0015326Y0280915D01*
X0015551Y0281104D01*
X0015781Y0281288D01*
X0016016Y0281467D01*
X0016255Y0281640D01*
X0016498Y0281806D01*
X0016745Y0281967D01*
X0016996Y0282122D01*
X0017250Y0282270D01*
X0017508Y0282412D01*
X0017770Y0282548D01*
X0018035Y0282677D01*
X0018303Y0282800D01*
X0018574Y0282916D01*
X0018847Y0283025D01*
X0019124Y0283128D01*
X0019402Y0283224D01*
X0019683Y0283313D01*
X0019966Y0283395D01*
X0020251Y0283470D01*
X0020538Y0283538D01*
X0020826Y0283599D01*
X0021116Y0283653D01*
X0021407Y0283700D01*
X0021699Y0283740D01*
X0021992Y0283772D01*
X0022286Y0283797D01*
X0022580Y0283816D01*
X0022874Y0283826D01*
X0023169Y0283830D01*
X0023464Y0283826D01*
X0023758Y0283816D01*
X0024052Y0283797D01*
X0024346Y0283772D01*
X0024639Y0283740D01*
X0024931Y0283700D01*
X0025222Y0283653D01*
X0025512Y0283599D01*
X0025800Y0283538D01*
X0026087Y0283470D01*
X0026372Y0283395D01*
X0026655Y0283313D01*
X0026936Y0283224D01*
X0027214Y0283128D01*
X0027491Y0283025D01*
X0027764Y0282916D01*
X0028035Y0282800D01*
X0028303Y0282677D01*
X0028568Y0282548D01*
X0028830Y0282412D01*
X0029088Y0282270D01*
X0029342Y0282122D01*
X0029593Y0281967D01*
X0029840Y0281806D01*
X0030083Y0281640D01*
X0030322Y0281467D01*
X0030557Y0281288D01*
X0030787Y0281104D01*
X0031012Y0280915D01*
X0031233Y0280719D01*
X0031449Y0280519D01*
X0031660Y0280313D01*
X0031866Y0280102D01*
X0032066Y0279886D01*
X0032262Y0279665D01*
X0032451Y0279440D01*
X0032635Y0279210D01*
X0032814Y0278975D01*
X0032987Y0278736D01*
X0033153Y0278493D01*
X0033314Y0278246D01*
X0033469Y0277995D01*
X0033617Y0277741D01*
X0033759Y0277483D01*
X0033895Y0277221D01*
X0034024Y0276956D01*
X0034147Y0276688D01*
X0034263Y0276417D01*
X0034372Y0276144D01*
X0034475Y0275867D01*
X0034571Y0275589D01*
X0034660Y0275308D01*
X0034742Y0275025D01*
X0034817Y0274740D01*
X0034885Y0274453D01*
X0034946Y0274165D01*
X0035000Y0273875D01*
X0035047Y0273584D01*
X0035087Y0273292D01*
X0035119Y0272999D01*
X0035144Y0272705D01*
X0035163Y0272411D01*
X0035173Y0272117D01*
X0035177Y0271822D01*
X0035173Y0271527D01*
X0035163Y0271233D01*
X0035144Y0270939D01*
X0035119Y0270645D01*
X0035087Y0270352D01*
X0035047Y0270060D01*
X0035000Y0269769D01*
X0034946Y0269479D01*
X0034885Y0269191D01*
X0034817Y0268904D01*
X0034742Y0268619D01*
X0034660Y0268336D01*
X0034571Y0268055D01*
X0034475Y0267777D01*
X0034372Y0267500D01*
X0034263Y0267227D01*
X0034147Y0266956D01*
X0034024Y0266688D01*
X0033895Y0266423D01*
X0033759Y0266161D01*
X0033617Y0265903D01*
X0033469Y0265649D01*
X0033314Y0265398D01*
X0033153Y0265151D01*
X0032987Y0264908D01*
X0032814Y0264669D01*
X0032635Y0264434D01*
X0032451Y0264204D01*
X0032262Y0263979D01*
X0032066Y0263758D01*
X0031866Y0263542D01*
X0031660Y0263331D01*
X0031449Y0263125D01*
X0031233Y0262925D01*
X0031012Y0262729D01*
X0030787Y0262540D01*
X0030557Y0262356D01*
X0030322Y0262177D01*
X0030083Y0262004D01*
X0029840Y0261838D01*
X0029593Y0261677D01*
X0029342Y0261522D01*
X0029088Y0261374D01*
X0028830Y0261232D01*
X0028568Y0261096D01*
X0028303Y0260967D01*
X0028035Y0260844D01*
X0027764Y0260728D01*
X0027491Y0260619D01*
X0027214Y0260516D01*
X0026936Y0260420D01*
X0026655Y0260331D01*
X0026372Y0260249D01*
X0026087Y0260174D01*
X0025800Y0260106D01*
X0025512Y0260045D01*
X0025222Y0259991D01*
X0024931Y0259944D01*
X0024639Y0259904D01*
X0024346Y0259872D01*
X0024052Y0259847D01*
X0023758Y0259828D01*
X0023464Y0259818D01*
X0023169Y0259814D01*
X0022874Y0259818D01*
X0022580Y0259828D01*
X0022286Y0259847D01*
X0021992Y0259872D01*
X0021699Y0259904D01*
X0021407Y0259944D01*
X0021116Y0259991D01*
X0020826Y0260045D01*
X0020538Y0260106D01*
X0020251Y0260174D01*
X0019966Y0260249D01*
X0019683Y0260331D01*
X0019402Y0260420D01*
X0019124Y0260516D01*
X0018847Y0260619D01*
X0018574Y0260728D01*
X0018303Y0260844D01*
X0018035Y0260967D01*
X0017770Y0261096D01*
X0017508Y0261232D01*
X0017250Y0261374D01*
X0016996Y0261522D01*
X0016745Y0261677D01*
X0016498Y0261838D01*
X0016255Y0262004D01*
X0016016Y0262177D01*
X0015781Y0262356D01*
X0015551Y0262540D01*
X0015326Y0262729D01*
X0015105Y0262925D01*
X0014889Y0263125D01*
X0014678Y0263331D01*
X0014472Y0263542D01*
X0014272Y0263758D01*
X0014076Y0263979D01*
X0013887Y0264204D01*
X0013703Y0264434D01*
X0013524Y0264669D01*
X0013351Y0264908D01*
X0013185Y0265151D01*
X0013024Y0265398D01*
X0012869Y0265649D01*
X0012721Y0265903D01*
X0012579Y0266161D01*
X0012443Y0266423D01*
X0012314Y0266688D01*
X0012191Y0266956D01*
X0012075Y0267227D01*
X0011966Y0267500D01*
X0011863Y0267777D01*
X0011767Y0268055D01*
X0011678Y0268336D01*
X0011596Y0268619D01*
X0011521Y0268904D01*
X0011453Y0269191D01*
X0011392Y0269479D01*
X0011338Y0269769D01*
X0011291Y0270060D01*
X0011251Y0270352D01*
X0011219Y0270645D01*
X0011194Y0270939D01*
X0011175Y0271233D01*
X0011165Y0271527D01*
X0011161Y0271822D01*
X0011118Y0205982D02*
X0011122Y0206277D01*
X0011132Y0206571D01*
X0011151Y0206865D01*
X0011176Y0207159D01*
X0011208Y0207452D01*
X0011248Y0207744D01*
X0011295Y0208035D01*
X0011349Y0208325D01*
X0011410Y0208613D01*
X0011478Y0208900D01*
X0011553Y0209185D01*
X0011635Y0209468D01*
X0011724Y0209749D01*
X0011820Y0210027D01*
X0011923Y0210304D01*
X0012032Y0210577D01*
X0012148Y0210848D01*
X0012271Y0211116D01*
X0012400Y0211381D01*
X0012536Y0211643D01*
X0012678Y0211901D01*
X0012826Y0212155D01*
X0012981Y0212406D01*
X0013142Y0212653D01*
X0013308Y0212896D01*
X0013481Y0213135D01*
X0013660Y0213370D01*
X0013844Y0213600D01*
X0014033Y0213825D01*
X0014229Y0214046D01*
X0014429Y0214262D01*
X0014635Y0214473D01*
X0014846Y0214679D01*
X0015062Y0214879D01*
X0015283Y0215075D01*
X0015508Y0215264D01*
X0015738Y0215448D01*
X0015973Y0215627D01*
X0016212Y0215800D01*
X0016455Y0215966D01*
X0016702Y0216127D01*
X0016953Y0216282D01*
X0017207Y0216430D01*
X0017465Y0216572D01*
X0017727Y0216708D01*
X0017992Y0216837D01*
X0018260Y0216960D01*
X0018531Y0217076D01*
X0018804Y0217185D01*
X0019081Y0217288D01*
X0019359Y0217384D01*
X0019640Y0217473D01*
X0019923Y0217555D01*
X0020208Y0217630D01*
X0020495Y0217698D01*
X0020783Y0217759D01*
X0021073Y0217813D01*
X0021364Y0217860D01*
X0021656Y0217900D01*
X0021949Y0217932D01*
X0022243Y0217957D01*
X0022537Y0217976D01*
X0022831Y0217986D01*
X0023126Y0217990D01*
X0023421Y0217986D01*
X0023715Y0217976D01*
X0024009Y0217957D01*
X0024303Y0217932D01*
X0024596Y0217900D01*
X0024888Y0217860D01*
X0025179Y0217813D01*
X0025469Y0217759D01*
X0025757Y0217698D01*
X0026044Y0217630D01*
X0026329Y0217555D01*
X0026612Y0217473D01*
X0026893Y0217384D01*
X0027171Y0217288D01*
X0027448Y0217185D01*
X0027721Y0217076D01*
X0027992Y0216960D01*
X0028260Y0216837D01*
X0028525Y0216708D01*
X0028787Y0216572D01*
X0029045Y0216430D01*
X0029299Y0216282D01*
X0029550Y0216127D01*
X0029797Y0215966D01*
X0030040Y0215800D01*
X0030279Y0215627D01*
X0030514Y0215448D01*
X0030744Y0215264D01*
X0030969Y0215075D01*
X0031190Y0214879D01*
X0031406Y0214679D01*
X0031617Y0214473D01*
X0031823Y0214262D01*
X0032023Y0214046D01*
X0032219Y0213825D01*
X0032408Y0213600D01*
X0032592Y0213370D01*
X0032771Y0213135D01*
X0032944Y0212896D01*
X0033110Y0212653D01*
X0033271Y0212406D01*
X0033426Y0212155D01*
X0033574Y0211901D01*
X0033716Y0211643D01*
X0033852Y0211381D01*
X0033981Y0211116D01*
X0034104Y0210848D01*
X0034220Y0210577D01*
X0034329Y0210304D01*
X0034432Y0210027D01*
X0034528Y0209749D01*
X0034617Y0209468D01*
X0034699Y0209185D01*
X0034774Y0208900D01*
X0034842Y0208613D01*
X0034903Y0208325D01*
X0034957Y0208035D01*
X0035004Y0207744D01*
X0035044Y0207452D01*
X0035076Y0207159D01*
X0035101Y0206865D01*
X0035120Y0206571D01*
X0035130Y0206277D01*
X0035134Y0205982D01*
X0035130Y0205687D01*
X0035120Y0205393D01*
X0035101Y0205099D01*
X0035076Y0204805D01*
X0035044Y0204512D01*
X0035004Y0204220D01*
X0034957Y0203929D01*
X0034903Y0203639D01*
X0034842Y0203351D01*
X0034774Y0203064D01*
X0034699Y0202779D01*
X0034617Y0202496D01*
X0034528Y0202215D01*
X0034432Y0201937D01*
X0034329Y0201660D01*
X0034220Y0201387D01*
X0034104Y0201116D01*
X0033981Y0200848D01*
X0033852Y0200583D01*
X0033716Y0200321D01*
X0033574Y0200063D01*
X0033426Y0199809D01*
X0033271Y0199558D01*
X0033110Y0199311D01*
X0032944Y0199068D01*
X0032771Y0198829D01*
X0032592Y0198594D01*
X0032408Y0198364D01*
X0032219Y0198139D01*
X0032023Y0197918D01*
X0031823Y0197702D01*
X0031617Y0197491D01*
X0031406Y0197285D01*
X0031190Y0197085D01*
X0030969Y0196889D01*
X0030744Y0196700D01*
X0030514Y0196516D01*
X0030279Y0196337D01*
X0030040Y0196164D01*
X0029797Y0195998D01*
X0029550Y0195837D01*
X0029299Y0195682D01*
X0029045Y0195534D01*
X0028787Y0195392D01*
X0028525Y0195256D01*
X0028260Y0195127D01*
X0027992Y0195004D01*
X0027721Y0194888D01*
X0027448Y0194779D01*
X0027171Y0194676D01*
X0026893Y0194580D01*
X0026612Y0194491D01*
X0026329Y0194409D01*
X0026044Y0194334D01*
X0025757Y0194266D01*
X0025469Y0194205D01*
X0025179Y0194151D01*
X0024888Y0194104D01*
X0024596Y0194064D01*
X0024303Y0194032D01*
X0024009Y0194007D01*
X0023715Y0193988D01*
X0023421Y0193978D01*
X0023126Y0193974D01*
X0022831Y0193978D01*
X0022537Y0193988D01*
X0022243Y0194007D01*
X0021949Y0194032D01*
X0021656Y0194064D01*
X0021364Y0194104D01*
X0021073Y0194151D01*
X0020783Y0194205D01*
X0020495Y0194266D01*
X0020208Y0194334D01*
X0019923Y0194409D01*
X0019640Y0194491D01*
X0019359Y0194580D01*
X0019081Y0194676D01*
X0018804Y0194779D01*
X0018531Y0194888D01*
X0018260Y0195004D01*
X0017992Y0195127D01*
X0017727Y0195256D01*
X0017465Y0195392D01*
X0017207Y0195534D01*
X0016953Y0195682D01*
X0016702Y0195837D01*
X0016455Y0195998D01*
X0016212Y0196164D01*
X0015973Y0196337D01*
X0015738Y0196516D01*
X0015508Y0196700D01*
X0015283Y0196889D01*
X0015062Y0197085D01*
X0014846Y0197285D01*
X0014635Y0197491D01*
X0014429Y0197702D01*
X0014229Y0197918D01*
X0014033Y0198139D01*
X0013844Y0198364D01*
X0013660Y0198594D01*
X0013481Y0198829D01*
X0013308Y0199068D01*
X0013142Y0199311D01*
X0012981Y0199558D01*
X0012826Y0199809D01*
X0012678Y0200063D01*
X0012536Y0200321D01*
X0012400Y0200583D01*
X0012271Y0200848D01*
X0012148Y0201116D01*
X0012032Y0201387D01*
X0011923Y0201660D01*
X0011820Y0201937D01*
X0011724Y0202215D01*
X0011635Y0202496D01*
X0011553Y0202779D01*
X0011478Y0203064D01*
X0011410Y0203351D01*
X0011349Y0203639D01*
X0011295Y0203929D01*
X0011248Y0204220D01*
X0011208Y0204512D01*
X0011176Y0204805D01*
X0011151Y0205099D01*
X0011132Y0205393D01*
X0011122Y0205687D01*
X0011118Y0205982D01*
X0011161Y0144562D02*
X0011165Y0144857D01*
X0011175Y0145151D01*
X0011194Y0145445D01*
X0011219Y0145739D01*
X0011251Y0146032D01*
X0011291Y0146324D01*
X0011338Y0146615D01*
X0011392Y0146905D01*
X0011453Y0147193D01*
X0011521Y0147480D01*
X0011596Y0147765D01*
X0011678Y0148048D01*
X0011767Y0148329D01*
X0011863Y0148607D01*
X0011966Y0148884D01*
X0012075Y0149157D01*
X0012191Y0149428D01*
X0012314Y0149696D01*
X0012443Y0149961D01*
X0012579Y0150223D01*
X0012721Y0150481D01*
X0012869Y0150735D01*
X0013024Y0150986D01*
X0013185Y0151233D01*
X0013351Y0151476D01*
X0013524Y0151715D01*
X0013703Y0151950D01*
X0013887Y0152180D01*
X0014076Y0152405D01*
X0014272Y0152626D01*
X0014472Y0152842D01*
X0014678Y0153053D01*
X0014889Y0153259D01*
X0015105Y0153459D01*
X0015326Y0153655D01*
X0015551Y0153844D01*
X0015781Y0154028D01*
X0016016Y0154207D01*
X0016255Y0154380D01*
X0016498Y0154546D01*
X0016745Y0154707D01*
X0016996Y0154862D01*
X0017250Y0155010D01*
X0017508Y0155152D01*
X0017770Y0155288D01*
X0018035Y0155417D01*
X0018303Y0155540D01*
X0018574Y0155656D01*
X0018847Y0155765D01*
X0019124Y0155868D01*
X0019402Y0155964D01*
X0019683Y0156053D01*
X0019966Y0156135D01*
X0020251Y0156210D01*
X0020538Y0156278D01*
X0020826Y0156339D01*
X0021116Y0156393D01*
X0021407Y0156440D01*
X0021699Y0156480D01*
X0021992Y0156512D01*
X0022286Y0156537D01*
X0022580Y0156556D01*
X0022874Y0156566D01*
X0023169Y0156570D01*
X0023464Y0156566D01*
X0023758Y0156556D01*
X0024052Y0156537D01*
X0024346Y0156512D01*
X0024639Y0156480D01*
X0024931Y0156440D01*
X0025222Y0156393D01*
X0025512Y0156339D01*
X0025800Y0156278D01*
X0026087Y0156210D01*
X0026372Y0156135D01*
X0026655Y0156053D01*
X0026936Y0155964D01*
X0027214Y0155868D01*
X0027491Y0155765D01*
X0027764Y0155656D01*
X0028035Y0155540D01*
X0028303Y0155417D01*
X0028568Y0155288D01*
X0028830Y0155152D01*
X0029088Y0155010D01*
X0029342Y0154862D01*
X0029593Y0154707D01*
X0029840Y0154546D01*
X0030083Y0154380D01*
X0030322Y0154207D01*
X0030557Y0154028D01*
X0030787Y0153844D01*
X0031012Y0153655D01*
X0031233Y0153459D01*
X0031449Y0153259D01*
X0031660Y0153053D01*
X0031866Y0152842D01*
X0032066Y0152626D01*
X0032262Y0152405D01*
X0032451Y0152180D01*
X0032635Y0151950D01*
X0032814Y0151715D01*
X0032987Y0151476D01*
X0033153Y0151233D01*
X0033314Y0150986D01*
X0033469Y0150735D01*
X0033617Y0150481D01*
X0033759Y0150223D01*
X0033895Y0149961D01*
X0034024Y0149696D01*
X0034147Y0149428D01*
X0034263Y0149157D01*
X0034372Y0148884D01*
X0034475Y0148607D01*
X0034571Y0148329D01*
X0034660Y0148048D01*
X0034742Y0147765D01*
X0034817Y0147480D01*
X0034885Y0147193D01*
X0034946Y0146905D01*
X0035000Y0146615D01*
X0035047Y0146324D01*
X0035087Y0146032D01*
X0035119Y0145739D01*
X0035144Y0145445D01*
X0035163Y0145151D01*
X0035173Y0144857D01*
X0035177Y0144562D01*
X0035173Y0144267D01*
X0035163Y0143973D01*
X0035144Y0143679D01*
X0035119Y0143385D01*
X0035087Y0143092D01*
X0035047Y0142800D01*
X0035000Y0142509D01*
X0034946Y0142219D01*
X0034885Y0141931D01*
X0034817Y0141644D01*
X0034742Y0141359D01*
X0034660Y0141076D01*
X0034571Y0140795D01*
X0034475Y0140517D01*
X0034372Y0140240D01*
X0034263Y0139967D01*
X0034147Y0139696D01*
X0034024Y0139428D01*
X0033895Y0139163D01*
X0033759Y0138901D01*
X0033617Y0138643D01*
X0033469Y0138389D01*
X0033314Y0138138D01*
X0033153Y0137891D01*
X0032987Y0137648D01*
X0032814Y0137409D01*
X0032635Y0137174D01*
X0032451Y0136944D01*
X0032262Y0136719D01*
X0032066Y0136498D01*
X0031866Y0136282D01*
X0031660Y0136071D01*
X0031449Y0135865D01*
X0031233Y0135665D01*
X0031012Y0135469D01*
X0030787Y0135280D01*
X0030557Y0135096D01*
X0030322Y0134917D01*
X0030083Y0134744D01*
X0029840Y0134578D01*
X0029593Y0134417D01*
X0029342Y0134262D01*
X0029088Y0134114D01*
X0028830Y0133972D01*
X0028568Y0133836D01*
X0028303Y0133707D01*
X0028035Y0133584D01*
X0027764Y0133468D01*
X0027491Y0133359D01*
X0027214Y0133256D01*
X0026936Y0133160D01*
X0026655Y0133071D01*
X0026372Y0132989D01*
X0026087Y0132914D01*
X0025800Y0132846D01*
X0025512Y0132785D01*
X0025222Y0132731D01*
X0024931Y0132684D01*
X0024639Y0132644D01*
X0024346Y0132612D01*
X0024052Y0132587D01*
X0023758Y0132568D01*
X0023464Y0132558D01*
X0023169Y0132554D01*
X0022874Y0132558D01*
X0022580Y0132568D01*
X0022286Y0132587D01*
X0021992Y0132612D01*
X0021699Y0132644D01*
X0021407Y0132684D01*
X0021116Y0132731D01*
X0020826Y0132785D01*
X0020538Y0132846D01*
X0020251Y0132914D01*
X0019966Y0132989D01*
X0019683Y0133071D01*
X0019402Y0133160D01*
X0019124Y0133256D01*
X0018847Y0133359D01*
X0018574Y0133468D01*
X0018303Y0133584D01*
X0018035Y0133707D01*
X0017770Y0133836D01*
X0017508Y0133972D01*
X0017250Y0134114D01*
X0016996Y0134262D01*
X0016745Y0134417D01*
X0016498Y0134578D01*
X0016255Y0134744D01*
X0016016Y0134917D01*
X0015781Y0135096D01*
X0015551Y0135280D01*
X0015326Y0135469D01*
X0015105Y0135665D01*
X0014889Y0135865D01*
X0014678Y0136071D01*
X0014472Y0136282D01*
X0014272Y0136498D01*
X0014076Y0136719D01*
X0013887Y0136944D01*
X0013703Y0137174D01*
X0013524Y0137409D01*
X0013351Y0137648D01*
X0013185Y0137891D01*
X0013024Y0138138D01*
X0012869Y0138389D01*
X0012721Y0138643D01*
X0012579Y0138901D01*
X0012443Y0139163D01*
X0012314Y0139428D01*
X0012191Y0139696D01*
X0012075Y0139967D01*
X0011966Y0140240D01*
X0011863Y0140517D01*
X0011767Y0140795D01*
X0011678Y0141076D01*
X0011596Y0141359D01*
X0011521Y0141644D01*
X0011453Y0141931D01*
X0011392Y0142219D01*
X0011338Y0142509D01*
X0011291Y0142800D01*
X0011251Y0143092D01*
X0011219Y0143385D01*
X0011194Y0143679D01*
X0011175Y0143973D01*
X0011165Y0144267D01*
X0011161Y0144562D01*
X0010977Y0075837D02*
X0010981Y0076132D01*
X0010991Y0076426D01*
X0011010Y0076720D01*
X0011035Y0077014D01*
X0011067Y0077307D01*
X0011107Y0077599D01*
X0011154Y0077890D01*
X0011208Y0078180D01*
X0011269Y0078468D01*
X0011337Y0078755D01*
X0011412Y0079040D01*
X0011494Y0079323D01*
X0011583Y0079604D01*
X0011679Y0079882D01*
X0011782Y0080159D01*
X0011891Y0080432D01*
X0012007Y0080703D01*
X0012130Y0080971D01*
X0012259Y0081236D01*
X0012395Y0081498D01*
X0012537Y0081756D01*
X0012685Y0082010D01*
X0012840Y0082261D01*
X0013001Y0082508D01*
X0013167Y0082751D01*
X0013340Y0082990D01*
X0013519Y0083225D01*
X0013703Y0083455D01*
X0013892Y0083680D01*
X0014088Y0083901D01*
X0014288Y0084117D01*
X0014494Y0084328D01*
X0014705Y0084534D01*
X0014921Y0084734D01*
X0015142Y0084930D01*
X0015367Y0085119D01*
X0015597Y0085303D01*
X0015832Y0085482D01*
X0016071Y0085655D01*
X0016314Y0085821D01*
X0016561Y0085982D01*
X0016812Y0086137D01*
X0017066Y0086285D01*
X0017324Y0086427D01*
X0017586Y0086563D01*
X0017851Y0086692D01*
X0018119Y0086815D01*
X0018390Y0086931D01*
X0018663Y0087040D01*
X0018940Y0087143D01*
X0019218Y0087239D01*
X0019499Y0087328D01*
X0019782Y0087410D01*
X0020067Y0087485D01*
X0020354Y0087553D01*
X0020642Y0087614D01*
X0020932Y0087668D01*
X0021223Y0087715D01*
X0021515Y0087755D01*
X0021808Y0087787D01*
X0022102Y0087812D01*
X0022396Y0087831D01*
X0022690Y0087841D01*
X0022985Y0087845D01*
X0023280Y0087841D01*
X0023574Y0087831D01*
X0023868Y0087812D01*
X0024162Y0087787D01*
X0024455Y0087755D01*
X0024747Y0087715D01*
X0025038Y0087668D01*
X0025328Y0087614D01*
X0025616Y0087553D01*
X0025903Y0087485D01*
X0026188Y0087410D01*
X0026471Y0087328D01*
X0026752Y0087239D01*
X0027030Y0087143D01*
X0027307Y0087040D01*
X0027580Y0086931D01*
X0027851Y0086815D01*
X0028119Y0086692D01*
X0028384Y0086563D01*
X0028646Y0086427D01*
X0028904Y0086285D01*
X0029158Y0086137D01*
X0029409Y0085982D01*
X0029656Y0085821D01*
X0029899Y0085655D01*
X0030138Y0085482D01*
X0030373Y0085303D01*
X0030603Y0085119D01*
X0030828Y0084930D01*
X0031049Y0084734D01*
X0031265Y0084534D01*
X0031476Y0084328D01*
X0031682Y0084117D01*
X0031882Y0083901D01*
X0032078Y0083680D01*
X0032267Y0083455D01*
X0032451Y0083225D01*
X0032630Y0082990D01*
X0032803Y0082751D01*
X0032969Y0082508D01*
X0033130Y0082261D01*
X0033285Y0082010D01*
X0033433Y0081756D01*
X0033575Y0081498D01*
X0033711Y0081236D01*
X0033840Y0080971D01*
X0033963Y0080703D01*
X0034079Y0080432D01*
X0034188Y0080159D01*
X0034291Y0079882D01*
X0034387Y0079604D01*
X0034476Y0079323D01*
X0034558Y0079040D01*
X0034633Y0078755D01*
X0034701Y0078468D01*
X0034762Y0078180D01*
X0034816Y0077890D01*
X0034863Y0077599D01*
X0034903Y0077307D01*
X0034935Y0077014D01*
X0034960Y0076720D01*
X0034979Y0076426D01*
X0034989Y0076132D01*
X0034993Y0075837D01*
X0034989Y0075542D01*
X0034979Y0075248D01*
X0034960Y0074954D01*
X0034935Y0074660D01*
X0034903Y0074367D01*
X0034863Y0074075D01*
X0034816Y0073784D01*
X0034762Y0073494D01*
X0034701Y0073206D01*
X0034633Y0072919D01*
X0034558Y0072634D01*
X0034476Y0072351D01*
X0034387Y0072070D01*
X0034291Y0071792D01*
X0034188Y0071515D01*
X0034079Y0071242D01*
X0033963Y0070971D01*
X0033840Y0070703D01*
X0033711Y0070438D01*
X0033575Y0070176D01*
X0033433Y0069918D01*
X0033285Y0069664D01*
X0033130Y0069413D01*
X0032969Y0069166D01*
X0032803Y0068923D01*
X0032630Y0068684D01*
X0032451Y0068449D01*
X0032267Y0068219D01*
X0032078Y0067994D01*
X0031882Y0067773D01*
X0031682Y0067557D01*
X0031476Y0067346D01*
X0031265Y0067140D01*
X0031049Y0066940D01*
X0030828Y0066744D01*
X0030603Y0066555D01*
X0030373Y0066371D01*
X0030138Y0066192D01*
X0029899Y0066019D01*
X0029656Y0065853D01*
X0029409Y0065692D01*
X0029158Y0065537D01*
X0028904Y0065389D01*
X0028646Y0065247D01*
X0028384Y0065111D01*
X0028119Y0064982D01*
X0027851Y0064859D01*
X0027580Y0064743D01*
X0027307Y0064634D01*
X0027030Y0064531D01*
X0026752Y0064435D01*
X0026471Y0064346D01*
X0026188Y0064264D01*
X0025903Y0064189D01*
X0025616Y0064121D01*
X0025328Y0064060D01*
X0025038Y0064006D01*
X0024747Y0063959D01*
X0024455Y0063919D01*
X0024162Y0063887D01*
X0023868Y0063862D01*
X0023574Y0063843D01*
X0023280Y0063833D01*
X0022985Y0063829D01*
X0022690Y0063833D01*
X0022396Y0063843D01*
X0022102Y0063862D01*
X0021808Y0063887D01*
X0021515Y0063919D01*
X0021223Y0063959D01*
X0020932Y0064006D01*
X0020642Y0064060D01*
X0020354Y0064121D01*
X0020067Y0064189D01*
X0019782Y0064264D01*
X0019499Y0064346D01*
X0019218Y0064435D01*
X0018940Y0064531D01*
X0018663Y0064634D01*
X0018390Y0064743D01*
X0018119Y0064859D01*
X0017851Y0064982D01*
X0017586Y0065111D01*
X0017324Y0065247D01*
X0017066Y0065389D01*
X0016812Y0065537D01*
X0016561Y0065692D01*
X0016314Y0065853D01*
X0016071Y0066019D01*
X0015832Y0066192D01*
X0015597Y0066371D01*
X0015367Y0066555D01*
X0015142Y0066744D01*
X0014921Y0066940D01*
X0014705Y0067140D01*
X0014494Y0067346D01*
X0014288Y0067557D01*
X0014088Y0067773D01*
X0013892Y0067994D01*
X0013703Y0068219D01*
X0013519Y0068449D01*
X0013340Y0068684D01*
X0013167Y0068923D01*
X0013001Y0069166D01*
X0012840Y0069413D01*
X0012685Y0069664D01*
X0012537Y0069918D01*
X0012395Y0070176D01*
X0012259Y0070438D01*
X0012130Y0070703D01*
X0012007Y0070971D01*
X0011891Y0071242D01*
X0011782Y0071515D01*
X0011679Y0071792D01*
X0011583Y0072070D01*
X0011494Y0072351D01*
X0011412Y0072634D01*
X0011337Y0072919D01*
X0011269Y0073206D01*
X0011208Y0073494D01*
X0011154Y0073784D01*
X0011107Y0074075D01*
X0011067Y0074367D01*
X0011035Y0074660D01*
X0011010Y0074954D01*
X0010991Y0075248D01*
X0010981Y0075542D01*
X0010977Y0075837D01*
X0049527Y0075911D02*
X0049531Y0076206D01*
X0049541Y0076500D01*
X0049560Y0076794D01*
X0049585Y0077088D01*
X0049617Y0077381D01*
X0049657Y0077673D01*
X0049704Y0077964D01*
X0049758Y0078254D01*
X0049819Y0078542D01*
X0049887Y0078829D01*
X0049962Y0079114D01*
X0050044Y0079397D01*
X0050133Y0079678D01*
X0050229Y0079956D01*
X0050332Y0080233D01*
X0050441Y0080506D01*
X0050557Y0080777D01*
X0050680Y0081045D01*
X0050809Y0081310D01*
X0050945Y0081572D01*
X0051087Y0081830D01*
X0051235Y0082084D01*
X0051390Y0082335D01*
X0051551Y0082582D01*
X0051717Y0082825D01*
X0051890Y0083064D01*
X0052069Y0083299D01*
X0052253Y0083529D01*
X0052442Y0083754D01*
X0052638Y0083975D01*
X0052838Y0084191D01*
X0053044Y0084402D01*
X0053255Y0084608D01*
X0053471Y0084808D01*
X0053692Y0085004D01*
X0053917Y0085193D01*
X0054147Y0085377D01*
X0054382Y0085556D01*
X0054621Y0085729D01*
X0054864Y0085895D01*
X0055111Y0086056D01*
X0055362Y0086211D01*
X0055616Y0086359D01*
X0055874Y0086501D01*
X0056136Y0086637D01*
X0056401Y0086766D01*
X0056669Y0086889D01*
X0056940Y0087005D01*
X0057213Y0087114D01*
X0057490Y0087217D01*
X0057768Y0087313D01*
X0058049Y0087402D01*
X0058332Y0087484D01*
X0058617Y0087559D01*
X0058904Y0087627D01*
X0059192Y0087688D01*
X0059482Y0087742D01*
X0059773Y0087789D01*
X0060065Y0087829D01*
X0060358Y0087861D01*
X0060652Y0087886D01*
X0060946Y0087905D01*
X0061240Y0087915D01*
X0061535Y0087919D01*
X0061830Y0087915D01*
X0062124Y0087905D01*
X0062418Y0087886D01*
X0062712Y0087861D01*
X0063005Y0087829D01*
X0063297Y0087789D01*
X0063588Y0087742D01*
X0063878Y0087688D01*
X0064166Y0087627D01*
X0064453Y0087559D01*
X0064738Y0087484D01*
X0065021Y0087402D01*
X0065302Y0087313D01*
X0065580Y0087217D01*
X0065857Y0087114D01*
X0066130Y0087005D01*
X0066401Y0086889D01*
X0066669Y0086766D01*
X0066934Y0086637D01*
X0067196Y0086501D01*
X0067454Y0086359D01*
X0067708Y0086211D01*
X0067959Y0086056D01*
X0068206Y0085895D01*
X0068449Y0085729D01*
X0068688Y0085556D01*
X0068923Y0085377D01*
X0069153Y0085193D01*
X0069378Y0085004D01*
X0069599Y0084808D01*
X0069815Y0084608D01*
X0070026Y0084402D01*
X0070232Y0084191D01*
X0070432Y0083975D01*
X0070628Y0083754D01*
X0070817Y0083529D01*
X0071001Y0083299D01*
X0071180Y0083064D01*
X0071353Y0082825D01*
X0071519Y0082582D01*
X0071680Y0082335D01*
X0071835Y0082084D01*
X0071983Y0081830D01*
X0072125Y0081572D01*
X0072261Y0081310D01*
X0072390Y0081045D01*
X0072513Y0080777D01*
X0072629Y0080506D01*
X0072738Y0080233D01*
X0072841Y0079956D01*
X0072937Y0079678D01*
X0073026Y0079397D01*
X0073108Y0079114D01*
X0073183Y0078829D01*
X0073251Y0078542D01*
X0073312Y0078254D01*
X0073366Y0077964D01*
X0073413Y0077673D01*
X0073453Y0077381D01*
X0073485Y0077088D01*
X0073510Y0076794D01*
X0073529Y0076500D01*
X0073539Y0076206D01*
X0073543Y0075911D01*
X0073539Y0075616D01*
X0073529Y0075322D01*
X0073510Y0075028D01*
X0073485Y0074734D01*
X0073453Y0074441D01*
X0073413Y0074149D01*
X0073366Y0073858D01*
X0073312Y0073568D01*
X0073251Y0073280D01*
X0073183Y0072993D01*
X0073108Y0072708D01*
X0073026Y0072425D01*
X0072937Y0072144D01*
X0072841Y0071866D01*
X0072738Y0071589D01*
X0072629Y0071316D01*
X0072513Y0071045D01*
X0072390Y0070777D01*
X0072261Y0070512D01*
X0072125Y0070250D01*
X0071983Y0069992D01*
X0071835Y0069738D01*
X0071680Y0069487D01*
X0071519Y0069240D01*
X0071353Y0068997D01*
X0071180Y0068758D01*
X0071001Y0068523D01*
X0070817Y0068293D01*
X0070628Y0068068D01*
X0070432Y0067847D01*
X0070232Y0067631D01*
X0070026Y0067420D01*
X0069815Y0067214D01*
X0069599Y0067014D01*
X0069378Y0066818D01*
X0069153Y0066629D01*
X0068923Y0066445D01*
X0068688Y0066266D01*
X0068449Y0066093D01*
X0068206Y0065927D01*
X0067959Y0065766D01*
X0067708Y0065611D01*
X0067454Y0065463D01*
X0067196Y0065321D01*
X0066934Y0065185D01*
X0066669Y0065056D01*
X0066401Y0064933D01*
X0066130Y0064817D01*
X0065857Y0064708D01*
X0065580Y0064605D01*
X0065302Y0064509D01*
X0065021Y0064420D01*
X0064738Y0064338D01*
X0064453Y0064263D01*
X0064166Y0064195D01*
X0063878Y0064134D01*
X0063588Y0064080D01*
X0063297Y0064033D01*
X0063005Y0063993D01*
X0062712Y0063961D01*
X0062418Y0063936D01*
X0062124Y0063917D01*
X0061830Y0063907D01*
X0061535Y0063903D01*
X0061240Y0063907D01*
X0060946Y0063917D01*
X0060652Y0063936D01*
X0060358Y0063961D01*
X0060065Y0063993D01*
X0059773Y0064033D01*
X0059482Y0064080D01*
X0059192Y0064134D01*
X0058904Y0064195D01*
X0058617Y0064263D01*
X0058332Y0064338D01*
X0058049Y0064420D01*
X0057768Y0064509D01*
X0057490Y0064605D01*
X0057213Y0064708D01*
X0056940Y0064817D01*
X0056669Y0064933D01*
X0056401Y0065056D01*
X0056136Y0065185D01*
X0055874Y0065321D01*
X0055616Y0065463D01*
X0055362Y0065611D01*
X0055111Y0065766D01*
X0054864Y0065927D01*
X0054621Y0066093D01*
X0054382Y0066266D01*
X0054147Y0066445D01*
X0053917Y0066629D01*
X0053692Y0066818D01*
X0053471Y0067014D01*
X0053255Y0067214D01*
X0053044Y0067420D01*
X0052838Y0067631D01*
X0052638Y0067847D01*
X0052442Y0068068D01*
X0052253Y0068293D01*
X0052069Y0068523D01*
X0051890Y0068758D01*
X0051717Y0068997D01*
X0051551Y0069240D01*
X0051390Y0069487D01*
X0051235Y0069738D01*
X0051087Y0069992D01*
X0050945Y0070250D01*
X0050809Y0070512D01*
X0050680Y0070777D01*
X0050557Y0071045D01*
X0050441Y0071316D01*
X0050332Y0071589D01*
X0050229Y0071866D01*
X0050133Y0072144D01*
X0050044Y0072425D01*
X0049962Y0072708D01*
X0049887Y0072993D01*
X0049819Y0073280D01*
X0049758Y0073568D01*
X0049704Y0073858D01*
X0049657Y0074149D01*
X0049617Y0074441D01*
X0049585Y0074734D01*
X0049560Y0075028D01*
X0049541Y0075322D01*
X0049531Y0075616D01*
X0049527Y0075911D01*
X0049417Y0144673D02*
X0049421Y0144968D01*
X0049431Y0145262D01*
X0049450Y0145556D01*
X0049475Y0145850D01*
X0049507Y0146143D01*
X0049547Y0146435D01*
X0049594Y0146726D01*
X0049648Y0147016D01*
X0049709Y0147304D01*
X0049777Y0147591D01*
X0049852Y0147876D01*
X0049934Y0148159D01*
X0050023Y0148440D01*
X0050119Y0148718D01*
X0050222Y0148995D01*
X0050331Y0149268D01*
X0050447Y0149539D01*
X0050570Y0149807D01*
X0050699Y0150072D01*
X0050835Y0150334D01*
X0050977Y0150592D01*
X0051125Y0150846D01*
X0051280Y0151097D01*
X0051441Y0151344D01*
X0051607Y0151587D01*
X0051780Y0151826D01*
X0051959Y0152061D01*
X0052143Y0152291D01*
X0052332Y0152516D01*
X0052528Y0152737D01*
X0052728Y0152953D01*
X0052934Y0153164D01*
X0053145Y0153370D01*
X0053361Y0153570D01*
X0053582Y0153766D01*
X0053807Y0153955D01*
X0054037Y0154139D01*
X0054272Y0154318D01*
X0054511Y0154491D01*
X0054754Y0154657D01*
X0055001Y0154818D01*
X0055252Y0154973D01*
X0055506Y0155121D01*
X0055764Y0155263D01*
X0056026Y0155399D01*
X0056291Y0155528D01*
X0056559Y0155651D01*
X0056830Y0155767D01*
X0057103Y0155876D01*
X0057380Y0155979D01*
X0057658Y0156075D01*
X0057939Y0156164D01*
X0058222Y0156246D01*
X0058507Y0156321D01*
X0058794Y0156389D01*
X0059082Y0156450D01*
X0059372Y0156504D01*
X0059663Y0156551D01*
X0059955Y0156591D01*
X0060248Y0156623D01*
X0060542Y0156648D01*
X0060836Y0156667D01*
X0061130Y0156677D01*
X0061425Y0156681D01*
X0061720Y0156677D01*
X0062014Y0156667D01*
X0062308Y0156648D01*
X0062602Y0156623D01*
X0062895Y0156591D01*
X0063187Y0156551D01*
X0063478Y0156504D01*
X0063768Y0156450D01*
X0064056Y0156389D01*
X0064343Y0156321D01*
X0064628Y0156246D01*
X0064911Y0156164D01*
X0065192Y0156075D01*
X0065470Y0155979D01*
X0065747Y0155876D01*
X0066020Y0155767D01*
X0066291Y0155651D01*
X0066559Y0155528D01*
X0066824Y0155399D01*
X0067086Y0155263D01*
X0067344Y0155121D01*
X0067598Y0154973D01*
X0067849Y0154818D01*
X0068096Y0154657D01*
X0068339Y0154491D01*
X0068578Y0154318D01*
X0068813Y0154139D01*
X0069043Y0153955D01*
X0069268Y0153766D01*
X0069489Y0153570D01*
X0069705Y0153370D01*
X0069916Y0153164D01*
X0070122Y0152953D01*
X0070322Y0152737D01*
X0070518Y0152516D01*
X0070707Y0152291D01*
X0070891Y0152061D01*
X0071070Y0151826D01*
X0071243Y0151587D01*
X0071409Y0151344D01*
X0071570Y0151097D01*
X0071725Y0150846D01*
X0071873Y0150592D01*
X0072015Y0150334D01*
X0072151Y0150072D01*
X0072280Y0149807D01*
X0072403Y0149539D01*
X0072519Y0149268D01*
X0072628Y0148995D01*
X0072731Y0148718D01*
X0072827Y0148440D01*
X0072916Y0148159D01*
X0072998Y0147876D01*
X0073073Y0147591D01*
X0073141Y0147304D01*
X0073202Y0147016D01*
X0073256Y0146726D01*
X0073303Y0146435D01*
X0073343Y0146143D01*
X0073375Y0145850D01*
X0073400Y0145556D01*
X0073419Y0145262D01*
X0073429Y0144968D01*
X0073433Y0144673D01*
X0073429Y0144378D01*
X0073419Y0144084D01*
X0073400Y0143790D01*
X0073375Y0143496D01*
X0073343Y0143203D01*
X0073303Y0142911D01*
X0073256Y0142620D01*
X0073202Y0142330D01*
X0073141Y0142042D01*
X0073073Y0141755D01*
X0072998Y0141470D01*
X0072916Y0141187D01*
X0072827Y0140906D01*
X0072731Y0140628D01*
X0072628Y0140351D01*
X0072519Y0140078D01*
X0072403Y0139807D01*
X0072280Y0139539D01*
X0072151Y0139274D01*
X0072015Y0139012D01*
X0071873Y0138754D01*
X0071725Y0138500D01*
X0071570Y0138249D01*
X0071409Y0138002D01*
X0071243Y0137759D01*
X0071070Y0137520D01*
X0070891Y0137285D01*
X0070707Y0137055D01*
X0070518Y0136830D01*
X0070322Y0136609D01*
X0070122Y0136393D01*
X0069916Y0136182D01*
X0069705Y0135976D01*
X0069489Y0135776D01*
X0069268Y0135580D01*
X0069043Y0135391D01*
X0068813Y0135207D01*
X0068578Y0135028D01*
X0068339Y0134855D01*
X0068096Y0134689D01*
X0067849Y0134528D01*
X0067598Y0134373D01*
X0067344Y0134225D01*
X0067086Y0134083D01*
X0066824Y0133947D01*
X0066559Y0133818D01*
X0066291Y0133695D01*
X0066020Y0133579D01*
X0065747Y0133470D01*
X0065470Y0133367D01*
X0065192Y0133271D01*
X0064911Y0133182D01*
X0064628Y0133100D01*
X0064343Y0133025D01*
X0064056Y0132957D01*
X0063768Y0132896D01*
X0063478Y0132842D01*
X0063187Y0132795D01*
X0062895Y0132755D01*
X0062602Y0132723D01*
X0062308Y0132698D01*
X0062014Y0132679D01*
X0061720Y0132669D01*
X0061425Y0132665D01*
X0061130Y0132669D01*
X0060836Y0132679D01*
X0060542Y0132698D01*
X0060248Y0132723D01*
X0059955Y0132755D01*
X0059663Y0132795D01*
X0059372Y0132842D01*
X0059082Y0132896D01*
X0058794Y0132957D01*
X0058507Y0133025D01*
X0058222Y0133100D01*
X0057939Y0133182D01*
X0057658Y0133271D01*
X0057380Y0133367D01*
X0057103Y0133470D01*
X0056830Y0133579D01*
X0056559Y0133695D01*
X0056291Y0133818D01*
X0056026Y0133947D01*
X0055764Y0134083D01*
X0055506Y0134225D01*
X0055252Y0134373D01*
X0055001Y0134528D01*
X0054754Y0134689D01*
X0054511Y0134855D01*
X0054272Y0135028D01*
X0054037Y0135207D01*
X0053807Y0135391D01*
X0053582Y0135580D01*
X0053361Y0135776D01*
X0053145Y0135976D01*
X0052934Y0136182D01*
X0052728Y0136393D01*
X0052528Y0136609D01*
X0052332Y0136830D01*
X0052143Y0137055D01*
X0051959Y0137285D01*
X0051780Y0137520D01*
X0051607Y0137759D01*
X0051441Y0138002D01*
X0051280Y0138249D01*
X0051125Y0138500D01*
X0050977Y0138754D01*
X0050835Y0139012D01*
X0050699Y0139274D01*
X0050570Y0139539D01*
X0050447Y0139807D01*
X0050331Y0140078D01*
X0050222Y0140351D01*
X0050119Y0140628D01*
X0050023Y0140906D01*
X0049934Y0141187D01*
X0049852Y0141470D01*
X0049777Y0141755D01*
X0049709Y0142042D01*
X0049648Y0142330D01*
X0049594Y0142620D01*
X0049547Y0142911D01*
X0049507Y0143203D01*
X0049475Y0143496D01*
X0049450Y0143790D01*
X0049431Y0144084D01*
X0049421Y0144378D01*
X0049417Y0144673D01*
X0049527Y0206261D02*
X0049531Y0206556D01*
X0049541Y0206850D01*
X0049560Y0207144D01*
X0049585Y0207438D01*
X0049617Y0207731D01*
X0049657Y0208023D01*
X0049704Y0208314D01*
X0049758Y0208604D01*
X0049819Y0208892D01*
X0049887Y0209179D01*
X0049962Y0209464D01*
X0050044Y0209747D01*
X0050133Y0210028D01*
X0050229Y0210306D01*
X0050332Y0210583D01*
X0050441Y0210856D01*
X0050557Y0211127D01*
X0050680Y0211395D01*
X0050809Y0211660D01*
X0050945Y0211922D01*
X0051087Y0212180D01*
X0051235Y0212434D01*
X0051390Y0212685D01*
X0051551Y0212932D01*
X0051717Y0213175D01*
X0051890Y0213414D01*
X0052069Y0213649D01*
X0052253Y0213879D01*
X0052442Y0214104D01*
X0052638Y0214325D01*
X0052838Y0214541D01*
X0053044Y0214752D01*
X0053255Y0214958D01*
X0053471Y0215158D01*
X0053692Y0215354D01*
X0053917Y0215543D01*
X0054147Y0215727D01*
X0054382Y0215906D01*
X0054621Y0216079D01*
X0054864Y0216245D01*
X0055111Y0216406D01*
X0055362Y0216561D01*
X0055616Y0216709D01*
X0055874Y0216851D01*
X0056136Y0216987D01*
X0056401Y0217116D01*
X0056669Y0217239D01*
X0056940Y0217355D01*
X0057213Y0217464D01*
X0057490Y0217567D01*
X0057768Y0217663D01*
X0058049Y0217752D01*
X0058332Y0217834D01*
X0058617Y0217909D01*
X0058904Y0217977D01*
X0059192Y0218038D01*
X0059482Y0218092D01*
X0059773Y0218139D01*
X0060065Y0218179D01*
X0060358Y0218211D01*
X0060652Y0218236D01*
X0060946Y0218255D01*
X0061240Y0218265D01*
X0061535Y0218269D01*
X0061830Y0218265D01*
X0062124Y0218255D01*
X0062418Y0218236D01*
X0062712Y0218211D01*
X0063005Y0218179D01*
X0063297Y0218139D01*
X0063588Y0218092D01*
X0063878Y0218038D01*
X0064166Y0217977D01*
X0064453Y0217909D01*
X0064738Y0217834D01*
X0065021Y0217752D01*
X0065302Y0217663D01*
X0065580Y0217567D01*
X0065857Y0217464D01*
X0066130Y0217355D01*
X0066401Y0217239D01*
X0066669Y0217116D01*
X0066934Y0216987D01*
X0067196Y0216851D01*
X0067454Y0216709D01*
X0067708Y0216561D01*
X0067959Y0216406D01*
X0068206Y0216245D01*
X0068449Y0216079D01*
X0068688Y0215906D01*
X0068923Y0215727D01*
X0069153Y0215543D01*
X0069378Y0215354D01*
X0069599Y0215158D01*
X0069815Y0214958D01*
X0070026Y0214752D01*
X0070232Y0214541D01*
X0070432Y0214325D01*
X0070628Y0214104D01*
X0070817Y0213879D01*
X0071001Y0213649D01*
X0071180Y0213414D01*
X0071353Y0213175D01*
X0071519Y0212932D01*
X0071680Y0212685D01*
X0071835Y0212434D01*
X0071983Y0212180D01*
X0072125Y0211922D01*
X0072261Y0211660D01*
X0072390Y0211395D01*
X0072513Y0211127D01*
X0072629Y0210856D01*
X0072738Y0210583D01*
X0072841Y0210306D01*
X0072937Y0210028D01*
X0073026Y0209747D01*
X0073108Y0209464D01*
X0073183Y0209179D01*
X0073251Y0208892D01*
X0073312Y0208604D01*
X0073366Y0208314D01*
X0073413Y0208023D01*
X0073453Y0207731D01*
X0073485Y0207438D01*
X0073510Y0207144D01*
X0073529Y0206850D01*
X0073539Y0206556D01*
X0073543Y0206261D01*
X0073539Y0205966D01*
X0073529Y0205672D01*
X0073510Y0205378D01*
X0073485Y0205084D01*
X0073453Y0204791D01*
X0073413Y0204499D01*
X0073366Y0204208D01*
X0073312Y0203918D01*
X0073251Y0203630D01*
X0073183Y0203343D01*
X0073108Y0203058D01*
X0073026Y0202775D01*
X0072937Y0202494D01*
X0072841Y0202216D01*
X0072738Y0201939D01*
X0072629Y0201666D01*
X0072513Y0201395D01*
X0072390Y0201127D01*
X0072261Y0200862D01*
X0072125Y0200600D01*
X0071983Y0200342D01*
X0071835Y0200088D01*
X0071680Y0199837D01*
X0071519Y0199590D01*
X0071353Y0199347D01*
X0071180Y0199108D01*
X0071001Y0198873D01*
X0070817Y0198643D01*
X0070628Y0198418D01*
X0070432Y0198197D01*
X0070232Y0197981D01*
X0070026Y0197770D01*
X0069815Y0197564D01*
X0069599Y0197364D01*
X0069378Y0197168D01*
X0069153Y0196979D01*
X0068923Y0196795D01*
X0068688Y0196616D01*
X0068449Y0196443D01*
X0068206Y0196277D01*
X0067959Y0196116D01*
X0067708Y0195961D01*
X0067454Y0195813D01*
X0067196Y0195671D01*
X0066934Y0195535D01*
X0066669Y0195406D01*
X0066401Y0195283D01*
X0066130Y0195167D01*
X0065857Y0195058D01*
X0065580Y0194955D01*
X0065302Y0194859D01*
X0065021Y0194770D01*
X0064738Y0194688D01*
X0064453Y0194613D01*
X0064166Y0194545D01*
X0063878Y0194484D01*
X0063588Y0194430D01*
X0063297Y0194383D01*
X0063005Y0194343D01*
X0062712Y0194311D01*
X0062418Y0194286D01*
X0062124Y0194267D01*
X0061830Y0194257D01*
X0061535Y0194253D01*
X0061240Y0194257D01*
X0060946Y0194267D01*
X0060652Y0194286D01*
X0060358Y0194311D01*
X0060065Y0194343D01*
X0059773Y0194383D01*
X0059482Y0194430D01*
X0059192Y0194484D01*
X0058904Y0194545D01*
X0058617Y0194613D01*
X0058332Y0194688D01*
X0058049Y0194770D01*
X0057768Y0194859D01*
X0057490Y0194955D01*
X0057213Y0195058D01*
X0056940Y0195167D01*
X0056669Y0195283D01*
X0056401Y0195406D01*
X0056136Y0195535D01*
X0055874Y0195671D01*
X0055616Y0195813D01*
X0055362Y0195961D01*
X0055111Y0196116D01*
X0054864Y0196277D01*
X0054621Y0196443D01*
X0054382Y0196616D01*
X0054147Y0196795D01*
X0053917Y0196979D01*
X0053692Y0197168D01*
X0053471Y0197364D01*
X0053255Y0197564D01*
X0053044Y0197770D01*
X0052838Y0197981D01*
X0052638Y0198197D01*
X0052442Y0198418D01*
X0052253Y0198643D01*
X0052069Y0198873D01*
X0051890Y0199108D01*
X0051717Y0199347D01*
X0051551Y0199590D01*
X0051390Y0199837D01*
X0051235Y0200088D01*
X0051087Y0200342D01*
X0050945Y0200600D01*
X0050809Y0200862D01*
X0050680Y0201127D01*
X0050557Y0201395D01*
X0050441Y0201666D01*
X0050332Y0201939D01*
X0050229Y0202216D01*
X0050133Y0202494D01*
X0050044Y0202775D01*
X0049962Y0203058D01*
X0049887Y0203343D01*
X0049819Y0203630D01*
X0049758Y0203918D01*
X0049704Y0204208D01*
X0049657Y0204499D01*
X0049617Y0204791D01*
X0049585Y0205084D01*
X0049560Y0205378D01*
X0049541Y0205672D01*
X0049531Y0205966D01*
X0049527Y0206261D01*
X0049601Y0271932D02*
X0049605Y0272227D01*
X0049615Y0272521D01*
X0049634Y0272815D01*
X0049659Y0273109D01*
X0049691Y0273402D01*
X0049731Y0273694D01*
X0049778Y0273985D01*
X0049832Y0274275D01*
X0049893Y0274563D01*
X0049961Y0274850D01*
X0050036Y0275135D01*
X0050118Y0275418D01*
X0050207Y0275699D01*
X0050303Y0275977D01*
X0050406Y0276254D01*
X0050515Y0276527D01*
X0050631Y0276798D01*
X0050754Y0277066D01*
X0050883Y0277331D01*
X0051019Y0277593D01*
X0051161Y0277851D01*
X0051309Y0278105D01*
X0051464Y0278356D01*
X0051625Y0278603D01*
X0051791Y0278846D01*
X0051964Y0279085D01*
X0052143Y0279320D01*
X0052327Y0279550D01*
X0052516Y0279775D01*
X0052712Y0279996D01*
X0052912Y0280212D01*
X0053118Y0280423D01*
X0053329Y0280629D01*
X0053545Y0280829D01*
X0053766Y0281025D01*
X0053991Y0281214D01*
X0054221Y0281398D01*
X0054456Y0281577D01*
X0054695Y0281750D01*
X0054938Y0281916D01*
X0055185Y0282077D01*
X0055436Y0282232D01*
X0055690Y0282380D01*
X0055948Y0282522D01*
X0056210Y0282658D01*
X0056475Y0282787D01*
X0056743Y0282910D01*
X0057014Y0283026D01*
X0057287Y0283135D01*
X0057564Y0283238D01*
X0057842Y0283334D01*
X0058123Y0283423D01*
X0058406Y0283505D01*
X0058691Y0283580D01*
X0058978Y0283648D01*
X0059266Y0283709D01*
X0059556Y0283763D01*
X0059847Y0283810D01*
X0060139Y0283850D01*
X0060432Y0283882D01*
X0060726Y0283907D01*
X0061020Y0283926D01*
X0061314Y0283936D01*
X0061609Y0283940D01*
X0061904Y0283936D01*
X0062198Y0283926D01*
X0062492Y0283907D01*
X0062786Y0283882D01*
X0063079Y0283850D01*
X0063371Y0283810D01*
X0063662Y0283763D01*
X0063952Y0283709D01*
X0064240Y0283648D01*
X0064527Y0283580D01*
X0064812Y0283505D01*
X0065095Y0283423D01*
X0065376Y0283334D01*
X0065654Y0283238D01*
X0065931Y0283135D01*
X0066204Y0283026D01*
X0066475Y0282910D01*
X0066743Y0282787D01*
X0067008Y0282658D01*
X0067270Y0282522D01*
X0067528Y0282380D01*
X0067782Y0282232D01*
X0068033Y0282077D01*
X0068280Y0281916D01*
X0068523Y0281750D01*
X0068762Y0281577D01*
X0068997Y0281398D01*
X0069227Y0281214D01*
X0069452Y0281025D01*
X0069673Y0280829D01*
X0069889Y0280629D01*
X0070100Y0280423D01*
X0070306Y0280212D01*
X0070506Y0279996D01*
X0070702Y0279775D01*
X0070891Y0279550D01*
X0071075Y0279320D01*
X0071254Y0279085D01*
X0071427Y0278846D01*
X0071593Y0278603D01*
X0071754Y0278356D01*
X0071909Y0278105D01*
X0072057Y0277851D01*
X0072199Y0277593D01*
X0072335Y0277331D01*
X0072464Y0277066D01*
X0072587Y0276798D01*
X0072703Y0276527D01*
X0072812Y0276254D01*
X0072915Y0275977D01*
X0073011Y0275699D01*
X0073100Y0275418D01*
X0073182Y0275135D01*
X0073257Y0274850D01*
X0073325Y0274563D01*
X0073386Y0274275D01*
X0073440Y0273985D01*
X0073487Y0273694D01*
X0073527Y0273402D01*
X0073559Y0273109D01*
X0073584Y0272815D01*
X0073603Y0272521D01*
X0073613Y0272227D01*
X0073617Y0271932D01*
X0073613Y0271637D01*
X0073603Y0271343D01*
X0073584Y0271049D01*
X0073559Y0270755D01*
X0073527Y0270462D01*
X0073487Y0270170D01*
X0073440Y0269879D01*
X0073386Y0269589D01*
X0073325Y0269301D01*
X0073257Y0269014D01*
X0073182Y0268729D01*
X0073100Y0268446D01*
X0073011Y0268165D01*
X0072915Y0267887D01*
X0072812Y0267610D01*
X0072703Y0267337D01*
X0072587Y0267066D01*
X0072464Y0266798D01*
X0072335Y0266533D01*
X0072199Y0266271D01*
X0072057Y0266013D01*
X0071909Y0265759D01*
X0071754Y0265508D01*
X0071593Y0265261D01*
X0071427Y0265018D01*
X0071254Y0264779D01*
X0071075Y0264544D01*
X0070891Y0264314D01*
X0070702Y0264089D01*
X0070506Y0263868D01*
X0070306Y0263652D01*
X0070100Y0263441D01*
X0069889Y0263235D01*
X0069673Y0263035D01*
X0069452Y0262839D01*
X0069227Y0262650D01*
X0068997Y0262466D01*
X0068762Y0262287D01*
X0068523Y0262114D01*
X0068280Y0261948D01*
X0068033Y0261787D01*
X0067782Y0261632D01*
X0067528Y0261484D01*
X0067270Y0261342D01*
X0067008Y0261206D01*
X0066743Y0261077D01*
X0066475Y0260954D01*
X0066204Y0260838D01*
X0065931Y0260729D01*
X0065654Y0260626D01*
X0065376Y0260530D01*
X0065095Y0260441D01*
X0064812Y0260359D01*
X0064527Y0260284D01*
X0064240Y0260216D01*
X0063952Y0260155D01*
X0063662Y0260101D01*
X0063371Y0260054D01*
X0063079Y0260014D01*
X0062786Y0259982D01*
X0062492Y0259957D01*
X0062198Y0259938D01*
X0061904Y0259928D01*
X0061609Y0259924D01*
X0061314Y0259928D01*
X0061020Y0259938D01*
X0060726Y0259957D01*
X0060432Y0259982D01*
X0060139Y0260014D01*
X0059847Y0260054D01*
X0059556Y0260101D01*
X0059266Y0260155D01*
X0058978Y0260216D01*
X0058691Y0260284D01*
X0058406Y0260359D01*
X0058123Y0260441D01*
X0057842Y0260530D01*
X0057564Y0260626D01*
X0057287Y0260729D01*
X0057014Y0260838D01*
X0056743Y0260954D01*
X0056475Y0261077D01*
X0056210Y0261206D01*
X0055948Y0261342D01*
X0055690Y0261484D01*
X0055436Y0261632D01*
X0055185Y0261787D01*
X0054938Y0261948D01*
X0054695Y0262114D01*
X0054456Y0262287D01*
X0054221Y0262466D01*
X0053991Y0262650D01*
X0053766Y0262839D01*
X0053545Y0263035D01*
X0053329Y0263235D01*
X0053118Y0263441D01*
X0052912Y0263652D01*
X0052712Y0263868D01*
X0052516Y0264089D01*
X0052327Y0264314D01*
X0052143Y0264544D01*
X0051964Y0264779D01*
X0051791Y0265018D01*
X0051625Y0265261D01*
X0051464Y0265508D01*
X0051309Y0265759D01*
X0051161Y0266013D01*
X0051019Y0266271D01*
X0050883Y0266533D01*
X0050754Y0266798D01*
X0050631Y0267066D01*
X0050515Y0267337D01*
X0050406Y0267610D01*
X0050303Y0267887D01*
X0050207Y0268165D01*
X0050118Y0268446D01*
X0050036Y0268729D01*
X0049961Y0269014D01*
X0049893Y0269301D01*
X0049832Y0269589D01*
X0049778Y0269879D01*
X0049731Y0270170D01*
X0049691Y0270462D01*
X0049659Y0270755D01*
X0049634Y0271049D01*
X0049615Y0271343D01*
X0049605Y0271637D01*
X0049601Y0271932D01*
X0049527Y0337972D02*
X0049531Y0338267D01*
X0049541Y0338561D01*
X0049560Y0338855D01*
X0049585Y0339149D01*
X0049617Y0339442D01*
X0049657Y0339734D01*
X0049704Y0340025D01*
X0049758Y0340315D01*
X0049819Y0340603D01*
X0049887Y0340890D01*
X0049962Y0341175D01*
X0050044Y0341458D01*
X0050133Y0341739D01*
X0050229Y0342017D01*
X0050332Y0342294D01*
X0050441Y0342567D01*
X0050557Y0342838D01*
X0050680Y0343106D01*
X0050809Y0343371D01*
X0050945Y0343633D01*
X0051087Y0343891D01*
X0051235Y0344145D01*
X0051390Y0344396D01*
X0051551Y0344643D01*
X0051717Y0344886D01*
X0051890Y0345125D01*
X0052069Y0345360D01*
X0052253Y0345590D01*
X0052442Y0345815D01*
X0052638Y0346036D01*
X0052838Y0346252D01*
X0053044Y0346463D01*
X0053255Y0346669D01*
X0053471Y0346869D01*
X0053692Y0347065D01*
X0053917Y0347254D01*
X0054147Y0347438D01*
X0054382Y0347617D01*
X0054621Y0347790D01*
X0054864Y0347956D01*
X0055111Y0348117D01*
X0055362Y0348272D01*
X0055616Y0348420D01*
X0055874Y0348562D01*
X0056136Y0348698D01*
X0056401Y0348827D01*
X0056669Y0348950D01*
X0056940Y0349066D01*
X0057213Y0349175D01*
X0057490Y0349278D01*
X0057768Y0349374D01*
X0058049Y0349463D01*
X0058332Y0349545D01*
X0058617Y0349620D01*
X0058904Y0349688D01*
X0059192Y0349749D01*
X0059482Y0349803D01*
X0059773Y0349850D01*
X0060065Y0349890D01*
X0060358Y0349922D01*
X0060652Y0349947D01*
X0060946Y0349966D01*
X0061240Y0349976D01*
X0061535Y0349980D01*
X0061830Y0349976D01*
X0062124Y0349966D01*
X0062418Y0349947D01*
X0062712Y0349922D01*
X0063005Y0349890D01*
X0063297Y0349850D01*
X0063588Y0349803D01*
X0063878Y0349749D01*
X0064166Y0349688D01*
X0064453Y0349620D01*
X0064738Y0349545D01*
X0065021Y0349463D01*
X0065302Y0349374D01*
X0065580Y0349278D01*
X0065857Y0349175D01*
X0066130Y0349066D01*
X0066401Y0348950D01*
X0066669Y0348827D01*
X0066934Y0348698D01*
X0067196Y0348562D01*
X0067454Y0348420D01*
X0067708Y0348272D01*
X0067959Y0348117D01*
X0068206Y0347956D01*
X0068449Y0347790D01*
X0068688Y0347617D01*
X0068923Y0347438D01*
X0069153Y0347254D01*
X0069378Y0347065D01*
X0069599Y0346869D01*
X0069815Y0346669D01*
X0070026Y0346463D01*
X0070232Y0346252D01*
X0070432Y0346036D01*
X0070628Y0345815D01*
X0070817Y0345590D01*
X0071001Y0345360D01*
X0071180Y0345125D01*
X0071353Y0344886D01*
X0071519Y0344643D01*
X0071680Y0344396D01*
X0071835Y0344145D01*
X0071983Y0343891D01*
X0072125Y0343633D01*
X0072261Y0343371D01*
X0072390Y0343106D01*
X0072513Y0342838D01*
X0072629Y0342567D01*
X0072738Y0342294D01*
X0072841Y0342017D01*
X0072937Y0341739D01*
X0073026Y0341458D01*
X0073108Y0341175D01*
X0073183Y0340890D01*
X0073251Y0340603D01*
X0073312Y0340315D01*
X0073366Y0340025D01*
X0073413Y0339734D01*
X0073453Y0339442D01*
X0073485Y0339149D01*
X0073510Y0338855D01*
X0073529Y0338561D01*
X0073539Y0338267D01*
X0073543Y0337972D01*
X0073539Y0337677D01*
X0073529Y0337383D01*
X0073510Y0337089D01*
X0073485Y0336795D01*
X0073453Y0336502D01*
X0073413Y0336210D01*
X0073366Y0335919D01*
X0073312Y0335629D01*
X0073251Y0335341D01*
X0073183Y0335054D01*
X0073108Y0334769D01*
X0073026Y0334486D01*
X0072937Y0334205D01*
X0072841Y0333927D01*
X0072738Y0333650D01*
X0072629Y0333377D01*
X0072513Y0333106D01*
X0072390Y0332838D01*
X0072261Y0332573D01*
X0072125Y0332311D01*
X0071983Y0332053D01*
X0071835Y0331799D01*
X0071680Y0331548D01*
X0071519Y0331301D01*
X0071353Y0331058D01*
X0071180Y0330819D01*
X0071001Y0330584D01*
X0070817Y0330354D01*
X0070628Y0330129D01*
X0070432Y0329908D01*
X0070232Y0329692D01*
X0070026Y0329481D01*
X0069815Y0329275D01*
X0069599Y0329075D01*
X0069378Y0328879D01*
X0069153Y0328690D01*
X0068923Y0328506D01*
X0068688Y0328327D01*
X0068449Y0328154D01*
X0068206Y0327988D01*
X0067959Y0327827D01*
X0067708Y0327672D01*
X0067454Y0327524D01*
X0067196Y0327382D01*
X0066934Y0327246D01*
X0066669Y0327117D01*
X0066401Y0326994D01*
X0066130Y0326878D01*
X0065857Y0326769D01*
X0065580Y0326666D01*
X0065302Y0326570D01*
X0065021Y0326481D01*
X0064738Y0326399D01*
X0064453Y0326324D01*
X0064166Y0326256D01*
X0063878Y0326195D01*
X0063588Y0326141D01*
X0063297Y0326094D01*
X0063005Y0326054D01*
X0062712Y0326022D01*
X0062418Y0325997D01*
X0062124Y0325978D01*
X0061830Y0325968D01*
X0061535Y0325964D01*
X0061240Y0325968D01*
X0060946Y0325978D01*
X0060652Y0325997D01*
X0060358Y0326022D01*
X0060065Y0326054D01*
X0059773Y0326094D01*
X0059482Y0326141D01*
X0059192Y0326195D01*
X0058904Y0326256D01*
X0058617Y0326324D01*
X0058332Y0326399D01*
X0058049Y0326481D01*
X0057768Y0326570D01*
X0057490Y0326666D01*
X0057213Y0326769D01*
X0056940Y0326878D01*
X0056669Y0326994D01*
X0056401Y0327117D01*
X0056136Y0327246D01*
X0055874Y0327382D01*
X0055616Y0327524D01*
X0055362Y0327672D01*
X0055111Y0327827D01*
X0054864Y0327988D01*
X0054621Y0328154D01*
X0054382Y0328327D01*
X0054147Y0328506D01*
X0053917Y0328690D01*
X0053692Y0328879D01*
X0053471Y0329075D01*
X0053255Y0329275D01*
X0053044Y0329481D01*
X0052838Y0329692D01*
X0052638Y0329908D01*
X0052442Y0330129D01*
X0052253Y0330354D01*
X0052069Y0330584D01*
X0051890Y0330819D01*
X0051717Y0331058D01*
X0051551Y0331301D01*
X0051390Y0331548D01*
X0051235Y0331799D01*
X0051087Y0332053D01*
X0050945Y0332311D01*
X0050809Y0332573D01*
X0050680Y0332838D01*
X0050557Y0333106D01*
X0050441Y0333377D01*
X0050332Y0333650D01*
X0050229Y0333927D01*
X0050133Y0334205D01*
X0050044Y0334486D01*
X0049962Y0334769D01*
X0049887Y0335054D01*
X0049819Y0335341D01*
X0049758Y0335629D01*
X0049704Y0335919D01*
X0049657Y0336210D01*
X0049617Y0336502D01*
X0049585Y0336795D01*
X0049560Y0337089D01*
X0049541Y0337383D01*
X0049531Y0337677D01*
X0049527Y0337972D01*
X0049454Y0402761D02*
X0049458Y0403056D01*
X0049468Y0403350D01*
X0049487Y0403644D01*
X0049512Y0403938D01*
X0049544Y0404231D01*
X0049584Y0404523D01*
X0049631Y0404814D01*
X0049685Y0405104D01*
X0049746Y0405392D01*
X0049814Y0405679D01*
X0049889Y0405964D01*
X0049971Y0406247D01*
X0050060Y0406528D01*
X0050156Y0406806D01*
X0050259Y0407083D01*
X0050368Y0407356D01*
X0050484Y0407627D01*
X0050607Y0407895D01*
X0050736Y0408160D01*
X0050872Y0408422D01*
X0051014Y0408680D01*
X0051162Y0408934D01*
X0051317Y0409185D01*
X0051478Y0409432D01*
X0051644Y0409675D01*
X0051817Y0409914D01*
X0051996Y0410149D01*
X0052180Y0410379D01*
X0052369Y0410604D01*
X0052565Y0410825D01*
X0052765Y0411041D01*
X0052971Y0411252D01*
X0053182Y0411458D01*
X0053398Y0411658D01*
X0053619Y0411854D01*
X0053844Y0412043D01*
X0054074Y0412227D01*
X0054309Y0412406D01*
X0054548Y0412579D01*
X0054791Y0412745D01*
X0055038Y0412906D01*
X0055289Y0413061D01*
X0055543Y0413209D01*
X0055801Y0413351D01*
X0056063Y0413487D01*
X0056328Y0413616D01*
X0056596Y0413739D01*
X0056867Y0413855D01*
X0057140Y0413964D01*
X0057417Y0414067D01*
X0057695Y0414163D01*
X0057976Y0414252D01*
X0058259Y0414334D01*
X0058544Y0414409D01*
X0058831Y0414477D01*
X0059119Y0414538D01*
X0059409Y0414592D01*
X0059700Y0414639D01*
X0059992Y0414679D01*
X0060285Y0414711D01*
X0060579Y0414736D01*
X0060873Y0414755D01*
X0061167Y0414765D01*
X0061462Y0414769D01*
X0061757Y0414765D01*
X0062051Y0414755D01*
X0062345Y0414736D01*
X0062639Y0414711D01*
X0062932Y0414679D01*
X0063224Y0414639D01*
X0063515Y0414592D01*
X0063805Y0414538D01*
X0064093Y0414477D01*
X0064380Y0414409D01*
X0064665Y0414334D01*
X0064948Y0414252D01*
X0065229Y0414163D01*
X0065507Y0414067D01*
X0065784Y0413964D01*
X0066057Y0413855D01*
X0066328Y0413739D01*
X0066596Y0413616D01*
X0066861Y0413487D01*
X0067123Y0413351D01*
X0067381Y0413209D01*
X0067635Y0413061D01*
X0067886Y0412906D01*
X0068133Y0412745D01*
X0068376Y0412579D01*
X0068615Y0412406D01*
X0068850Y0412227D01*
X0069080Y0412043D01*
X0069305Y0411854D01*
X0069526Y0411658D01*
X0069742Y0411458D01*
X0069953Y0411252D01*
X0070159Y0411041D01*
X0070359Y0410825D01*
X0070555Y0410604D01*
X0070744Y0410379D01*
X0070928Y0410149D01*
X0071107Y0409914D01*
X0071280Y0409675D01*
X0071446Y0409432D01*
X0071607Y0409185D01*
X0071762Y0408934D01*
X0071910Y0408680D01*
X0072052Y0408422D01*
X0072188Y0408160D01*
X0072317Y0407895D01*
X0072440Y0407627D01*
X0072556Y0407356D01*
X0072665Y0407083D01*
X0072768Y0406806D01*
X0072864Y0406528D01*
X0072953Y0406247D01*
X0073035Y0405964D01*
X0073110Y0405679D01*
X0073178Y0405392D01*
X0073239Y0405104D01*
X0073293Y0404814D01*
X0073340Y0404523D01*
X0073380Y0404231D01*
X0073412Y0403938D01*
X0073437Y0403644D01*
X0073456Y0403350D01*
X0073466Y0403056D01*
X0073470Y0402761D01*
X0073466Y0402466D01*
X0073456Y0402172D01*
X0073437Y0401878D01*
X0073412Y0401584D01*
X0073380Y0401291D01*
X0073340Y0400999D01*
X0073293Y0400708D01*
X0073239Y0400418D01*
X0073178Y0400130D01*
X0073110Y0399843D01*
X0073035Y0399558D01*
X0072953Y0399275D01*
X0072864Y0398994D01*
X0072768Y0398716D01*
X0072665Y0398439D01*
X0072556Y0398166D01*
X0072440Y0397895D01*
X0072317Y0397627D01*
X0072188Y0397362D01*
X0072052Y0397100D01*
X0071910Y0396842D01*
X0071762Y0396588D01*
X0071607Y0396337D01*
X0071446Y0396090D01*
X0071280Y0395847D01*
X0071107Y0395608D01*
X0070928Y0395373D01*
X0070744Y0395143D01*
X0070555Y0394918D01*
X0070359Y0394697D01*
X0070159Y0394481D01*
X0069953Y0394270D01*
X0069742Y0394064D01*
X0069526Y0393864D01*
X0069305Y0393668D01*
X0069080Y0393479D01*
X0068850Y0393295D01*
X0068615Y0393116D01*
X0068376Y0392943D01*
X0068133Y0392777D01*
X0067886Y0392616D01*
X0067635Y0392461D01*
X0067381Y0392313D01*
X0067123Y0392171D01*
X0066861Y0392035D01*
X0066596Y0391906D01*
X0066328Y0391783D01*
X0066057Y0391667D01*
X0065784Y0391558D01*
X0065507Y0391455D01*
X0065229Y0391359D01*
X0064948Y0391270D01*
X0064665Y0391188D01*
X0064380Y0391113D01*
X0064093Y0391045D01*
X0063805Y0390984D01*
X0063515Y0390930D01*
X0063224Y0390883D01*
X0062932Y0390843D01*
X0062639Y0390811D01*
X0062345Y0390786D01*
X0062051Y0390767D01*
X0061757Y0390757D01*
X0061462Y0390753D01*
X0061167Y0390757D01*
X0060873Y0390767D01*
X0060579Y0390786D01*
X0060285Y0390811D01*
X0059992Y0390843D01*
X0059700Y0390883D01*
X0059409Y0390930D01*
X0059119Y0390984D01*
X0058831Y0391045D01*
X0058544Y0391113D01*
X0058259Y0391188D01*
X0057976Y0391270D01*
X0057695Y0391359D01*
X0057417Y0391455D01*
X0057140Y0391558D01*
X0056867Y0391667D01*
X0056596Y0391783D01*
X0056328Y0391906D01*
X0056063Y0392035D01*
X0055801Y0392171D01*
X0055543Y0392313D01*
X0055289Y0392461D01*
X0055038Y0392616D01*
X0054791Y0392777D01*
X0054548Y0392943D01*
X0054309Y0393116D01*
X0054074Y0393295D01*
X0053844Y0393479D01*
X0053619Y0393668D01*
X0053398Y0393864D01*
X0053182Y0394064D01*
X0052971Y0394270D01*
X0052765Y0394481D01*
X0052565Y0394697D01*
X0052369Y0394918D01*
X0052180Y0395143D01*
X0051996Y0395373D01*
X0051817Y0395608D01*
X0051644Y0395847D01*
X0051478Y0396090D01*
X0051317Y0396337D01*
X0051162Y0396588D01*
X0051014Y0396842D01*
X0050872Y0397100D01*
X0050736Y0397362D01*
X0050607Y0397627D01*
X0050484Y0397895D01*
X0050368Y0398166D01*
X0050259Y0398439D01*
X0050156Y0398716D01*
X0050060Y0398994D01*
X0049971Y0399275D01*
X0049889Y0399558D01*
X0049814Y0399843D01*
X0049746Y0400130D01*
X0049685Y0400418D01*
X0049631Y0400708D01*
X0049584Y0400999D01*
X0049544Y0401291D01*
X0049512Y0401584D01*
X0049487Y0401878D01*
X0049468Y0402172D01*
X0049458Y0402466D01*
X0049454Y0402761D01*
D12*
X0006520Y0402709D02*
X0006525Y0403115D01*
X0006540Y0403520D01*
X0006565Y0403925D01*
X0006600Y0404330D01*
X0006644Y0404733D01*
X0006699Y0405135D01*
X0006763Y0405536D01*
X0006838Y0405935D01*
X0006922Y0406332D01*
X0007016Y0406727D01*
X0007119Y0407119D01*
X0007232Y0407509D01*
X0007355Y0407896D01*
X0007487Y0408279D01*
X0007628Y0408660D01*
X0007779Y0409037D01*
X0007939Y0409410D01*
X0008108Y0409779D01*
X0008286Y0410143D01*
X0008472Y0410504D01*
X0008668Y0410859D01*
X0008872Y0411210D01*
X0009085Y0411555D01*
X0009307Y0411895D01*
X0009536Y0412230D01*
X0009774Y0412559D01*
X0010020Y0412882D01*
X0010273Y0413199D01*
X0010535Y0413509D01*
X0010803Y0413813D01*
X0011080Y0414111D01*
X0011363Y0414401D01*
X0011653Y0414684D01*
X0011951Y0414961D01*
X0012255Y0415229D01*
X0012565Y0415491D01*
X0012882Y0415744D01*
X0013205Y0415990D01*
X0013534Y0416228D01*
X0013869Y0416457D01*
X0014209Y0416679D01*
X0014554Y0416892D01*
X0014905Y0417096D01*
X0015260Y0417292D01*
X0015621Y0417478D01*
X0015985Y0417656D01*
X0016354Y0417825D01*
X0016727Y0417985D01*
X0017104Y0418136D01*
X0017485Y0418277D01*
X0017868Y0418409D01*
X0018255Y0418532D01*
X0018645Y0418645D01*
X0019037Y0418748D01*
X0019432Y0418842D01*
X0019829Y0418926D01*
X0020228Y0419001D01*
X0020629Y0419065D01*
X0021031Y0419120D01*
X0021434Y0419164D01*
X0021839Y0419199D01*
X0022244Y0419224D01*
X0022649Y0419239D01*
X0023055Y0419244D01*
X0023461Y0419239D01*
X0023866Y0419224D01*
X0024271Y0419199D01*
X0024676Y0419164D01*
X0025079Y0419120D01*
X0025481Y0419065D01*
X0025882Y0419001D01*
X0026281Y0418926D01*
X0026678Y0418842D01*
X0027073Y0418748D01*
X0027465Y0418645D01*
X0027855Y0418532D01*
X0028242Y0418409D01*
X0028625Y0418277D01*
X0029006Y0418136D01*
X0029383Y0417985D01*
X0029756Y0417825D01*
X0030125Y0417656D01*
X0030489Y0417478D01*
X0030850Y0417292D01*
X0031205Y0417096D01*
X0031556Y0416892D01*
X0031901Y0416679D01*
X0032241Y0416457D01*
X0032576Y0416228D01*
X0032905Y0415990D01*
X0033228Y0415744D01*
X0033545Y0415491D01*
X0033855Y0415229D01*
X0034159Y0414961D01*
X0034457Y0414684D01*
X0034747Y0414401D01*
X0035030Y0414111D01*
X0035307Y0413813D01*
X0035575Y0413509D01*
X0035837Y0413199D01*
X0036090Y0412882D01*
X0036336Y0412559D01*
X0036574Y0412230D01*
X0036803Y0411895D01*
X0037025Y0411555D01*
X0037238Y0411210D01*
X0037442Y0410859D01*
X0037638Y0410504D01*
X0037824Y0410143D01*
X0038002Y0409779D01*
X0038171Y0409410D01*
X0038331Y0409037D01*
X0038482Y0408660D01*
X0038623Y0408279D01*
X0038755Y0407896D01*
X0038878Y0407509D01*
X0038991Y0407119D01*
X0039094Y0406727D01*
X0039188Y0406332D01*
X0039272Y0405935D01*
X0039347Y0405536D01*
X0039411Y0405135D01*
X0039466Y0404733D01*
X0039510Y0404330D01*
X0039545Y0403925D01*
X0039570Y0403520D01*
X0039585Y0403115D01*
X0039590Y0402709D01*
X0039585Y0402303D01*
X0039570Y0401898D01*
X0039545Y0401493D01*
X0039510Y0401088D01*
X0039466Y0400685D01*
X0039411Y0400283D01*
X0039347Y0399882D01*
X0039272Y0399483D01*
X0039188Y0399086D01*
X0039094Y0398691D01*
X0038991Y0398299D01*
X0038878Y0397909D01*
X0038755Y0397522D01*
X0038623Y0397139D01*
X0038482Y0396758D01*
X0038331Y0396381D01*
X0038171Y0396008D01*
X0038002Y0395639D01*
X0037824Y0395275D01*
X0037638Y0394914D01*
X0037442Y0394559D01*
X0037238Y0394208D01*
X0037025Y0393863D01*
X0036803Y0393523D01*
X0036574Y0393188D01*
X0036336Y0392859D01*
X0036090Y0392536D01*
X0035837Y0392219D01*
X0035575Y0391909D01*
X0035307Y0391605D01*
X0035030Y0391307D01*
X0034747Y0391017D01*
X0034457Y0390734D01*
X0034159Y0390457D01*
X0033855Y0390189D01*
X0033545Y0389927D01*
X0033228Y0389674D01*
X0032905Y0389428D01*
X0032576Y0389190D01*
X0032241Y0388961D01*
X0031901Y0388739D01*
X0031556Y0388526D01*
X0031205Y0388322D01*
X0030850Y0388126D01*
X0030489Y0387940D01*
X0030125Y0387762D01*
X0029756Y0387593D01*
X0029383Y0387433D01*
X0029006Y0387282D01*
X0028625Y0387141D01*
X0028242Y0387009D01*
X0027855Y0386886D01*
X0027465Y0386773D01*
X0027073Y0386670D01*
X0026678Y0386576D01*
X0026281Y0386492D01*
X0025882Y0386417D01*
X0025481Y0386353D01*
X0025079Y0386298D01*
X0024676Y0386254D01*
X0024271Y0386219D01*
X0023866Y0386194D01*
X0023461Y0386179D01*
X0023055Y0386174D01*
X0022649Y0386179D01*
X0022244Y0386194D01*
X0021839Y0386219D01*
X0021434Y0386254D01*
X0021031Y0386298D01*
X0020629Y0386353D01*
X0020228Y0386417D01*
X0019829Y0386492D01*
X0019432Y0386576D01*
X0019037Y0386670D01*
X0018645Y0386773D01*
X0018255Y0386886D01*
X0017868Y0387009D01*
X0017485Y0387141D01*
X0017104Y0387282D01*
X0016727Y0387433D01*
X0016354Y0387593D01*
X0015985Y0387762D01*
X0015621Y0387940D01*
X0015260Y0388126D01*
X0014905Y0388322D01*
X0014554Y0388526D01*
X0014209Y0388739D01*
X0013869Y0388961D01*
X0013534Y0389190D01*
X0013205Y0389428D01*
X0012882Y0389674D01*
X0012565Y0389927D01*
X0012255Y0390189D01*
X0011951Y0390457D01*
X0011653Y0390734D01*
X0011363Y0391017D01*
X0011080Y0391307D01*
X0010803Y0391605D01*
X0010535Y0391909D01*
X0010273Y0392219D01*
X0010020Y0392536D01*
X0009774Y0392859D01*
X0009536Y0393188D01*
X0009307Y0393523D01*
X0009085Y0393863D01*
X0008872Y0394208D01*
X0008668Y0394559D01*
X0008472Y0394914D01*
X0008286Y0395275D01*
X0008108Y0395639D01*
X0007939Y0396008D01*
X0007779Y0396381D01*
X0007628Y0396758D01*
X0007487Y0397139D01*
X0007355Y0397522D01*
X0007232Y0397909D01*
X0007119Y0398299D01*
X0007016Y0398691D01*
X0006922Y0399086D01*
X0006838Y0399483D01*
X0006763Y0399882D01*
X0006699Y0400283D01*
X0006644Y0400685D01*
X0006600Y0401088D01*
X0006565Y0401493D01*
X0006540Y0401898D01*
X0006525Y0402303D01*
X0006520Y0402709D01*
X0006718Y0337832D02*
X0006723Y0338238D01*
X0006738Y0338643D01*
X0006763Y0339048D01*
X0006798Y0339453D01*
X0006842Y0339856D01*
X0006897Y0340258D01*
X0006961Y0340659D01*
X0007036Y0341058D01*
X0007120Y0341455D01*
X0007214Y0341850D01*
X0007317Y0342242D01*
X0007430Y0342632D01*
X0007553Y0343019D01*
X0007685Y0343402D01*
X0007826Y0343783D01*
X0007977Y0344160D01*
X0008137Y0344533D01*
X0008306Y0344902D01*
X0008484Y0345266D01*
X0008670Y0345627D01*
X0008866Y0345982D01*
X0009070Y0346333D01*
X0009283Y0346678D01*
X0009505Y0347018D01*
X0009734Y0347353D01*
X0009972Y0347682D01*
X0010218Y0348005D01*
X0010471Y0348322D01*
X0010733Y0348632D01*
X0011001Y0348936D01*
X0011278Y0349234D01*
X0011561Y0349524D01*
X0011851Y0349807D01*
X0012149Y0350084D01*
X0012453Y0350352D01*
X0012763Y0350614D01*
X0013080Y0350867D01*
X0013403Y0351113D01*
X0013732Y0351351D01*
X0014067Y0351580D01*
X0014407Y0351802D01*
X0014752Y0352015D01*
X0015103Y0352219D01*
X0015458Y0352415D01*
X0015819Y0352601D01*
X0016183Y0352779D01*
X0016552Y0352948D01*
X0016925Y0353108D01*
X0017302Y0353259D01*
X0017683Y0353400D01*
X0018066Y0353532D01*
X0018453Y0353655D01*
X0018843Y0353768D01*
X0019235Y0353871D01*
X0019630Y0353965D01*
X0020027Y0354049D01*
X0020426Y0354124D01*
X0020827Y0354188D01*
X0021229Y0354243D01*
X0021632Y0354287D01*
X0022037Y0354322D01*
X0022442Y0354347D01*
X0022847Y0354362D01*
X0023253Y0354367D01*
X0023659Y0354362D01*
X0024064Y0354347D01*
X0024469Y0354322D01*
X0024874Y0354287D01*
X0025277Y0354243D01*
X0025679Y0354188D01*
X0026080Y0354124D01*
X0026479Y0354049D01*
X0026876Y0353965D01*
X0027271Y0353871D01*
X0027663Y0353768D01*
X0028053Y0353655D01*
X0028440Y0353532D01*
X0028823Y0353400D01*
X0029204Y0353259D01*
X0029581Y0353108D01*
X0029954Y0352948D01*
X0030323Y0352779D01*
X0030687Y0352601D01*
X0031048Y0352415D01*
X0031403Y0352219D01*
X0031754Y0352015D01*
X0032099Y0351802D01*
X0032439Y0351580D01*
X0032774Y0351351D01*
X0033103Y0351113D01*
X0033426Y0350867D01*
X0033743Y0350614D01*
X0034053Y0350352D01*
X0034357Y0350084D01*
X0034655Y0349807D01*
X0034945Y0349524D01*
X0035228Y0349234D01*
X0035505Y0348936D01*
X0035773Y0348632D01*
X0036035Y0348322D01*
X0036288Y0348005D01*
X0036534Y0347682D01*
X0036772Y0347353D01*
X0037001Y0347018D01*
X0037223Y0346678D01*
X0037436Y0346333D01*
X0037640Y0345982D01*
X0037836Y0345627D01*
X0038022Y0345266D01*
X0038200Y0344902D01*
X0038369Y0344533D01*
X0038529Y0344160D01*
X0038680Y0343783D01*
X0038821Y0343402D01*
X0038953Y0343019D01*
X0039076Y0342632D01*
X0039189Y0342242D01*
X0039292Y0341850D01*
X0039386Y0341455D01*
X0039470Y0341058D01*
X0039545Y0340659D01*
X0039609Y0340258D01*
X0039664Y0339856D01*
X0039708Y0339453D01*
X0039743Y0339048D01*
X0039768Y0338643D01*
X0039783Y0338238D01*
X0039788Y0337832D01*
X0039783Y0337426D01*
X0039768Y0337021D01*
X0039743Y0336616D01*
X0039708Y0336211D01*
X0039664Y0335808D01*
X0039609Y0335406D01*
X0039545Y0335005D01*
X0039470Y0334606D01*
X0039386Y0334209D01*
X0039292Y0333814D01*
X0039189Y0333422D01*
X0039076Y0333032D01*
X0038953Y0332645D01*
X0038821Y0332262D01*
X0038680Y0331881D01*
X0038529Y0331504D01*
X0038369Y0331131D01*
X0038200Y0330762D01*
X0038022Y0330398D01*
X0037836Y0330037D01*
X0037640Y0329682D01*
X0037436Y0329331D01*
X0037223Y0328986D01*
X0037001Y0328646D01*
X0036772Y0328311D01*
X0036534Y0327982D01*
X0036288Y0327659D01*
X0036035Y0327342D01*
X0035773Y0327032D01*
X0035505Y0326728D01*
X0035228Y0326430D01*
X0034945Y0326140D01*
X0034655Y0325857D01*
X0034357Y0325580D01*
X0034053Y0325312D01*
X0033743Y0325050D01*
X0033426Y0324797D01*
X0033103Y0324551D01*
X0032774Y0324313D01*
X0032439Y0324084D01*
X0032099Y0323862D01*
X0031754Y0323649D01*
X0031403Y0323445D01*
X0031048Y0323249D01*
X0030687Y0323063D01*
X0030323Y0322885D01*
X0029954Y0322716D01*
X0029581Y0322556D01*
X0029204Y0322405D01*
X0028823Y0322264D01*
X0028440Y0322132D01*
X0028053Y0322009D01*
X0027663Y0321896D01*
X0027271Y0321793D01*
X0026876Y0321699D01*
X0026479Y0321615D01*
X0026080Y0321540D01*
X0025679Y0321476D01*
X0025277Y0321421D01*
X0024874Y0321377D01*
X0024469Y0321342D01*
X0024064Y0321317D01*
X0023659Y0321302D01*
X0023253Y0321297D01*
X0022847Y0321302D01*
X0022442Y0321317D01*
X0022037Y0321342D01*
X0021632Y0321377D01*
X0021229Y0321421D01*
X0020827Y0321476D01*
X0020426Y0321540D01*
X0020027Y0321615D01*
X0019630Y0321699D01*
X0019235Y0321793D01*
X0018843Y0321896D01*
X0018453Y0322009D01*
X0018066Y0322132D01*
X0017683Y0322264D01*
X0017302Y0322405D01*
X0016925Y0322556D01*
X0016552Y0322716D01*
X0016183Y0322885D01*
X0015819Y0323063D01*
X0015458Y0323249D01*
X0015103Y0323445D01*
X0014752Y0323649D01*
X0014407Y0323862D01*
X0014067Y0324084D01*
X0013732Y0324313D01*
X0013403Y0324551D01*
X0013080Y0324797D01*
X0012763Y0325050D01*
X0012453Y0325312D01*
X0012149Y0325580D01*
X0011851Y0325857D01*
X0011561Y0326140D01*
X0011278Y0326430D01*
X0011001Y0326728D01*
X0010733Y0327032D01*
X0010471Y0327342D01*
X0010218Y0327659D01*
X0009972Y0327982D01*
X0009734Y0328311D01*
X0009505Y0328646D01*
X0009283Y0328986D01*
X0009070Y0329331D01*
X0008866Y0329682D01*
X0008670Y0330037D01*
X0008484Y0330398D01*
X0008306Y0330762D01*
X0008137Y0331131D01*
X0007977Y0331504D01*
X0007826Y0331881D01*
X0007685Y0332262D01*
X0007553Y0332645D01*
X0007430Y0333032D01*
X0007317Y0333422D01*
X0007214Y0333814D01*
X0007120Y0334209D01*
X0007036Y0334606D01*
X0006961Y0335005D01*
X0006897Y0335406D01*
X0006842Y0335808D01*
X0006798Y0336211D01*
X0006763Y0336616D01*
X0006738Y0337021D01*
X0006723Y0337426D01*
X0006718Y0337832D01*
X0006608Y0271701D02*
X0006613Y0272107D01*
X0006628Y0272512D01*
X0006653Y0272917D01*
X0006688Y0273322D01*
X0006732Y0273725D01*
X0006787Y0274127D01*
X0006851Y0274528D01*
X0006926Y0274927D01*
X0007010Y0275324D01*
X0007104Y0275719D01*
X0007207Y0276111D01*
X0007320Y0276501D01*
X0007443Y0276888D01*
X0007575Y0277271D01*
X0007716Y0277652D01*
X0007867Y0278029D01*
X0008027Y0278402D01*
X0008196Y0278771D01*
X0008374Y0279135D01*
X0008560Y0279496D01*
X0008756Y0279851D01*
X0008960Y0280202D01*
X0009173Y0280547D01*
X0009395Y0280887D01*
X0009624Y0281222D01*
X0009862Y0281551D01*
X0010108Y0281874D01*
X0010361Y0282191D01*
X0010623Y0282501D01*
X0010891Y0282805D01*
X0011168Y0283103D01*
X0011451Y0283393D01*
X0011741Y0283676D01*
X0012039Y0283953D01*
X0012343Y0284221D01*
X0012653Y0284483D01*
X0012970Y0284736D01*
X0013293Y0284982D01*
X0013622Y0285220D01*
X0013957Y0285449D01*
X0014297Y0285671D01*
X0014642Y0285884D01*
X0014993Y0286088D01*
X0015348Y0286284D01*
X0015709Y0286470D01*
X0016073Y0286648D01*
X0016442Y0286817D01*
X0016815Y0286977D01*
X0017192Y0287128D01*
X0017573Y0287269D01*
X0017956Y0287401D01*
X0018343Y0287524D01*
X0018733Y0287637D01*
X0019125Y0287740D01*
X0019520Y0287834D01*
X0019917Y0287918D01*
X0020316Y0287993D01*
X0020717Y0288057D01*
X0021119Y0288112D01*
X0021522Y0288156D01*
X0021927Y0288191D01*
X0022332Y0288216D01*
X0022737Y0288231D01*
X0023143Y0288236D01*
X0023549Y0288231D01*
X0023954Y0288216D01*
X0024359Y0288191D01*
X0024764Y0288156D01*
X0025167Y0288112D01*
X0025569Y0288057D01*
X0025970Y0287993D01*
X0026369Y0287918D01*
X0026766Y0287834D01*
X0027161Y0287740D01*
X0027553Y0287637D01*
X0027943Y0287524D01*
X0028330Y0287401D01*
X0028713Y0287269D01*
X0029094Y0287128D01*
X0029471Y0286977D01*
X0029844Y0286817D01*
X0030213Y0286648D01*
X0030577Y0286470D01*
X0030938Y0286284D01*
X0031293Y0286088D01*
X0031644Y0285884D01*
X0031989Y0285671D01*
X0032329Y0285449D01*
X0032664Y0285220D01*
X0032993Y0284982D01*
X0033316Y0284736D01*
X0033633Y0284483D01*
X0033943Y0284221D01*
X0034247Y0283953D01*
X0034545Y0283676D01*
X0034835Y0283393D01*
X0035118Y0283103D01*
X0035395Y0282805D01*
X0035663Y0282501D01*
X0035925Y0282191D01*
X0036178Y0281874D01*
X0036424Y0281551D01*
X0036662Y0281222D01*
X0036891Y0280887D01*
X0037113Y0280547D01*
X0037326Y0280202D01*
X0037530Y0279851D01*
X0037726Y0279496D01*
X0037912Y0279135D01*
X0038090Y0278771D01*
X0038259Y0278402D01*
X0038419Y0278029D01*
X0038570Y0277652D01*
X0038711Y0277271D01*
X0038843Y0276888D01*
X0038966Y0276501D01*
X0039079Y0276111D01*
X0039182Y0275719D01*
X0039276Y0275324D01*
X0039360Y0274927D01*
X0039435Y0274528D01*
X0039499Y0274127D01*
X0039554Y0273725D01*
X0039598Y0273322D01*
X0039633Y0272917D01*
X0039658Y0272512D01*
X0039673Y0272107D01*
X0039678Y0271701D01*
X0039673Y0271295D01*
X0039658Y0270890D01*
X0039633Y0270485D01*
X0039598Y0270080D01*
X0039554Y0269677D01*
X0039499Y0269275D01*
X0039435Y0268874D01*
X0039360Y0268475D01*
X0039276Y0268078D01*
X0039182Y0267683D01*
X0039079Y0267291D01*
X0038966Y0266901D01*
X0038843Y0266514D01*
X0038711Y0266131D01*
X0038570Y0265750D01*
X0038419Y0265373D01*
X0038259Y0265000D01*
X0038090Y0264631D01*
X0037912Y0264267D01*
X0037726Y0263906D01*
X0037530Y0263551D01*
X0037326Y0263200D01*
X0037113Y0262855D01*
X0036891Y0262515D01*
X0036662Y0262180D01*
X0036424Y0261851D01*
X0036178Y0261528D01*
X0035925Y0261211D01*
X0035663Y0260901D01*
X0035395Y0260597D01*
X0035118Y0260299D01*
X0034835Y0260009D01*
X0034545Y0259726D01*
X0034247Y0259449D01*
X0033943Y0259181D01*
X0033633Y0258919D01*
X0033316Y0258666D01*
X0032993Y0258420D01*
X0032664Y0258182D01*
X0032329Y0257953D01*
X0031989Y0257731D01*
X0031644Y0257518D01*
X0031293Y0257314D01*
X0030938Y0257118D01*
X0030577Y0256932D01*
X0030213Y0256754D01*
X0029844Y0256585D01*
X0029471Y0256425D01*
X0029094Y0256274D01*
X0028713Y0256133D01*
X0028330Y0256001D01*
X0027943Y0255878D01*
X0027553Y0255765D01*
X0027161Y0255662D01*
X0026766Y0255568D01*
X0026369Y0255484D01*
X0025970Y0255409D01*
X0025569Y0255345D01*
X0025167Y0255290D01*
X0024764Y0255246D01*
X0024359Y0255211D01*
X0023954Y0255186D01*
X0023549Y0255171D01*
X0023143Y0255166D01*
X0022737Y0255171D01*
X0022332Y0255186D01*
X0021927Y0255211D01*
X0021522Y0255246D01*
X0021119Y0255290D01*
X0020717Y0255345D01*
X0020316Y0255409D01*
X0019917Y0255484D01*
X0019520Y0255568D01*
X0019125Y0255662D01*
X0018733Y0255765D01*
X0018343Y0255878D01*
X0017956Y0256001D01*
X0017573Y0256133D01*
X0017192Y0256274D01*
X0016815Y0256425D01*
X0016442Y0256585D01*
X0016073Y0256754D01*
X0015709Y0256932D01*
X0015348Y0257118D01*
X0014993Y0257314D01*
X0014642Y0257518D01*
X0014297Y0257731D01*
X0013957Y0257953D01*
X0013622Y0258182D01*
X0013293Y0258420D01*
X0012970Y0258666D01*
X0012653Y0258919D01*
X0012343Y0259181D01*
X0012039Y0259449D01*
X0011741Y0259726D01*
X0011451Y0260009D01*
X0011168Y0260299D01*
X0010891Y0260597D01*
X0010623Y0260901D01*
X0010361Y0261211D01*
X0010108Y0261528D01*
X0009862Y0261851D01*
X0009624Y0262180D01*
X0009395Y0262515D01*
X0009173Y0262855D01*
X0008960Y0263200D01*
X0008756Y0263551D01*
X0008560Y0263906D01*
X0008374Y0264267D01*
X0008196Y0264631D01*
X0008027Y0265000D01*
X0007867Y0265373D01*
X0007716Y0265750D01*
X0007575Y0266131D01*
X0007443Y0266514D01*
X0007320Y0266901D01*
X0007207Y0267291D01*
X0007104Y0267683D01*
X0007010Y0268078D01*
X0006926Y0268475D01*
X0006851Y0268874D01*
X0006787Y0269275D01*
X0006732Y0269677D01*
X0006688Y0270080D01*
X0006653Y0270485D01*
X0006628Y0270890D01*
X0006613Y0271295D01*
X0006608Y0271701D01*
X0006554Y0205838D02*
X0006559Y0206244D01*
X0006574Y0206649D01*
X0006599Y0207054D01*
X0006634Y0207459D01*
X0006678Y0207862D01*
X0006733Y0208264D01*
X0006797Y0208665D01*
X0006872Y0209064D01*
X0006956Y0209461D01*
X0007050Y0209856D01*
X0007153Y0210248D01*
X0007266Y0210638D01*
X0007389Y0211025D01*
X0007521Y0211408D01*
X0007662Y0211789D01*
X0007813Y0212166D01*
X0007973Y0212539D01*
X0008142Y0212908D01*
X0008320Y0213272D01*
X0008506Y0213633D01*
X0008702Y0213988D01*
X0008906Y0214339D01*
X0009119Y0214684D01*
X0009341Y0215024D01*
X0009570Y0215359D01*
X0009808Y0215688D01*
X0010054Y0216011D01*
X0010307Y0216328D01*
X0010569Y0216638D01*
X0010837Y0216942D01*
X0011114Y0217240D01*
X0011397Y0217530D01*
X0011687Y0217813D01*
X0011985Y0218090D01*
X0012289Y0218358D01*
X0012599Y0218620D01*
X0012916Y0218873D01*
X0013239Y0219119D01*
X0013568Y0219357D01*
X0013903Y0219586D01*
X0014243Y0219808D01*
X0014588Y0220021D01*
X0014939Y0220225D01*
X0015294Y0220421D01*
X0015655Y0220607D01*
X0016019Y0220785D01*
X0016388Y0220954D01*
X0016761Y0221114D01*
X0017138Y0221265D01*
X0017519Y0221406D01*
X0017902Y0221538D01*
X0018289Y0221661D01*
X0018679Y0221774D01*
X0019071Y0221877D01*
X0019466Y0221971D01*
X0019863Y0222055D01*
X0020262Y0222130D01*
X0020663Y0222194D01*
X0021065Y0222249D01*
X0021468Y0222293D01*
X0021873Y0222328D01*
X0022278Y0222353D01*
X0022683Y0222368D01*
X0023089Y0222373D01*
X0023495Y0222368D01*
X0023900Y0222353D01*
X0024305Y0222328D01*
X0024710Y0222293D01*
X0025113Y0222249D01*
X0025515Y0222194D01*
X0025916Y0222130D01*
X0026315Y0222055D01*
X0026712Y0221971D01*
X0027107Y0221877D01*
X0027499Y0221774D01*
X0027889Y0221661D01*
X0028276Y0221538D01*
X0028659Y0221406D01*
X0029040Y0221265D01*
X0029417Y0221114D01*
X0029790Y0220954D01*
X0030159Y0220785D01*
X0030523Y0220607D01*
X0030884Y0220421D01*
X0031239Y0220225D01*
X0031590Y0220021D01*
X0031935Y0219808D01*
X0032275Y0219586D01*
X0032610Y0219357D01*
X0032939Y0219119D01*
X0033262Y0218873D01*
X0033579Y0218620D01*
X0033889Y0218358D01*
X0034193Y0218090D01*
X0034491Y0217813D01*
X0034781Y0217530D01*
X0035064Y0217240D01*
X0035341Y0216942D01*
X0035609Y0216638D01*
X0035871Y0216328D01*
X0036124Y0216011D01*
X0036370Y0215688D01*
X0036608Y0215359D01*
X0036837Y0215024D01*
X0037059Y0214684D01*
X0037272Y0214339D01*
X0037476Y0213988D01*
X0037672Y0213633D01*
X0037858Y0213272D01*
X0038036Y0212908D01*
X0038205Y0212539D01*
X0038365Y0212166D01*
X0038516Y0211789D01*
X0038657Y0211408D01*
X0038789Y0211025D01*
X0038912Y0210638D01*
X0039025Y0210248D01*
X0039128Y0209856D01*
X0039222Y0209461D01*
X0039306Y0209064D01*
X0039381Y0208665D01*
X0039445Y0208264D01*
X0039500Y0207862D01*
X0039544Y0207459D01*
X0039579Y0207054D01*
X0039604Y0206649D01*
X0039619Y0206244D01*
X0039624Y0205838D01*
X0039619Y0205432D01*
X0039604Y0205027D01*
X0039579Y0204622D01*
X0039544Y0204217D01*
X0039500Y0203814D01*
X0039445Y0203412D01*
X0039381Y0203011D01*
X0039306Y0202612D01*
X0039222Y0202215D01*
X0039128Y0201820D01*
X0039025Y0201428D01*
X0038912Y0201038D01*
X0038789Y0200651D01*
X0038657Y0200268D01*
X0038516Y0199887D01*
X0038365Y0199510D01*
X0038205Y0199137D01*
X0038036Y0198768D01*
X0037858Y0198404D01*
X0037672Y0198043D01*
X0037476Y0197688D01*
X0037272Y0197337D01*
X0037059Y0196992D01*
X0036837Y0196652D01*
X0036608Y0196317D01*
X0036370Y0195988D01*
X0036124Y0195665D01*
X0035871Y0195348D01*
X0035609Y0195038D01*
X0035341Y0194734D01*
X0035064Y0194436D01*
X0034781Y0194146D01*
X0034491Y0193863D01*
X0034193Y0193586D01*
X0033889Y0193318D01*
X0033579Y0193056D01*
X0033262Y0192803D01*
X0032939Y0192557D01*
X0032610Y0192319D01*
X0032275Y0192090D01*
X0031935Y0191868D01*
X0031590Y0191655D01*
X0031239Y0191451D01*
X0030884Y0191255D01*
X0030523Y0191069D01*
X0030159Y0190891D01*
X0029790Y0190722D01*
X0029417Y0190562D01*
X0029040Y0190411D01*
X0028659Y0190270D01*
X0028276Y0190138D01*
X0027889Y0190015D01*
X0027499Y0189902D01*
X0027107Y0189799D01*
X0026712Y0189705D01*
X0026315Y0189621D01*
X0025916Y0189546D01*
X0025515Y0189482D01*
X0025113Y0189427D01*
X0024710Y0189383D01*
X0024305Y0189348D01*
X0023900Y0189323D01*
X0023495Y0189308D01*
X0023089Y0189303D01*
X0022683Y0189308D01*
X0022278Y0189323D01*
X0021873Y0189348D01*
X0021468Y0189383D01*
X0021065Y0189427D01*
X0020663Y0189482D01*
X0020262Y0189546D01*
X0019863Y0189621D01*
X0019466Y0189705D01*
X0019071Y0189799D01*
X0018679Y0189902D01*
X0018289Y0190015D01*
X0017902Y0190138D01*
X0017519Y0190270D01*
X0017138Y0190411D01*
X0016761Y0190562D01*
X0016388Y0190722D01*
X0016019Y0190891D01*
X0015655Y0191069D01*
X0015294Y0191255D01*
X0014939Y0191451D01*
X0014588Y0191655D01*
X0014243Y0191868D01*
X0013903Y0192090D01*
X0013568Y0192319D01*
X0013239Y0192557D01*
X0012916Y0192803D01*
X0012599Y0193056D01*
X0012289Y0193318D01*
X0011985Y0193586D01*
X0011687Y0193863D01*
X0011397Y0194146D01*
X0011114Y0194436D01*
X0010837Y0194734D01*
X0010569Y0195038D01*
X0010307Y0195348D01*
X0010054Y0195665D01*
X0009808Y0195988D01*
X0009570Y0196317D01*
X0009341Y0196652D01*
X0009119Y0196992D01*
X0008906Y0197337D01*
X0008702Y0197688D01*
X0008506Y0198043D01*
X0008320Y0198404D01*
X0008142Y0198768D01*
X0007973Y0199137D01*
X0007813Y0199510D01*
X0007662Y0199887D01*
X0007521Y0200268D01*
X0007389Y0200651D01*
X0007266Y0201038D01*
X0007153Y0201428D01*
X0007050Y0201820D01*
X0006956Y0202215D01*
X0006872Y0202612D01*
X0006797Y0203011D01*
X0006733Y0203412D01*
X0006678Y0203814D01*
X0006634Y0204217D01*
X0006599Y0204622D01*
X0006574Y0205027D01*
X0006559Y0205432D01*
X0006554Y0205838D01*
X0006667Y0144572D02*
X0006672Y0144978D01*
X0006687Y0145383D01*
X0006712Y0145788D01*
X0006747Y0146193D01*
X0006791Y0146596D01*
X0006846Y0146998D01*
X0006910Y0147399D01*
X0006985Y0147798D01*
X0007069Y0148195D01*
X0007163Y0148590D01*
X0007266Y0148982D01*
X0007379Y0149372D01*
X0007502Y0149759D01*
X0007634Y0150142D01*
X0007775Y0150523D01*
X0007926Y0150900D01*
X0008086Y0151273D01*
X0008255Y0151642D01*
X0008433Y0152006D01*
X0008619Y0152367D01*
X0008815Y0152722D01*
X0009019Y0153073D01*
X0009232Y0153418D01*
X0009454Y0153758D01*
X0009683Y0154093D01*
X0009921Y0154422D01*
X0010167Y0154745D01*
X0010420Y0155062D01*
X0010682Y0155372D01*
X0010950Y0155676D01*
X0011227Y0155974D01*
X0011510Y0156264D01*
X0011800Y0156547D01*
X0012098Y0156824D01*
X0012402Y0157092D01*
X0012712Y0157354D01*
X0013029Y0157607D01*
X0013352Y0157853D01*
X0013681Y0158091D01*
X0014016Y0158320D01*
X0014356Y0158542D01*
X0014701Y0158755D01*
X0015052Y0158959D01*
X0015407Y0159155D01*
X0015768Y0159341D01*
X0016132Y0159519D01*
X0016501Y0159688D01*
X0016874Y0159848D01*
X0017251Y0159999D01*
X0017632Y0160140D01*
X0018015Y0160272D01*
X0018402Y0160395D01*
X0018792Y0160508D01*
X0019184Y0160611D01*
X0019579Y0160705D01*
X0019976Y0160789D01*
X0020375Y0160864D01*
X0020776Y0160928D01*
X0021178Y0160983D01*
X0021581Y0161027D01*
X0021986Y0161062D01*
X0022391Y0161087D01*
X0022796Y0161102D01*
X0023202Y0161107D01*
X0023608Y0161102D01*
X0024013Y0161087D01*
X0024418Y0161062D01*
X0024823Y0161027D01*
X0025226Y0160983D01*
X0025628Y0160928D01*
X0026029Y0160864D01*
X0026428Y0160789D01*
X0026825Y0160705D01*
X0027220Y0160611D01*
X0027612Y0160508D01*
X0028002Y0160395D01*
X0028389Y0160272D01*
X0028772Y0160140D01*
X0029153Y0159999D01*
X0029530Y0159848D01*
X0029903Y0159688D01*
X0030272Y0159519D01*
X0030636Y0159341D01*
X0030997Y0159155D01*
X0031352Y0158959D01*
X0031703Y0158755D01*
X0032048Y0158542D01*
X0032388Y0158320D01*
X0032723Y0158091D01*
X0033052Y0157853D01*
X0033375Y0157607D01*
X0033692Y0157354D01*
X0034002Y0157092D01*
X0034306Y0156824D01*
X0034604Y0156547D01*
X0034894Y0156264D01*
X0035177Y0155974D01*
X0035454Y0155676D01*
X0035722Y0155372D01*
X0035984Y0155062D01*
X0036237Y0154745D01*
X0036483Y0154422D01*
X0036721Y0154093D01*
X0036950Y0153758D01*
X0037172Y0153418D01*
X0037385Y0153073D01*
X0037589Y0152722D01*
X0037785Y0152367D01*
X0037971Y0152006D01*
X0038149Y0151642D01*
X0038318Y0151273D01*
X0038478Y0150900D01*
X0038629Y0150523D01*
X0038770Y0150142D01*
X0038902Y0149759D01*
X0039025Y0149372D01*
X0039138Y0148982D01*
X0039241Y0148590D01*
X0039335Y0148195D01*
X0039419Y0147798D01*
X0039494Y0147399D01*
X0039558Y0146998D01*
X0039613Y0146596D01*
X0039657Y0146193D01*
X0039692Y0145788D01*
X0039717Y0145383D01*
X0039732Y0144978D01*
X0039737Y0144572D01*
X0039732Y0144166D01*
X0039717Y0143761D01*
X0039692Y0143356D01*
X0039657Y0142951D01*
X0039613Y0142548D01*
X0039558Y0142146D01*
X0039494Y0141745D01*
X0039419Y0141346D01*
X0039335Y0140949D01*
X0039241Y0140554D01*
X0039138Y0140162D01*
X0039025Y0139772D01*
X0038902Y0139385D01*
X0038770Y0139002D01*
X0038629Y0138621D01*
X0038478Y0138244D01*
X0038318Y0137871D01*
X0038149Y0137502D01*
X0037971Y0137138D01*
X0037785Y0136777D01*
X0037589Y0136422D01*
X0037385Y0136071D01*
X0037172Y0135726D01*
X0036950Y0135386D01*
X0036721Y0135051D01*
X0036483Y0134722D01*
X0036237Y0134399D01*
X0035984Y0134082D01*
X0035722Y0133772D01*
X0035454Y0133468D01*
X0035177Y0133170D01*
X0034894Y0132880D01*
X0034604Y0132597D01*
X0034306Y0132320D01*
X0034002Y0132052D01*
X0033692Y0131790D01*
X0033375Y0131537D01*
X0033052Y0131291D01*
X0032723Y0131053D01*
X0032388Y0130824D01*
X0032048Y0130602D01*
X0031703Y0130389D01*
X0031352Y0130185D01*
X0030997Y0129989D01*
X0030636Y0129803D01*
X0030272Y0129625D01*
X0029903Y0129456D01*
X0029530Y0129296D01*
X0029153Y0129145D01*
X0028772Y0129004D01*
X0028389Y0128872D01*
X0028002Y0128749D01*
X0027612Y0128636D01*
X0027220Y0128533D01*
X0026825Y0128439D01*
X0026428Y0128355D01*
X0026029Y0128280D01*
X0025628Y0128216D01*
X0025226Y0128161D01*
X0024823Y0128117D01*
X0024418Y0128082D01*
X0024013Y0128057D01*
X0023608Y0128042D01*
X0023202Y0128037D01*
X0022796Y0128042D01*
X0022391Y0128057D01*
X0021986Y0128082D01*
X0021581Y0128117D01*
X0021178Y0128161D01*
X0020776Y0128216D01*
X0020375Y0128280D01*
X0019976Y0128355D01*
X0019579Y0128439D01*
X0019184Y0128533D01*
X0018792Y0128636D01*
X0018402Y0128749D01*
X0018015Y0128872D01*
X0017632Y0129004D01*
X0017251Y0129145D01*
X0016874Y0129296D01*
X0016501Y0129456D01*
X0016132Y0129625D01*
X0015768Y0129803D01*
X0015407Y0129989D01*
X0015052Y0130185D01*
X0014701Y0130389D01*
X0014356Y0130602D01*
X0014016Y0130824D01*
X0013681Y0131053D01*
X0013352Y0131291D01*
X0013029Y0131537D01*
X0012712Y0131790D01*
X0012402Y0132052D01*
X0012098Y0132320D01*
X0011800Y0132597D01*
X0011510Y0132880D01*
X0011227Y0133170D01*
X0010950Y0133468D01*
X0010682Y0133772D01*
X0010420Y0134082D01*
X0010167Y0134399D01*
X0009921Y0134722D01*
X0009683Y0135051D01*
X0009454Y0135386D01*
X0009232Y0135726D01*
X0009019Y0136071D01*
X0008815Y0136422D01*
X0008619Y0136777D01*
X0008433Y0137138D01*
X0008255Y0137502D01*
X0008086Y0137871D01*
X0007926Y0138244D01*
X0007775Y0138621D01*
X0007634Y0139002D01*
X0007502Y0139385D01*
X0007379Y0139772D01*
X0007266Y0140162D01*
X0007163Y0140554D01*
X0007069Y0140949D01*
X0006985Y0141346D01*
X0006910Y0141745D01*
X0006846Y0142146D01*
X0006791Y0142548D01*
X0006747Y0142951D01*
X0006712Y0143356D01*
X0006687Y0143761D01*
X0006672Y0144166D01*
X0006667Y0144572D01*
X0006365Y0075807D02*
X0006370Y0076213D01*
X0006385Y0076618D01*
X0006410Y0077023D01*
X0006445Y0077428D01*
X0006489Y0077831D01*
X0006544Y0078233D01*
X0006608Y0078634D01*
X0006683Y0079033D01*
X0006767Y0079430D01*
X0006861Y0079825D01*
X0006964Y0080217D01*
X0007077Y0080607D01*
X0007200Y0080994D01*
X0007332Y0081377D01*
X0007473Y0081758D01*
X0007624Y0082135D01*
X0007784Y0082508D01*
X0007953Y0082877D01*
X0008131Y0083241D01*
X0008317Y0083602D01*
X0008513Y0083957D01*
X0008717Y0084308D01*
X0008930Y0084653D01*
X0009152Y0084993D01*
X0009381Y0085328D01*
X0009619Y0085657D01*
X0009865Y0085980D01*
X0010118Y0086297D01*
X0010380Y0086607D01*
X0010648Y0086911D01*
X0010925Y0087209D01*
X0011208Y0087499D01*
X0011498Y0087782D01*
X0011796Y0088059D01*
X0012100Y0088327D01*
X0012410Y0088589D01*
X0012727Y0088842D01*
X0013050Y0089088D01*
X0013379Y0089326D01*
X0013714Y0089555D01*
X0014054Y0089777D01*
X0014399Y0089990D01*
X0014750Y0090194D01*
X0015105Y0090390D01*
X0015466Y0090576D01*
X0015830Y0090754D01*
X0016199Y0090923D01*
X0016572Y0091083D01*
X0016949Y0091234D01*
X0017330Y0091375D01*
X0017713Y0091507D01*
X0018100Y0091630D01*
X0018490Y0091743D01*
X0018882Y0091846D01*
X0019277Y0091940D01*
X0019674Y0092024D01*
X0020073Y0092099D01*
X0020474Y0092163D01*
X0020876Y0092218D01*
X0021279Y0092262D01*
X0021684Y0092297D01*
X0022089Y0092322D01*
X0022494Y0092337D01*
X0022900Y0092342D01*
X0023306Y0092337D01*
X0023711Y0092322D01*
X0024116Y0092297D01*
X0024521Y0092262D01*
X0024924Y0092218D01*
X0025326Y0092163D01*
X0025727Y0092099D01*
X0026126Y0092024D01*
X0026523Y0091940D01*
X0026918Y0091846D01*
X0027310Y0091743D01*
X0027700Y0091630D01*
X0028087Y0091507D01*
X0028470Y0091375D01*
X0028851Y0091234D01*
X0029228Y0091083D01*
X0029601Y0090923D01*
X0029970Y0090754D01*
X0030334Y0090576D01*
X0030695Y0090390D01*
X0031050Y0090194D01*
X0031401Y0089990D01*
X0031746Y0089777D01*
X0032086Y0089555D01*
X0032421Y0089326D01*
X0032750Y0089088D01*
X0033073Y0088842D01*
X0033390Y0088589D01*
X0033700Y0088327D01*
X0034004Y0088059D01*
X0034302Y0087782D01*
X0034592Y0087499D01*
X0034875Y0087209D01*
X0035152Y0086911D01*
X0035420Y0086607D01*
X0035682Y0086297D01*
X0035935Y0085980D01*
X0036181Y0085657D01*
X0036419Y0085328D01*
X0036648Y0084993D01*
X0036870Y0084653D01*
X0037083Y0084308D01*
X0037287Y0083957D01*
X0037483Y0083602D01*
X0037669Y0083241D01*
X0037847Y0082877D01*
X0038016Y0082508D01*
X0038176Y0082135D01*
X0038327Y0081758D01*
X0038468Y0081377D01*
X0038600Y0080994D01*
X0038723Y0080607D01*
X0038836Y0080217D01*
X0038939Y0079825D01*
X0039033Y0079430D01*
X0039117Y0079033D01*
X0039192Y0078634D01*
X0039256Y0078233D01*
X0039311Y0077831D01*
X0039355Y0077428D01*
X0039390Y0077023D01*
X0039415Y0076618D01*
X0039430Y0076213D01*
X0039435Y0075807D01*
X0039430Y0075401D01*
X0039415Y0074996D01*
X0039390Y0074591D01*
X0039355Y0074186D01*
X0039311Y0073783D01*
X0039256Y0073381D01*
X0039192Y0072980D01*
X0039117Y0072581D01*
X0039033Y0072184D01*
X0038939Y0071789D01*
X0038836Y0071397D01*
X0038723Y0071007D01*
X0038600Y0070620D01*
X0038468Y0070237D01*
X0038327Y0069856D01*
X0038176Y0069479D01*
X0038016Y0069106D01*
X0037847Y0068737D01*
X0037669Y0068373D01*
X0037483Y0068012D01*
X0037287Y0067657D01*
X0037083Y0067306D01*
X0036870Y0066961D01*
X0036648Y0066621D01*
X0036419Y0066286D01*
X0036181Y0065957D01*
X0035935Y0065634D01*
X0035682Y0065317D01*
X0035420Y0065007D01*
X0035152Y0064703D01*
X0034875Y0064405D01*
X0034592Y0064115D01*
X0034302Y0063832D01*
X0034004Y0063555D01*
X0033700Y0063287D01*
X0033390Y0063025D01*
X0033073Y0062772D01*
X0032750Y0062526D01*
X0032421Y0062288D01*
X0032086Y0062059D01*
X0031746Y0061837D01*
X0031401Y0061624D01*
X0031050Y0061420D01*
X0030695Y0061224D01*
X0030334Y0061038D01*
X0029970Y0060860D01*
X0029601Y0060691D01*
X0029228Y0060531D01*
X0028851Y0060380D01*
X0028470Y0060239D01*
X0028087Y0060107D01*
X0027700Y0059984D01*
X0027310Y0059871D01*
X0026918Y0059768D01*
X0026523Y0059674D01*
X0026126Y0059590D01*
X0025727Y0059515D01*
X0025326Y0059451D01*
X0024924Y0059396D01*
X0024521Y0059352D01*
X0024116Y0059317D01*
X0023711Y0059292D01*
X0023306Y0059277D01*
X0022900Y0059272D01*
X0022494Y0059277D01*
X0022089Y0059292D01*
X0021684Y0059317D01*
X0021279Y0059352D01*
X0020876Y0059396D01*
X0020474Y0059451D01*
X0020073Y0059515D01*
X0019674Y0059590D01*
X0019277Y0059674D01*
X0018882Y0059768D01*
X0018490Y0059871D01*
X0018100Y0059984D01*
X0017713Y0060107D01*
X0017330Y0060239D01*
X0016949Y0060380D01*
X0016572Y0060531D01*
X0016199Y0060691D01*
X0015830Y0060860D01*
X0015466Y0061038D01*
X0015105Y0061224D01*
X0014750Y0061420D01*
X0014399Y0061624D01*
X0014054Y0061837D01*
X0013714Y0062059D01*
X0013379Y0062288D01*
X0013050Y0062526D01*
X0012727Y0062772D01*
X0012410Y0063025D01*
X0012100Y0063287D01*
X0011796Y0063555D01*
X0011498Y0063832D01*
X0011208Y0064115D01*
X0010925Y0064405D01*
X0010648Y0064703D01*
X0010380Y0065007D01*
X0010118Y0065317D01*
X0009865Y0065634D01*
X0009619Y0065957D01*
X0009381Y0066286D01*
X0009152Y0066621D01*
X0008930Y0066961D01*
X0008717Y0067306D01*
X0008513Y0067657D01*
X0008317Y0068012D01*
X0008131Y0068373D01*
X0007953Y0068737D01*
X0007784Y0069106D01*
X0007624Y0069479D01*
X0007473Y0069856D01*
X0007332Y0070237D01*
X0007200Y0070620D01*
X0007077Y0071007D01*
X0006964Y0071397D01*
X0006861Y0071789D01*
X0006767Y0072184D01*
X0006683Y0072581D01*
X0006608Y0072980D01*
X0006544Y0073381D01*
X0006489Y0073783D01*
X0006445Y0074186D01*
X0006410Y0074591D01*
X0006385Y0074996D01*
X0006370Y0075401D01*
X0006365Y0075807D01*
M02*
